%TF.GenerationSoftware,KiCad,Pcbnew,8.0.1*%
%TF.CreationDate,2024-04-03T22:21:12+02:00*%
%TF.ProjectId,LEDTischLampe,4c454454-6973-4636-984c-616d70652e6b,rev?*%
%TF.SameCoordinates,Original*%
%TF.FileFunction,Copper,L1,Top*%
%TF.FilePolarity,Positive*%
%FSLAX46Y46*%
G04 Gerber Fmt 4.6, Leading zero omitted, Abs format (unit mm)*
G04 Created by KiCad (PCBNEW 8.0.1) date 2024-04-03 22:21:12*
%MOMM*%
%LPD*%
G01*
G04 APERTURE LIST*
G04 Aperture macros list*
%AMRotRect*
0 Rectangle, with rotation*
0 The origin of the aperture is its center*
0 $1 length*
0 $2 width*
0 $3 Rotation angle, in degrees counterclockwise*
0 Add horizontal line*
21,1,$1,$2,0,0,$3*%
G04 Aperture macros list end*
%TA.AperFunction,NonConductor*%
%ADD10C,0.200000*%
%TD*%
%TA.AperFunction,SMDPad,CuDef*%
%ADD11RotRect,1.500000X1.000000X210.000000*%
%TD*%
%TA.AperFunction,SMDPad,CuDef*%
%ADD12RotRect,1.500000X1.000000X120.000000*%
%TD*%
%TA.AperFunction,SMDPad,CuDef*%
%ADD13R,1.000000X1.500000*%
%TD*%
%TA.AperFunction,SMDPad,CuDef*%
%ADD14RotRect,1.500000X1.000000X330.000000*%
%TD*%
%TA.AperFunction,SMDPad,CuDef*%
%ADD15RotRect,1.500000X1.000000X150.000000*%
%TD*%
%TA.AperFunction,SMDPad,CuDef*%
%ADD16RotRect,1.500000X1.000000X240.000000*%
%TD*%
%TA.AperFunction,SMDPad,CuDef*%
%ADD17RotRect,1.500000X1.000000X30.000000*%
%TD*%
%TA.AperFunction,SMDPad,CuDef*%
%ADD18R,1.500000X1.000000*%
%TD*%
%TA.AperFunction,SMDPad,CuDef*%
%ADD19RotRect,1.500000X1.000000X60.000000*%
%TD*%
%TA.AperFunction,SMDPad,CuDef*%
%ADD20R,1.500000X0.900000*%
%TD*%
%TA.AperFunction,SMDPad,CuDef*%
%ADD21R,0.900000X1.500000*%
%TD*%
%TA.AperFunction,SMDPad,CuDef*%
%ADD22R,1.050000X1.050000*%
%TD*%
%TA.AperFunction,ComponentPad*%
%ADD23C,0.475000*%
%TD*%
%TA.AperFunction,SMDPad,CuDef*%
%ADD24R,4.200000X4.200000*%
%TD*%
%TA.AperFunction,SMDPad,CuDef*%
%ADD25RotRect,1.500000X1.000000X300.000000*%
%TD*%
G04 APERTURE END LIST*
D10*
X119380001Y-96520000D02*
G75*
G02*
X119379999Y-96520000I-1J0D01*
G01*
X119379999Y-96520000D02*
G75*
G02*
X119380001Y-96520000I1J0D01*
G01*
D11*
%TO.P,D6,1,VSS*%
%TO.N,GND*%
X105579999Y-55153561D03*
%TO.P,D6,2,DIN*%
%TO.N,Net-(D5-DOUT)*%
X107179999Y-57924843D03*
%TO.P,D6,3,VDD*%
%TO.N,VBUS*%
X111423523Y-55474843D03*
%TO.P,D6,4,DOUT*%
%TO.N,Net-(D6-DOUT)*%
X109823523Y-52703561D03*
%TD*%
D12*
%TO.P,D5,1,VSS*%
%TO.N,GND*%
X169817621Y-75936476D03*
%TO.P,D5,2,DIN*%
%TO.N,unconnected-(D5-DIN)*%
X167046339Y-77536476D03*
%TO.P,D5,3,VDD*%
%TO.N,VBUS*%
X169496339Y-81780000D03*
%TO.P,D5,4,DOUT*%
%TO.N,Net-(D5-DOUT)*%
X172267621Y-80180000D03*
%TD*%
D13*
%TO.P,D8,1,VSS*%
%TO.N,GND*%
X170180002Y-98880000D03*
%TO.P,D8,2,DIN*%
%TO.N,Net-(D7-DOUT)*%
X173380002Y-98880000D03*
%TO.P,D8,3,VDD*%
%TO.N,VBUS*%
X173380002Y-93980000D03*
%TO.P,D8,4,DOUT*%
%TO.N,Net-(D8-DOUT)*%
X170180002Y-93980000D03*
%TD*%
D14*
%TO.P,D6,1,VSS*%
%TO.N,GND*%
X117780000Y-142471282D03*
%TO.P,D6,2,DIN*%
%TO.N,Net-(D5-DOUT)*%
X119380000Y-139700000D03*
%TO.P,D6,3,VDD*%
%TO.N,VBUS*%
X115136476Y-137250000D03*
%TO.P,D6,4,DOUT*%
%TO.N,Net-(D6-DOUT)*%
X113536476Y-140021282D03*
%TD*%
D13*
%TO.P,D5,1,VSS*%
%TO.N,GND*%
X95860001Y-101600000D03*
%TO.P,D5,2,DIN*%
%TO.N,unconnected-(D5-DIN)*%
X99060001Y-101600000D03*
%TO.P,D5,3,VDD*%
%TO.N,VBUS*%
X99060001Y-96700000D03*
%TO.P,D5,4,DOUT*%
%TO.N,Net-(D5-DOUT)*%
X95860001Y-96700000D03*
%TD*%
D14*
%TO.P,D7,1,VSS*%
%TO.N,GND*%
X112200000Y-152136124D03*
%TO.P,D7,2,DIN*%
%TO.N,Net-(D6-DOUT)*%
X113800000Y-149364842D03*
%TO.P,D7,3,VDD*%
%TO.N,VBUS*%
X109556476Y-146914842D03*
%TO.P,D7,4,DOUT*%
%TO.N,Net-(D7-DOUT)*%
X107956476Y-149686124D03*
%TD*%
D15*
%TO.P,D8,1,VSS*%
%TO.N,GND*%
X167640000Y-30480000D03*
%TO.P,D8,2,DIN*%
%TO.N,Net-(D7-DOUT)*%
X166040000Y-33251282D03*
%TO.P,D8,3,VDD*%
%TO.N,VBUS*%
X170283524Y-35701282D03*
%TO.P,D8,4,DOUT*%
%TO.N,Net-(D8-DOUT)*%
X171883524Y-32930000D03*
%TD*%
D13*
%TO.P,D5,1,VSS*%
%TO.N,GND*%
X203200001Y-98879999D03*
%TO.P,D5,2,DIN*%
%TO.N,unconnected-(D5-DIN)*%
X206400001Y-98879999D03*
%TO.P,D5,3,VDD*%
%TO.N,VBUS*%
X206400001Y-93979999D03*
%TO.P,D5,4,DOUT*%
%TO.N,Net-(D5-DOUT)*%
X203200001Y-93979999D03*
%TD*%
D16*
%TO.P,D7,1,VSS*%
%TO.N,GND*%
X79003876Y-69020000D03*
%TO.P,D7,2,DIN*%
%TO.N,Net-(D6-DOUT)*%
X81775158Y-70620000D03*
%TO.P,D7,3,VDD*%
%TO.N,VBUS*%
X84225158Y-66376476D03*
%TO.P,D7,4,DOUT*%
%TO.N,Net-(D7-DOUT)*%
X81453876Y-64776476D03*
%TD*%
D17*
%TO.P,D5,1,VSS*%
%TO.N,GND*%
X153999999Y-126052463D03*
%TO.P,D5,2,DIN*%
%TO.N,unconnected-(D5-DIN)*%
X152399999Y-123281181D03*
%TO.P,D5,3,VDD*%
%TO.N,VBUS*%
X148156475Y-125731181D03*
%TO.P,D5,4,DOUT*%
%TO.N,Net-(D5-DOUT)*%
X149756475Y-128502463D03*
%TD*%
D18*
%TO.P,D6,1,VSS*%
%TO.N,GND*%
X137070000Y-34620000D03*
%TO.P,D6,2,DIN*%
%TO.N,Net-(D5-DOUT)*%
X137070000Y-31420000D03*
%TO.P,D6,3,VDD*%
%TO.N,VBUS*%
X132170000Y-31420000D03*
%TO.P,D6,4,DOUT*%
%TO.N,Net-(D6-DOUT)*%
X132170000Y-34620000D03*
%TD*%
%TO.P,D7,1,VSS*%
%TO.N,GND*%
X137160000Y-154059999D03*
%TO.P,D7,2,DIN*%
%TO.N,Net-(D6-DOUT)*%
X137160000Y-150859999D03*
%TO.P,D7,3,VDD*%
%TO.N,VBUS*%
X132260000Y-150859999D03*
%TO.P,D7,4,DOUT*%
%TO.N,Net-(D7-DOUT)*%
X132260000Y-154059999D03*
%TD*%
D11*
%TO.P,D8,1,VSS*%
%TO.N,GND*%
X94150000Y-35356222D03*
%TO.P,D8,2,DIN*%
%TO.N,Net-(D7-DOUT)*%
X95750000Y-38127504D03*
%TO.P,D8,3,VDD*%
%TO.N,VBUS*%
X99993524Y-35677504D03*
%TO.P,D8,4,DOUT*%
%TO.N,Net-(D8-DOUT)*%
X98393524Y-32906222D03*
%TD*%
D13*
%TO.P,D6,1,VSS*%
%TO.N,GND*%
X85700000Y-101600000D03*
%TO.P,D6,2,DIN*%
%TO.N,Net-(D5-DOUT)*%
X88900000Y-101600000D03*
%TO.P,D6,3,VDD*%
%TO.N,VBUS*%
X88900000Y-96700000D03*
%TO.P,D6,4,DOUT*%
%TO.N,Net-(D6-DOUT)*%
X85700000Y-96700000D03*
%TD*%
D12*
%TO.P,D7,1,VSS*%
%TO.N,GND*%
X188281282Y-65276476D03*
%TO.P,D7,2,DIN*%
%TO.N,Net-(D6-DOUT)*%
X185510000Y-66876476D03*
%TO.P,D7,3,VDD*%
%TO.N,VBUS*%
X187960000Y-71120000D03*
%TO.P,D7,4,DOUT*%
%TO.N,Net-(D7-DOUT)*%
X190731282Y-69520000D03*
%TD*%
D16*
%TO.P,D5,1,VSS*%
%TO.N,GND*%
X97467537Y-79680000D03*
%TO.P,D5,2,DIN*%
%TO.N,unconnected-(D5-DIN)*%
X100238819Y-81280000D03*
%TO.P,D5,3,VDD*%
%TO.N,VBUS*%
X102688819Y-77036476D03*
%TO.P,D5,4,DOUT*%
%TO.N,Net-(D5-DOUT)*%
X99917537Y-75436476D03*
%TD*%
D11*
%TO.P,D5,1,VSS*%
%TO.N,GND*%
X110660000Y-63952380D03*
%TO.P,D5,2,DIN*%
%TO.N,unconnected-(D5-DIN)*%
X112260000Y-66723662D03*
%TO.P,D5,3,VDD*%
%TO.N,VBUS*%
X116503524Y-64273662D03*
%TO.P,D5,4,DOUT*%
%TO.N,Net-(D5-DOUT)*%
X114903524Y-61502380D03*
%TD*%
D19*
%TO.P,D8,1,VSS*%
%TO.N,GND*%
X195288621Y-129869999D03*
%TO.P,D8,2,DIN*%
%TO.N,Net-(D7-DOUT)*%
X192517339Y-128269999D03*
%TO.P,D8,3,VDD*%
%TO.N,VBUS*%
X190067339Y-132513523D03*
%TO.P,D8,4,DOUT*%
%TO.N,Net-(D8-DOUT)*%
X192838621Y-134113523D03*
%TD*%
D16*
%TO.P,D6,1,VSS*%
%TO.N,GND*%
X88668718Y-74600000D03*
%TO.P,D6,2,DIN*%
%TO.N,Net-(D5-DOUT)*%
X91440000Y-76200000D03*
%TO.P,D6,3,VDD*%
%TO.N,VBUS*%
X93890000Y-71956476D03*
%TO.P,D6,4,DOUT*%
%TO.N,Net-(D6-DOUT)*%
X91118718Y-70356476D03*
%TD*%
%TO.P,D8,1,VSS*%
%TO.N,GND*%
X68871379Y-63170001D03*
%TO.P,D8,2,DIN*%
%TO.N,Net-(D7-DOUT)*%
X71642661Y-64770001D03*
%TO.P,D8,3,VDD*%
%TO.N,VBUS*%
X74092661Y-60526477D03*
%TO.P,D8,4,DOUT*%
%TO.N,Net-(D8-DOUT)*%
X71321379Y-58926477D03*
%TD*%
D20*
%TO.P,U1,1,GND*%
%TO.N,GND*%
X104452500Y-89180000D03*
%TO.P,U1,2,VDD*%
%TO.N,+3V3*%
X104452500Y-90450000D03*
%TO.P,U1,3,EN*%
%TO.N,EN*%
X104452500Y-91720000D03*
%TO.P,U1,4,SENSOR_VP*%
%TO.N,UserButton*%
X104452500Y-92990000D03*
%TO.P,U1,5,SENSOR_VN*%
%TO.N,PowerMES*%
X104452500Y-94260000D03*
%TO.P,U1,6,IO34*%
%TO.N,IO34*%
X104452500Y-95530000D03*
%TO.P,U1,7,IO35*%
%TO.N,IO35*%
X104452500Y-96800000D03*
%TO.P,U1,8,IO32*%
%TO.N,IO32*%
X104452500Y-98070000D03*
%TO.P,U1,9,IO33*%
%TO.N,IO33*%
X104452500Y-99340000D03*
%TO.P,U1,10,IO25*%
%TO.N,IO25_RXD0*%
X104452500Y-100610000D03*
%TO.P,U1,11,IO26*%
%TO.N,IO26_RXD1*%
X104452500Y-101880000D03*
%TO.P,U1,12,IO27*%
%TO.N,IO27_CRS_DV*%
X104452500Y-103150000D03*
%TO.P,U1,13,IO14*%
%TO.N,PowerSW*%
X104452500Y-104420000D03*
%TO.P,U1,14,IO12*%
%TO.N,Net-(J8-Pin_1)*%
X104452500Y-105690000D03*
D21*
%TO.P,U1,15,GND*%
%TO.N,GND*%
X107492500Y-106940000D03*
%TO.P,U1,16,IO13*%
%TO.N,IO13_RXER*%
X108762500Y-106940000D03*
%TO.P,U1,17,SHD/SD2*%
%TO.N,unconnected-(U1-SHD{slash}SD2)*%
X110032500Y-106940000D03*
%TO.P,U1,18,SWP/SD3*%
%TO.N,unconnected-(U1-SWP{slash}SD3)*%
X111302500Y-106940000D03*
%TO.P,U1,19,SCS/CMD*%
%TO.N,unconnected-(U1-SCS{slash}CMD)*%
X112572500Y-106940000D03*
%TO.P,U1,20,SCK/CLK*%
%TO.N,unconnected-(U1-SCK{slash}CLK)*%
X113842500Y-106940000D03*
%TO.P,U1,21,SDO/SD0*%
%TO.N,unconnected-(U1-SDO{slash}SD0)*%
X115112500Y-106940000D03*
%TO.P,U1,22,SDI/SD1*%
%TO.N,unconnected-(U1-SDI{slash}SD1)*%
X116382500Y-106940000D03*
%TO.P,U1,23,IO15*%
%TO.N,Net-(J8-Pin_2)*%
X117652500Y-106940000D03*
%TO.P,U1,24,IO2*%
%TO.N,WS28_Out*%
X118922500Y-106940000D03*
D20*
%TO.P,U1,25,IO0*%
%TO.N,IO0*%
X121952500Y-105690000D03*
%TO.P,U1,26,IO4*%
%TO.N,SCL*%
X121952500Y-104420000D03*
%TO.P,U1,27,IO16*%
%TO.N,IO16_OSC_EN*%
X121952500Y-103150000D03*
%TO.P,U1,28,IO17*%
%TO.N,StateLED*%
X121952500Y-101880000D03*
%TO.P,U1,29,IO5*%
%TO.N,SDA*%
X121952500Y-100610000D03*
%TO.P,U1,30,IO18*%
%TO.N,IO18_MDIO*%
X121952500Y-99340000D03*
%TO.P,U1,31,IO19*%
%TO.N,IO19_TXD0*%
X121952500Y-98070000D03*
%TO.P,U1,32,NC*%
%TO.N,unconnected-(U1-NC)*%
X121952500Y-96800000D03*
%TO.P,U1,33,IO21*%
%TO.N,IO21_TXEN*%
X121952500Y-95530000D03*
%TO.P,U1,34,RXD0/IO3*%
%TO.N,RX*%
X121952500Y-94260000D03*
%TO.P,U1,35,TXD0/IO1*%
%TO.N,TX*%
X121952500Y-92990000D03*
%TO.P,U1,36,IO22*%
%TO.N,IO22_TXD1*%
X121952500Y-91720000D03*
%TO.P,U1,37,IO23*%
%TO.N,IO23_MDC*%
X121952500Y-90450000D03*
%TO.P,U1,38,GND*%
%TO.N,GND*%
X121952500Y-89180000D03*
D22*
%TO.P,U1,39,GND*%
X110997500Y-94995000D03*
D23*
X110997500Y-95757500D03*
D22*
X110997500Y-96520000D03*
D23*
X110997500Y-97282500D03*
D22*
X110997500Y-98045000D03*
D23*
X111760000Y-94995000D03*
X111760000Y-96520000D03*
X111760000Y-98045000D03*
D22*
X112522500Y-94995000D03*
D23*
X112522500Y-95757500D03*
D22*
X112522500Y-96520000D03*
D24*
X112522500Y-96520000D03*
D23*
X112522500Y-97282500D03*
D22*
X112522500Y-98045000D03*
D23*
X113285000Y-94995000D03*
X113285000Y-96520000D03*
X113285000Y-98045000D03*
D22*
X114047500Y-94995000D03*
D23*
X114047500Y-95757500D03*
D22*
X114047500Y-96520000D03*
D23*
X114047500Y-97282500D03*
D22*
X114047500Y-98045000D03*
%TD*%
D18*
%TO.P,D5,1,VSS*%
%TO.N,GND*%
X137070000Y-24460000D03*
%TO.P,D5,2,DIN*%
%TO.N,unconnected-(D5-DIN)*%
X137070000Y-21260000D03*
%TO.P,D5,3,VDD*%
%TO.N,VBUS*%
X132170000Y-21260000D03*
%TO.P,D5,4,DOUT*%
%TO.N,Net-(D5-DOUT)*%
X132170000Y-24460000D03*
%TD*%
D19*
%TO.P,D7,1,VSS*%
%TO.N,GND*%
X185156124Y-124020000D03*
%TO.P,D7,2,DIN*%
%TO.N,Net-(D6-DOUT)*%
X182384842Y-122420000D03*
%TO.P,D7,3,VDD*%
%TO.N,VBUS*%
X179934842Y-126663524D03*
%TO.P,D7,4,DOUT*%
%TO.N,Net-(D7-DOUT)*%
X182706124Y-128263524D03*
%TD*%
D18*
%TO.P,D7,1,VSS*%
%TO.N,GND*%
X137070000Y-45780000D03*
%TO.P,D7,2,DIN*%
%TO.N,Net-(D6-DOUT)*%
X137070000Y-42580000D03*
%TO.P,D7,3,VDD*%
%TO.N,VBUS*%
X132170000Y-42580000D03*
%TO.P,D7,4,DOUT*%
%TO.N,Net-(D7-DOUT)*%
X132170000Y-45780000D03*
%TD*%
D15*
%TO.P,D5,1,VSS*%
%TO.N,GND*%
X151130001Y-59076158D03*
%TO.P,D5,2,DIN*%
%TO.N,unconnected-(D5-DIN)*%
X149530001Y-61847440D03*
%TO.P,D5,3,VDD*%
%TO.N,VBUS*%
X153773525Y-64297440D03*
%TO.P,D5,4,DOUT*%
%TO.N,Net-(D5-DOUT)*%
X155373525Y-61526158D03*
%TD*%
D14*
%TO.P,D8,1,VSS*%
%TO.N,GND*%
X106350001Y-162268621D03*
%TO.P,D8,2,DIN*%
%TO.N,Net-(D7-DOUT)*%
X107950001Y-159497339D03*
%TO.P,D8,3,VDD*%
%TO.N,VBUS*%
X103706477Y-157047339D03*
%TO.P,D8,4,DOUT*%
%TO.N,Net-(D8-DOUT)*%
X102106477Y-159818621D03*
%TD*%
D12*
%TO.P,D6,1,VSS*%
%TO.N,GND*%
X178616439Y-70856475D03*
%TO.P,D6,2,DIN*%
%TO.N,Net-(D5-DOUT)*%
X175845157Y-72456475D03*
%TO.P,D6,3,VDD*%
%TO.N,VBUS*%
X178295157Y-76699999D03*
%TO.P,D6,4,DOUT*%
%TO.N,Net-(D6-DOUT)*%
X181066439Y-75099999D03*
%TD*%
D19*
%TO.P,D5,1,VSS*%
%TO.N,GND*%
X166692463Y-113360000D03*
%TO.P,D5,2,DIN*%
%TO.N,unconnected-(D5-DIN)*%
X163921181Y-111760000D03*
%TO.P,D5,3,VDD*%
%TO.N,VBUS*%
X161471181Y-116003524D03*
%TO.P,D5,4,DOUT*%
%TO.N,Net-(D5-DOUT)*%
X164242463Y-117603524D03*
%TD*%
D12*
%TO.P,D8,1,VSS*%
%TO.N,GND*%
X198413779Y-59426476D03*
%TO.P,D8,2,DIN*%
%TO.N,Net-(D7-DOUT)*%
X195642497Y-61026476D03*
%TO.P,D8,3,VDD*%
%TO.N,VBUS*%
X198092497Y-65270000D03*
%TO.P,D8,4,DOUT*%
%TO.N,Net-(D8-DOUT)*%
X200863779Y-63670000D03*
%TD*%
D17*
%TO.P,D7,1,VSS*%
%TO.N,GND*%
X164659999Y-144516124D03*
%TO.P,D7,2,DIN*%
%TO.N,Net-(D6-DOUT)*%
X163059999Y-141744842D03*
%TO.P,D7,3,VDD*%
%TO.N,VBUS*%
X158816475Y-144194842D03*
%TO.P,D7,4,DOUT*%
%TO.N,Net-(D7-DOUT)*%
X160416475Y-146966124D03*
%TD*%
D13*
%TO.P,D8,1,VSS*%
%TO.N,GND*%
X62840002Y-101600000D03*
%TO.P,D8,2,DIN*%
%TO.N,Net-(D7-DOUT)*%
X66040002Y-101600000D03*
%TO.P,D8,3,VDD*%
%TO.N,VBUS*%
X66040002Y-96700000D03*
%TO.P,D8,4,DOUT*%
%TO.N,Net-(D8-DOUT)*%
X62840002Y-96700000D03*
%TD*%
D15*
%TO.P,D6,1,VSS*%
%TO.N,GND*%
X156210000Y-50277340D03*
%TO.P,D6,2,DIN*%
%TO.N,Net-(D5-DOUT)*%
X154610000Y-53048622D03*
%TO.P,D6,3,VDD*%
%TO.N,VBUS*%
X158853524Y-55498622D03*
%TO.P,D6,4,DOUT*%
%TO.N,Net-(D6-DOUT)*%
X160453524Y-52727340D03*
%TD*%
D18*
%TO.P,D5,1,VSS*%
%TO.N,GND*%
X137160000Y-132739999D03*
%TO.P,D5,2,DIN*%
%TO.N,unconnected-(D5-DIN)*%
X137160000Y-129539999D03*
%TO.P,D5,3,VDD*%
%TO.N,VBUS*%
X132260000Y-129539999D03*
%TO.P,D5,4,DOUT*%
%TO.N,Net-(D5-DOUT)*%
X132260000Y-132739999D03*
%TD*%
D25*
%TO.P,D5,1,VSS*%
%TO.N,GND*%
X105087537Y-120979999D03*
%TO.P,D5,2,DIN*%
%TO.N,unconnected-(D5-DIN)*%
X107858819Y-119379999D03*
%TO.P,D5,3,VDD*%
%TO.N,VBUS*%
X105408819Y-115136475D03*
%TO.P,D5,4,DOUT*%
%TO.N,Net-(D5-DOUT)*%
X102637537Y-116736475D03*
%TD*%
%TO.P,D8,1,VSS*%
%TO.N,GND*%
X76491379Y-137489999D03*
%TO.P,D8,2,DIN*%
%TO.N,Net-(D7-DOUT)*%
X79262661Y-135889999D03*
%TO.P,D8,3,VDD*%
%TO.N,VBUS*%
X76812661Y-131646475D03*
%TO.P,D8,4,DOUT*%
%TO.N,Net-(D8-DOUT)*%
X74041379Y-133246475D03*
%TD*%
D14*
%TO.P,D5,1,VSS*%
%TO.N,GND*%
X122860000Y-133672463D03*
%TO.P,D5,2,DIN*%
%TO.N,unconnected-(D5-DIN)*%
X124460000Y-130901181D03*
%TO.P,D5,3,VDD*%
%TO.N,VBUS*%
X120216476Y-128451181D03*
%TO.P,D5,4,DOUT*%
%TO.N,Net-(D5-DOUT)*%
X118616476Y-131222463D03*
%TD*%
D18*
%TO.P,D6,1,VSS*%
%TO.N,GND*%
X137160000Y-142900000D03*
%TO.P,D6,2,DIN*%
%TO.N,Net-(D5-DOUT)*%
X137160000Y-139700000D03*
%TO.P,D6,3,VDD*%
%TO.N,VBUS*%
X132260000Y-139700000D03*
%TO.P,D6,4,DOUT*%
%TO.N,Net-(D6-DOUT)*%
X132260000Y-142900000D03*
%TD*%
D25*
%TO.P,D6,1,VSS*%
%TO.N,GND*%
X96288718Y-126060000D03*
%TO.P,D6,2,DIN*%
%TO.N,Net-(D5-DOUT)*%
X99060000Y-124460000D03*
%TO.P,D6,3,VDD*%
%TO.N,VBUS*%
X96610000Y-120216476D03*
%TO.P,D6,4,DOUT*%
%TO.N,Net-(D6-DOUT)*%
X93838718Y-121816476D03*
%TD*%
D13*
%TO.P,D6,1,VSS*%
%TO.N,GND*%
X193040000Y-98880000D03*
%TO.P,D6,2,DIN*%
%TO.N,Net-(D5-DOUT)*%
X196240000Y-98880000D03*
%TO.P,D6,3,VDD*%
%TO.N,VBUS*%
X196240000Y-93980000D03*
%TO.P,D6,4,DOUT*%
%TO.N,Net-(D6-DOUT)*%
X193040000Y-93980000D03*
%TD*%
D18*
%TO.P,D8,1,VSS*%
%TO.N,GND*%
X137070000Y-57480000D03*
%TO.P,D8,2,DIN*%
%TO.N,Net-(D7-DOUT)*%
X137070000Y-54280000D03*
%TO.P,D8,3,VDD*%
%TO.N,VBUS*%
X132170000Y-54280000D03*
%TO.P,D8,4,DOUT*%
%TO.N,Net-(D8-DOUT)*%
X132170000Y-57480000D03*
%TD*%
D17*
%TO.P,D6,1,VSS*%
%TO.N,GND*%
X159080000Y-134851282D03*
%TO.P,D6,2,DIN*%
%TO.N,Net-(D5-DOUT)*%
X157480000Y-132080000D03*
%TO.P,D6,3,VDD*%
%TO.N,VBUS*%
X153236476Y-134530000D03*
%TO.P,D6,4,DOUT*%
%TO.N,Net-(D6-DOUT)*%
X154836476Y-137301282D03*
%TD*%
D13*
%TO.P,D7,1,VSS*%
%TO.N,GND*%
X74540001Y-101600000D03*
%TO.P,D7,2,DIN*%
%TO.N,Net-(D6-DOUT)*%
X77740001Y-101600000D03*
%TO.P,D7,3,VDD*%
%TO.N,VBUS*%
X77740001Y-96700000D03*
%TO.P,D7,4,DOUT*%
%TO.N,Net-(D7-DOUT)*%
X74540001Y-96700000D03*
%TD*%
D17*
%TO.P,D8,1,VSS*%
%TO.N,GND*%
X170509999Y-154648621D03*
%TO.P,D8,2,DIN*%
%TO.N,Net-(D7-DOUT)*%
X168909999Y-151877339D03*
%TO.P,D8,3,VDD*%
%TO.N,VBUS*%
X164666475Y-154327339D03*
%TO.P,D8,4,DOUT*%
%TO.N,Net-(D8-DOUT)*%
X166266475Y-157098621D03*
%TD*%
D25*
%TO.P,D7,1,VSS*%
%TO.N,GND*%
X86623876Y-131639999D03*
%TO.P,D7,2,DIN*%
%TO.N,Net-(D6-DOUT)*%
X89395158Y-130039999D03*
%TO.P,D7,3,VDD*%
%TO.N,VBUS*%
X86945158Y-125796475D03*
%TO.P,D7,4,DOUT*%
%TO.N,Net-(D7-DOUT)*%
X84173876Y-127396475D03*
%TD*%
D13*
%TO.P,D7,1,VSS*%
%TO.N,GND*%
X181880001Y-98879999D03*
%TO.P,D7,2,DIN*%
%TO.N,Net-(D6-DOUT)*%
X185080001Y-98879999D03*
%TO.P,D7,3,VDD*%
%TO.N,VBUS*%
X185080001Y-93979999D03*
%TO.P,D7,4,DOUT*%
%TO.N,Net-(D7-DOUT)*%
X181880001Y-93979999D03*
%TD*%
D18*
%TO.P,D8,1,VSS*%
%TO.N,GND*%
X137160000Y-165759998D03*
%TO.P,D8,2,DIN*%
%TO.N,Net-(D7-DOUT)*%
X137160000Y-162559998D03*
%TO.P,D8,3,VDD*%
%TO.N,VBUS*%
X132260000Y-162559998D03*
%TO.P,D8,4,DOUT*%
%TO.N,Net-(D8-DOUT)*%
X132260000Y-165759998D03*
%TD*%
D19*
%TO.P,D6,1,VSS*%
%TO.N,GND*%
X175491282Y-118440000D03*
%TO.P,D6,2,DIN*%
%TO.N,Net-(D5-DOUT)*%
X172720000Y-116840000D03*
%TO.P,D6,3,VDD*%
%TO.N,VBUS*%
X170270000Y-121083524D03*
%TO.P,D6,4,DOUT*%
%TO.N,Net-(D6-DOUT)*%
X173041282Y-122683524D03*
%TD*%
D11*
%TO.P,D7,1,VSS*%
%TO.N,GND*%
X100000000Y-45488718D03*
%TO.P,D7,2,DIN*%
%TO.N,Net-(D6-DOUT)*%
X101600000Y-48260000D03*
%TO.P,D7,3,VDD*%
%TO.N,VBUS*%
X105843524Y-45810000D03*
%TO.P,D7,4,DOUT*%
%TO.N,Net-(D7-DOUT)*%
X104243524Y-43038718D03*
%TD*%
D15*
%TO.P,D7,1,VSS*%
%TO.N,GND*%
X161790000Y-40612497D03*
%TO.P,D7,2,DIN*%
%TO.N,Net-(D6-DOUT)*%
X160190000Y-43383779D03*
%TO.P,D7,3,VDD*%
%TO.N,VBUS*%
X164433524Y-45833779D03*
%TO.P,D7,4,DOUT*%
%TO.N,Net-(D7-DOUT)*%
X166033524Y-43062497D03*
%TD*%
M02*
