M48
; DRILL file {KiCad 8.0.5} date 2024-10-11T00:39:08+0200
; FORMAT={-:-/ absolute / inch / decimal}
; #@! TF.CreationDate,2024-10-11T00:39:08+02:00
; #@! TF.GenerationSoftware,Kicad,Pcbnew,8.0.5
; #@! TF.FileFunction,Plated,1,2,PTH
FMAT,2
INCH
; #@! TA.AperFunction,Plated,PTH,ComponentDrill
T1C0.0079
; #@! TA.AperFunction,Plated,PTH,ViaDrill
T2C0.0118
; #@! TA.AperFunction,Plated,PTH,ViaDrill
T3C0.0157
; #@! TA.AperFunction,Plated,PTH,ComponentDrill
T4C0.0295
; #@! TA.AperFunction,Plated,PTH,ComponentDrill
T5C0.0315
; #@! TA.AperFunction,Plated,PTH,ComponentDrill
T6C0.0512
%
G90
G05
T1
X5.2189Y-2.807
X5.2189Y-2.8503
X5.2406Y-2.7853
X5.2406Y-2.8287
X5.2406Y-2.872
X5.2622Y-2.807
X5.2622Y-2.8503
X5.2839Y-2.7853
X5.2839Y-2.8287
X5.2839Y-2.872
X5.3055Y-2.807
X5.3055Y-2.8503
T2
X4.8652Y-4.725
X5.228Y-2.382
X5.228Y-2.535
X5.302Y-2.608
X5.924Y-5.85
X5.924Y-5.873
X5.951Y-5.85
X5.951Y-5.873
X6.8428Y-1.3736
X6.912Y-1.305
T3
X4.18Y-4.66
X4.18Y-4.7
X4.22Y-4.66
X4.22Y-4.7
X4.4Y-4.66
X4.4Y-4.7
X4.44Y-4.66
X4.44Y-4.7
X4.5489Y-4.494
X4.5689Y-4.359
X4.65Y-4.4
X4.7639Y-4.474
X4.79Y-3.0413
X4.8539Y-4.489
X4.8689Y-4.209
X4.9417Y-1.2866
X4.9427Y-1.1951
X4.9439Y-4.394
X4.9439Y-4.494
X4.985Y-1.454
X4.987Y-1.1469
X4.987Y-1.2837
X5.11Y-2.53
X5.22Y-5.77
X5.22Y-5.81
X5.22Y-5.85
X5.26Y-5.77
X5.3791Y-5.6226
X5.3881Y-5.5526
X5.497Y-5.5909
X5.499Y-5.5516
X5.525Y-5.7654
X5.543Y-5.6614
X5.6261Y-5.5606
X5.64Y-2.55
X5.65Y-2.39
X5.6841Y-5.6746
X5.7Y-2.23
X5.7Y-2.66
X5.74Y-2.9303
X5.74Y-2.59
X5.74Y-5.86
X5.7699Y-1.8057
X5.7709Y-1.9165
X5.7789Y-1.6785
X5.78Y-2.71
X5.78Y-2.93
X5.82Y-1.81
X5.82Y-2.99
X5.8409Y-1.9255
X5.85Y-2.94
X5.85Y-2.97
X5.8797Y-1.7617
X5.8929Y-1.6205
X5.947Y-6.121
X5.959Y-1.761
X5.9591Y-5.5626
X5.9681Y-5.4926
X5.975Y-1.9897
X5.975Y-2.0247
X5.999Y-6.299
X6.01Y-1.99
X6.01Y-2.0247
X6.039Y-1.772
X6.0681Y-6.0845
X6.079Y-5.4916
X6.081Y-5.5322
X6.105Y-5.7054
X6.1057Y-6.1949
X6.123Y-5.6014
X6.13Y-3.78
X6.2061Y-5.5006
X6.2641Y-5.6146
X6.335Y-1.825
X6.365Y-1.855
X6.395Y-1.885
X6.4181Y-5.3012
X6.4271Y-5.2312
X6.43Y-1.92
X6.48Y-5.01
X6.538Y-5.2302
X6.5383Y-5.2696
X6.564Y-5.444
X6.582Y-5.34
X6.648Y-1.213
X6.6651Y-5.2392
X6.683Y-1.267
X6.7231Y-5.3532
X6.736Y-1.2915
X6.75Y-1.94
X6.7724Y-1.323
X6.9309Y-1.4283
X6.9791Y-1.4549
X6.9987Y-5.0453
X7.055Y-1.484
X7.11Y-1.513
X7.15Y-2.27
X7.175Y-2.3
X7.283Y-1.663
T4
X6.811Y-1.2336
X7.0008Y-1.3605
T6
X5.2Y-4.5
X5.3969Y-4.5
T5
G00X6.7445Y-1.2318
M15
G01X6.762Y-1.2056
M16
G05
G00X6.8381Y-1.0917
M15
G01X6.8512Y-1.0721
M16
G05
G00X7.0279Y-1.4213
M15
G01X7.0454Y-1.3951
M16
G05
G00X7.1216Y-1.2811
M15
G01X7.1347Y-1.2615
M16
G05
M30
