%TF.GenerationSoftware,KiCad,Pcbnew,8.0.1*%
%TF.CreationDate,2024-04-03T22:21:12+02:00*%
%TF.ProjectId,LEDTischLampe,4c454454-6973-4636-984c-616d70652e6b,rev?*%
%TF.SameCoordinates,Original*%
%TF.FileFunction,Legend,Top*%
%TF.FilePolarity,Positive*%
%FSLAX46Y46*%
G04 Gerber Fmt 4.6, Leading zero omitted, Abs format (unit mm)*
G04 Created by KiCad (PCBNEW 8.0.1) date 2024-04-03 22:21:12*
%MOMM*%
%LPD*%
G01*
G04 APERTURE LIST*
G04 Aperture macros list*
%AMRotRect*
0 Rectangle, with rotation*
0 The origin of the aperture is its center*
0 $1 length*
0 $2 width*
0 $3 Rotation angle, in degrees counterclockwise*
0 Add horizontal line*
21,1,$1,$2,0,0,$3*%
G04 Aperture macros list end*
%ADD10C,0.150000*%
%ADD11C,0.120000*%
%ADD12RotRect,1.500000X1.000000X210.000000*%
%ADD13RotRect,1.500000X1.000000X120.000000*%
%ADD14R,1.000000X1.500000*%
%ADD15RotRect,1.500000X1.000000X330.000000*%
%ADD16RotRect,1.500000X1.000000X150.000000*%
%ADD17C,3.200000*%
%ADD18RotRect,1.500000X1.000000X240.000000*%
%ADD19RotRect,1.500000X1.000000X30.000000*%
%ADD20R,1.500000X1.000000*%
%ADD21RotRect,1.500000X1.000000X60.000000*%
%ADD22R,1.500000X0.900000*%
%ADD23R,0.900000X1.500000*%
%ADD24C,0.475000*%
%ADD25R,4.200000X4.200000*%
%ADD26RotRect,1.500000X1.000000X300.000000*%
G04 APERTURE END LIST*
D10*
X109839961Y-59108223D02*
X109339961Y-58242197D01*
X109339961Y-58242197D02*
X109546158Y-58123150D01*
X109546158Y-58123150D02*
X109693685Y-58092960D01*
X109693685Y-58092960D02*
X109823783Y-58127820D01*
X109823783Y-58127820D02*
X109912641Y-58186489D01*
X109912641Y-58186489D02*
X110049119Y-58327637D01*
X110049119Y-58327637D02*
X110120547Y-58451355D01*
X110120547Y-58451355D02*
X110174546Y-58640121D01*
X110174546Y-58640121D02*
X110180926Y-58746410D01*
X110180926Y-58746410D02*
X110146066Y-58876507D01*
X110146066Y-58876507D02*
X110046158Y-58989175D01*
X110046158Y-58989175D02*
X109839961Y-59108223D01*
X110577140Y-57527912D02*
X110412183Y-57623150D01*
X110412183Y-57623150D02*
X110353514Y-57712008D01*
X110353514Y-57712008D02*
X110336084Y-57777057D01*
X110336084Y-57777057D02*
X110325034Y-57948394D01*
X110325034Y-57948394D02*
X110379033Y-58137161D01*
X110379033Y-58137161D02*
X110569509Y-58467075D01*
X110569509Y-58467075D02*
X110658368Y-58525744D01*
X110658368Y-58525744D02*
X110723416Y-58543174D01*
X110723416Y-58543174D02*
X110829705Y-58536794D01*
X110829705Y-58536794D02*
X110994662Y-58441556D01*
X110994662Y-58441556D02*
X111053331Y-58352698D01*
X111053331Y-58352698D02*
X111070761Y-58287649D01*
X111070761Y-58287649D02*
X111064381Y-58181361D01*
X111064381Y-58181361D02*
X110945333Y-57975164D01*
X110945333Y-57975164D02*
X110856475Y-57916495D01*
X110856475Y-57916495D02*
X110791426Y-57899065D01*
X110791426Y-57899065D02*
X110685138Y-57905445D01*
X110685138Y-57905445D02*
X110520181Y-58000683D01*
X110520181Y-58000683D02*
X110461512Y-58089542D01*
X110461512Y-58089542D02*
X110444082Y-58154590D01*
X110444082Y-58154590D02*
X110450462Y-58260879D01*
X165862958Y-80196438D02*
X166728984Y-79696438D01*
X166728984Y-79696438D02*
X166848031Y-79902635D01*
X166848031Y-79902635D02*
X166878221Y-80050162D01*
X166878221Y-80050162D02*
X166843361Y-80180260D01*
X166843361Y-80180260D02*
X166784692Y-80269118D01*
X166784692Y-80269118D02*
X166643544Y-80405596D01*
X166643544Y-80405596D02*
X166519826Y-80477024D01*
X166519826Y-80477024D02*
X166331060Y-80531023D01*
X166331060Y-80531023D02*
X166224771Y-80537403D01*
X166224771Y-80537403D02*
X166094674Y-80502543D01*
X166094674Y-80502543D02*
X165982006Y-80402635D01*
X165982006Y-80402635D02*
X165862958Y-80196438D01*
X167467079Y-80974857D02*
X167228984Y-80562464D01*
X167228984Y-80562464D02*
X166792781Y-80759320D01*
X166792781Y-80759320D02*
X166857830Y-80776749D01*
X166857830Y-80776749D02*
X166946688Y-80835418D01*
X166946688Y-80835418D02*
X167065736Y-81041615D01*
X167065736Y-81041615D02*
X167072116Y-81147903D01*
X167072116Y-81147903D02*
X167054686Y-81212952D01*
X167054686Y-81212952D02*
X166996017Y-81301810D01*
X166996017Y-81301810D02*
X166789820Y-81420858D01*
X166789820Y-81420858D02*
X166683532Y-81427238D01*
X166683532Y-81427238D02*
X166618483Y-81409808D01*
X166618483Y-81409808D02*
X166529625Y-81351139D01*
X166529625Y-81351139D02*
X166410577Y-81144942D01*
X166410577Y-81144942D02*
X166404198Y-81038654D01*
X166404198Y-81038654D02*
X166421627Y-80973605D01*
X175734821Y-97168094D02*
X174734821Y-97168094D01*
X174734821Y-97168094D02*
X174734821Y-96929999D01*
X174734821Y-96929999D02*
X174782440Y-96787142D01*
X174782440Y-96787142D02*
X174877678Y-96691904D01*
X174877678Y-96691904D02*
X174972916Y-96644285D01*
X174972916Y-96644285D02*
X175163392Y-96596666D01*
X175163392Y-96596666D02*
X175306249Y-96596666D01*
X175306249Y-96596666D02*
X175496725Y-96644285D01*
X175496725Y-96644285D02*
X175591963Y-96691904D01*
X175591963Y-96691904D02*
X175687202Y-96787142D01*
X175687202Y-96787142D02*
X175734821Y-96929999D01*
X175734821Y-96929999D02*
X175734821Y-97168094D01*
X175163392Y-96025237D02*
X175115773Y-96120475D01*
X175115773Y-96120475D02*
X175068154Y-96168094D01*
X175068154Y-96168094D02*
X174972916Y-96215713D01*
X174972916Y-96215713D02*
X174925297Y-96215713D01*
X174925297Y-96215713D02*
X174830059Y-96168094D01*
X174830059Y-96168094D02*
X174782440Y-96120475D01*
X174782440Y-96120475D02*
X174734821Y-96025237D01*
X174734821Y-96025237D02*
X174734821Y-95834761D01*
X174734821Y-95834761D02*
X174782440Y-95739523D01*
X174782440Y-95739523D02*
X174830059Y-95691904D01*
X174830059Y-95691904D02*
X174925297Y-95644285D01*
X174925297Y-95644285D02*
X174972916Y-95644285D01*
X174972916Y-95644285D02*
X175068154Y-95691904D01*
X175068154Y-95691904D02*
X175115773Y-95739523D01*
X175115773Y-95739523D02*
X175163392Y-95834761D01*
X175163392Y-95834761D02*
X175163392Y-96025237D01*
X175163392Y-96025237D02*
X175211011Y-96120475D01*
X175211011Y-96120475D02*
X175258630Y-96168094D01*
X175258630Y-96168094D02*
X175353868Y-96215713D01*
X175353868Y-96215713D02*
X175544344Y-96215713D01*
X175544344Y-96215713D02*
X175639582Y-96168094D01*
X175639582Y-96168094D02*
X175687202Y-96120475D01*
X175687202Y-96120475D02*
X175734821Y-96025237D01*
X175734821Y-96025237D02*
X175734821Y-95834761D01*
X175734821Y-95834761D02*
X175687202Y-95739523D01*
X175687202Y-95739523D02*
X175639582Y-95691904D01*
X175639582Y-95691904D02*
X175544344Y-95644285D01*
X175544344Y-95644285D02*
X175353868Y-95644285D01*
X175353868Y-95644285D02*
X175258630Y-95691904D01*
X175258630Y-95691904D02*
X175211011Y-95739523D01*
X175211011Y-95739523D02*
X175163392Y-95834761D01*
X117341619Y-136854389D02*
X117841619Y-135988364D01*
X117841619Y-135988364D02*
X118047816Y-136107411D01*
X118047816Y-136107411D02*
X118147724Y-136220079D01*
X118147724Y-136220079D02*
X118182584Y-136350177D01*
X118182584Y-136350177D02*
X118176204Y-136456465D01*
X118176204Y-136456465D02*
X118122205Y-136645232D01*
X118122205Y-136645232D02*
X118050777Y-136768950D01*
X118050777Y-136768950D02*
X117914299Y-136910097D01*
X117914299Y-136910097D02*
X117825441Y-136968766D01*
X117825441Y-136968766D02*
X117695343Y-137003626D01*
X117695343Y-137003626D02*
X117547816Y-136973437D01*
X117547816Y-136973437D02*
X117341619Y-136854389D01*
X119078798Y-136702649D02*
X118913841Y-136607411D01*
X118913841Y-136607411D02*
X118807553Y-136601031D01*
X118807553Y-136601031D02*
X118742504Y-136618461D01*
X118742504Y-136618461D02*
X118588597Y-136694560D01*
X118588597Y-136694560D02*
X118452120Y-136835708D01*
X118452120Y-136835708D02*
X118261643Y-137165622D01*
X118261643Y-137165622D02*
X118255264Y-137271910D01*
X118255264Y-137271910D02*
X118272693Y-137336959D01*
X118272693Y-137336959D02*
X118331362Y-137425818D01*
X118331362Y-137425818D02*
X118496320Y-137521056D01*
X118496320Y-137521056D02*
X118602608Y-137527435D01*
X118602608Y-137527435D02*
X118667657Y-137510006D01*
X118667657Y-137510006D02*
X118756515Y-137451337D01*
X118756515Y-137451337D02*
X118875563Y-137245140D01*
X118875563Y-137245140D02*
X118881942Y-137138852D01*
X118881942Y-137138852D02*
X118864513Y-137073803D01*
X118864513Y-137073803D02*
X118805844Y-136984945D01*
X118805844Y-136984945D02*
X118640886Y-136889707D01*
X118640886Y-136889707D02*
X118534598Y-136883327D01*
X118534598Y-136883327D02*
X118469549Y-136900757D01*
X118469549Y-136900757D02*
X118380691Y-136959426D01*
X101414820Y-99888094D02*
X100414820Y-99888094D01*
X100414820Y-99888094D02*
X100414820Y-99649999D01*
X100414820Y-99649999D02*
X100462439Y-99507142D01*
X100462439Y-99507142D02*
X100557677Y-99411904D01*
X100557677Y-99411904D02*
X100652915Y-99364285D01*
X100652915Y-99364285D02*
X100843391Y-99316666D01*
X100843391Y-99316666D02*
X100986248Y-99316666D01*
X100986248Y-99316666D02*
X101176724Y-99364285D01*
X101176724Y-99364285D02*
X101271962Y-99411904D01*
X101271962Y-99411904D02*
X101367201Y-99507142D01*
X101367201Y-99507142D02*
X101414820Y-99649999D01*
X101414820Y-99649999D02*
X101414820Y-99888094D01*
X100414820Y-98411904D02*
X100414820Y-98888094D01*
X100414820Y-98888094D02*
X100891010Y-98935713D01*
X100891010Y-98935713D02*
X100843391Y-98888094D01*
X100843391Y-98888094D02*
X100795772Y-98792856D01*
X100795772Y-98792856D02*
X100795772Y-98554761D01*
X100795772Y-98554761D02*
X100843391Y-98459523D01*
X100843391Y-98459523D02*
X100891010Y-98411904D01*
X100891010Y-98411904D02*
X100986248Y-98364285D01*
X100986248Y-98364285D02*
X101224343Y-98364285D01*
X101224343Y-98364285D02*
X101319581Y-98411904D01*
X101319581Y-98411904D02*
X101367201Y-98459523D01*
X101367201Y-98459523D02*
X101414820Y-98554761D01*
X101414820Y-98554761D02*
X101414820Y-98792856D01*
X101414820Y-98792856D02*
X101367201Y-98888094D01*
X101367201Y-98888094D02*
X101319581Y-98935713D01*
X111761619Y-146519231D02*
X112261619Y-145653206D01*
X112261619Y-145653206D02*
X112467816Y-145772253D01*
X112467816Y-145772253D02*
X112567724Y-145884921D01*
X112567724Y-145884921D02*
X112602584Y-146015019D01*
X112602584Y-146015019D02*
X112596204Y-146121307D01*
X112596204Y-146121307D02*
X112542205Y-146310074D01*
X112542205Y-146310074D02*
X112470777Y-146433792D01*
X112470777Y-146433792D02*
X112334299Y-146574939D01*
X112334299Y-146574939D02*
X112245441Y-146633608D01*
X112245441Y-146633608D02*
X112115343Y-146668468D01*
X112115343Y-146668468D02*
X111967816Y-146638279D01*
X111967816Y-146638279D02*
X111761619Y-146519231D01*
X113045166Y-146105587D02*
X113622516Y-146438920D01*
X113622516Y-146438920D02*
X112751362Y-147090660D01*
X166345143Y-36146567D02*
X166845143Y-35280542D01*
X166845143Y-35280542D02*
X167051340Y-35399589D01*
X167051340Y-35399589D02*
X167151248Y-35512257D01*
X167151248Y-35512257D02*
X167186108Y-35642355D01*
X167186108Y-35642355D02*
X167179728Y-35748643D01*
X167179728Y-35748643D02*
X167125729Y-35937410D01*
X167125729Y-35937410D02*
X167054301Y-36061128D01*
X167054301Y-36061128D02*
X166917823Y-36202275D01*
X166917823Y-36202275D02*
X166828965Y-36260944D01*
X166828965Y-36260944D02*
X166698867Y-36295804D01*
X166698867Y-36295804D02*
X166551340Y-36265615D01*
X166551340Y-36265615D02*
X166345143Y-36146567D01*
X167620601Y-36223124D02*
X167561932Y-36134266D01*
X167561932Y-36134266D02*
X167544502Y-36069217D01*
X167544502Y-36069217D02*
X167550882Y-35962929D01*
X167550882Y-35962929D02*
X167574691Y-35921689D01*
X167574691Y-35921689D02*
X167663550Y-35863020D01*
X167663550Y-35863020D02*
X167728598Y-35845590D01*
X167728598Y-35845590D02*
X167834886Y-35851970D01*
X167834886Y-35851970D02*
X167999844Y-35947208D01*
X167999844Y-35947208D02*
X168058513Y-36036067D01*
X168058513Y-36036067D02*
X168075943Y-36101115D01*
X168075943Y-36101115D02*
X168069563Y-36207404D01*
X168069563Y-36207404D02*
X168045753Y-36248643D01*
X168045753Y-36248643D02*
X167956895Y-36307312D01*
X167956895Y-36307312D02*
X167891846Y-36324742D01*
X167891846Y-36324742D02*
X167785558Y-36318362D01*
X167785558Y-36318362D02*
X167620601Y-36223124D01*
X167620601Y-36223124D02*
X167514313Y-36216744D01*
X167514313Y-36216744D02*
X167449264Y-36234174D01*
X167449264Y-36234174D02*
X167360405Y-36292843D01*
X167360405Y-36292843D02*
X167265167Y-36457800D01*
X167265167Y-36457800D02*
X167258788Y-36564088D01*
X167258788Y-36564088D02*
X167276217Y-36629137D01*
X167276217Y-36629137D02*
X167334886Y-36717996D01*
X167334886Y-36717996D02*
X167499844Y-36813234D01*
X167499844Y-36813234D02*
X167606132Y-36819613D01*
X167606132Y-36819613D02*
X167671181Y-36802184D01*
X167671181Y-36802184D02*
X167760039Y-36743515D01*
X167760039Y-36743515D02*
X167855277Y-36578557D01*
X167855277Y-36578557D02*
X167861657Y-36472269D01*
X167861657Y-36472269D02*
X167844227Y-36407220D01*
X167844227Y-36407220D02*
X167785558Y-36318362D01*
X208754820Y-97168093D02*
X207754820Y-97168093D01*
X207754820Y-97168093D02*
X207754820Y-96929998D01*
X207754820Y-96929998D02*
X207802439Y-96787141D01*
X207802439Y-96787141D02*
X207897677Y-96691903D01*
X207897677Y-96691903D02*
X207992915Y-96644284D01*
X207992915Y-96644284D02*
X208183391Y-96596665D01*
X208183391Y-96596665D02*
X208326248Y-96596665D01*
X208326248Y-96596665D02*
X208516724Y-96644284D01*
X208516724Y-96644284D02*
X208611962Y-96691903D01*
X208611962Y-96691903D02*
X208707201Y-96787141D01*
X208707201Y-96787141D02*
X208754820Y-96929998D01*
X208754820Y-96929998D02*
X208754820Y-97168093D01*
X207754820Y-95691903D02*
X207754820Y-96168093D01*
X207754820Y-96168093D02*
X208231010Y-96215712D01*
X208231010Y-96215712D02*
X208183391Y-96168093D01*
X208183391Y-96168093D02*
X208135772Y-96072855D01*
X208135772Y-96072855D02*
X208135772Y-95834760D01*
X208135772Y-95834760D02*
X208183391Y-95739522D01*
X208183391Y-95739522D02*
X208231010Y-95691903D01*
X208231010Y-95691903D02*
X208326248Y-95644284D01*
X208326248Y-95644284D02*
X208564343Y-95644284D01*
X208564343Y-95644284D02*
X208659581Y-95691903D01*
X208659581Y-95691903D02*
X208707201Y-95739522D01*
X208707201Y-95739522D02*
X208754820Y-95834760D01*
X208754820Y-95834760D02*
X208754820Y-96072855D01*
X208754820Y-96072855D02*
X208707201Y-96168093D01*
X208707201Y-96168093D02*
X208659581Y-96215712D01*
X129138095Y-108627319D02*
X129138095Y-107627319D01*
X129138095Y-108103509D02*
X129709523Y-108103509D01*
X129709523Y-108627319D02*
X129709523Y-107627319D01*
X130138095Y-107722557D02*
X130185714Y-107674938D01*
X130185714Y-107674938D02*
X130280952Y-107627319D01*
X130280952Y-107627319D02*
X130519047Y-107627319D01*
X130519047Y-107627319D02*
X130614285Y-107674938D01*
X130614285Y-107674938D02*
X130661904Y-107722557D01*
X130661904Y-107722557D02*
X130709523Y-107817795D01*
X130709523Y-107817795D02*
X130709523Y-107913033D01*
X130709523Y-107913033D02*
X130661904Y-108055890D01*
X130661904Y-108055890D02*
X130090476Y-108627319D01*
X130090476Y-108627319D02*
X130709523Y-108627319D01*
X111358095Y-118787319D02*
X111358095Y-117787319D01*
X111358095Y-118263509D02*
X111929523Y-118263509D01*
X111929523Y-118787319D02*
X111929523Y-117787319D01*
X112834285Y-118120652D02*
X112834285Y-118787319D01*
X112596190Y-117739700D02*
X112358095Y-118453985D01*
X112358095Y-118453985D02*
X112977142Y-118453985D01*
X84670443Y-70314856D02*
X83804418Y-69814856D01*
X83804418Y-69814856D02*
X83923465Y-69608659D01*
X83923465Y-69608659D02*
X84036133Y-69508751D01*
X84036133Y-69508751D02*
X84166231Y-69473891D01*
X84166231Y-69473891D02*
X84272519Y-69480271D01*
X84272519Y-69480271D02*
X84461286Y-69534270D01*
X84461286Y-69534270D02*
X84585004Y-69605698D01*
X84585004Y-69605698D02*
X84726151Y-69742176D01*
X84726151Y-69742176D02*
X84784820Y-69831034D01*
X84784820Y-69831034D02*
X84819680Y-69961132D01*
X84819680Y-69961132D02*
X84789491Y-70108659D01*
X84789491Y-70108659D02*
X84670443Y-70314856D01*
X84256799Y-69031309D02*
X84590132Y-68453959D01*
X84590132Y-68453959D02*
X85241872Y-69325113D01*
X148916437Y-123623665D02*
X148416437Y-122757639D01*
X148416437Y-122757639D02*
X148622634Y-122638592D01*
X148622634Y-122638592D02*
X148770161Y-122608402D01*
X148770161Y-122608402D02*
X148900259Y-122643262D01*
X148900259Y-122643262D02*
X148989117Y-122701931D01*
X148989117Y-122701931D02*
X149125595Y-122843079D01*
X149125595Y-122843079D02*
X149197023Y-122966797D01*
X149197023Y-122966797D02*
X149251022Y-123155563D01*
X149251022Y-123155563D02*
X149257402Y-123261852D01*
X149257402Y-123261852D02*
X149222542Y-123391949D01*
X149222542Y-123391949D02*
X149122634Y-123504617D01*
X149122634Y-123504617D02*
X148916437Y-123623665D01*
X149694856Y-122019544D02*
X149282463Y-122257639D01*
X149282463Y-122257639D02*
X149479319Y-122693842D01*
X149479319Y-122693842D02*
X149496748Y-122628793D01*
X149496748Y-122628793D02*
X149555417Y-122539935D01*
X149555417Y-122539935D02*
X149761614Y-122420887D01*
X149761614Y-122420887D02*
X149867902Y-122414507D01*
X149867902Y-122414507D02*
X149932951Y-122431937D01*
X149932951Y-122431937D02*
X150021809Y-122490606D01*
X150021809Y-122490606D02*
X150140857Y-122696803D01*
X150140857Y-122696803D02*
X150147237Y-122803091D01*
X150147237Y-122803091D02*
X150129807Y-122868140D01*
X150129807Y-122868140D02*
X150071138Y-122956998D01*
X150071138Y-122956998D02*
X149864941Y-123076046D01*
X149864941Y-123076046D02*
X149758653Y-123082425D01*
X149758653Y-123082425D02*
X149693604Y-123064996D01*
X133881905Y-29974819D02*
X133881905Y-28974819D01*
X133881905Y-28974819D02*
X134120000Y-28974819D01*
X134120000Y-28974819D02*
X134262857Y-29022438D01*
X134262857Y-29022438D02*
X134358095Y-29117676D01*
X134358095Y-29117676D02*
X134405714Y-29212914D01*
X134405714Y-29212914D02*
X134453333Y-29403390D01*
X134453333Y-29403390D02*
X134453333Y-29546247D01*
X134453333Y-29546247D02*
X134405714Y-29736723D01*
X134405714Y-29736723D02*
X134358095Y-29831961D01*
X134358095Y-29831961D02*
X134262857Y-29927200D01*
X134262857Y-29927200D02*
X134120000Y-29974819D01*
X134120000Y-29974819D02*
X133881905Y-29974819D01*
X135310476Y-28974819D02*
X135120000Y-28974819D01*
X135120000Y-28974819D02*
X135024762Y-29022438D01*
X135024762Y-29022438D02*
X134977143Y-29070057D01*
X134977143Y-29070057D02*
X134881905Y-29212914D01*
X134881905Y-29212914D02*
X134834286Y-29403390D01*
X134834286Y-29403390D02*
X134834286Y-29784342D01*
X134834286Y-29784342D02*
X134881905Y-29879580D01*
X134881905Y-29879580D02*
X134929524Y-29927200D01*
X134929524Y-29927200D02*
X135024762Y-29974819D01*
X135024762Y-29974819D02*
X135215238Y-29974819D01*
X135215238Y-29974819D02*
X135310476Y-29927200D01*
X135310476Y-29927200D02*
X135358095Y-29879580D01*
X135358095Y-29879580D02*
X135405714Y-29784342D01*
X135405714Y-29784342D02*
X135405714Y-29546247D01*
X135405714Y-29546247D02*
X135358095Y-29451009D01*
X135358095Y-29451009D02*
X135310476Y-29403390D01*
X135310476Y-29403390D02*
X135215238Y-29355771D01*
X135215238Y-29355771D02*
X135024762Y-29355771D01*
X135024762Y-29355771D02*
X134929524Y-29403390D01*
X134929524Y-29403390D02*
X134881905Y-29451009D01*
X134881905Y-29451009D02*
X134834286Y-29546247D01*
X133971905Y-149414818D02*
X133971905Y-148414818D01*
X133971905Y-148414818D02*
X134210000Y-148414818D01*
X134210000Y-148414818D02*
X134352857Y-148462437D01*
X134352857Y-148462437D02*
X134448095Y-148557675D01*
X134448095Y-148557675D02*
X134495714Y-148652913D01*
X134495714Y-148652913D02*
X134543333Y-148843389D01*
X134543333Y-148843389D02*
X134543333Y-148986246D01*
X134543333Y-148986246D02*
X134495714Y-149176722D01*
X134495714Y-149176722D02*
X134448095Y-149271960D01*
X134448095Y-149271960D02*
X134352857Y-149367199D01*
X134352857Y-149367199D02*
X134210000Y-149414818D01*
X134210000Y-149414818D02*
X133971905Y-149414818D01*
X134876667Y-148414818D02*
X135543333Y-148414818D01*
X135543333Y-148414818D02*
X135114762Y-149414818D01*
X98409962Y-39310884D02*
X97909962Y-38444858D01*
X97909962Y-38444858D02*
X98116159Y-38325811D01*
X98116159Y-38325811D02*
X98263686Y-38295621D01*
X98263686Y-38295621D02*
X98393784Y-38330481D01*
X98393784Y-38330481D02*
X98482642Y-38389150D01*
X98482642Y-38389150D02*
X98619120Y-38530298D01*
X98619120Y-38530298D02*
X98690548Y-38654016D01*
X98690548Y-38654016D02*
X98744547Y-38842782D01*
X98744547Y-38842782D02*
X98750927Y-38949071D01*
X98750927Y-38949071D02*
X98716067Y-39079168D01*
X98716067Y-39079168D02*
X98616159Y-39191836D01*
X98616159Y-39191836D02*
X98409962Y-39310884D01*
X99113991Y-38244583D02*
X99007703Y-38250963D01*
X99007703Y-38250963D02*
X98942654Y-38233533D01*
X98942654Y-38233533D02*
X98853796Y-38174864D01*
X98853796Y-38174864D02*
X98829986Y-38133625D01*
X98829986Y-38133625D02*
X98823607Y-38027337D01*
X98823607Y-38027337D02*
X98841036Y-37962288D01*
X98841036Y-37962288D02*
X98899706Y-37873430D01*
X98899706Y-37873430D02*
X99064663Y-37778192D01*
X99064663Y-37778192D02*
X99170951Y-37771812D01*
X99170951Y-37771812D02*
X99236000Y-37789242D01*
X99236000Y-37789242D02*
X99324858Y-37847911D01*
X99324858Y-37847911D02*
X99348668Y-37889150D01*
X99348668Y-37889150D02*
X99355047Y-37995438D01*
X99355047Y-37995438D02*
X99337618Y-38060487D01*
X99337618Y-38060487D02*
X99278948Y-38149345D01*
X99278948Y-38149345D02*
X99113991Y-38244583D01*
X99113991Y-38244583D02*
X99055322Y-38333442D01*
X99055322Y-38333442D02*
X99037892Y-38398491D01*
X99037892Y-38398491D02*
X99044272Y-38504779D01*
X99044272Y-38504779D02*
X99139510Y-38669736D01*
X99139510Y-38669736D02*
X99228369Y-38728405D01*
X99228369Y-38728405D02*
X99293417Y-38745835D01*
X99293417Y-38745835D02*
X99399706Y-38739455D01*
X99399706Y-38739455D02*
X99564663Y-38644217D01*
X99564663Y-38644217D02*
X99623332Y-38555359D01*
X99623332Y-38555359D02*
X99640762Y-38490310D01*
X99640762Y-38490310D02*
X99634382Y-38384022D01*
X99634382Y-38384022D02*
X99539144Y-38219065D01*
X99539144Y-38219065D02*
X99450285Y-38160395D01*
X99450285Y-38160395D02*
X99385237Y-38142966D01*
X99385237Y-38142966D02*
X99278948Y-38149345D01*
X91254819Y-99888094D02*
X90254819Y-99888094D01*
X90254819Y-99888094D02*
X90254819Y-99649999D01*
X90254819Y-99649999D02*
X90302438Y-99507142D01*
X90302438Y-99507142D02*
X90397676Y-99411904D01*
X90397676Y-99411904D02*
X90492914Y-99364285D01*
X90492914Y-99364285D02*
X90683390Y-99316666D01*
X90683390Y-99316666D02*
X90826247Y-99316666D01*
X90826247Y-99316666D02*
X91016723Y-99364285D01*
X91016723Y-99364285D02*
X91111961Y-99411904D01*
X91111961Y-99411904D02*
X91207200Y-99507142D01*
X91207200Y-99507142D02*
X91254819Y-99649999D01*
X91254819Y-99649999D02*
X91254819Y-99888094D01*
X90254819Y-98459523D02*
X90254819Y-98649999D01*
X90254819Y-98649999D02*
X90302438Y-98745237D01*
X90302438Y-98745237D02*
X90350057Y-98792856D01*
X90350057Y-98792856D02*
X90492914Y-98888094D01*
X90492914Y-98888094D02*
X90683390Y-98935713D01*
X90683390Y-98935713D02*
X91064342Y-98935713D01*
X91064342Y-98935713D02*
X91159580Y-98888094D01*
X91159580Y-98888094D02*
X91207200Y-98840475D01*
X91207200Y-98840475D02*
X91254819Y-98745237D01*
X91254819Y-98745237D02*
X91254819Y-98554761D01*
X91254819Y-98554761D02*
X91207200Y-98459523D01*
X91207200Y-98459523D02*
X91159580Y-98411904D01*
X91159580Y-98411904D02*
X91064342Y-98364285D01*
X91064342Y-98364285D02*
X90826247Y-98364285D01*
X90826247Y-98364285D02*
X90731009Y-98411904D01*
X90731009Y-98411904D02*
X90683390Y-98459523D01*
X90683390Y-98459523D02*
X90635771Y-98554761D01*
X90635771Y-98554761D02*
X90635771Y-98745237D01*
X90635771Y-98745237D02*
X90683390Y-98840475D01*
X90683390Y-98840475D02*
X90731009Y-98888094D01*
X90731009Y-98888094D02*
X90826247Y-98935713D01*
X184326619Y-69536438D02*
X185192645Y-69036438D01*
X185192645Y-69036438D02*
X185311692Y-69242635D01*
X185311692Y-69242635D02*
X185341882Y-69390162D01*
X185341882Y-69390162D02*
X185307022Y-69520260D01*
X185307022Y-69520260D02*
X185248353Y-69609118D01*
X185248353Y-69609118D02*
X185107205Y-69745596D01*
X185107205Y-69745596D02*
X184983487Y-69817024D01*
X184983487Y-69817024D02*
X184794721Y-69871023D01*
X184794721Y-69871023D02*
X184688432Y-69877403D01*
X184688432Y-69877403D02*
X184558335Y-69842543D01*
X184558335Y-69842543D02*
X184445667Y-69742635D01*
X184445667Y-69742635D02*
X184326619Y-69536438D01*
X185645026Y-69819985D02*
X185978359Y-70397335D01*
X185978359Y-70397335D02*
X184898048Y-70526182D01*
X103134104Y-80974856D02*
X102268079Y-80474856D01*
X102268079Y-80474856D02*
X102387126Y-80268659D01*
X102387126Y-80268659D02*
X102499794Y-80168751D01*
X102499794Y-80168751D02*
X102629892Y-80133891D01*
X102629892Y-80133891D02*
X102736180Y-80140271D01*
X102736180Y-80140271D02*
X102924947Y-80194270D01*
X102924947Y-80194270D02*
X103048665Y-80265698D01*
X103048665Y-80265698D02*
X103189812Y-80402176D01*
X103189812Y-80402176D02*
X103248481Y-80491034D01*
X103248481Y-80491034D02*
X103283341Y-80621132D01*
X103283341Y-80621132D02*
X103253152Y-80768659D01*
X103253152Y-80768659D02*
X103134104Y-80974856D01*
X103006174Y-79196437D02*
X102768079Y-79608830D01*
X102768079Y-79608830D02*
X103156662Y-79888165D01*
X103156662Y-79888165D02*
X103139232Y-79823116D01*
X103139232Y-79823116D02*
X103145612Y-79716828D01*
X103145612Y-79716828D02*
X103264660Y-79510631D01*
X103264660Y-79510631D02*
X103353518Y-79451962D01*
X103353518Y-79451962D02*
X103418567Y-79434533D01*
X103418567Y-79434533D02*
X103524855Y-79440912D01*
X103524855Y-79440912D02*
X103731052Y-79559960D01*
X103731052Y-79559960D02*
X103789721Y-79648818D01*
X103789721Y-79648818D02*
X103807150Y-79713867D01*
X103807150Y-79713867D02*
X103800771Y-79820155D01*
X103800771Y-79820155D02*
X103681723Y-80026352D01*
X103681723Y-80026352D02*
X103592865Y-80085021D01*
X103592865Y-80085021D02*
X103527816Y-80102451D01*
X114919962Y-67907042D02*
X114419962Y-67041016D01*
X114419962Y-67041016D02*
X114626159Y-66921969D01*
X114626159Y-66921969D02*
X114773686Y-66891779D01*
X114773686Y-66891779D02*
X114903784Y-66926639D01*
X114903784Y-66926639D02*
X114992642Y-66985308D01*
X114992642Y-66985308D02*
X115129120Y-67126456D01*
X115129120Y-67126456D02*
X115200548Y-67250174D01*
X115200548Y-67250174D02*
X115254547Y-67438940D01*
X115254547Y-67438940D02*
X115260927Y-67545229D01*
X115260927Y-67545229D02*
X115226067Y-67675326D01*
X115226067Y-67675326D02*
X115126159Y-67787994D01*
X115126159Y-67787994D02*
X114919962Y-67907042D01*
X115698381Y-66302921D02*
X115285988Y-66541016D01*
X115285988Y-66541016D02*
X115482844Y-66977219D01*
X115482844Y-66977219D02*
X115500273Y-66912170D01*
X115500273Y-66912170D02*
X115558942Y-66823312D01*
X115558942Y-66823312D02*
X115765139Y-66704264D01*
X115765139Y-66704264D02*
X115871427Y-66697884D01*
X115871427Y-66697884D02*
X115936476Y-66715314D01*
X115936476Y-66715314D02*
X116025334Y-66773983D01*
X116025334Y-66773983D02*
X116144382Y-66980180D01*
X116144382Y-66980180D02*
X116150762Y-67086468D01*
X116150762Y-67086468D02*
X116133332Y-67151517D01*
X116133332Y-67151517D02*
X116074663Y-67240375D01*
X116074663Y-67240375D02*
X115868466Y-67359423D01*
X115868466Y-67359423D02*
X115762178Y-67365802D01*
X115762178Y-67365802D02*
X115697129Y-67348373D01*
X189671728Y-130308379D02*
X188805703Y-129808379D01*
X188805703Y-129808379D02*
X188924750Y-129602182D01*
X188924750Y-129602182D02*
X189037418Y-129502274D01*
X189037418Y-129502274D02*
X189167516Y-129467414D01*
X189167516Y-129467414D02*
X189273804Y-129473794D01*
X189273804Y-129473794D02*
X189462571Y-129527793D01*
X189462571Y-129527793D02*
X189586289Y-129599221D01*
X189586289Y-129599221D02*
X189727436Y-129735699D01*
X189727436Y-129735699D02*
X189786105Y-129824557D01*
X189786105Y-129824557D02*
X189820965Y-129954655D01*
X189820965Y-129954655D02*
X189790776Y-130102182D01*
X189790776Y-130102182D02*
X189671728Y-130308379D01*
X189748285Y-129032921D02*
X189659427Y-129091590D01*
X189659427Y-129091590D02*
X189594378Y-129109020D01*
X189594378Y-129109020D02*
X189488090Y-129102640D01*
X189488090Y-129102640D02*
X189446850Y-129078831D01*
X189446850Y-129078831D02*
X189388181Y-128989972D01*
X189388181Y-128989972D02*
X189370751Y-128924924D01*
X189370751Y-128924924D02*
X189377131Y-128818636D01*
X189377131Y-128818636D02*
X189472369Y-128653678D01*
X189472369Y-128653678D02*
X189561228Y-128595009D01*
X189561228Y-128595009D02*
X189626276Y-128577579D01*
X189626276Y-128577579D02*
X189732565Y-128583959D01*
X189732565Y-128583959D02*
X189773804Y-128607769D01*
X189773804Y-128607769D02*
X189832473Y-128696627D01*
X189832473Y-128696627D02*
X189849903Y-128761676D01*
X189849903Y-128761676D02*
X189843523Y-128867964D01*
X189843523Y-128867964D02*
X189748285Y-129032921D01*
X189748285Y-129032921D02*
X189741905Y-129139209D01*
X189741905Y-129139209D02*
X189759335Y-129204258D01*
X189759335Y-129204258D02*
X189818004Y-129293117D01*
X189818004Y-129293117D02*
X189982961Y-129388355D01*
X189982961Y-129388355D02*
X190089249Y-129394734D01*
X190089249Y-129394734D02*
X190154298Y-129377305D01*
X190154298Y-129377305D02*
X190243157Y-129318636D01*
X190243157Y-129318636D02*
X190338395Y-129153678D01*
X190338395Y-129153678D02*
X190344774Y-129047390D01*
X190344774Y-129047390D02*
X190327345Y-128982341D01*
X190327345Y-128982341D02*
X190268676Y-128893483D01*
X190268676Y-128893483D02*
X190103718Y-128798245D01*
X190103718Y-128798245D02*
X189997430Y-128791865D01*
X189997430Y-128791865D02*
X189932381Y-128809295D01*
X189932381Y-128809295D02*
X189843523Y-128867964D01*
X94335285Y-75894856D02*
X93469260Y-75394856D01*
X93469260Y-75394856D02*
X93588307Y-75188659D01*
X93588307Y-75188659D02*
X93700975Y-75088751D01*
X93700975Y-75088751D02*
X93831073Y-75053891D01*
X93831073Y-75053891D02*
X93937361Y-75060271D01*
X93937361Y-75060271D02*
X94126128Y-75114270D01*
X94126128Y-75114270D02*
X94249846Y-75185698D01*
X94249846Y-75185698D02*
X94390993Y-75322176D01*
X94390993Y-75322176D02*
X94449662Y-75411034D01*
X94449662Y-75411034D02*
X94484522Y-75541132D01*
X94484522Y-75541132D02*
X94454333Y-75688659D01*
X94454333Y-75688659D02*
X94335285Y-75894856D01*
X94183545Y-74157677D02*
X94088307Y-74322634D01*
X94088307Y-74322634D02*
X94081927Y-74428922D01*
X94081927Y-74428922D02*
X94099357Y-74493971D01*
X94099357Y-74493971D02*
X94175456Y-74647878D01*
X94175456Y-74647878D02*
X94316604Y-74784355D01*
X94316604Y-74784355D02*
X94646518Y-74974832D01*
X94646518Y-74974832D02*
X94752806Y-74981211D01*
X94752806Y-74981211D02*
X94817855Y-74963782D01*
X94817855Y-74963782D02*
X94906714Y-74905113D01*
X94906714Y-74905113D02*
X95001952Y-74740155D01*
X95001952Y-74740155D02*
X95008331Y-74633867D01*
X95008331Y-74633867D02*
X94990902Y-74568818D01*
X94990902Y-74568818D02*
X94932233Y-74479960D01*
X94932233Y-74479960D02*
X94726036Y-74360912D01*
X94726036Y-74360912D02*
X94619748Y-74354533D01*
X94619748Y-74354533D02*
X94554699Y-74371962D01*
X94554699Y-74371962D02*
X94465841Y-74430631D01*
X94465841Y-74430631D02*
X94370603Y-74595589D01*
X94370603Y-74595589D02*
X94364223Y-74701877D01*
X94364223Y-74701877D02*
X94381653Y-74766926D01*
X94381653Y-74766926D02*
X94440322Y-74855784D01*
X74537946Y-64464857D02*
X73671921Y-63964857D01*
X73671921Y-63964857D02*
X73790968Y-63758660D01*
X73790968Y-63758660D02*
X73903636Y-63658752D01*
X73903636Y-63658752D02*
X74033734Y-63623892D01*
X74033734Y-63623892D02*
X74140022Y-63630272D01*
X74140022Y-63630272D02*
X74328789Y-63684271D01*
X74328789Y-63684271D02*
X74452507Y-63755699D01*
X74452507Y-63755699D02*
X74593654Y-63892177D01*
X74593654Y-63892177D02*
X74652323Y-63981035D01*
X74652323Y-63981035D02*
X74687183Y-64111133D01*
X74687183Y-64111133D02*
X74656994Y-64258660D01*
X74656994Y-64258660D02*
X74537946Y-64464857D01*
X74614503Y-63189399D02*
X74525645Y-63248068D01*
X74525645Y-63248068D02*
X74460596Y-63265498D01*
X74460596Y-63265498D02*
X74354308Y-63259118D01*
X74354308Y-63259118D02*
X74313068Y-63235309D01*
X74313068Y-63235309D02*
X74254399Y-63146450D01*
X74254399Y-63146450D02*
X74236969Y-63081402D01*
X74236969Y-63081402D02*
X74243349Y-62975114D01*
X74243349Y-62975114D02*
X74338587Y-62810156D01*
X74338587Y-62810156D02*
X74427446Y-62751487D01*
X74427446Y-62751487D02*
X74492494Y-62734057D01*
X74492494Y-62734057D02*
X74598783Y-62740437D01*
X74598783Y-62740437D02*
X74640022Y-62764247D01*
X74640022Y-62764247D02*
X74698691Y-62853105D01*
X74698691Y-62853105D02*
X74716121Y-62918154D01*
X74716121Y-62918154D02*
X74709741Y-63024442D01*
X74709741Y-63024442D02*
X74614503Y-63189399D01*
X74614503Y-63189399D02*
X74608123Y-63295687D01*
X74608123Y-63295687D02*
X74625553Y-63360736D01*
X74625553Y-63360736D02*
X74684222Y-63449595D01*
X74684222Y-63449595D02*
X74849179Y-63544833D01*
X74849179Y-63544833D02*
X74955467Y-63551212D01*
X74955467Y-63551212D02*
X75020516Y-63533783D01*
X75020516Y-63533783D02*
X75109375Y-63475114D01*
X75109375Y-63475114D02*
X75204613Y-63310156D01*
X75204613Y-63310156D02*
X75210992Y-63203868D01*
X75210992Y-63203868D02*
X75193563Y-63138819D01*
X75193563Y-63138819D02*
X75134894Y-63049961D01*
X75134894Y-63049961D02*
X74969936Y-62954723D01*
X74969936Y-62954723D02*
X74863648Y-62948343D01*
X74863648Y-62948343D02*
X74798599Y-62965773D01*
X74798599Y-62965773D02*
X74709741Y-63024442D01*
X102047319Y-106621904D02*
X102856842Y-106621904D01*
X102856842Y-106621904D02*
X102952080Y-106574285D01*
X102952080Y-106574285D02*
X102999700Y-106526666D01*
X102999700Y-106526666D02*
X103047319Y-106431428D01*
X103047319Y-106431428D02*
X103047319Y-106240952D01*
X103047319Y-106240952D02*
X102999700Y-106145714D01*
X102999700Y-106145714D02*
X102952080Y-106098095D01*
X102952080Y-106098095D02*
X102856842Y-106050476D01*
X102856842Y-106050476D02*
X102047319Y-106050476D01*
X103047319Y-105050476D02*
X103047319Y-105621904D01*
X103047319Y-105336190D02*
X102047319Y-105336190D01*
X102047319Y-105336190D02*
X102190176Y-105431428D01*
X102190176Y-105431428D02*
X102285414Y-105526666D01*
X102285414Y-105526666D02*
X102333033Y-105621904D01*
X133881905Y-19814819D02*
X133881905Y-18814819D01*
X133881905Y-18814819D02*
X134120000Y-18814819D01*
X134120000Y-18814819D02*
X134262857Y-18862438D01*
X134262857Y-18862438D02*
X134358095Y-18957676D01*
X134358095Y-18957676D02*
X134405714Y-19052914D01*
X134405714Y-19052914D02*
X134453333Y-19243390D01*
X134453333Y-19243390D02*
X134453333Y-19386247D01*
X134453333Y-19386247D02*
X134405714Y-19576723D01*
X134405714Y-19576723D02*
X134358095Y-19671961D01*
X134358095Y-19671961D02*
X134262857Y-19767200D01*
X134262857Y-19767200D02*
X134120000Y-19814819D01*
X134120000Y-19814819D02*
X133881905Y-19814819D01*
X135358095Y-18814819D02*
X134881905Y-18814819D01*
X134881905Y-18814819D02*
X134834286Y-19291009D01*
X134834286Y-19291009D02*
X134881905Y-19243390D01*
X134881905Y-19243390D02*
X134977143Y-19195771D01*
X134977143Y-19195771D02*
X135215238Y-19195771D01*
X135215238Y-19195771D02*
X135310476Y-19243390D01*
X135310476Y-19243390D02*
X135358095Y-19291009D01*
X135358095Y-19291009D02*
X135405714Y-19386247D01*
X135405714Y-19386247D02*
X135405714Y-19624342D01*
X135405714Y-19624342D02*
X135358095Y-19719580D01*
X135358095Y-19719580D02*
X135310476Y-19767200D01*
X135310476Y-19767200D02*
X135215238Y-19814819D01*
X135215238Y-19814819D02*
X134977143Y-19814819D01*
X134977143Y-19814819D02*
X134881905Y-19767200D01*
X134881905Y-19767200D02*
X134834286Y-19719580D01*
X179539231Y-124458380D02*
X178673206Y-123958380D01*
X178673206Y-123958380D02*
X178792253Y-123752183D01*
X178792253Y-123752183D02*
X178904921Y-123652275D01*
X178904921Y-123652275D02*
X179035019Y-123617415D01*
X179035019Y-123617415D02*
X179141307Y-123623795D01*
X179141307Y-123623795D02*
X179330074Y-123677794D01*
X179330074Y-123677794D02*
X179453792Y-123749222D01*
X179453792Y-123749222D02*
X179594939Y-123885700D01*
X179594939Y-123885700D02*
X179653608Y-123974558D01*
X179653608Y-123974558D02*
X179688468Y-124104656D01*
X179688468Y-124104656D02*
X179658279Y-124252183D01*
X179658279Y-124252183D02*
X179539231Y-124458380D01*
X179125587Y-123174833D02*
X179458920Y-122597483D01*
X179458920Y-122597483D02*
X180110660Y-123468637D01*
X133881905Y-41134819D02*
X133881905Y-40134819D01*
X133881905Y-40134819D02*
X134120000Y-40134819D01*
X134120000Y-40134819D02*
X134262857Y-40182438D01*
X134262857Y-40182438D02*
X134358095Y-40277676D01*
X134358095Y-40277676D02*
X134405714Y-40372914D01*
X134405714Y-40372914D02*
X134453333Y-40563390D01*
X134453333Y-40563390D02*
X134453333Y-40706247D01*
X134453333Y-40706247D02*
X134405714Y-40896723D01*
X134405714Y-40896723D02*
X134358095Y-40991961D01*
X134358095Y-40991961D02*
X134262857Y-41087200D01*
X134262857Y-41087200D02*
X134120000Y-41134819D01*
X134120000Y-41134819D02*
X133881905Y-41134819D01*
X134786667Y-40134819D02*
X135453333Y-40134819D01*
X135453333Y-40134819D02*
X135024762Y-41134819D01*
X149835144Y-64742725D02*
X150335144Y-63876700D01*
X150335144Y-63876700D02*
X150541341Y-63995747D01*
X150541341Y-63995747D02*
X150641249Y-64108415D01*
X150641249Y-64108415D02*
X150676109Y-64238513D01*
X150676109Y-64238513D02*
X150669729Y-64344801D01*
X150669729Y-64344801D02*
X150615730Y-64533568D01*
X150615730Y-64533568D02*
X150544302Y-64657286D01*
X150544302Y-64657286D02*
X150407824Y-64798433D01*
X150407824Y-64798433D02*
X150318966Y-64857102D01*
X150318966Y-64857102D02*
X150188868Y-64891962D01*
X150188868Y-64891962D02*
X150041341Y-64861773D01*
X150041341Y-64861773D02*
X149835144Y-64742725D01*
X151613563Y-64614795D02*
X151201170Y-64376700D01*
X151201170Y-64376700D02*
X150921835Y-64765283D01*
X150921835Y-64765283D02*
X150986884Y-64747853D01*
X150986884Y-64747853D02*
X151093172Y-64754233D01*
X151093172Y-64754233D02*
X151299369Y-64873281D01*
X151299369Y-64873281D02*
X151358038Y-64962139D01*
X151358038Y-64962139D02*
X151375467Y-65027188D01*
X151375467Y-65027188D02*
X151369088Y-65133476D01*
X151369088Y-65133476D02*
X151250040Y-65339673D01*
X151250040Y-65339673D02*
X151161182Y-65398342D01*
X151161182Y-65398342D02*
X151096133Y-65415771D01*
X151096133Y-65415771D02*
X150989845Y-65409392D01*
X150989845Y-65409392D02*
X150783648Y-65290344D01*
X150783648Y-65290344D02*
X150724979Y-65201486D01*
X150724979Y-65201486D02*
X150707549Y-65136437D01*
X105911620Y-156651728D02*
X106411620Y-155785703D01*
X106411620Y-155785703D02*
X106617817Y-155904750D01*
X106617817Y-155904750D02*
X106717725Y-156017418D01*
X106717725Y-156017418D02*
X106752585Y-156147516D01*
X106752585Y-156147516D02*
X106746205Y-156253804D01*
X106746205Y-156253804D02*
X106692206Y-156442571D01*
X106692206Y-156442571D02*
X106620778Y-156566289D01*
X106620778Y-156566289D02*
X106484300Y-156707436D01*
X106484300Y-156707436D02*
X106395442Y-156766105D01*
X106395442Y-156766105D02*
X106265344Y-156800965D01*
X106265344Y-156800965D02*
X106117817Y-156770776D01*
X106117817Y-156770776D02*
X105911620Y-156651728D01*
X107187078Y-156728285D02*
X107128409Y-156639427D01*
X107128409Y-156639427D02*
X107110979Y-156574378D01*
X107110979Y-156574378D02*
X107117359Y-156468090D01*
X107117359Y-156468090D02*
X107141168Y-156426850D01*
X107141168Y-156426850D02*
X107230027Y-156368181D01*
X107230027Y-156368181D02*
X107295075Y-156350751D01*
X107295075Y-156350751D02*
X107401363Y-156357131D01*
X107401363Y-156357131D02*
X107566321Y-156452369D01*
X107566321Y-156452369D02*
X107624990Y-156541228D01*
X107624990Y-156541228D02*
X107642420Y-156606276D01*
X107642420Y-156606276D02*
X107636040Y-156712565D01*
X107636040Y-156712565D02*
X107612230Y-156753804D01*
X107612230Y-156753804D02*
X107523372Y-156812473D01*
X107523372Y-156812473D02*
X107458323Y-156829903D01*
X107458323Y-156829903D02*
X107352035Y-156823523D01*
X107352035Y-156823523D02*
X107187078Y-156728285D01*
X107187078Y-156728285D02*
X107080790Y-156721905D01*
X107080790Y-156721905D02*
X107015741Y-156739335D01*
X107015741Y-156739335D02*
X106926882Y-156798004D01*
X106926882Y-156798004D02*
X106831644Y-156962961D01*
X106831644Y-156962961D02*
X106825265Y-157069249D01*
X106825265Y-157069249D02*
X106842694Y-157134298D01*
X106842694Y-157134298D02*
X106901363Y-157223157D01*
X106901363Y-157223157D02*
X107066321Y-157318395D01*
X107066321Y-157318395D02*
X107172609Y-157324774D01*
X107172609Y-157324774D02*
X107237658Y-157307345D01*
X107237658Y-157307345D02*
X107326516Y-157248676D01*
X107326516Y-157248676D02*
X107421754Y-157083718D01*
X107421754Y-157083718D02*
X107428134Y-156977430D01*
X107428134Y-156977430D02*
X107410704Y-156912381D01*
X107410704Y-156912381D02*
X107352035Y-156823523D01*
X174661776Y-75116437D02*
X175527802Y-74616437D01*
X175527802Y-74616437D02*
X175646849Y-74822634D01*
X175646849Y-74822634D02*
X175677039Y-74970161D01*
X175677039Y-74970161D02*
X175642179Y-75100259D01*
X175642179Y-75100259D02*
X175583510Y-75189117D01*
X175583510Y-75189117D02*
X175442362Y-75325595D01*
X175442362Y-75325595D02*
X175318644Y-75397023D01*
X175318644Y-75397023D02*
X175129878Y-75451022D01*
X175129878Y-75451022D02*
X175023589Y-75457402D01*
X175023589Y-75457402D02*
X174893492Y-75422542D01*
X174893492Y-75422542D02*
X174780824Y-75322634D01*
X174780824Y-75322634D02*
X174661776Y-75116437D01*
X176242087Y-75853616D02*
X176146849Y-75688659D01*
X176146849Y-75688659D02*
X176057991Y-75629990D01*
X176057991Y-75629990D02*
X175992942Y-75612560D01*
X175992942Y-75612560D02*
X175821605Y-75601510D01*
X175821605Y-75601510D02*
X175632838Y-75655509D01*
X175632838Y-75655509D02*
X175302924Y-75845985D01*
X175302924Y-75845985D02*
X175244255Y-75934844D01*
X175244255Y-75934844D02*
X175226825Y-75999892D01*
X175226825Y-75999892D02*
X175233205Y-76106181D01*
X175233205Y-76106181D02*
X175328443Y-76271138D01*
X175328443Y-76271138D02*
X175417301Y-76329807D01*
X175417301Y-76329807D02*
X175482350Y-76347237D01*
X175482350Y-76347237D02*
X175588638Y-76340857D01*
X175588638Y-76340857D02*
X175794835Y-76221809D01*
X175794835Y-76221809D02*
X175853504Y-76132951D01*
X175853504Y-76132951D02*
X175870934Y-76067902D01*
X175870934Y-76067902D02*
X175864554Y-75961614D01*
X175864554Y-75961614D02*
X175769316Y-75796657D01*
X175769316Y-75796657D02*
X175680457Y-75737988D01*
X175680457Y-75737988D02*
X175615409Y-75720558D01*
X175615409Y-75720558D02*
X175509120Y-75726938D01*
X161075570Y-113798380D02*
X160209545Y-113298380D01*
X160209545Y-113298380D02*
X160328592Y-113092183D01*
X160328592Y-113092183D02*
X160441260Y-112992275D01*
X160441260Y-112992275D02*
X160571358Y-112957415D01*
X160571358Y-112957415D02*
X160677646Y-112963795D01*
X160677646Y-112963795D02*
X160866413Y-113017794D01*
X160866413Y-113017794D02*
X160990131Y-113089222D01*
X160990131Y-113089222D02*
X161131278Y-113225700D01*
X161131278Y-113225700D02*
X161189947Y-113314558D01*
X161189947Y-113314558D02*
X161224807Y-113444656D01*
X161224807Y-113444656D02*
X161194618Y-113592183D01*
X161194618Y-113592183D02*
X161075570Y-113798380D01*
X160947640Y-112019961D02*
X160709545Y-112432354D01*
X160709545Y-112432354D02*
X161098128Y-112711689D01*
X161098128Y-112711689D02*
X161080698Y-112646640D01*
X161080698Y-112646640D02*
X161087078Y-112540352D01*
X161087078Y-112540352D02*
X161206126Y-112334155D01*
X161206126Y-112334155D02*
X161294984Y-112275486D01*
X161294984Y-112275486D02*
X161360033Y-112258057D01*
X161360033Y-112258057D02*
X161466321Y-112264436D01*
X161466321Y-112264436D02*
X161672518Y-112383484D01*
X161672518Y-112383484D02*
X161731187Y-112472342D01*
X161731187Y-112472342D02*
X161748616Y-112537391D01*
X161748616Y-112537391D02*
X161742237Y-112643679D01*
X161742237Y-112643679D02*
X161623189Y-112849876D01*
X161623189Y-112849876D02*
X161534331Y-112908545D01*
X161534331Y-112908545D02*
X161469282Y-112925975D01*
X194459116Y-63686438D02*
X195325142Y-63186438D01*
X195325142Y-63186438D02*
X195444189Y-63392635D01*
X195444189Y-63392635D02*
X195474379Y-63540162D01*
X195474379Y-63540162D02*
X195439519Y-63670260D01*
X195439519Y-63670260D02*
X195380850Y-63759118D01*
X195380850Y-63759118D02*
X195239702Y-63895596D01*
X195239702Y-63895596D02*
X195115984Y-63967024D01*
X195115984Y-63967024D02*
X194927218Y-64021023D01*
X194927218Y-64021023D02*
X194820929Y-64027403D01*
X194820929Y-64027403D02*
X194690832Y-63992543D01*
X194690832Y-63992543D02*
X194578164Y-63892635D01*
X194578164Y-63892635D02*
X194459116Y-63686438D01*
X195525417Y-64390467D02*
X195519037Y-64284179D01*
X195519037Y-64284179D02*
X195536467Y-64219130D01*
X195536467Y-64219130D02*
X195595136Y-64130272D01*
X195595136Y-64130272D02*
X195636375Y-64106462D01*
X195636375Y-64106462D02*
X195742663Y-64100083D01*
X195742663Y-64100083D02*
X195807712Y-64117512D01*
X195807712Y-64117512D02*
X195896570Y-64176182D01*
X195896570Y-64176182D02*
X195991808Y-64341139D01*
X195991808Y-64341139D02*
X195998188Y-64447427D01*
X195998188Y-64447427D02*
X195980758Y-64512476D01*
X195980758Y-64512476D02*
X195922089Y-64601334D01*
X195922089Y-64601334D02*
X195880850Y-64625144D01*
X195880850Y-64625144D02*
X195774562Y-64631523D01*
X195774562Y-64631523D02*
X195709513Y-64614094D01*
X195709513Y-64614094D02*
X195620655Y-64555424D01*
X195620655Y-64555424D02*
X195525417Y-64390467D01*
X195525417Y-64390467D02*
X195436558Y-64331798D01*
X195436558Y-64331798D02*
X195371509Y-64314368D01*
X195371509Y-64314368D02*
X195265221Y-64320748D01*
X195265221Y-64320748D02*
X195100264Y-64415986D01*
X195100264Y-64415986D02*
X195041595Y-64504845D01*
X195041595Y-64504845D02*
X195024165Y-64569893D01*
X195024165Y-64569893D02*
X195030545Y-64676182D01*
X195030545Y-64676182D02*
X195125783Y-64841139D01*
X195125783Y-64841139D02*
X195214641Y-64899808D01*
X195214641Y-64899808D02*
X195279690Y-64917238D01*
X195279690Y-64917238D02*
X195385978Y-64910858D01*
X195385978Y-64910858D02*
X195550935Y-64815620D01*
X195550935Y-64815620D02*
X195609605Y-64726761D01*
X195609605Y-64726761D02*
X195627034Y-64661713D01*
X195627034Y-64661713D02*
X195620655Y-64555424D01*
X159576437Y-142087326D02*
X159076437Y-141221300D01*
X159076437Y-141221300D02*
X159282634Y-141102253D01*
X159282634Y-141102253D02*
X159430161Y-141072063D01*
X159430161Y-141072063D02*
X159560259Y-141106923D01*
X159560259Y-141106923D02*
X159649117Y-141165592D01*
X159649117Y-141165592D02*
X159785595Y-141306740D01*
X159785595Y-141306740D02*
X159857023Y-141430458D01*
X159857023Y-141430458D02*
X159911022Y-141619224D01*
X159911022Y-141619224D02*
X159917402Y-141725513D01*
X159917402Y-141725513D02*
X159882542Y-141855610D01*
X159882542Y-141855610D02*
X159782634Y-141968278D01*
X159782634Y-141968278D02*
X159576437Y-142087326D01*
X159859984Y-140768919D02*
X160437334Y-140435586D01*
X160437334Y-140435586D02*
X160566181Y-141515897D01*
X68394821Y-99888094D02*
X67394821Y-99888094D01*
X67394821Y-99888094D02*
X67394821Y-99649999D01*
X67394821Y-99649999D02*
X67442440Y-99507142D01*
X67442440Y-99507142D02*
X67537678Y-99411904D01*
X67537678Y-99411904D02*
X67632916Y-99364285D01*
X67632916Y-99364285D02*
X67823392Y-99316666D01*
X67823392Y-99316666D02*
X67966249Y-99316666D01*
X67966249Y-99316666D02*
X68156725Y-99364285D01*
X68156725Y-99364285D02*
X68251963Y-99411904D01*
X68251963Y-99411904D02*
X68347202Y-99507142D01*
X68347202Y-99507142D02*
X68394821Y-99649999D01*
X68394821Y-99649999D02*
X68394821Y-99888094D01*
X67823392Y-98745237D02*
X67775773Y-98840475D01*
X67775773Y-98840475D02*
X67728154Y-98888094D01*
X67728154Y-98888094D02*
X67632916Y-98935713D01*
X67632916Y-98935713D02*
X67585297Y-98935713D01*
X67585297Y-98935713D02*
X67490059Y-98888094D01*
X67490059Y-98888094D02*
X67442440Y-98840475D01*
X67442440Y-98840475D02*
X67394821Y-98745237D01*
X67394821Y-98745237D02*
X67394821Y-98554761D01*
X67394821Y-98554761D02*
X67442440Y-98459523D01*
X67442440Y-98459523D02*
X67490059Y-98411904D01*
X67490059Y-98411904D02*
X67585297Y-98364285D01*
X67585297Y-98364285D02*
X67632916Y-98364285D01*
X67632916Y-98364285D02*
X67728154Y-98411904D01*
X67728154Y-98411904D02*
X67775773Y-98459523D01*
X67775773Y-98459523D02*
X67823392Y-98554761D01*
X67823392Y-98554761D02*
X67823392Y-98745237D01*
X67823392Y-98745237D02*
X67871011Y-98840475D01*
X67871011Y-98840475D02*
X67918630Y-98888094D01*
X67918630Y-98888094D02*
X68013868Y-98935713D01*
X68013868Y-98935713D02*
X68204344Y-98935713D01*
X68204344Y-98935713D02*
X68299582Y-98888094D01*
X68299582Y-98888094D02*
X68347202Y-98840475D01*
X68347202Y-98840475D02*
X68394821Y-98745237D01*
X68394821Y-98745237D02*
X68394821Y-98554761D01*
X68394821Y-98554761D02*
X68347202Y-98459523D01*
X68347202Y-98459523D02*
X68299582Y-98411904D01*
X68299582Y-98411904D02*
X68204344Y-98364285D01*
X68204344Y-98364285D02*
X68013868Y-98364285D01*
X68013868Y-98364285D02*
X67918630Y-98411904D01*
X67918630Y-98411904D02*
X67871011Y-98459523D01*
X67871011Y-98459523D02*
X67823392Y-98554761D01*
X154915143Y-55943907D02*
X155415143Y-55077882D01*
X155415143Y-55077882D02*
X155621340Y-55196929D01*
X155621340Y-55196929D02*
X155721248Y-55309597D01*
X155721248Y-55309597D02*
X155756108Y-55439695D01*
X155756108Y-55439695D02*
X155749728Y-55545983D01*
X155749728Y-55545983D02*
X155695729Y-55734750D01*
X155695729Y-55734750D02*
X155624301Y-55858468D01*
X155624301Y-55858468D02*
X155487823Y-55999615D01*
X155487823Y-55999615D02*
X155398965Y-56058284D01*
X155398965Y-56058284D02*
X155268867Y-56093144D01*
X155268867Y-56093144D02*
X155121340Y-56062955D01*
X155121340Y-56062955D02*
X154915143Y-55943907D01*
X156652322Y-55792167D02*
X156487365Y-55696929D01*
X156487365Y-55696929D02*
X156381077Y-55690549D01*
X156381077Y-55690549D02*
X156316028Y-55707979D01*
X156316028Y-55707979D02*
X156162121Y-55784078D01*
X156162121Y-55784078D02*
X156025644Y-55925226D01*
X156025644Y-55925226D02*
X155835167Y-56255140D01*
X155835167Y-56255140D02*
X155828788Y-56361428D01*
X155828788Y-56361428D02*
X155846217Y-56426477D01*
X155846217Y-56426477D02*
X155904886Y-56515336D01*
X155904886Y-56515336D02*
X156069844Y-56610574D01*
X156069844Y-56610574D02*
X156176132Y-56616953D01*
X156176132Y-56616953D02*
X156241181Y-56599524D01*
X156241181Y-56599524D02*
X156330039Y-56540855D01*
X156330039Y-56540855D02*
X156449087Y-56334658D01*
X156449087Y-56334658D02*
X156455466Y-56228370D01*
X156455466Y-56228370D02*
X156438037Y-56163321D01*
X156438037Y-56163321D02*
X156379368Y-56074463D01*
X156379368Y-56074463D02*
X156214410Y-55979225D01*
X156214410Y-55979225D02*
X156108122Y-55972845D01*
X156108122Y-55972845D02*
X156043073Y-55990275D01*
X156043073Y-55990275D02*
X155954215Y-56048944D01*
X133971905Y-128094818D02*
X133971905Y-127094818D01*
X133971905Y-127094818D02*
X134210000Y-127094818D01*
X134210000Y-127094818D02*
X134352857Y-127142437D01*
X134352857Y-127142437D02*
X134448095Y-127237675D01*
X134448095Y-127237675D02*
X134495714Y-127332913D01*
X134495714Y-127332913D02*
X134543333Y-127523389D01*
X134543333Y-127523389D02*
X134543333Y-127666246D01*
X134543333Y-127666246D02*
X134495714Y-127856722D01*
X134495714Y-127856722D02*
X134448095Y-127951960D01*
X134448095Y-127951960D02*
X134352857Y-128047199D01*
X134352857Y-128047199D02*
X134210000Y-128094818D01*
X134210000Y-128094818D02*
X133971905Y-128094818D01*
X135448095Y-127094818D02*
X134971905Y-127094818D01*
X134971905Y-127094818D02*
X134924286Y-127571008D01*
X134924286Y-127571008D02*
X134971905Y-127523389D01*
X134971905Y-127523389D02*
X135067143Y-127475770D01*
X135067143Y-127475770D02*
X135305238Y-127475770D01*
X135305238Y-127475770D02*
X135400476Y-127523389D01*
X135400476Y-127523389D02*
X135448095Y-127571008D01*
X135448095Y-127571008D02*
X135495714Y-127666246D01*
X135495714Y-127666246D02*
X135495714Y-127904341D01*
X135495714Y-127904341D02*
X135448095Y-127999579D01*
X135448095Y-127999579D02*
X135400476Y-128047199D01*
X135400476Y-128047199D02*
X135305238Y-128094818D01*
X135305238Y-128094818D02*
X135067143Y-128094818D01*
X135067143Y-128094818D02*
X134971905Y-128047199D01*
X134971905Y-128047199D02*
X134924286Y-127999579D01*
X107516334Y-115896437D02*
X108382360Y-115396437D01*
X108382360Y-115396437D02*
X108501407Y-115602634D01*
X108501407Y-115602634D02*
X108531597Y-115750161D01*
X108531597Y-115750161D02*
X108496737Y-115880259D01*
X108496737Y-115880259D02*
X108438068Y-115969117D01*
X108438068Y-115969117D02*
X108296920Y-116105595D01*
X108296920Y-116105595D02*
X108173202Y-116177023D01*
X108173202Y-116177023D02*
X107984436Y-116231022D01*
X107984436Y-116231022D02*
X107878147Y-116237402D01*
X107878147Y-116237402D02*
X107748050Y-116202542D01*
X107748050Y-116202542D02*
X107635382Y-116102634D01*
X107635382Y-116102634D02*
X107516334Y-115896437D01*
X109120455Y-116674856D02*
X108882360Y-116262463D01*
X108882360Y-116262463D02*
X108446157Y-116459319D01*
X108446157Y-116459319D02*
X108511206Y-116476748D01*
X108511206Y-116476748D02*
X108600064Y-116535417D01*
X108600064Y-116535417D02*
X108719112Y-116741614D01*
X108719112Y-116741614D02*
X108725492Y-116847902D01*
X108725492Y-116847902D02*
X108708062Y-116912951D01*
X108708062Y-116912951D02*
X108649393Y-117001809D01*
X108649393Y-117001809D02*
X108443196Y-117120857D01*
X108443196Y-117120857D02*
X108336908Y-117127237D01*
X108336908Y-117127237D02*
X108271859Y-117109807D01*
X108271859Y-117109807D02*
X108183001Y-117051138D01*
X108183001Y-117051138D02*
X108063953Y-116844941D01*
X108063953Y-116844941D02*
X108057574Y-116738653D01*
X108057574Y-116738653D02*
X108075003Y-116673604D01*
X129138095Y-78147319D02*
X129138095Y-77147319D01*
X129138095Y-77623509D02*
X129709523Y-77623509D01*
X129709523Y-78147319D02*
X129709523Y-77147319D01*
X130090476Y-77147319D02*
X130709523Y-77147319D01*
X130709523Y-77147319D02*
X130376190Y-77528271D01*
X130376190Y-77528271D02*
X130519047Y-77528271D01*
X130519047Y-77528271D02*
X130614285Y-77575890D01*
X130614285Y-77575890D02*
X130661904Y-77623509D01*
X130661904Y-77623509D02*
X130709523Y-77718747D01*
X130709523Y-77718747D02*
X130709523Y-77956842D01*
X130709523Y-77956842D02*
X130661904Y-78052080D01*
X130661904Y-78052080D02*
X130614285Y-78099700D01*
X130614285Y-78099700D02*
X130519047Y-78147319D01*
X130519047Y-78147319D02*
X130233333Y-78147319D01*
X130233333Y-78147319D02*
X130138095Y-78099700D01*
X130138095Y-78099700D02*
X130090476Y-78052080D01*
X78920176Y-132406437D02*
X79786202Y-131906437D01*
X79786202Y-131906437D02*
X79905249Y-132112634D01*
X79905249Y-132112634D02*
X79935439Y-132260161D01*
X79935439Y-132260161D02*
X79900579Y-132390259D01*
X79900579Y-132390259D02*
X79841910Y-132479117D01*
X79841910Y-132479117D02*
X79700762Y-132615595D01*
X79700762Y-132615595D02*
X79577044Y-132687023D01*
X79577044Y-132687023D02*
X79388278Y-132741022D01*
X79388278Y-132741022D02*
X79281989Y-132747402D01*
X79281989Y-132747402D02*
X79151892Y-132712542D01*
X79151892Y-132712542D02*
X79039224Y-132612634D01*
X79039224Y-132612634D02*
X78920176Y-132406437D01*
X79986477Y-133110466D02*
X79980097Y-133004178D01*
X79980097Y-133004178D02*
X79997527Y-132939129D01*
X79997527Y-132939129D02*
X80056196Y-132850271D01*
X80056196Y-132850271D02*
X80097435Y-132826461D01*
X80097435Y-132826461D02*
X80203723Y-132820082D01*
X80203723Y-132820082D02*
X80268772Y-132837511D01*
X80268772Y-132837511D02*
X80357630Y-132896181D01*
X80357630Y-132896181D02*
X80452868Y-133061138D01*
X80452868Y-133061138D02*
X80459248Y-133167426D01*
X80459248Y-133167426D02*
X80441818Y-133232475D01*
X80441818Y-133232475D02*
X80383149Y-133321333D01*
X80383149Y-133321333D02*
X80341910Y-133345143D01*
X80341910Y-133345143D02*
X80235622Y-133351522D01*
X80235622Y-133351522D02*
X80170573Y-133334093D01*
X80170573Y-133334093D02*
X80081715Y-133275423D01*
X80081715Y-133275423D02*
X79986477Y-133110466D01*
X79986477Y-133110466D02*
X79897618Y-133051797D01*
X79897618Y-133051797D02*
X79832569Y-133034367D01*
X79832569Y-133034367D02*
X79726281Y-133040747D01*
X79726281Y-133040747D02*
X79561324Y-133135985D01*
X79561324Y-133135985D02*
X79502655Y-133224844D01*
X79502655Y-133224844D02*
X79485225Y-133289892D01*
X79485225Y-133289892D02*
X79491605Y-133396181D01*
X79491605Y-133396181D02*
X79586843Y-133561138D01*
X79586843Y-133561138D02*
X79675701Y-133619807D01*
X79675701Y-133619807D02*
X79740750Y-133637237D01*
X79740750Y-133637237D02*
X79847038Y-133630857D01*
X79847038Y-133630857D02*
X80011995Y-133535619D01*
X80011995Y-133535619D02*
X80070665Y-133446760D01*
X80070665Y-133446760D02*
X80088094Y-133381712D01*
X80088094Y-133381712D02*
X80081715Y-133275423D01*
X122421619Y-128055570D02*
X122921619Y-127189545D01*
X122921619Y-127189545D02*
X123127816Y-127308592D01*
X123127816Y-127308592D02*
X123227724Y-127421260D01*
X123227724Y-127421260D02*
X123262584Y-127551358D01*
X123262584Y-127551358D02*
X123256204Y-127657646D01*
X123256204Y-127657646D02*
X123202205Y-127846413D01*
X123202205Y-127846413D02*
X123130777Y-127970131D01*
X123130777Y-127970131D02*
X122994299Y-128111278D01*
X122994299Y-128111278D02*
X122905441Y-128169947D01*
X122905441Y-128169947D02*
X122775343Y-128204807D01*
X122775343Y-128204807D02*
X122627816Y-128174618D01*
X122627816Y-128174618D02*
X122421619Y-128055570D01*
X124200038Y-127927640D02*
X123787645Y-127689545D01*
X123787645Y-127689545D02*
X123508310Y-128078128D01*
X123508310Y-128078128D02*
X123573359Y-128060698D01*
X123573359Y-128060698D02*
X123679647Y-128067078D01*
X123679647Y-128067078D02*
X123885844Y-128186126D01*
X123885844Y-128186126D02*
X123944513Y-128274984D01*
X123944513Y-128274984D02*
X123961942Y-128340033D01*
X123961942Y-128340033D02*
X123955563Y-128446321D01*
X123955563Y-128446321D02*
X123836515Y-128652518D01*
X123836515Y-128652518D02*
X123747657Y-128711187D01*
X123747657Y-128711187D02*
X123682608Y-128728616D01*
X123682608Y-128728616D02*
X123576320Y-128722237D01*
X123576320Y-128722237D02*
X123370123Y-128603189D01*
X123370123Y-128603189D02*
X123311454Y-128514331D01*
X123311454Y-128514331D02*
X123294024Y-128449282D01*
X133971905Y-138254819D02*
X133971905Y-137254819D01*
X133971905Y-137254819D02*
X134210000Y-137254819D01*
X134210000Y-137254819D02*
X134352857Y-137302438D01*
X134352857Y-137302438D02*
X134448095Y-137397676D01*
X134448095Y-137397676D02*
X134495714Y-137492914D01*
X134495714Y-137492914D02*
X134543333Y-137683390D01*
X134543333Y-137683390D02*
X134543333Y-137826247D01*
X134543333Y-137826247D02*
X134495714Y-138016723D01*
X134495714Y-138016723D02*
X134448095Y-138111961D01*
X134448095Y-138111961D02*
X134352857Y-138207200D01*
X134352857Y-138207200D02*
X134210000Y-138254819D01*
X134210000Y-138254819D02*
X133971905Y-138254819D01*
X135400476Y-137254819D02*
X135210000Y-137254819D01*
X135210000Y-137254819D02*
X135114762Y-137302438D01*
X135114762Y-137302438D02*
X135067143Y-137350057D01*
X135067143Y-137350057D02*
X134971905Y-137492914D01*
X134971905Y-137492914D02*
X134924286Y-137683390D01*
X134924286Y-137683390D02*
X134924286Y-138064342D01*
X134924286Y-138064342D02*
X134971905Y-138159580D01*
X134971905Y-138159580D02*
X135019524Y-138207200D01*
X135019524Y-138207200D02*
X135114762Y-138254819D01*
X135114762Y-138254819D02*
X135305238Y-138254819D01*
X135305238Y-138254819D02*
X135400476Y-138207200D01*
X135400476Y-138207200D02*
X135448095Y-138159580D01*
X135448095Y-138159580D02*
X135495714Y-138064342D01*
X135495714Y-138064342D02*
X135495714Y-137826247D01*
X135495714Y-137826247D02*
X135448095Y-137731009D01*
X135448095Y-137731009D02*
X135400476Y-137683390D01*
X135400476Y-137683390D02*
X135305238Y-137635771D01*
X135305238Y-137635771D02*
X135114762Y-137635771D01*
X135114762Y-137635771D02*
X135019524Y-137683390D01*
X135019524Y-137683390D02*
X134971905Y-137731009D01*
X134971905Y-137731009D02*
X134924286Y-137826247D01*
X98717515Y-120976438D02*
X99583541Y-120476438D01*
X99583541Y-120476438D02*
X99702588Y-120682635D01*
X99702588Y-120682635D02*
X99732778Y-120830162D01*
X99732778Y-120830162D02*
X99697918Y-120960260D01*
X99697918Y-120960260D02*
X99639249Y-121049118D01*
X99639249Y-121049118D02*
X99498101Y-121185596D01*
X99498101Y-121185596D02*
X99374383Y-121257024D01*
X99374383Y-121257024D02*
X99185617Y-121311023D01*
X99185617Y-121311023D02*
X99079328Y-121317403D01*
X99079328Y-121317403D02*
X98949231Y-121282543D01*
X98949231Y-121282543D02*
X98836563Y-121182635D01*
X98836563Y-121182635D02*
X98717515Y-120976438D01*
X100297826Y-121713617D02*
X100202588Y-121548660D01*
X100202588Y-121548660D02*
X100113730Y-121489991D01*
X100113730Y-121489991D02*
X100048681Y-121472561D01*
X100048681Y-121472561D02*
X99877344Y-121461511D01*
X99877344Y-121461511D02*
X99688577Y-121515510D01*
X99688577Y-121515510D02*
X99358663Y-121705986D01*
X99358663Y-121705986D02*
X99299994Y-121794845D01*
X99299994Y-121794845D02*
X99282564Y-121859893D01*
X99282564Y-121859893D02*
X99288944Y-121966182D01*
X99288944Y-121966182D02*
X99384182Y-122131139D01*
X99384182Y-122131139D02*
X99473040Y-122189808D01*
X99473040Y-122189808D02*
X99538089Y-122207238D01*
X99538089Y-122207238D02*
X99644377Y-122200858D01*
X99644377Y-122200858D02*
X99850574Y-122081810D01*
X99850574Y-122081810D02*
X99909243Y-121992952D01*
X99909243Y-121992952D02*
X99926673Y-121927903D01*
X99926673Y-121927903D02*
X99920293Y-121821615D01*
X99920293Y-121821615D02*
X99825055Y-121656658D01*
X99825055Y-121656658D02*
X99736196Y-121597989D01*
X99736196Y-121597989D02*
X99671148Y-121580559D01*
X99671148Y-121580559D02*
X99564859Y-121586939D01*
X198594819Y-97168094D02*
X197594819Y-97168094D01*
X197594819Y-97168094D02*
X197594819Y-96929999D01*
X197594819Y-96929999D02*
X197642438Y-96787142D01*
X197642438Y-96787142D02*
X197737676Y-96691904D01*
X197737676Y-96691904D02*
X197832914Y-96644285D01*
X197832914Y-96644285D02*
X198023390Y-96596666D01*
X198023390Y-96596666D02*
X198166247Y-96596666D01*
X198166247Y-96596666D02*
X198356723Y-96644285D01*
X198356723Y-96644285D02*
X198451961Y-96691904D01*
X198451961Y-96691904D02*
X198547200Y-96787142D01*
X198547200Y-96787142D02*
X198594819Y-96929999D01*
X198594819Y-96929999D02*
X198594819Y-97168094D01*
X197594819Y-95739523D02*
X197594819Y-95929999D01*
X197594819Y-95929999D02*
X197642438Y-96025237D01*
X197642438Y-96025237D02*
X197690057Y-96072856D01*
X197690057Y-96072856D02*
X197832914Y-96168094D01*
X197832914Y-96168094D02*
X198023390Y-96215713D01*
X198023390Y-96215713D02*
X198404342Y-96215713D01*
X198404342Y-96215713D02*
X198499580Y-96168094D01*
X198499580Y-96168094D02*
X198547200Y-96120475D01*
X198547200Y-96120475D02*
X198594819Y-96025237D01*
X198594819Y-96025237D02*
X198594819Y-95834761D01*
X198594819Y-95834761D02*
X198547200Y-95739523D01*
X198547200Y-95739523D02*
X198499580Y-95691904D01*
X198499580Y-95691904D02*
X198404342Y-95644285D01*
X198404342Y-95644285D02*
X198166247Y-95644285D01*
X198166247Y-95644285D02*
X198071009Y-95691904D01*
X198071009Y-95691904D02*
X198023390Y-95739523D01*
X198023390Y-95739523D02*
X197975771Y-95834761D01*
X197975771Y-95834761D02*
X197975771Y-96025237D01*
X197975771Y-96025237D02*
X198023390Y-96120475D01*
X198023390Y-96120475D02*
X198071009Y-96168094D01*
X198071009Y-96168094D02*
X198166247Y-96215713D01*
X133881905Y-52834819D02*
X133881905Y-51834819D01*
X133881905Y-51834819D02*
X134120000Y-51834819D01*
X134120000Y-51834819D02*
X134262857Y-51882438D01*
X134262857Y-51882438D02*
X134358095Y-51977676D01*
X134358095Y-51977676D02*
X134405714Y-52072914D01*
X134405714Y-52072914D02*
X134453333Y-52263390D01*
X134453333Y-52263390D02*
X134453333Y-52406247D01*
X134453333Y-52406247D02*
X134405714Y-52596723D01*
X134405714Y-52596723D02*
X134358095Y-52691961D01*
X134358095Y-52691961D02*
X134262857Y-52787200D01*
X134262857Y-52787200D02*
X134120000Y-52834819D01*
X134120000Y-52834819D02*
X133881905Y-52834819D01*
X135024762Y-52263390D02*
X134929524Y-52215771D01*
X134929524Y-52215771D02*
X134881905Y-52168152D01*
X134881905Y-52168152D02*
X134834286Y-52072914D01*
X134834286Y-52072914D02*
X134834286Y-52025295D01*
X134834286Y-52025295D02*
X134881905Y-51930057D01*
X134881905Y-51930057D02*
X134929524Y-51882438D01*
X134929524Y-51882438D02*
X135024762Y-51834819D01*
X135024762Y-51834819D02*
X135215238Y-51834819D01*
X135215238Y-51834819D02*
X135310476Y-51882438D01*
X135310476Y-51882438D02*
X135358095Y-51930057D01*
X135358095Y-51930057D02*
X135405714Y-52025295D01*
X135405714Y-52025295D02*
X135405714Y-52072914D01*
X135405714Y-52072914D02*
X135358095Y-52168152D01*
X135358095Y-52168152D02*
X135310476Y-52215771D01*
X135310476Y-52215771D02*
X135215238Y-52263390D01*
X135215238Y-52263390D02*
X135024762Y-52263390D01*
X135024762Y-52263390D02*
X134929524Y-52311009D01*
X134929524Y-52311009D02*
X134881905Y-52358628D01*
X134881905Y-52358628D02*
X134834286Y-52453866D01*
X134834286Y-52453866D02*
X134834286Y-52644342D01*
X134834286Y-52644342D02*
X134881905Y-52739580D01*
X134881905Y-52739580D02*
X134929524Y-52787200D01*
X134929524Y-52787200D02*
X135024762Y-52834819D01*
X135024762Y-52834819D02*
X135215238Y-52834819D01*
X135215238Y-52834819D02*
X135310476Y-52787200D01*
X135310476Y-52787200D02*
X135358095Y-52739580D01*
X135358095Y-52739580D02*
X135405714Y-52644342D01*
X135405714Y-52644342D02*
X135405714Y-52453866D01*
X135405714Y-52453866D02*
X135358095Y-52358628D01*
X135358095Y-52358628D02*
X135310476Y-52311009D01*
X135310476Y-52311009D02*
X135215238Y-52263390D01*
X153996438Y-132422484D02*
X153496438Y-131556458D01*
X153496438Y-131556458D02*
X153702635Y-131437411D01*
X153702635Y-131437411D02*
X153850162Y-131407221D01*
X153850162Y-131407221D02*
X153980260Y-131442081D01*
X153980260Y-131442081D02*
X154069118Y-131500750D01*
X154069118Y-131500750D02*
X154205596Y-131641898D01*
X154205596Y-131641898D02*
X154277024Y-131765616D01*
X154277024Y-131765616D02*
X154331023Y-131954382D01*
X154331023Y-131954382D02*
X154337403Y-132060671D01*
X154337403Y-132060671D02*
X154302543Y-132190768D01*
X154302543Y-132190768D02*
X154202635Y-132303436D01*
X154202635Y-132303436D02*
X153996438Y-132422484D01*
X154733617Y-130842173D02*
X154568660Y-130937411D01*
X154568660Y-130937411D02*
X154509991Y-131026269D01*
X154509991Y-131026269D02*
X154492561Y-131091318D01*
X154492561Y-131091318D02*
X154481511Y-131262655D01*
X154481511Y-131262655D02*
X154535510Y-131451422D01*
X154535510Y-131451422D02*
X154725986Y-131781336D01*
X154725986Y-131781336D02*
X154814845Y-131840005D01*
X154814845Y-131840005D02*
X154879893Y-131857435D01*
X154879893Y-131857435D02*
X154986182Y-131851055D01*
X154986182Y-131851055D02*
X155151139Y-131755817D01*
X155151139Y-131755817D02*
X155209808Y-131666959D01*
X155209808Y-131666959D02*
X155227238Y-131601910D01*
X155227238Y-131601910D02*
X155220858Y-131495622D01*
X155220858Y-131495622D02*
X155101810Y-131289425D01*
X155101810Y-131289425D02*
X155012952Y-131230756D01*
X155012952Y-131230756D02*
X154947903Y-131213326D01*
X154947903Y-131213326D02*
X154841615Y-131219706D01*
X154841615Y-131219706D02*
X154676658Y-131314944D01*
X154676658Y-131314944D02*
X154617989Y-131403803D01*
X154617989Y-131403803D02*
X154600559Y-131468851D01*
X154600559Y-131468851D02*
X154606939Y-131575140D01*
X80094820Y-99888094D02*
X79094820Y-99888094D01*
X79094820Y-99888094D02*
X79094820Y-99649999D01*
X79094820Y-99649999D02*
X79142439Y-99507142D01*
X79142439Y-99507142D02*
X79237677Y-99411904D01*
X79237677Y-99411904D02*
X79332915Y-99364285D01*
X79332915Y-99364285D02*
X79523391Y-99316666D01*
X79523391Y-99316666D02*
X79666248Y-99316666D01*
X79666248Y-99316666D02*
X79856724Y-99364285D01*
X79856724Y-99364285D02*
X79951962Y-99411904D01*
X79951962Y-99411904D02*
X80047201Y-99507142D01*
X80047201Y-99507142D02*
X80094820Y-99649999D01*
X80094820Y-99649999D02*
X80094820Y-99888094D01*
X79094820Y-98983332D02*
X79094820Y-98316666D01*
X79094820Y-98316666D02*
X80094820Y-98745237D01*
X165426437Y-152219823D02*
X164926437Y-151353797D01*
X164926437Y-151353797D02*
X165132634Y-151234750D01*
X165132634Y-151234750D02*
X165280161Y-151204560D01*
X165280161Y-151204560D02*
X165410259Y-151239420D01*
X165410259Y-151239420D02*
X165499117Y-151298089D01*
X165499117Y-151298089D02*
X165635595Y-151439237D01*
X165635595Y-151439237D02*
X165707023Y-151562955D01*
X165707023Y-151562955D02*
X165761022Y-151751721D01*
X165761022Y-151751721D02*
X165767402Y-151858010D01*
X165767402Y-151858010D02*
X165732542Y-151988107D01*
X165732542Y-151988107D02*
X165632634Y-152100775D01*
X165632634Y-152100775D02*
X165426437Y-152219823D01*
X166130466Y-151153522D02*
X166024178Y-151159902D01*
X166024178Y-151159902D02*
X165959129Y-151142472D01*
X165959129Y-151142472D02*
X165870271Y-151083803D01*
X165870271Y-151083803D02*
X165846461Y-151042564D01*
X165846461Y-151042564D02*
X165840082Y-150936276D01*
X165840082Y-150936276D02*
X165857511Y-150871227D01*
X165857511Y-150871227D02*
X165916181Y-150782369D01*
X165916181Y-150782369D02*
X166081138Y-150687131D01*
X166081138Y-150687131D02*
X166187426Y-150680751D01*
X166187426Y-150680751D02*
X166252475Y-150698181D01*
X166252475Y-150698181D02*
X166341333Y-150756850D01*
X166341333Y-150756850D02*
X166365143Y-150798089D01*
X166365143Y-150798089D02*
X166371522Y-150904377D01*
X166371522Y-150904377D02*
X166354093Y-150969426D01*
X166354093Y-150969426D02*
X166295423Y-151058284D01*
X166295423Y-151058284D02*
X166130466Y-151153522D01*
X166130466Y-151153522D02*
X166071797Y-151242381D01*
X166071797Y-151242381D02*
X166054367Y-151307430D01*
X166054367Y-151307430D02*
X166060747Y-151413718D01*
X166060747Y-151413718D02*
X166155985Y-151578675D01*
X166155985Y-151578675D02*
X166244844Y-151637344D01*
X166244844Y-151637344D02*
X166309892Y-151654774D01*
X166309892Y-151654774D02*
X166416181Y-151648394D01*
X166416181Y-151648394D02*
X166581138Y-151553156D01*
X166581138Y-151553156D02*
X166639807Y-151464298D01*
X166639807Y-151464298D02*
X166657237Y-151399249D01*
X166657237Y-151399249D02*
X166650857Y-151292961D01*
X166650857Y-151292961D02*
X166555619Y-151128004D01*
X166555619Y-151128004D02*
X166466760Y-151069334D01*
X166466760Y-151069334D02*
X166401712Y-151051905D01*
X166401712Y-151051905D02*
X166295423Y-151058284D01*
X89052673Y-126556437D02*
X89918699Y-126056437D01*
X89918699Y-126056437D02*
X90037746Y-126262634D01*
X90037746Y-126262634D02*
X90067936Y-126410161D01*
X90067936Y-126410161D02*
X90033076Y-126540259D01*
X90033076Y-126540259D02*
X89974407Y-126629117D01*
X89974407Y-126629117D02*
X89833259Y-126765595D01*
X89833259Y-126765595D02*
X89709541Y-126837023D01*
X89709541Y-126837023D02*
X89520775Y-126891022D01*
X89520775Y-126891022D02*
X89414486Y-126897402D01*
X89414486Y-126897402D02*
X89284389Y-126862542D01*
X89284389Y-126862542D02*
X89171721Y-126762634D01*
X89171721Y-126762634D02*
X89052673Y-126556437D01*
X90371080Y-126839984D02*
X90704413Y-127417334D01*
X90704413Y-127417334D02*
X89624102Y-127546181D01*
X187434820Y-97168093D02*
X186434820Y-97168093D01*
X186434820Y-97168093D02*
X186434820Y-96929998D01*
X186434820Y-96929998D02*
X186482439Y-96787141D01*
X186482439Y-96787141D02*
X186577677Y-96691903D01*
X186577677Y-96691903D02*
X186672915Y-96644284D01*
X186672915Y-96644284D02*
X186863391Y-96596665D01*
X186863391Y-96596665D02*
X187006248Y-96596665D01*
X187006248Y-96596665D02*
X187196724Y-96644284D01*
X187196724Y-96644284D02*
X187291962Y-96691903D01*
X187291962Y-96691903D02*
X187387201Y-96787141D01*
X187387201Y-96787141D02*
X187434820Y-96929998D01*
X187434820Y-96929998D02*
X187434820Y-97168093D01*
X186434820Y-96263331D02*
X186434820Y-95596665D01*
X186434820Y-95596665D02*
X187434820Y-96025236D01*
X133971905Y-161114817D02*
X133971905Y-160114817D01*
X133971905Y-160114817D02*
X134210000Y-160114817D01*
X134210000Y-160114817D02*
X134352857Y-160162436D01*
X134352857Y-160162436D02*
X134448095Y-160257674D01*
X134448095Y-160257674D02*
X134495714Y-160352912D01*
X134495714Y-160352912D02*
X134543333Y-160543388D01*
X134543333Y-160543388D02*
X134543333Y-160686245D01*
X134543333Y-160686245D02*
X134495714Y-160876721D01*
X134495714Y-160876721D02*
X134448095Y-160971959D01*
X134448095Y-160971959D02*
X134352857Y-161067198D01*
X134352857Y-161067198D02*
X134210000Y-161114817D01*
X134210000Y-161114817D02*
X133971905Y-161114817D01*
X135114762Y-160543388D02*
X135019524Y-160495769D01*
X135019524Y-160495769D02*
X134971905Y-160448150D01*
X134971905Y-160448150D02*
X134924286Y-160352912D01*
X134924286Y-160352912D02*
X134924286Y-160305293D01*
X134924286Y-160305293D02*
X134971905Y-160210055D01*
X134971905Y-160210055D02*
X135019524Y-160162436D01*
X135019524Y-160162436D02*
X135114762Y-160114817D01*
X135114762Y-160114817D02*
X135305238Y-160114817D01*
X135305238Y-160114817D02*
X135400476Y-160162436D01*
X135400476Y-160162436D02*
X135448095Y-160210055D01*
X135448095Y-160210055D02*
X135495714Y-160305293D01*
X135495714Y-160305293D02*
X135495714Y-160352912D01*
X135495714Y-160352912D02*
X135448095Y-160448150D01*
X135448095Y-160448150D02*
X135400476Y-160495769D01*
X135400476Y-160495769D02*
X135305238Y-160543388D01*
X135305238Y-160543388D02*
X135114762Y-160543388D01*
X135114762Y-160543388D02*
X135019524Y-160591007D01*
X135019524Y-160591007D02*
X134971905Y-160638626D01*
X134971905Y-160638626D02*
X134924286Y-160733864D01*
X134924286Y-160733864D02*
X134924286Y-160924340D01*
X134924286Y-160924340D02*
X134971905Y-161019578D01*
X134971905Y-161019578D02*
X135019524Y-161067198D01*
X135019524Y-161067198D02*
X135114762Y-161114817D01*
X135114762Y-161114817D02*
X135305238Y-161114817D01*
X135305238Y-161114817D02*
X135400476Y-161067198D01*
X135400476Y-161067198D02*
X135448095Y-161019578D01*
X135448095Y-161019578D02*
X135495714Y-160924340D01*
X135495714Y-160924340D02*
X135495714Y-160733864D01*
X135495714Y-160733864D02*
X135448095Y-160638626D01*
X135448095Y-160638626D02*
X135400476Y-160591007D01*
X135400476Y-160591007D02*
X135305238Y-160543388D01*
X169874389Y-118878380D02*
X169008364Y-118378380D01*
X169008364Y-118378380D02*
X169127411Y-118172183D01*
X169127411Y-118172183D02*
X169240079Y-118072275D01*
X169240079Y-118072275D02*
X169370177Y-118037415D01*
X169370177Y-118037415D02*
X169476465Y-118043795D01*
X169476465Y-118043795D02*
X169665232Y-118097794D01*
X169665232Y-118097794D02*
X169788950Y-118169222D01*
X169788950Y-118169222D02*
X169930097Y-118305700D01*
X169930097Y-118305700D02*
X169988766Y-118394558D01*
X169988766Y-118394558D02*
X170023626Y-118524656D01*
X170023626Y-118524656D02*
X169993437Y-118672183D01*
X169993437Y-118672183D02*
X169874389Y-118878380D01*
X169722649Y-117141201D02*
X169627411Y-117306158D01*
X169627411Y-117306158D02*
X169621031Y-117412446D01*
X169621031Y-117412446D02*
X169638461Y-117477495D01*
X169638461Y-117477495D02*
X169714560Y-117631402D01*
X169714560Y-117631402D02*
X169855708Y-117767879D01*
X169855708Y-117767879D02*
X170185622Y-117958356D01*
X170185622Y-117958356D02*
X170291910Y-117964735D01*
X170291910Y-117964735D02*
X170356959Y-117947306D01*
X170356959Y-117947306D02*
X170445818Y-117888637D01*
X170445818Y-117888637D02*
X170541056Y-117723679D01*
X170541056Y-117723679D02*
X170547435Y-117617391D01*
X170547435Y-117617391D02*
X170530006Y-117552342D01*
X170530006Y-117552342D02*
X170471337Y-117463484D01*
X170471337Y-117463484D02*
X170265140Y-117344436D01*
X170265140Y-117344436D02*
X170158852Y-117338057D01*
X170158852Y-117338057D02*
X170093803Y-117355486D01*
X170093803Y-117355486D02*
X170004945Y-117414155D01*
X170004945Y-117414155D02*
X169909707Y-117579113D01*
X169909707Y-117579113D02*
X169903327Y-117685401D01*
X169903327Y-117685401D02*
X169920757Y-117750450D01*
X169920757Y-117750450D02*
X169979426Y-117839308D01*
X104259962Y-49443380D02*
X103759962Y-48577354D01*
X103759962Y-48577354D02*
X103966159Y-48458307D01*
X103966159Y-48458307D02*
X104113686Y-48428117D01*
X104113686Y-48428117D02*
X104243784Y-48462977D01*
X104243784Y-48462977D02*
X104332642Y-48521646D01*
X104332642Y-48521646D02*
X104469120Y-48662794D01*
X104469120Y-48662794D02*
X104540548Y-48786512D01*
X104540548Y-48786512D02*
X104594547Y-48975278D01*
X104594547Y-48975278D02*
X104600927Y-49081567D01*
X104600927Y-49081567D02*
X104566067Y-49211664D01*
X104566067Y-49211664D02*
X104466159Y-49324332D01*
X104466159Y-49324332D02*
X104259962Y-49443380D01*
X104543509Y-48124973D02*
X105120859Y-47791640D01*
X105120859Y-47791640D02*
X105249706Y-48871951D01*
X160495143Y-46279064D02*
X160995143Y-45413039D01*
X160995143Y-45413039D02*
X161201340Y-45532086D01*
X161201340Y-45532086D02*
X161301248Y-45644754D01*
X161301248Y-45644754D02*
X161336108Y-45774852D01*
X161336108Y-45774852D02*
X161329728Y-45881140D01*
X161329728Y-45881140D02*
X161275729Y-46069907D01*
X161275729Y-46069907D02*
X161204301Y-46193625D01*
X161204301Y-46193625D02*
X161067823Y-46334772D01*
X161067823Y-46334772D02*
X160978965Y-46393441D01*
X160978965Y-46393441D02*
X160848867Y-46428301D01*
X160848867Y-46428301D02*
X160701340Y-46398112D01*
X160701340Y-46398112D02*
X160495143Y-46279064D01*
X161778690Y-45865420D02*
X162356040Y-46198753D01*
X162356040Y-46198753D02*
X161484886Y-46850493D01*
D11*
%TO.C,D6*%
X113037754Y-55870772D02*
X106715768Y-59520772D01*
X110287754Y-51107632D02*
X103965768Y-54757632D01*
X103965768Y-54757632D02*
X104540768Y-55753561D01*
%TO.C,D5*%
X169100410Y-83394231D02*
X165450410Y-77072245D01*
X173863550Y-80644231D02*
X170213550Y-74322245D01*
X170213550Y-74322245D02*
X169217621Y-74897245D01*
%TO.C,D8*%
X174530002Y-92780000D02*
X174530002Y-100080000D01*
X169030002Y-92780000D02*
X169030002Y-100080000D01*
X169030002Y-100080000D02*
X170180002Y-100080000D01*
%TO.C,D6*%
X114672245Y-135654071D02*
X120994231Y-139304071D01*
X111922245Y-140417211D02*
X118244231Y-144067211D01*
X118244231Y-144067211D02*
X118819231Y-143071282D01*
%TO.C,D5*%
X100210001Y-95500000D02*
X100210001Y-102800000D01*
X94710001Y-95500000D02*
X94710001Y-102800000D01*
X94710001Y-102800000D02*
X95860001Y-102800000D01*
%TO.C,D7*%
X109092245Y-145318913D02*
X115414231Y-148968913D01*
X106342245Y-150082053D02*
X112664231Y-153732053D01*
X112664231Y-153732053D02*
X113239231Y-152736124D01*
%TO.C,D8*%
X170747755Y-37297211D02*
X164425769Y-33647211D01*
X173497755Y-32534071D02*
X167175769Y-28884071D01*
X167175769Y-28884071D02*
X166600769Y-29880000D01*
%TO.C,D5*%
X207550001Y-92779999D02*
X207550001Y-100079999D01*
X202050001Y-92779999D02*
X202050001Y-100079999D01*
X202050001Y-100079999D02*
X203200001Y-100079999D01*
%TO.C,D7*%
X85821087Y-65912245D02*
X82171087Y-72234231D01*
X81057947Y-63162245D02*
X77407947Y-69484231D01*
X77407947Y-69484231D02*
X78403876Y-70059231D01*
%TO.C,D5*%
X146542244Y-125335252D02*
X152864230Y-121685252D01*
X149292244Y-130098392D02*
X155614230Y-126448392D01*
X155614230Y-126448392D02*
X155039230Y-125452463D01*
%TO.C,D6*%
X130970000Y-30270000D02*
X138270000Y-30270000D01*
X130970000Y-35770000D02*
X138270000Y-35770000D01*
X138270000Y-35770000D02*
X138270000Y-34620000D01*
%TO.C,D7*%
X131060000Y-149709999D02*
X138360000Y-149709999D01*
X131060000Y-155209999D02*
X138360000Y-155209999D01*
X138360000Y-155209999D02*
X138360000Y-154059999D01*
%TO.C,D8*%
X101607755Y-36073433D02*
X95285769Y-39723433D01*
X98857755Y-31310293D02*
X92535769Y-34960293D01*
X92535769Y-34960293D02*
X93110769Y-35956222D01*
%TO.C,D6*%
X90050000Y-95500000D02*
X90050000Y-102800000D01*
X84550000Y-95500000D02*
X84550000Y-102800000D01*
X84550000Y-102800000D02*
X85700000Y-102800000D01*
%TO.C,D7*%
X187564071Y-72734231D02*
X183914071Y-66412245D01*
X192327211Y-69984231D02*
X188677211Y-63662245D01*
X188677211Y-63662245D02*
X187681282Y-64237245D01*
%TO.C,D5*%
X104284748Y-76572245D02*
X100634748Y-82894231D01*
X99521608Y-73822245D02*
X95871608Y-80144231D01*
X95871608Y-80144231D02*
X96867537Y-80719231D01*
X118117755Y-64669591D02*
X111795769Y-68319591D01*
X115367755Y-59906451D02*
X109045769Y-63556451D01*
X109045769Y-63556451D02*
X109620769Y-64552380D01*
%TO.C,D8*%
X188471410Y-132977754D02*
X192121410Y-126655768D01*
X193234550Y-135727754D02*
X196884550Y-129405768D01*
X196884550Y-129405768D02*
X195888621Y-128830768D01*
%TO.C,D6*%
X95485929Y-71492245D02*
X91835929Y-77814231D01*
X90722789Y-68742245D02*
X87072789Y-75064231D01*
X87072789Y-75064231D02*
X88068718Y-75639231D01*
%TO.C,D8*%
X75688590Y-60062246D02*
X72038590Y-66384232D01*
X70925450Y-57312246D02*
X67275450Y-63634232D01*
X67275450Y-63634232D02*
X68271379Y-64209232D01*
%TO.C,U1*%
X104082500Y-81570000D02*
X104082500Y-87985000D01*
X104082500Y-81570000D02*
X122322500Y-81570000D01*
X104082500Y-87985000D02*
X103702500Y-87985000D01*
X104082500Y-106530000D02*
X104082500Y-107310000D01*
X104082500Y-107310000D02*
X105082500Y-107310000D01*
X122322500Y-81570000D02*
X122322500Y-87985000D01*
X122322500Y-106530000D02*
X122322500Y-107310000D01*
X122322500Y-107310000D02*
X121322500Y-107310000D01*
%TO.C,D5*%
X130970000Y-20110000D02*
X138270000Y-20110000D01*
X130970000Y-25610000D02*
X138270000Y-25610000D01*
X138270000Y-25610000D02*
X138270000Y-24460000D01*
%TO.C,D7*%
X178338913Y-127127755D02*
X181988913Y-120805769D01*
X183102053Y-129877755D02*
X186752053Y-123555769D01*
X186752053Y-123555769D02*
X185756124Y-122980769D01*
X130970000Y-41430000D02*
X138270000Y-41430000D01*
X130970000Y-46930000D02*
X138270000Y-46930000D01*
X138270000Y-46930000D02*
X138270000Y-45780000D01*
%TO.C,D5*%
X154237756Y-65893369D02*
X147915770Y-62243369D01*
X156987756Y-61130229D02*
X150665770Y-57480229D01*
X150665770Y-57480229D02*
X150090770Y-58476158D01*
%TO.C,D8*%
X103242246Y-155451410D02*
X109564232Y-159101410D01*
X100492246Y-160214550D02*
X106814232Y-163864550D01*
X106814232Y-163864550D02*
X107389232Y-162868621D01*
%TO.C,D6*%
X177899228Y-78314230D02*
X174249228Y-71992244D01*
X182662368Y-75564230D02*
X179012368Y-69242244D01*
X179012368Y-69242244D02*
X178016439Y-69817244D01*
%TO.C,D5*%
X159875252Y-116467755D02*
X163525252Y-110145769D01*
X164638392Y-119217755D02*
X168288392Y-112895769D01*
X168288392Y-112895769D02*
X167292463Y-112320769D01*
%TO.C,D8*%
X197696568Y-66884231D02*
X194046568Y-60562245D01*
X202459708Y-64134231D02*
X198809708Y-57812245D01*
X198809708Y-57812245D02*
X197813779Y-58387245D01*
%TO.C,D7*%
X157202244Y-143798913D02*
X163524230Y-140148913D01*
X159952244Y-148562053D02*
X166274230Y-144912053D01*
X166274230Y-144912053D02*
X165699230Y-143916124D01*
%TO.C,D8*%
X67190002Y-95500000D02*
X67190002Y-102800000D01*
X61690002Y-95500000D02*
X61690002Y-102800000D01*
X61690002Y-102800000D02*
X62840002Y-102800000D01*
%TO.C,D6*%
X159317755Y-57094551D02*
X152995769Y-53444551D01*
X162067755Y-52331411D02*
X155745769Y-48681411D01*
X155745769Y-48681411D02*
X155170769Y-49677340D01*
%TO.C,D5*%
X131060000Y-128389999D02*
X138360000Y-128389999D01*
X131060000Y-133889999D02*
X138360000Y-133889999D01*
X138360000Y-133889999D02*
X138360000Y-132739999D01*
X105804748Y-113522244D02*
X109454748Y-119844230D01*
X101041608Y-116272244D02*
X104691608Y-122594230D01*
X104691608Y-122594230D02*
X105687537Y-122019230D01*
%TO.C,D8*%
X77208590Y-130032244D02*
X80858590Y-136354230D01*
X72445450Y-132782244D02*
X76095450Y-139104230D01*
X76095450Y-139104230D02*
X77091379Y-138529230D01*
%TO.C,D5*%
X119752245Y-126855252D02*
X126074231Y-130505252D01*
X117002245Y-131618392D02*
X123324231Y-135268392D01*
X123324231Y-135268392D02*
X123899231Y-134272463D01*
%TO.C,D6*%
X131060000Y-138550000D02*
X138360000Y-138550000D01*
X131060000Y-144050000D02*
X138360000Y-144050000D01*
X138360000Y-144050000D02*
X138360000Y-142900000D01*
X97005929Y-118602245D02*
X100655929Y-124924231D01*
X92242789Y-121352245D02*
X95892789Y-127674231D01*
X95892789Y-127674231D02*
X96888718Y-127099231D01*
X197390000Y-92780000D02*
X197390000Y-100080000D01*
X191890000Y-92780000D02*
X191890000Y-100080000D01*
X191890000Y-100080000D02*
X193040000Y-100080000D01*
%TO.C,D8*%
X130970000Y-53130000D02*
X138270000Y-53130000D01*
X130970000Y-58630000D02*
X138270000Y-58630000D01*
X138270000Y-58630000D02*
X138270000Y-57480000D01*
%TO.C,D6*%
X151622245Y-134134071D02*
X157944231Y-130484071D01*
X154372245Y-138897211D02*
X160694231Y-135247211D01*
X160694231Y-135247211D02*
X160119231Y-134251282D01*
%TO.C,D7*%
X78890001Y-95500000D02*
X78890001Y-102800000D01*
X73390001Y-95500000D02*
X73390001Y-102800000D01*
X73390001Y-102800000D02*
X74540001Y-102800000D01*
%TO.C,D8*%
X163052244Y-153931410D02*
X169374230Y-150281410D01*
X165802244Y-158694550D02*
X172124230Y-155044550D01*
X172124230Y-155044550D02*
X171549230Y-154048621D01*
%TO.C,D7*%
X87341087Y-124182244D02*
X90991087Y-130504230D01*
X82577947Y-126932244D02*
X86227947Y-133254230D01*
X86227947Y-133254230D02*
X87223876Y-132679230D01*
X186230001Y-92779999D02*
X186230001Y-100079999D01*
X180730001Y-92779999D02*
X180730001Y-100079999D01*
X180730001Y-100079999D02*
X181880001Y-100079999D01*
%TO.C,D8*%
X131060000Y-161409998D02*
X138360000Y-161409998D01*
X131060000Y-166909998D02*
X138360000Y-166909998D01*
X138360000Y-166909998D02*
X138360000Y-165759998D01*
%TO.C,D6*%
X168674071Y-121547755D02*
X172324071Y-115225769D01*
X173437211Y-124297755D02*
X177087211Y-117975769D01*
X177087211Y-117975769D02*
X176091282Y-117400769D01*
%TO.C,D7*%
X107457755Y-46205929D02*
X101135769Y-49855929D01*
X104707755Y-41442789D02*
X98385769Y-45092789D01*
X98385769Y-45092789D02*
X98960769Y-46088718D01*
X164897755Y-47429708D02*
X158575769Y-43779708D01*
X167647755Y-42666568D02*
X161325769Y-39016568D01*
X161325769Y-39016568D02*
X160750769Y-40012497D01*
%TD*%
%LPC*%
D12*
%TO.C,D6*%
X105579999Y-55153561D03*
X107179999Y-57924843D03*
X111423523Y-55474843D03*
X109823523Y-52703561D03*
%TD*%
D13*
%TO.C,D5*%
X169817621Y-75936476D03*
X167046339Y-77536476D03*
X169496339Y-81780000D03*
X172267621Y-80180000D03*
%TD*%
D14*
%TO.C,D8*%
X170180002Y-98880000D03*
X173380002Y-98880000D03*
X173380002Y-93980000D03*
X170180002Y-93980000D03*
%TD*%
D15*
%TO.C,D6*%
X117780000Y-142471282D03*
X119380000Y-139700000D03*
X115136476Y-137250000D03*
X113536476Y-140021282D03*
%TD*%
D14*
%TO.C,D5*%
X95860001Y-101600000D03*
X99060001Y-101600000D03*
X99060001Y-96700000D03*
X95860001Y-96700000D03*
%TD*%
D15*
%TO.C,D7*%
X112200000Y-152136124D03*
X113800000Y-149364842D03*
X109556476Y-146914842D03*
X107956476Y-149686124D03*
%TD*%
D16*
%TO.C,D8*%
X167640000Y-30480000D03*
X166040000Y-33251282D03*
X170283524Y-35701282D03*
X171883524Y-32930000D03*
%TD*%
D14*
%TO.C,D5*%
X203200001Y-98879999D03*
X206400001Y-98879999D03*
X206400001Y-93979999D03*
X203200001Y-93979999D03*
%TD*%
D17*
%TO.C,H2*%
X134620000Y-109220000D03*
%TD*%
%TO.C,H4*%
X116840000Y-119380000D03*
%TD*%
D18*
%TO.C,D7*%
X79003876Y-69020000D03*
X81775158Y-70620000D03*
X84225158Y-66376476D03*
X81453876Y-64776476D03*
%TD*%
D19*
%TO.C,D5*%
X153999999Y-126052463D03*
X152399999Y-123281181D03*
X148156475Y-125731181D03*
X149756475Y-128502463D03*
%TD*%
D20*
%TO.C,D6*%
X137070000Y-34620000D03*
X137070000Y-31420000D03*
X132170000Y-31420000D03*
X132170000Y-34620000D03*
%TD*%
%TO.C,D7*%
X137160000Y-154059999D03*
X137160000Y-150859999D03*
X132260000Y-150859999D03*
X132260000Y-154059999D03*
%TD*%
D12*
%TO.C,D8*%
X94150000Y-35356222D03*
X95750000Y-38127504D03*
X99993524Y-35677504D03*
X98393524Y-32906222D03*
%TD*%
D14*
%TO.C,D6*%
X85700000Y-101600000D03*
X88900000Y-101600000D03*
X88900000Y-96700000D03*
X85700000Y-96700000D03*
%TD*%
D13*
%TO.C,D7*%
X188281282Y-65276476D03*
X185510000Y-66876476D03*
X187960000Y-71120000D03*
X190731282Y-69520000D03*
%TD*%
D18*
%TO.C,D5*%
X97467537Y-79680000D03*
X100238819Y-81280000D03*
X102688819Y-77036476D03*
X99917537Y-75436476D03*
%TD*%
D12*
%TO.C,D5*%
X110660000Y-63952380D03*
X112260000Y-66723662D03*
X116503524Y-64273662D03*
X114903524Y-61502380D03*
%TD*%
D21*
%TO.C,D8*%
X195288621Y-129869999D03*
X192517339Y-128269999D03*
X190067339Y-132513523D03*
X192838621Y-134113523D03*
%TD*%
D18*
%TO.C,D6*%
X88668718Y-74600000D03*
X91440000Y-76200000D03*
X93890000Y-71956476D03*
X91118718Y-70356476D03*
%TD*%
%TO.C,D8*%
X68871379Y-63170001D03*
X71642661Y-64770001D03*
X74092661Y-60526477D03*
X71321379Y-58926477D03*
%TD*%
D22*
%TO.C,U1*%
X104452500Y-89180000D03*
X104452500Y-90450000D03*
X104452500Y-91720000D03*
X104452500Y-92990000D03*
X104452500Y-94260000D03*
X104452500Y-95530000D03*
X104452500Y-96800000D03*
X104452500Y-98070000D03*
X104452500Y-99340000D03*
X104452500Y-100610000D03*
X104452500Y-101880000D03*
X104452500Y-103150000D03*
X104452500Y-104420000D03*
X104452500Y-105690000D03*
D23*
X107492500Y-106940000D03*
X108762500Y-106940000D03*
X110032500Y-106940000D03*
X111302500Y-106940000D03*
X112572500Y-106940000D03*
X113842500Y-106940000D03*
X115112500Y-106940000D03*
X116382500Y-106940000D03*
X117652500Y-106940000D03*
X118922500Y-106940000D03*
D22*
X121952500Y-105690000D03*
X121952500Y-104420000D03*
X121952500Y-103150000D03*
X121952500Y-101880000D03*
X121952500Y-100610000D03*
X121952500Y-99340000D03*
X121952500Y-98070000D03*
X121952500Y-96800000D03*
X121952500Y-95530000D03*
X121952500Y-94260000D03*
X121952500Y-92990000D03*
X121952500Y-91720000D03*
X121952500Y-90450000D03*
X121952500Y-89180000D03*
D24*
X110997500Y-95757500D03*
X110997500Y-97282500D03*
X111760000Y-94995000D03*
X111760000Y-96520000D03*
X111760000Y-98045000D03*
X112522500Y-95757500D03*
D25*
X112522500Y-96520000D03*
D24*
X112522500Y-97282500D03*
X113285000Y-94995000D03*
X113285000Y-96520000D03*
X113285000Y-98045000D03*
X114047500Y-95757500D03*
X114047500Y-97282500D03*
%TD*%
D20*
%TO.C,D5*%
X137070000Y-24460000D03*
X137070000Y-21260000D03*
X132170000Y-21260000D03*
X132170000Y-24460000D03*
%TD*%
D21*
%TO.C,D7*%
X185156124Y-124020000D03*
X182384842Y-122420000D03*
X179934842Y-126663524D03*
X182706124Y-128263524D03*
%TD*%
D20*
%TO.C,D7*%
X137070000Y-45780000D03*
X137070000Y-42580000D03*
X132170000Y-42580000D03*
X132170000Y-45780000D03*
%TD*%
D16*
%TO.C,D5*%
X151130001Y-59076158D03*
X149530001Y-61847440D03*
X153773525Y-64297440D03*
X155373525Y-61526158D03*
%TD*%
D15*
%TO.C,D8*%
X106350001Y-162268621D03*
X107950001Y-159497339D03*
X103706477Y-157047339D03*
X102106477Y-159818621D03*
%TD*%
D13*
%TO.C,D6*%
X178616439Y-70856475D03*
X175845157Y-72456475D03*
X178295157Y-76699999D03*
X181066439Y-75099999D03*
%TD*%
D21*
%TO.C,D5*%
X166692463Y-113360000D03*
X163921181Y-111760000D03*
X161471181Y-116003524D03*
X164242463Y-117603524D03*
%TD*%
D13*
%TO.C,D8*%
X198413779Y-59426476D03*
X195642497Y-61026476D03*
X198092497Y-65270000D03*
X200863779Y-63670000D03*
%TD*%
D19*
%TO.C,D7*%
X164659999Y-144516124D03*
X163059999Y-141744842D03*
X158816475Y-144194842D03*
X160416475Y-146966124D03*
%TD*%
D14*
%TO.C,D8*%
X62840002Y-101600000D03*
X66040002Y-101600000D03*
X66040002Y-96700000D03*
X62840002Y-96700000D03*
%TD*%
D16*
%TO.C,D6*%
X156210000Y-50277340D03*
X154610000Y-53048622D03*
X158853524Y-55498622D03*
X160453524Y-52727340D03*
%TD*%
D20*
%TO.C,D5*%
X137160000Y-132739999D03*
X137160000Y-129539999D03*
X132260000Y-129539999D03*
X132260000Y-132739999D03*
%TD*%
D26*
%TO.C,D5*%
X105087537Y-120979999D03*
X107858819Y-119379999D03*
X105408819Y-115136475D03*
X102637537Y-116736475D03*
%TD*%
D17*
%TO.C,H3*%
X134620000Y-78740000D03*
%TD*%
D26*
%TO.C,D8*%
X76491379Y-137489999D03*
X79262661Y-135889999D03*
X76812661Y-131646475D03*
X74041379Y-133246475D03*
%TD*%
D15*
%TO.C,D5*%
X122860000Y-133672463D03*
X124460000Y-130901181D03*
X120216476Y-128451181D03*
X118616476Y-131222463D03*
%TD*%
D20*
%TO.C,D6*%
X137160000Y-142900000D03*
X137160000Y-139700000D03*
X132260000Y-139700000D03*
X132260000Y-142900000D03*
%TD*%
D26*
%TO.C,D6*%
X96288718Y-126060000D03*
X99060000Y-124460000D03*
X96610000Y-120216476D03*
X93838718Y-121816476D03*
%TD*%
D14*
%TO.C,D6*%
X193040000Y-98880000D03*
X196240000Y-98880000D03*
X196240000Y-93980000D03*
X193040000Y-93980000D03*
%TD*%
D20*
%TO.C,D8*%
X137070000Y-57480000D03*
X137070000Y-54280000D03*
X132170000Y-54280000D03*
X132170000Y-57480000D03*
%TD*%
D19*
%TO.C,D6*%
X159080000Y-134851282D03*
X157480000Y-132080000D03*
X153236476Y-134530000D03*
X154836476Y-137301282D03*
%TD*%
D14*
%TO.C,D7*%
X74540001Y-101600000D03*
X77740001Y-101600000D03*
X77740001Y-96700000D03*
X74540001Y-96700000D03*
%TD*%
D19*
%TO.C,D8*%
X170509999Y-154648621D03*
X168909999Y-151877339D03*
X164666475Y-154327339D03*
X166266475Y-157098621D03*
%TD*%
D26*
%TO.C,D7*%
X86623876Y-131639999D03*
X89395158Y-130039999D03*
X86945158Y-125796475D03*
X84173876Y-127396475D03*
%TD*%
D14*
%TO.C,D7*%
X181880001Y-98879999D03*
X185080001Y-98879999D03*
X185080001Y-93979999D03*
X181880001Y-93979999D03*
%TD*%
D20*
%TO.C,D8*%
X137160000Y-165759998D03*
X137160000Y-162559998D03*
X132260000Y-162559998D03*
X132260000Y-165759998D03*
%TD*%
D21*
%TO.C,D6*%
X175491282Y-118440000D03*
X172720000Y-116840000D03*
X170270000Y-121083524D03*
X173041282Y-122683524D03*
%TD*%
D12*
%TO.C,D7*%
X100000000Y-45488718D03*
X101600000Y-48260000D03*
X105843524Y-45810000D03*
X104243524Y-43038718D03*
%TD*%
D16*
%TO.C,D7*%
X161790000Y-40612497D03*
X160190000Y-43383779D03*
X164433524Y-45833779D03*
X166033524Y-43062497D03*
%TD*%
%LPD*%
M02*
