%TF.GenerationSoftware,KiCad,Pcbnew,8.0.1*%
%TF.CreationDate,2024-04-03T22:21:12+02:00*%
%TF.ProjectId,LEDTischLampe,4c454454-6973-4636-984c-616d70652e6b,rev?*%
%TF.SameCoordinates,Original*%
%TF.FileFunction,Other,Comment*%
%FSLAX46Y46*%
G04 Gerber Fmt 4.6, Leading zero omitted, Abs format (unit mm)*
G04 Created by KiCad (PCBNEW 8.0.1) date 2024-04-03 22:21:12*
%MOMM*%
%LPD*%
G01*
G04 APERTURE LIST*
%ADD10C,0.150000*%
%ADD11C,0.100000*%
G04 APERTURE END LIST*
D10*
X107131071Y-78884819D02*
X107131071Y-77884819D01*
X107702499Y-78884819D02*
X107273928Y-78313390D01*
X107702499Y-77884819D02*
X107131071Y-78456247D01*
X108131071Y-78361009D02*
X108464404Y-78361009D01*
X108607261Y-78884819D02*
X108131071Y-78884819D01*
X108131071Y-78884819D02*
X108131071Y-77884819D01*
X108131071Y-77884819D02*
X108607261Y-77884819D01*
X109035833Y-78361009D02*
X109369166Y-78361009D01*
X109512023Y-78884819D02*
X109035833Y-78884819D01*
X109035833Y-78884819D02*
X109035833Y-77884819D01*
X109035833Y-77884819D02*
X109512023Y-77884819D01*
X109940595Y-78884819D02*
X109940595Y-77884819D01*
X109940595Y-77884819D02*
X110321547Y-77884819D01*
X110321547Y-77884819D02*
X110416785Y-77932438D01*
X110416785Y-77932438D02*
X110464404Y-77980057D01*
X110464404Y-77980057D02*
X110512023Y-78075295D01*
X110512023Y-78075295D02*
X110512023Y-78218152D01*
X110512023Y-78218152D02*
X110464404Y-78313390D01*
X110464404Y-78313390D02*
X110416785Y-78361009D01*
X110416785Y-78361009D02*
X110321547Y-78408628D01*
X110321547Y-78408628D02*
X109940595Y-78408628D01*
X110940595Y-78503866D02*
X111702500Y-78503866D01*
X112369166Y-77884819D02*
X112559642Y-77884819D01*
X112559642Y-77884819D02*
X112654880Y-77932438D01*
X112654880Y-77932438D02*
X112750118Y-78027676D01*
X112750118Y-78027676D02*
X112797737Y-78218152D01*
X112797737Y-78218152D02*
X112797737Y-78551485D01*
X112797737Y-78551485D02*
X112750118Y-78741961D01*
X112750118Y-78741961D02*
X112654880Y-78837200D01*
X112654880Y-78837200D02*
X112559642Y-78884819D01*
X112559642Y-78884819D02*
X112369166Y-78884819D01*
X112369166Y-78884819D02*
X112273928Y-78837200D01*
X112273928Y-78837200D02*
X112178690Y-78741961D01*
X112178690Y-78741961D02*
X112131071Y-78551485D01*
X112131071Y-78551485D02*
X112131071Y-78218152D01*
X112131071Y-78218152D02*
X112178690Y-78027676D01*
X112178690Y-78027676D02*
X112273928Y-77932438D01*
X112273928Y-77932438D02*
X112369166Y-77884819D01*
X113226309Y-77884819D02*
X113226309Y-78694342D01*
X113226309Y-78694342D02*
X113273928Y-78789580D01*
X113273928Y-78789580D02*
X113321547Y-78837200D01*
X113321547Y-78837200D02*
X113416785Y-78884819D01*
X113416785Y-78884819D02*
X113607261Y-78884819D01*
X113607261Y-78884819D02*
X113702499Y-78837200D01*
X113702499Y-78837200D02*
X113750118Y-78789580D01*
X113750118Y-78789580D02*
X113797737Y-78694342D01*
X113797737Y-78694342D02*
X113797737Y-77884819D01*
X114131071Y-77884819D02*
X114702499Y-77884819D01*
X114416785Y-78884819D02*
X114416785Y-77884819D01*
X115702500Y-77884819D02*
X116369166Y-77884819D01*
X116369166Y-77884819D02*
X115702500Y-78884819D01*
X115702500Y-78884819D02*
X116369166Y-78884819D01*
X116940595Y-77884819D02*
X117131071Y-77884819D01*
X117131071Y-77884819D02*
X117226309Y-77932438D01*
X117226309Y-77932438D02*
X117321547Y-78027676D01*
X117321547Y-78027676D02*
X117369166Y-78218152D01*
X117369166Y-78218152D02*
X117369166Y-78551485D01*
X117369166Y-78551485D02*
X117321547Y-78741961D01*
X117321547Y-78741961D02*
X117226309Y-78837200D01*
X117226309Y-78837200D02*
X117131071Y-78884819D01*
X117131071Y-78884819D02*
X116940595Y-78884819D01*
X116940595Y-78884819D02*
X116845357Y-78837200D01*
X116845357Y-78837200D02*
X116750119Y-78741961D01*
X116750119Y-78741961D02*
X116702500Y-78551485D01*
X116702500Y-78551485D02*
X116702500Y-78218152D01*
X116702500Y-78218152D02*
X116750119Y-78027676D01*
X116750119Y-78027676D02*
X116845357Y-77932438D01*
X116845357Y-77932438D02*
X116940595Y-77884819D01*
X117797738Y-78884819D02*
X117797738Y-77884819D01*
X117797738Y-77884819D02*
X118369166Y-78884819D01*
X118369166Y-78884819D02*
X118369166Y-77884819D01*
X118845357Y-78361009D02*
X119178690Y-78361009D01*
X119321547Y-78884819D02*
X118845357Y-78884819D01*
X118845357Y-78884819D02*
X118845357Y-77884819D01*
X118845357Y-77884819D02*
X119321547Y-77884819D01*
D11*
X101264404Y-82781109D02*
X101026309Y-82781109D01*
X101026309Y-82781109D02*
X101002500Y-83019204D01*
X101002500Y-83019204D02*
X101026309Y-82995395D01*
X101026309Y-82995395D02*
X101073928Y-82971585D01*
X101073928Y-82971585D02*
X101192976Y-82971585D01*
X101192976Y-82971585D02*
X101240595Y-82995395D01*
X101240595Y-82995395D02*
X101264404Y-83019204D01*
X101264404Y-83019204D02*
X101288214Y-83066823D01*
X101288214Y-83066823D02*
X101288214Y-83185871D01*
X101288214Y-83185871D02*
X101264404Y-83233490D01*
X101264404Y-83233490D02*
X101240595Y-83257300D01*
X101240595Y-83257300D02*
X101192976Y-83281109D01*
X101192976Y-83281109D02*
X101073928Y-83281109D01*
X101073928Y-83281109D02*
X101026309Y-83257300D01*
X101026309Y-83257300D02*
X101002500Y-83233490D01*
X101883451Y-83281109D02*
X101883451Y-82947776D01*
X101883451Y-82995395D02*
X101907261Y-82971585D01*
X101907261Y-82971585D02*
X101954880Y-82947776D01*
X101954880Y-82947776D02*
X102026308Y-82947776D01*
X102026308Y-82947776D02*
X102073927Y-82971585D01*
X102073927Y-82971585D02*
X102097737Y-83019204D01*
X102097737Y-83019204D02*
X102097737Y-83281109D01*
X102097737Y-83019204D02*
X102121546Y-82971585D01*
X102121546Y-82971585D02*
X102169165Y-82947776D01*
X102169165Y-82947776D02*
X102240594Y-82947776D01*
X102240594Y-82947776D02*
X102288213Y-82971585D01*
X102288213Y-82971585D02*
X102312023Y-83019204D01*
X102312023Y-83019204D02*
X102312023Y-83281109D01*
X102550118Y-83281109D02*
X102550118Y-82947776D01*
X102550118Y-82995395D02*
X102573928Y-82971585D01*
X102573928Y-82971585D02*
X102621547Y-82947776D01*
X102621547Y-82947776D02*
X102692975Y-82947776D01*
X102692975Y-82947776D02*
X102740594Y-82971585D01*
X102740594Y-82971585D02*
X102764404Y-83019204D01*
X102764404Y-83019204D02*
X102764404Y-83281109D01*
X102764404Y-83019204D02*
X102788213Y-82971585D01*
X102788213Y-82971585D02*
X102835832Y-82947776D01*
X102835832Y-82947776D02*
X102907261Y-82947776D01*
X102907261Y-82947776D02*
X102954880Y-82971585D01*
X102954880Y-82971585D02*
X102978690Y-83019204D01*
X102978690Y-83019204D02*
X102978690Y-83281109D01*
D10*
X110440595Y-84599104D02*
X110916785Y-84599104D01*
X110345357Y-84884819D02*
X110678690Y-83884819D01*
X110678690Y-83884819D02*
X111012023Y-84884819D01*
X111345357Y-84218152D02*
X111345357Y-84884819D01*
X111345357Y-84313390D02*
X111392976Y-84265771D01*
X111392976Y-84265771D02*
X111488214Y-84218152D01*
X111488214Y-84218152D02*
X111631071Y-84218152D01*
X111631071Y-84218152D02*
X111726309Y-84265771D01*
X111726309Y-84265771D02*
X111773928Y-84361009D01*
X111773928Y-84361009D02*
X111773928Y-84884819D01*
X112107262Y-84218152D02*
X112488214Y-84218152D01*
X112250119Y-83884819D02*
X112250119Y-84741961D01*
X112250119Y-84741961D02*
X112297738Y-84837200D01*
X112297738Y-84837200D02*
X112392976Y-84884819D01*
X112392976Y-84884819D02*
X112488214Y-84884819D01*
X113202500Y-84837200D02*
X113107262Y-84884819D01*
X113107262Y-84884819D02*
X112916786Y-84884819D01*
X112916786Y-84884819D02*
X112821548Y-84837200D01*
X112821548Y-84837200D02*
X112773929Y-84741961D01*
X112773929Y-84741961D02*
X112773929Y-84361009D01*
X112773929Y-84361009D02*
X112821548Y-84265771D01*
X112821548Y-84265771D02*
X112916786Y-84218152D01*
X112916786Y-84218152D02*
X113107262Y-84218152D01*
X113107262Y-84218152D02*
X113202500Y-84265771D01*
X113202500Y-84265771D02*
X113250119Y-84361009D01*
X113250119Y-84361009D02*
X113250119Y-84456247D01*
X113250119Y-84456247D02*
X112773929Y-84551485D01*
X113678691Y-84218152D02*
X113678691Y-84884819D01*
X113678691Y-84313390D02*
X113726310Y-84265771D01*
X113726310Y-84265771D02*
X113821548Y-84218152D01*
X113821548Y-84218152D02*
X113964405Y-84218152D01*
X113964405Y-84218152D02*
X114059643Y-84265771D01*
X114059643Y-84265771D02*
X114107262Y-84361009D01*
X114107262Y-84361009D02*
X114107262Y-84884819D01*
X114583453Y-84218152D02*
X114583453Y-84884819D01*
X114583453Y-84313390D02*
X114631072Y-84265771D01*
X114631072Y-84265771D02*
X114726310Y-84218152D01*
X114726310Y-84218152D02*
X114869167Y-84218152D01*
X114869167Y-84218152D02*
X114964405Y-84265771D01*
X114964405Y-84265771D02*
X115012024Y-84361009D01*
X115012024Y-84361009D02*
X115012024Y-84884819D01*
X115916786Y-84884819D02*
X115916786Y-84361009D01*
X115916786Y-84361009D02*
X115869167Y-84265771D01*
X115869167Y-84265771D02*
X115773929Y-84218152D01*
X115773929Y-84218152D02*
X115583453Y-84218152D01*
X115583453Y-84218152D02*
X115488215Y-84265771D01*
X115916786Y-84837200D02*
X115821548Y-84884819D01*
X115821548Y-84884819D02*
X115583453Y-84884819D01*
X115583453Y-84884819D02*
X115488215Y-84837200D01*
X115488215Y-84837200D02*
X115440596Y-84741961D01*
X115440596Y-84741961D02*
X115440596Y-84646723D01*
X115440596Y-84646723D02*
X115488215Y-84551485D01*
X115488215Y-84551485D02*
X115583453Y-84503866D01*
X115583453Y-84503866D02*
X115821548Y-84503866D01*
X115821548Y-84503866D02*
X115916786Y-84456247D01*
D11*
X124264404Y-82781109D02*
X124026309Y-82781109D01*
X124026309Y-82781109D02*
X124002500Y-83019204D01*
X124002500Y-83019204D02*
X124026309Y-82995395D01*
X124026309Y-82995395D02*
X124073928Y-82971585D01*
X124073928Y-82971585D02*
X124192976Y-82971585D01*
X124192976Y-82971585D02*
X124240595Y-82995395D01*
X124240595Y-82995395D02*
X124264404Y-83019204D01*
X124264404Y-83019204D02*
X124288214Y-83066823D01*
X124288214Y-83066823D02*
X124288214Y-83185871D01*
X124288214Y-83185871D02*
X124264404Y-83233490D01*
X124264404Y-83233490D02*
X124240595Y-83257300D01*
X124240595Y-83257300D02*
X124192976Y-83281109D01*
X124192976Y-83281109D02*
X124073928Y-83281109D01*
X124073928Y-83281109D02*
X124026309Y-83257300D01*
X124026309Y-83257300D02*
X124002500Y-83233490D01*
X124883451Y-83281109D02*
X124883451Y-82947776D01*
X124883451Y-82995395D02*
X124907261Y-82971585D01*
X124907261Y-82971585D02*
X124954880Y-82947776D01*
X124954880Y-82947776D02*
X125026308Y-82947776D01*
X125026308Y-82947776D02*
X125073927Y-82971585D01*
X125073927Y-82971585D02*
X125097737Y-83019204D01*
X125097737Y-83019204D02*
X125097737Y-83281109D01*
X125097737Y-83019204D02*
X125121546Y-82971585D01*
X125121546Y-82971585D02*
X125169165Y-82947776D01*
X125169165Y-82947776D02*
X125240594Y-82947776D01*
X125240594Y-82947776D02*
X125288213Y-82971585D01*
X125288213Y-82971585D02*
X125312023Y-83019204D01*
X125312023Y-83019204D02*
X125312023Y-83281109D01*
X125550118Y-83281109D02*
X125550118Y-82947776D01*
X125550118Y-82995395D02*
X125573928Y-82971585D01*
X125573928Y-82971585D02*
X125621547Y-82947776D01*
X125621547Y-82947776D02*
X125692975Y-82947776D01*
X125692975Y-82947776D02*
X125740594Y-82971585D01*
X125740594Y-82971585D02*
X125764404Y-83019204D01*
X125764404Y-83019204D02*
X125764404Y-83281109D01*
X125764404Y-83019204D02*
X125788213Y-82971585D01*
X125788213Y-82971585D02*
X125835832Y-82947776D01*
X125835832Y-82947776D02*
X125907261Y-82947776D01*
X125907261Y-82947776D02*
X125954880Y-82971585D01*
X125954880Y-82971585D02*
X125978690Y-83019204D01*
X125978690Y-83019204D02*
X125978690Y-83281109D01*
X120728609Y-79093095D02*
X120728609Y-79331190D01*
X120728609Y-79331190D02*
X120966704Y-79354999D01*
X120966704Y-79354999D02*
X120942895Y-79331190D01*
X120942895Y-79331190D02*
X120919085Y-79283571D01*
X120919085Y-79283571D02*
X120919085Y-79164523D01*
X120919085Y-79164523D02*
X120942895Y-79116904D01*
X120942895Y-79116904D02*
X120966704Y-79093095D01*
X120966704Y-79093095D02*
X121014323Y-79069285D01*
X121014323Y-79069285D02*
X121133371Y-79069285D01*
X121133371Y-79069285D02*
X121180990Y-79093095D01*
X121180990Y-79093095D02*
X121204800Y-79116904D01*
X121204800Y-79116904D02*
X121228609Y-79164523D01*
X121228609Y-79164523D02*
X121228609Y-79283571D01*
X121228609Y-79283571D02*
X121204800Y-79331190D01*
X121204800Y-79331190D02*
X121180990Y-79354999D01*
X121228609Y-78474048D02*
X120895276Y-78474048D01*
X120942895Y-78474048D02*
X120919085Y-78450238D01*
X120919085Y-78450238D02*
X120895276Y-78402619D01*
X120895276Y-78402619D02*
X120895276Y-78331191D01*
X120895276Y-78331191D02*
X120919085Y-78283572D01*
X120919085Y-78283572D02*
X120966704Y-78259762D01*
X120966704Y-78259762D02*
X121228609Y-78259762D01*
X120966704Y-78259762D02*
X120919085Y-78235953D01*
X120919085Y-78235953D02*
X120895276Y-78188334D01*
X120895276Y-78188334D02*
X120895276Y-78116905D01*
X120895276Y-78116905D02*
X120919085Y-78069286D01*
X120919085Y-78069286D02*
X120966704Y-78045476D01*
X120966704Y-78045476D02*
X121228609Y-78045476D01*
X121228609Y-77807381D02*
X120895276Y-77807381D01*
X120942895Y-77807381D02*
X120919085Y-77783571D01*
X120919085Y-77783571D02*
X120895276Y-77735952D01*
X120895276Y-77735952D02*
X120895276Y-77664524D01*
X120895276Y-77664524D02*
X120919085Y-77616905D01*
X120919085Y-77616905D02*
X120966704Y-77593095D01*
X120966704Y-77593095D02*
X121228609Y-77593095D01*
X120966704Y-77593095D02*
X120919085Y-77569286D01*
X120919085Y-77569286D02*
X120895276Y-77521667D01*
X120895276Y-77521667D02*
X120895276Y-77450238D01*
X120895276Y-77450238D02*
X120919085Y-77402619D01*
X120919085Y-77402619D02*
X120966704Y-77378809D01*
X120966704Y-77378809D02*
X121228609Y-77378809D01*
D10*
%TO.C,H2*%
X137820000Y-109220000D02*
G75*
G02*
X131420000Y-109220000I-3200000J0D01*
G01*
X131420000Y-109220000D02*
G75*
G02*
X137820000Y-109220000I3200000J0D01*
G01*
%TO.C,H4*%
X120040000Y-119380000D02*
G75*
G02*
X113640000Y-119380000I-3200000J0D01*
G01*
X113640000Y-119380000D02*
G75*
G02*
X120040000Y-119380000I3200000J0D01*
G01*
D11*
%TO.C,U1*%
X99402500Y-83555000D02*
X99602500Y-83355000D01*
X99402500Y-83555000D02*
X99602500Y-83755000D01*
X99402500Y-83555000D02*
X104002500Y-83555000D01*
X104002500Y-83555000D02*
X103802500Y-83355000D01*
X104002500Y-83555000D02*
X103802500Y-83755000D01*
X121602500Y-76830000D02*
X121402500Y-77030000D01*
X121602500Y-76830000D02*
X121802500Y-77030000D01*
X121602500Y-81430000D02*
X121402500Y-81230000D01*
X121602500Y-81430000D02*
X121602500Y-76830000D01*
X121602500Y-81430000D02*
X121802500Y-81230000D01*
X122402500Y-83555000D02*
X122602500Y-83355000D01*
X122402500Y-83555000D02*
X122602500Y-83755000D01*
X122402500Y-83555000D02*
X127002500Y-83555000D01*
X127002500Y-83555000D02*
X126802500Y-83355000D01*
X127002500Y-83555000D02*
X126802500Y-83755000D01*
D10*
%TO.C,H3*%
X137820000Y-78740000D02*
G75*
G02*
X131420000Y-78740000I-3200000J0D01*
G01*
X131420000Y-78740000D02*
G75*
G02*
X137820000Y-78740000I3200000J0D01*
G01*
%TD*%
M02*
