%TF.GenerationSoftware,KiCad,Pcbnew,8.0.5*%
%TF.CreationDate,2024-10-11T00:39:08+02:00*%
%TF.ProjectId,LEDTischLampe,4c454454-6973-4636-984c-616d70652e6b,rev?*%
%TF.SameCoordinates,Original*%
%TF.FileFunction,Copper,L2,Bot*%
%TF.FilePolarity,Positive*%
%FSLAX46Y46*%
G04 Gerber Fmt 4.6, Leading zero omitted, Abs format (unit mm)*
G04 Created by KiCad (PCBNEW 8.0.5) date 2024-10-11 00:39:08*
%MOMM*%
%LPD*%
G01*
G04 APERTURE LIST*
G04 Aperture macros list*
%AMRoundRect*
0 Rectangle with rounded corners*
0 $1 Rounding radius*
0 $2 $3 $4 $5 $6 $7 $8 $9 X,Y pos of 4 corners*
0 Add a 4 corners polygon primitive as box body*
4,1,4,$2,$3,$4,$5,$6,$7,$8,$9,$2,$3,0*
0 Add four circle primitives for the rounded corners*
1,1,$1+$1,$2,$3*
1,1,$1+$1,$4,$5*
1,1,$1+$1,$6,$7*
1,1,$1+$1,$8,$9*
0 Add four rect primitives between the rounded corners*
20,1,$1+$1,$2,$3,$4,$5,0*
20,1,$1+$1,$4,$5,$6,$7,0*
20,1,$1+$1,$6,$7,$8,$9,0*
20,1,$1+$1,$8,$9,$2,$3,0*%
%AMHorizOval*
0 Thick line with rounded ends*
0 $1 width*
0 $2 $3 position (X,Y) of the first rounded end (center of the circle)*
0 $4 $5 position (X,Y) of the second rounded end (center of the circle)*
0 Add line between two ends*
20,1,$1,$2,$3,$4,$5,0*
0 Add two circle primitives to create the rounded ends*
1,1,$1,$2,$3*
1,1,$1,$4,$5*%
%AMRotRect*
0 Rectangle, with rotation*
0 The origin of the aperture is its center*
0 $1 length*
0 $2 width*
0 $3 Rotation angle, in degrees counterclockwise*
0 Add horizontal line*
21,1,$1,$2,0,0,$3*%
G04 Aperture macros list end*
%TA.AperFunction,Conductor*%
%ADD10C,0.000000*%
%TD*%
%TA.AperFunction,Conductor*%
%ADD11C,0.800000*%
%TD*%
%TA.AperFunction,Conductor*%
%ADD12C,2.500000*%
%TD*%
%TA.AperFunction,Conductor*%
%ADD13C,1.000000*%
%TD*%
%TA.AperFunction,Conductor*%
%ADD14C,0.200000*%
%TD*%
%TA.AperFunction,NonConductor*%
%ADD15C,0.100000*%
%TD*%
%TA.AperFunction,Conductor*%
%ADD16C,0.500000*%
%TD*%
%TA.AperFunction,HeatsinkPad*%
%ADD17C,0.600000*%
%TD*%
%TA.AperFunction,ComponentPad*%
%ADD18HorizOval,1.200000X0.166671X0.249441X-0.166671X-0.249441X0*%
%TD*%
%TA.AperFunction,ComponentPad*%
%ADD19HorizOval,1.200000X0.222228X0.332588X-0.222228X-0.332588X0*%
%TD*%
%TA.AperFunction,ComponentPad*%
%ADD20C,0.750000*%
%TD*%
%TA.AperFunction,ComponentPad*%
%ADD21R,2.600000X2.600000*%
%TD*%
%TA.AperFunction,ComponentPad*%
%ADD22C,2.600000*%
%TD*%
%TA.AperFunction,SMDPad,CuDef*%
%ADD23R,2.330000X2.380000*%
%TD*%
%TA.AperFunction,SMDPad,CuDef*%
%ADD24R,1.100000X2.380000*%
%TD*%
%TA.AperFunction,SMDPad,CuDef*%
%ADD25RotRect,2.330000X2.380000X213.750000*%
%TD*%
%TA.AperFunction,SMDPad,CuDef*%
%ADD26RotRect,1.100000X2.380000X213.750000*%
%TD*%
%TA.AperFunction,SMDPad,CuDef*%
%ADD27R,2.380000X2.330000*%
%TD*%
%TA.AperFunction,SMDPad,CuDef*%
%ADD28R,2.380000X1.100000*%
%TD*%
%TA.AperFunction,SMDPad,CuDef*%
%ADD29RotRect,2.330000X2.380000X123.750000*%
%TD*%
%TA.AperFunction,SMDPad,CuDef*%
%ADD30RotRect,1.100000X2.380000X123.750000*%
%TD*%
%TA.AperFunction,SMDPad,CuDef*%
%ADD31RotRect,2.330000X2.380000X157.500000*%
%TD*%
%TA.AperFunction,SMDPad,CuDef*%
%ADD32RotRect,1.100000X2.380000X157.500000*%
%TD*%
%TA.AperFunction,SMDPad,CuDef*%
%ADD33RotRect,2.330000X2.380000X202.500000*%
%TD*%
%TA.AperFunction,SMDPad,CuDef*%
%ADD34RotRect,1.100000X2.380000X202.500000*%
%TD*%
%TA.AperFunction,SMDPad,CuDef*%
%ADD35RotRect,2.330000X2.380000X225.000000*%
%TD*%
%TA.AperFunction,SMDPad,CuDef*%
%ADD36RotRect,1.100000X2.380000X225.000000*%
%TD*%
%TA.AperFunction,SMDPad,CuDef*%
%ADD37RotRect,2.330000X2.380000X247.500000*%
%TD*%
%TA.AperFunction,SMDPad,CuDef*%
%ADD38RotRect,1.100000X2.380000X247.500000*%
%TD*%
%TA.AperFunction,SMDPad,CuDef*%
%ADD39RotRect,2.330000X2.380000X315.000000*%
%TD*%
%TA.AperFunction,SMDPad,CuDef*%
%ADD40RotRect,1.100000X2.380000X315.000000*%
%TD*%
%TA.AperFunction,SMDPad,CuDef*%
%ADD41RotRect,2.330000X2.380000X303.750000*%
%TD*%
%TA.AperFunction,SMDPad,CuDef*%
%ADD42RotRect,1.100000X2.380000X303.750000*%
%TD*%
%TA.AperFunction,SMDPad,CuDef*%
%ADD43RoundRect,0.250000X-0.132583X0.503814X-0.503814X0.132583X0.132583X-0.503814X0.503814X-0.132583X0*%
%TD*%
%TA.AperFunction,SMDPad,CuDef*%
%ADD44RotRect,2.330000X2.380000X292.500000*%
%TD*%
%TA.AperFunction,SMDPad,CuDef*%
%ADD45RotRect,1.100000X2.380000X292.500000*%
%TD*%
%TA.AperFunction,SMDPad,CuDef*%
%ADD46RotRect,2.330000X2.380000X33.750000*%
%TD*%
%TA.AperFunction,SMDPad,CuDef*%
%ADD47RotRect,1.100000X2.380000X33.750000*%
%TD*%
%TA.AperFunction,SMDPad,CuDef*%
%ADD48RotRect,2.330000X2.380000X168.750000*%
%TD*%
%TA.AperFunction,SMDPad,CuDef*%
%ADD49RotRect,1.100000X2.380000X168.750000*%
%TD*%
%TA.AperFunction,SMDPad,CuDef*%
%ADD50RotRect,2.330000X2.380000X258.750000*%
%TD*%
%TA.AperFunction,SMDPad,CuDef*%
%ADD51RotRect,1.100000X2.380000X258.750000*%
%TD*%
%TA.AperFunction,SMDPad,CuDef*%
%ADD52RoundRect,0.250000X-0.315291X0.414726X-0.516200X-0.070311X0.315291X-0.414726X0.516200X0.070311X0*%
%TD*%
%TA.AperFunction,SMDPad,CuDef*%
%ADD53RoundRect,0.250000X0.345247X0.390142X-0.169665X0.492565X-0.345247X-0.390142X0.169665X-0.492565X0*%
%TD*%
%TA.AperFunction,SMDPad,CuDef*%
%ADD54RotRect,2.330000X2.380000X348.750000*%
%TD*%
%TA.AperFunction,SMDPad,CuDef*%
%ADD55RotRect,1.100000X2.380000X348.750000*%
%TD*%
%TA.AperFunction,SMDPad,CuDef*%
%ADD56RotRect,2.330000X2.380000X78.750000*%
%TD*%
%TA.AperFunction,SMDPad,CuDef*%
%ADD57RotRect,1.100000X2.380000X78.750000*%
%TD*%
%TA.AperFunction,ViaPad*%
%ADD58C,0.800000*%
%TD*%
%TA.AperFunction,ViaPad*%
%ADD59C,0.450000*%
%TD*%
%TA.AperFunction,ViaPad*%
%ADD60C,0.600000*%
%TD*%
%TA.AperFunction,Conductor*%
%ADD61C,0.250000*%
%TD*%
%TA.AperFunction,Conductor*%
%ADD62C,0.127000*%
%TD*%
%TA.AperFunction,Conductor*%
%ADD63C,2.000000*%
%TD*%
G04 APERTURE END LIST*
D10*
%TA.AperFunction,Conductor*%
%TO.N,Net-(LED19-C)*%
G36*
X110295959Y-35240963D02*
G01*
X110295959Y-35240963D01*
G75*
G03*
X90040737Y-48652052I24324041J-58738937D01*
G01*
X78863259Y-37279362D01*
G75*
G02*
X104238427Y-20490304I55756641J-56700538D01*
G01*
X110295959Y-35240963D01*
G37*
%TD.AperFunction*%
%TA.AperFunction,Conductor*%
%TO.N,Net-(LED20-C)*%
G36*
X89669060Y-49020614D02*
G01*
X89669060Y-49020614D01*
G75*
G03*
X76087876Y-69162182I44950840J-44959386D01*
G01*
X61409093Y-62932622D01*
G75*
G02*
X78427797Y-37710899I73210787J-31047318D01*
G01*
X89669060Y-49020614D01*
G37*
%TD.AperFunction*%
%TA.AperFunction,Conductor*%
%TO.N,Net-(LED21-C)*%
G36*
X75885534Y-69644923D02*
G01*
X75885534Y-69644923D01*
G75*
G03*
X71046001Y-93450600I58734366J-24335077D01*
G01*
X55100624Y-93312564D01*
G75*
G02*
X61171921Y-63497954I79519276J-667436D01*
G01*
X75885534Y-69644923D01*
G37*
%TD.AperFunction*%
%TA.AperFunction,Conductor*%
%TO.N,Net-(LED22-C)*%
G36*
X71043798Y-93974027D02*
G01*
X71043798Y-93974027D01*
G75*
G03*
X75682691Y-117819614I63576092J-5993D01*
G01*
X60898260Y-123794117D01*
G75*
G02*
X55097849Y-93925624I73721590J29814067D01*
G01*
X71043798Y-93974027D01*
G37*
%TD.AperFunction*%
%TA.AperFunction,Conductor*%
%TO.N,Net-(LED23-C)*%
G36*
X75880963Y-118304041D02*
G01*
X75880963Y-118304041D01*
G75*
G03*
X89292052Y-138559263I58738967J24323991D01*
G01*
X77919362Y-149736741D01*
G75*
G02*
X61130304Y-124361573I56700538J55756641D01*
G01*
X75880963Y-118304041D01*
G37*
%TD.AperFunction*%
%TA.AperFunction,Conductor*%
%TO.N,/LedsUnten/LedTreiber4/LEDN*%
G36*
X90054591Y-139321568D02*
G01*
X90054591Y-139321568D01*
G75*
G03*
X110313909Y-152726468I44565409J45341468D01*
G01*
X104212681Y-167459055D01*
G75*
G02*
X78843404Y-150661097I30407319J73478955D01*
G01*
X90054591Y-139321568D01*
G37*
%TD.AperFunction*%
%TA.AperFunction,Conductor*%
%TO.N,Net-(LED10-A)*%
G36*
X190831918Y-37730582D02*
G01*
X190831918Y-37730582D01*
G75*
G02*
X207841773Y-62958274I-56211818J-56249318D01*
G01*
X193144537Y-69144297D01*
G75*
G03*
X179557201Y-49006879I-58524477J-24835663D01*
G01*
X190831918Y-37730582D01*
G37*
%TD.AperFunction*%
%TA.AperFunction,Conductor*%
%TO.N,Net-(LED10-C)*%
G36*
X208078761Y-63523683D02*
G01*
X208078761Y-63523683D01*
G75*
G02*
X214139598Y-93340421I-73458661J-30456317D01*
G01*
X198193834Y-93431173D01*
G75*
G03*
X193347028Y-69626975I-63573744J-548807D01*
G01*
X208078761Y-63523683D01*
G37*
%TD.AperFunction*%
%TA.AperFunction,Conductor*%
%TO.N,Net-(LED11-C)*%
G36*
X214142173Y-93953483D02*
G01*
X214142173Y-93953483D01*
G75*
G02*
X208331285Y-123819939I-79522073J-26517D01*
G01*
X193564591Y-117801603D01*
G75*
G03*
X198196198Y-93954600I-58944491J23821603D01*
G01*
X214142173Y-93953483D01*
G37*
%TD.AperFunction*%
%TA.AperFunction,Conductor*%
%TO.N,Net-(LED13-C)*%
G36*
X190869418Y-150191918D02*
G01*
X190869418Y-150191918D01*
G75*
G02*
X165641726Y-167201773I-56249318J56211818D01*
G01*
X159455703Y-152504537D01*
G75*
G03*
X179593121Y-138917201I-24835703J58524437D01*
G01*
X190869418Y-150191918D01*
G37*
%TD.AperFunction*%
%TA.AperFunction,Conductor*%
%TO.N,Net-(LED15-C)*%
G36*
X110798397Y-152924591D02*
G01*
X110798397Y-152924591D01*
G75*
G03*
X134645400Y-157556198I23821603J58944491D01*
G01*
X134646517Y-173502173D01*
G75*
G02*
X104780061Y-167691285I-26517J79522073D01*
G01*
X110798397Y-152924591D01*
G37*
%TD.AperFunction*%
D11*
%TO.N,/LedsUnten/LedTreiber4/LEDP*%
X167920000Y-22380001D02*
G75*
G02*
X188148100Y-35926642I-33300000J-71599999D01*
G01*
D12*
%TO.N,Net-(LED7-C)*%
X185438896Y-62195744D02*
G75*
G02*
X193710084Y-104037886I-50818896J-31784256D01*
G01*
D13*
%TO.N,/LedsUnten/LedTreiber4/LEDP*%
X167145000Y-24205000D02*
X167920000Y-22380000D01*
D12*
%TO.N,/LedsUnten/LedTreiber4/LEDN*%
X104140000Y-162433000D02*
G75*
G02*
X82738154Y-148278898I30226000J68961000D01*
G01*
D13*
X104902000Y-162915600D02*
X109945565Y-151197642D01*
D12*
%TO.N,Net-(LED3-C)*%
X83801104Y-125764256D02*
G75*
G02*
X75529916Y-83922114I50818896J31784256D01*
G01*
%TO.N,Net-(LED4-C)*%
X121160477Y-152389249D02*
G75*
G02*
X85725001Y-128651000I13459523J58409249D01*
G01*
D11*
%TO.N,/LedsOben/LedTreiber1/LEDN*%
X154130321Y-154545937D02*
X155085864Y-157350497D01*
D14*
%TO.N,RDim*%
X166009747Y-142246501D02*
G75*
G02*
X153162000Y-148488399I-31389747J48266501D01*
G01*
D15*
X134620000Y-93980000D02*
X134620000Y-93980000D01*
D13*
%TO.N,Net-(LED17-A)*%
X164320000Y-25005000D02*
X166470000Y-25880000D01*
D16*
%TO.N,/LedsOben/LedTreiber2/LEDP*%
X148811531Y-149773348D02*
G75*
G02*
X126618696Y-36930941I-14547131J55742548D01*
G01*
D13*
%TO.N,/LedsUnten/LedTreiber4/LEDP*%
X186720000Y-37455000D02*
X188148100Y-35926642D01*
D12*
%TO.N,Net-(LED1-C)*%
X102835744Y-43161104D02*
G75*
G02*
X144677886Y-34889916I31784256J-50818896D01*
G01*
D13*
%TO.N,Net-(LED9-A)*%
X186870000Y-40105000D02*
X185545000Y-38730000D01*
%TO.N,/LedsUnten/LedTreiber4/LEDN*%
X185821875Y-58468671D02*
G75*
G02*
X109945565Y-151197642I-51201875J-35511328D01*
G01*
X183896000Y-59740800D02*
X185821875Y-58468671D01*
D12*
%TO.N,Net-(LED2-C)*%
X76210751Y-80520477D02*
G75*
G02*
X99949000Y-45085001I58409249J-13459523D01*
G01*
%TO.N,Net-(LED5-C)*%
X166404256Y-144798896D02*
G75*
G02*
X124562114Y-153070084I-31784256J50818896D01*
G01*
D11*
%TO.N,/LedsOben/LedTreiber3/LEDN*%
X151053800Y-155473400D02*
X152360598Y-159979659D01*
D12*
%TO.N,Net-(LED6-C)*%
X193029249Y-107439523D02*
G75*
G02*
X169291000Y-142874999I-58409249J13459523D01*
G01*
D10*
%TA.AperFunction,Conductor*%
%TO.N,Net-(LED12-C)*%
G36*
X208099055Y-124387319D02*
G01*
X208099055Y-124387319D01*
G75*
G02*
X191301097Y-149756596I-73478965J30407279D01*
G01*
X179961568Y-138545409D01*
G75*
G03*
X193366468Y-118286091I-45341468J44565409D01*
G01*
X208099055Y-124387319D01*
G37*
%TD.AperFunction*%
%TA.AperFunction,Conductor*%
%TO.N,Net-(LED17-C)*%
G36*
X135287436Y-14460624D02*
G01*
X135287436Y-14460624D01*
G75*
G02*
X165102046Y-20531921I-667436J-79519276D01*
G01*
X158955077Y-35245534D01*
G75*
G03*
X135149400Y-30406001I-24335077J-58734366D01*
G01*
X135287436Y-14460624D01*
G37*
%TD.AperFunction*%
%TD*%
D17*
%TO.P,U1,19,GND*%
%TO.N,GND*%
X132560000Y-71297800D03*
X132560000Y-72397800D03*
X133110000Y-70747800D03*
X133110000Y-71847800D03*
X133110000Y-72947800D03*
X133660000Y-71297800D03*
X133660000Y-72397800D03*
X134210000Y-70747800D03*
X134210000Y-71847800D03*
X134210000Y-72947800D03*
X134760000Y-71297800D03*
X134760000Y-72397800D03*
%TD*%
D18*
%TO.P,J2,3*%
%TO.N,N/C*%
X181054441Y-32291631D03*
%TO.P,J2,2*%
X173853915Y-27480392D03*
D19*
%TO.P,J2,1*%
X171531631Y-30955936D03*
%TO.P,J2,0*%
X178732158Y-35767173D03*
D20*
%TO.P,J2,*%
%TO.N,*%
X172998418Y-31334666D03*
X177820944Y-34556974D03*
%TD*%
D21*
%TO.P,J1,1,Pin_1*%
%TO.N,Net-(J1-Pin_1)*%
X132080000Y-114300000D03*
D22*
%TO.P,J1,2,Pin_2*%
%TO.N,GND*%
X137080000Y-114300000D03*
%TD*%
D23*
%TO.P,LED15,1,C*%
%TO.N,Net-(LED15-C)*%
X133530001Y-168980001D03*
D24*
%TO.P,LED15,2,A*%
%TO.N,Net-(LED14-C)*%
X135709999Y-168980001D03*
%TD*%
D25*
%TO.P,LED2,1,C*%
%TO.N,Net-(LED2-C)*%
X100379484Y-44697394D03*
D26*
%TO.P,LED2,2,A*%
%TO.N,Net-(LED1-C)*%
X102192088Y-43486252D03*
%TD*%
D27*
%TO.P,LED22,1,C*%
%TO.N,Net-(LED22-C)*%
X59620000Y-95070000D03*
D28*
%TO.P,LED22,2,A*%
%TO.N,Net-(LED21-C)*%
X59620000Y-92890000D03*
%TD*%
D29*
%TO.P,LED8,1,C*%
%TO.N,/LedsUnten/LedTreiber4/LEDN*%
X183902606Y-59739484D03*
D30*
%TO.P,LED8,2,A*%
%TO.N,Net-(LED7-C)*%
X185113748Y-61552088D03*
%TD*%
D31*
%TO.P,LED17,1,C*%
%TO.N,Net-(LED17-C)*%
X162314228Y-24271910D03*
D32*
%TO.P,LED17,2,A*%
%TO.N,Net-(LED17-A)*%
X164328286Y-25106160D03*
%TD*%
D33*
%TO.P,LED14,1,C*%
%TO.N,Net-(LED14-C)*%
X162314230Y-163688090D03*
D34*
%TO.P,LED14,2,A*%
%TO.N,Net-(LED13-C)*%
X164328286Y-162853840D03*
%TD*%
D35*
%TO.P,LED13,1,C*%
%TO.N,Net-(LED13-C)*%
X186882263Y-147783755D03*
D36*
%TO.P,LED13,2,A*%
%TO.N,Net-(LED12-C)*%
X188423755Y-146242263D03*
%TD*%
D37*
%TO.P,LED21,1,C*%
%TO.N,Net-(LED21-C)*%
X64911910Y-66285772D03*
D38*
%TO.P,LED21,2,A*%
%TO.N,Net-(LED20-C)*%
X65746160Y-64271714D03*
%TD*%
D39*
%TO.P,LED24,1,C*%
%TO.N,/LedsUnten/LedTreiber4/LEDN*%
X82357739Y-147783756D03*
D40*
%TO.P,LED24,2,A*%
%TO.N,Net-(LED23-C)*%
X80816245Y-146242262D03*
%TD*%
D33*
%TO.P,LED19,1,C*%
%TO.N,Net-(LED19-C)*%
X104911713Y-25106160D03*
D34*
%TO.P,LED19,2,A*%
%TO.N,Net-(LED18-C)*%
X106925771Y-24271910D03*
%TD*%
D41*
%TO.P,LED4,1,C*%
%TO.N,Net-(LED4-C)*%
X85337394Y-128220516D03*
D42*
%TO.P,LED4,2,A*%
%TO.N,Net-(LED3-C)*%
X84126252Y-126407912D03*
%TD*%
D35*
%TO.P,LED20,1,C*%
%TO.N,Net-(LED20-C)*%
X80816244Y-41717739D03*
D36*
%TO.P,LED20,2,A*%
%TO.N,Net-(LED19-C)*%
X82357738Y-40176245D03*
%TD*%
D37*
%TO.P,LED12,1,C*%
%TO.N,Net-(LED12-C)*%
X203493840Y-123688286D03*
D38*
%TO.P,LED12,2,A*%
%TO.N,Net-(LED11-C)*%
X204328090Y-121674230D03*
%TD*%
D43*
%TO.P,R6,1*%
%TO.N,/LedsUnten/LedTreiber4/LEDP*%
X186725635Y-37454765D03*
%TO.P,R6,2*%
%TO.N,Net-(LED9-A)*%
X185435165Y-38745235D03*
%TD*%
D27*
%TO.P,LED11,1,C*%
%TO.N,Net-(LED11-C)*%
X209620001Y-95069999D03*
D28*
%TO.P,LED11,2,A*%
%TO.N,Net-(LED10-C)*%
X209620001Y-92890001D03*
%TD*%
D31*
%TO.P,LED16,1,C*%
%TO.N,/LedsUnten/LedTreiber4/LEDN*%
X104911714Y-162853840D03*
D32*
%TO.P,LED16,2,A*%
%TO.N,Net-(LED15-C)*%
X106925770Y-163688090D03*
%TD*%
D44*
%TO.P,LED23,1,C*%
%TO.N,Net-(LED23-C)*%
X65746160Y-123688287D03*
D45*
%TO.P,LED23,2,A*%
%TO.N,Net-(LED22-C)*%
X64911910Y-121674229D03*
%TD*%
D23*
%TO.P,LED18,1,C*%
%TO.N,Net-(LED18-C)*%
X133530000Y-18980000D03*
D24*
%TO.P,LED18,2,A*%
%TO.N,Net-(LED17-C)*%
X135710000Y-18980000D03*
%TD*%
D46*
%TO.P,LED6,1,C*%
%TO.N,Net-(LED6-C)*%
X168860516Y-143262606D03*
D47*
%TO.P,LED6,2,A*%
%TO.N,Net-(LED5-C)*%
X167047912Y-144473748D03*
%TD*%
D48*
%TO.P,LED1,1,C*%
%TO.N,Net-(LED1-C)*%
X145256363Y-34920234D03*
D49*
%TO.P,LED1,2,A*%
%TO.N,Net-(LED1-A)*%
X147394475Y-35345532D03*
%TD*%
D50*
%TO.P,LED3,1,C*%
%TO.N,Net-(LED3-C)*%
X75560234Y-83343637D03*
D51*
%TO.P,LED3,2,A*%
%TO.N,Net-(LED2-C)*%
X75985532Y-81205525D03*
%TD*%
D52*
%TO.P,R7,1*%
%TO.N,/LedsUnten/LedTreiber4/LEDP*%
X167194198Y-24211960D03*
%TO.P,R7,2*%
%TO.N,Net-(LED17-A)*%
X166495802Y-25898040D03*
%TD*%
D44*
%TO.P,LED10,1,C*%
%TO.N,Net-(LED10-C)*%
X204328090Y-66285770D03*
D45*
%TO.P,LED10,2,A*%
%TO.N,Net-(LED10-A)*%
X203493840Y-64271714D03*
%TD*%
D39*
%TO.P,LED9,1,C*%
%TO.N,Net-(LED10-A)*%
X188423755Y-41717737D03*
D40*
%TO.P,LED9,2,A*%
%TO.N,Net-(LED9-A)*%
X186882263Y-40176245D03*
%TD*%
D53*
%TO.P,R5,1*%
%TO.N,/LedsUnten/LedTreiber4/LEDP*%
X151739967Y-36283020D03*
%TO.P,R5,2*%
%TO.N,Net-(LED1-A)*%
X149950033Y-35926980D03*
%TD*%
D54*
%TO.P,LED5,1,C*%
%TO.N,Net-(LED5-C)*%
X123983637Y-153039766D03*
D55*
%TO.P,LED5,2,A*%
%TO.N,Net-(LED4-C)*%
X121845525Y-152614468D03*
%TD*%
D56*
%TO.P,LED7,1,C*%
%TO.N,Net-(LED7-C)*%
X193679766Y-104616363D03*
D57*
%TO.P,LED7,2,A*%
%TO.N,Net-(LED6-C)*%
X193254468Y-106754475D03*
%TD*%
D58*
%TO.N,GND*%
X153390600Y-45008800D03*
X121666000Y-77247800D03*
%TO.N,NTC*%
X145796000Y-148844000D03*
%TO.N,GND*%
X148590000Y-75438000D03*
X148590000Y-74676000D03*
X147828000Y-75946000D03*
X143256000Y-64770000D03*
X144377400Y-144134800D03*
X142904200Y-141239200D03*
X151358600Y-44729400D03*
X125575800Y-114147600D03*
X163249600Y-132872900D03*
X149345000Y-44746800D03*
D59*
X123575000Y-120015000D03*
D58*
X155702000Y-96012000D03*
X184988200Y-42240200D03*
X168859200Y-30810200D03*
X145795000Y-74430000D03*
X177270000Y-36955000D03*
X123289800Y-114020600D03*
X146785100Y-42634800D03*
X140335000Y-146440700D03*
X155067000Y-144916700D03*
X157636200Y-139715200D03*
X116050800Y-110718600D03*
X136859000Y-141036000D03*
X155524200Y-142275100D03*
X121003800Y-113639600D03*
X167182800Y-135636000D03*
X151591000Y-139512000D03*
D59*
X132791200Y-60502800D03*
D58*
X149680700Y-41161600D03*
X140792200Y-143799100D03*
X145796000Y-65786000D03*
X166725600Y-138277600D03*
X179197000Y-37693600D03*
X123670800Y-106908600D03*
X169294800Y-133076100D03*
X159109400Y-142610800D03*
X171095000Y-32805000D03*
X115542800Y-114147600D03*
X146581900Y-48680000D03*
X170768000Y-135971700D03*
%TO.N,+3V3*%
X146812000Y-74422000D03*
X146812000Y-68834000D03*
%TO.N,EN*%
X129794000Y-64262000D03*
X180594000Y-38430200D03*
D59*
X134670800Y-66243200D03*
D58*
X163322000Y-48768000D03*
D59*
X132791200Y-64389000D03*
D58*
%TO.N,Net-(U7-FB)*%
X118110000Y-111760000D03*
X125575800Y-111607600D03*
%TO.N,/LedsUnten/LedTreiber4/LEDN*%
X181610000Y-57658000D03*
X182245000Y-58420000D03*
%TO.N,WhiteDim*%
X147828000Y-45974000D03*
X143510000Y-60706000D03*
%TO.N,GDim*%
X132588000Y-146558000D03*
X154457400Y-140517550D03*
%TO.N,BDim*%
X133604000Y-146558000D03*
X139624653Y-142009354D03*
%TO.N,RDim*%
X166072952Y-133847472D03*
X132588000Y-147574000D03*
%TO.N,IO9*%
X144780000Y-67564000D03*
X144780000Y-56641992D03*
X160909000Y-46355000D03*
X169748200Y-32181800D03*
%TO.N,/LedsOben/LedTreiber1/LEDN*%
X154130321Y-154545937D03*
X155085864Y-157350497D03*
%TO.N,/LedsOben/LedTreiber3/LEDN*%
X151053800Y-155473400D03*
X152374600Y-159994600D03*
%TO.N,DN*%
X162433000Y-47879000D03*
D60*
X175564800Y-33147000D03*
D58*
%TO.N,VBUS*%
X172020000Y-33605000D03*
X171450000Y-49276000D03*
X176045000Y-36280000D03*
%TO.N,DP*%
X161671000Y-47117000D03*
D60*
X173806216Y-34889267D03*
D58*
%TO.N,/LedsUnten/LedTreiber4/LEDP*%
X151765000Y-51428000D03*
X146556500Y-45864400D03*
X152654000Y-50546000D03*
X152654000Y-51428000D03*
X151765000Y-50539000D03*
X148359900Y-48908600D03*
%TO.N,/LedsOben/LedTreiber1/LEDP*%
X164592000Y-127254000D03*
X166065200Y-132847500D03*
X163021000Y-134650900D03*
X177766300Y-128151300D03*
D59*
%TO.N,/LedsOben/LedTreiber2/LEDP*%
X150469600Y-149174200D03*
X151155400Y-149174200D03*
D58*
X126618696Y-36930941D03*
X154406600Y-139486600D03*
X126670000Y-29130000D03*
X151362400Y-141290000D03*
D59*
X151155400Y-148590000D03*
X150469600Y-148590000D03*
D58*
X126670000Y-32605000D03*
%TO.N,/LedsOben/LedTreiber3/LEDP*%
X125520000Y-32680000D03*
X125545000Y-30355000D03*
X139674600Y-141010600D03*
X136630400Y-142814000D03*
%TO.N,VCC*%
X107188000Y-118364000D03*
X107188000Y-119380000D03*
X106172000Y-118364000D03*
X112776000Y-118364000D03*
X111760000Y-118364000D03*
X111760000Y-119380000D03*
X106172000Y-119380000D03*
X112776000Y-119380000D03*
%TO.N,NTC*%
X132588000Y-148590000D03*
%TD*%
D14*
%TO.N,NTC*%
X145796000Y-148844000D02*
X145542000Y-148844000D01*
X145542000Y-148844000D02*
X144805400Y-149580600D01*
D16*
%TO.N,GND*%
X148590000Y-74676000D02*
X148590000Y-75438000D01*
D61*
%TO.N,Net-(U7-FB)*%
X118338600Y-111988600D02*
X125194800Y-111988600D01*
X125194800Y-111988600D02*
X125575800Y-111607600D01*
X118110000Y-111760000D02*
X118338600Y-111988600D01*
D16*
%TO.N,+3V3*%
X146812000Y-74422000D02*
X146812000Y-68834000D01*
D14*
%TO.N,EN*%
X173228000Y-50546000D02*
X180594000Y-43180000D01*
X132664200Y-64262000D02*
X132791200Y-64389000D01*
D62*
X134645400Y-66243200D02*
X134670800Y-66243200D01*
D14*
X129794000Y-64262000D02*
X132664200Y-64262000D01*
D62*
X132791200Y-64389000D02*
X134645400Y-66243200D01*
D14*
X169418000Y-48768000D02*
X171196000Y-50546000D01*
X171196000Y-50546000D02*
X173228000Y-50546000D01*
X163322000Y-48768000D02*
X169418000Y-48768000D01*
X180594000Y-43180000D02*
X180594000Y-38430200D01*
D11*
%TO.N,Net-(LED1-A)*%
X147394475Y-35345532D02*
X148585532Y-35345532D01*
X148585532Y-35345532D02*
X149166980Y-35926980D01*
X149166980Y-35926980D02*
X149950033Y-35926980D01*
%TO.N,/LedsUnten/LedTreiber4/LEDN*%
X182245000Y-58420000D02*
X183642000Y-59817000D01*
X181610000Y-57658000D02*
X182245000Y-58293000D01*
X183902606Y-59739484D02*
X183902606Y-59637606D01*
X182245000Y-58293000D02*
X182245000Y-58420000D01*
%TO.N,Net-(LED9-A)*%
X185582635Y-38877165D02*
X185583183Y-38877165D01*
D14*
%TO.N,WhiteDim*%
X140716000Y-57912000D02*
X140716000Y-45720000D01*
X143510000Y-60706000D02*
X140716000Y-57912000D01*
X146304000Y-44958000D02*
X146812000Y-44958000D01*
X140716000Y-45720000D02*
X141478000Y-44958000D01*
X146812000Y-44958000D02*
X147828000Y-45974000D01*
X141478000Y-44958000D02*
X146304000Y-44958000D01*
%TO.N,GDim*%
X154457400Y-144246600D02*
X154457400Y-140517550D01*
X144272000Y-148590000D02*
X146050000Y-146812000D01*
X151892000Y-146812000D02*
X154457400Y-144246600D01*
X146050000Y-146812000D02*
X151892000Y-146812000D01*
X134620000Y-148590000D02*
X144272000Y-148590000D01*
X132588000Y-146558000D02*
X134620000Y-148590000D01*
%TO.N,BDim*%
X135128000Y-148082000D02*
X138430000Y-148082000D01*
X139624653Y-146887347D02*
X139624653Y-142009354D01*
X133604000Y-146558000D02*
X135128000Y-148082000D01*
X138430000Y-148082000D02*
X139624653Y-146887347D01*
%TO.N,RDim*%
X144526000Y-149098000D02*
X146304000Y-147320000D01*
X134112000Y-149098000D02*
X144526000Y-149098000D01*
X132588000Y-147574000D02*
X134112000Y-149098000D01*
X166072952Y-133847472D02*
X166014400Y-133906024D01*
X151993601Y-147320000D02*
X153162000Y-148488399D01*
X146304000Y-147320000D02*
X151993601Y-147320000D01*
X166014400Y-142189199D02*
X165989000Y-142214599D01*
X166014400Y-133906024D02*
X166014400Y-142189199D01*
%TO.N,IO9*%
X144780000Y-56896000D02*
X144780000Y-56641992D01*
X169672000Y-37592000D02*
X169672000Y-32258000D01*
X144780000Y-67564000D02*
X144780000Y-56896000D01*
X160909000Y-46355000D02*
X169672000Y-37592000D01*
X169672000Y-32258000D02*
X169748200Y-32181800D01*
%TO.N,DN*%
X175564800Y-34747200D02*
X175564800Y-33147000D01*
X162433000Y-47879000D02*
X175564800Y-34747200D01*
D16*
%TO.N,VBUS*%
X171450000Y-40875000D02*
X171450000Y-49276000D01*
X176045000Y-36280000D02*
X171450000Y-40875000D01*
X176645000Y-32905000D02*
X176645000Y-35680000D01*
X173420000Y-32205000D02*
X175945000Y-32205000D01*
X172020000Y-33605000D02*
X173420000Y-32205000D01*
X175945000Y-32205000D02*
X176645000Y-32905000D01*
X176645000Y-35680000D02*
X176045000Y-36280000D01*
D14*
%TO.N,DP*%
X161671000Y-47117000D02*
X173806216Y-34981784D01*
X173806216Y-34981784D02*
X173806216Y-34889267D01*
%TO.N,/LedsUnten/LedTreiber4/LEDP*%
X147888500Y-49380000D02*
X148359900Y-48908600D01*
D11*
X156337000Y-36283020D02*
X159241980Y-36283020D01*
X151739967Y-36283020D02*
X156337000Y-36283020D01*
D14*
X146291950Y-49380000D02*
X147888500Y-49380000D01*
X145789000Y-46631900D02*
X145789000Y-48877050D01*
X145789000Y-48877050D02*
X146291950Y-49380000D01*
D13*
X156337000Y-47879000D02*
X156337000Y-36283020D01*
D14*
X146556500Y-45864400D02*
X145789000Y-46631900D01*
D13*
X153670000Y-50546000D02*
X156337000Y-47879000D01*
D63*
X152647000Y-50546000D02*
X153670000Y-50546000D01*
D11*
X159241980Y-36283020D02*
X171345000Y-24180000D01*
D63*
X151765000Y-51428000D02*
X152647000Y-50546000D01*
D14*
%TO.N,/LedsOben/LedTreiber1/LEDP*%
X166065200Y-132847500D02*
X165297700Y-132080000D01*
D16*
X176869000Y-127254000D02*
X164592000Y-127254000D01*
D14*
X162549600Y-134179500D02*
X162549600Y-132582950D01*
X162549600Y-134179500D02*
X163021000Y-134650900D01*
D16*
X177766300Y-128151300D02*
X176869000Y-127254000D01*
D14*
X162549600Y-132582950D02*
X163052550Y-132080000D01*
X165297700Y-132080000D02*
X163052550Y-132080000D01*
%TO.N,/LedsOben/LedTreiber2/LEDP*%
X150891000Y-140818600D02*
X151362400Y-141290000D01*
X154406600Y-139486600D02*
X153639100Y-138719100D01*
D16*
X126670000Y-32605000D02*
X126670000Y-29130000D01*
D14*
X153639100Y-138719100D02*
X151393950Y-138719100D01*
X150891000Y-139222050D02*
X150891000Y-140818600D01*
X150891000Y-139222050D02*
X151393950Y-138719100D01*
D16*
%TO.N,/LedsOben/LedTreiber3/LEDP*%
X125520000Y-32680000D02*
X125520000Y-30380000D01*
D14*
X139674600Y-141010600D02*
X138907100Y-140243100D01*
D16*
X125520000Y-30380000D02*
X125545000Y-30355000D01*
D14*
X136159000Y-140746050D02*
X136159000Y-142342600D01*
X138907100Y-140243100D02*
X136661950Y-140243100D01*
X136159000Y-142342600D02*
X136630400Y-142814000D01*
X136159000Y-140746050D02*
X136661950Y-140243100D01*
D12*
%TO.N,VCC*%
X112268000Y-118872000D02*
X106426000Y-118872000D01*
D14*
%TO.N,NTC*%
X132588000Y-148590000D02*
X133578600Y-149580600D01*
X133578600Y-149580600D02*
X144805400Y-149580600D01*
%TD*%
%TA.AperFunction,Conductor*%
%TO.N,/LedsOben/LedTreiber2/LEDP*%
G36*
X151455992Y-148152485D02*
G01*
X151501747Y-148205289D01*
X151512937Y-148254832D01*
X151534791Y-149631682D01*
X151516173Y-149699025D01*
X151464102Y-149745613D01*
X151437433Y-149754758D01*
X148105007Y-150487419D01*
X148035305Y-150482588D01*
X147979279Y-150440841D01*
X147954717Y-150375431D01*
X147954382Y-150366810D01*
X147951921Y-149754758D01*
X147945901Y-148257299D01*
X147965316Y-148190180D01*
X148017935Y-148144214D01*
X148069900Y-148132800D01*
X151388953Y-148132800D01*
X151455992Y-148152485D01*
G37*
%TD.AperFunction*%
%TD*%
%TA.AperFunction,Conductor*%
%TO.N,GND*%
G36*
X171585180Y-24885796D02*
G01*
X171586540Y-24886503D01*
X171998645Y-25104686D01*
X172000347Y-25105609D01*
X172824257Y-25563826D01*
X173411894Y-25890640D01*
X173413669Y-25891652D01*
X174020866Y-26245943D01*
X174061598Y-26291600D01*
X174067714Y-26352478D01*
X174036879Y-26405326D01*
X173980869Y-26429955D01*
X173970973Y-26430451D01*
X173941740Y-26430451D01*
X173787088Y-26461214D01*
X173787086Y-26461214D01*
X173641409Y-26521555D01*
X173510297Y-26609162D01*
X173398800Y-26720659D01*
X173398797Y-26720663D01*
X172977853Y-27350646D01*
X172977847Y-27350658D01*
X172917507Y-27496334D01*
X172917507Y-27496336D01*
X172886744Y-27650988D01*
X172886744Y-27808678D01*
X172917507Y-27963330D01*
X172917507Y-27963332D01*
X172977848Y-28109009D01*
X173065454Y-28240120D01*
X173065456Y-28240122D01*
X173176956Y-28351622D01*
X173308065Y-28439227D01*
X173453747Y-28499570D01*
X173608402Y-28530333D01*
X173608403Y-28530333D01*
X173766086Y-28530333D01*
X173766087Y-28530333D01*
X173920742Y-28499570D01*
X174066423Y-28439227D01*
X174197533Y-28351621D01*
X174309033Y-28240121D01*
X174608426Y-27792047D01*
X174729976Y-27610137D01*
X174729982Y-27610125D01*
X174755232Y-27549166D01*
X174790323Y-27464448D01*
X174821086Y-27309793D01*
X174821086Y-27152108D01*
X174790323Y-26997454D01*
X174738611Y-26872609D01*
X174733810Y-26811613D01*
X174765780Y-26759444D01*
X174822308Y-26736029D01*
X174881721Y-26750262D01*
X176087651Y-27487675D01*
X176188211Y-27549166D01*
X176189943Y-27550250D01*
X177550110Y-28421038D01*
X177551819Y-28422157D01*
X178893752Y-29320842D01*
X178895429Y-29321991D01*
X180218556Y-30248189D01*
X180220142Y-30249324D01*
X181307532Y-31044436D01*
X181332612Y-31062775D01*
X181368424Y-31112385D01*
X181368238Y-31173570D01*
X181332123Y-31222960D01*
X181274177Y-31241690D01*
X181142266Y-31241690D01*
X180987614Y-31272453D01*
X180987612Y-31272453D01*
X180841935Y-31332794D01*
X180710823Y-31420401D01*
X180599326Y-31531898D01*
X180599323Y-31531902D01*
X180178379Y-32161885D01*
X180178373Y-32161897D01*
X180118033Y-32307573D01*
X180118033Y-32307575D01*
X180087270Y-32462227D01*
X180087270Y-32619917D01*
X180118033Y-32774569D01*
X180118033Y-32774571D01*
X180178374Y-32920248D01*
X180265980Y-33051359D01*
X180265982Y-33051361D01*
X180377482Y-33162861D01*
X180508591Y-33250466D01*
X180654273Y-33310809D01*
X180808928Y-33341572D01*
X180808929Y-33341572D01*
X180966612Y-33341572D01*
X180966613Y-33341572D01*
X181121268Y-33310809D01*
X181266949Y-33250466D01*
X181398059Y-33162860D01*
X181509559Y-33051360D01*
X181818689Y-32588715D01*
X181930502Y-32421376D01*
X181930508Y-32421364D01*
X181964804Y-32338566D01*
X181990849Y-32275687D01*
X182021612Y-32121032D01*
X182021612Y-31963347D01*
X181990849Y-31808693D01*
X181980330Y-31783299D01*
X181975530Y-31722306D01*
X182007499Y-31670136D01*
X182064027Y-31646721D01*
X182123522Y-31661004D01*
X182131861Y-31666721D01*
X182320811Y-31810959D01*
X182809261Y-32183828D01*
X182810872Y-32185084D01*
X183235385Y-32523233D01*
X184074160Y-33191366D01*
X184075675Y-33192598D01*
X185317974Y-34224772D01*
X185319484Y-34226052D01*
X186489756Y-35239920D01*
X186540184Y-35283608D01*
X186541712Y-35284960D01*
X187142055Y-35827154D01*
X187143411Y-35828378D01*
X187173924Y-35881412D01*
X187167436Y-35942252D01*
X187149392Y-35969440D01*
X186685527Y-36465871D01*
X186631983Y-36495480D01*
X186598439Y-36496174D01*
X186593052Y-36495363D01*
X186593051Y-36495363D01*
X186593050Y-36495363D01*
X186458769Y-36515601D01*
X186458764Y-36515603D01*
X186336410Y-36574527D01*
X186312875Y-36594026D01*
X185864896Y-37042005D01*
X185845397Y-37065540D01*
X185786473Y-37187894D01*
X185786471Y-37187899D01*
X185766233Y-37322179D01*
X185766233Y-37322185D01*
X185786471Y-37456464D01*
X185786473Y-37456470D01*
X185845397Y-37578825D01*
X185864898Y-37602362D01*
X186578038Y-38315502D01*
X186601575Y-38335003D01*
X186723930Y-38393927D01*
X186723933Y-38393927D01*
X186723935Y-38393928D01*
X186858215Y-38414167D01*
X186858218Y-38414167D01*
X186858220Y-38414167D01*
X186992500Y-38393928D01*
X186992500Y-38393927D01*
X186992505Y-38393927D01*
X187114860Y-38335003D01*
X187138397Y-38315502D01*
X187586372Y-37867527D01*
X187605873Y-37843990D01*
X187664797Y-37721635D01*
X187664798Y-37721630D01*
X187685037Y-37587350D01*
X187685037Y-37587347D01*
X187680398Y-37556573D01*
X187674118Y-37514907D01*
X187684141Y-37454551D01*
X187699670Y-37432570D01*
X188707035Y-36354487D01*
X188779764Y-36237223D01*
X188828218Y-36108024D01*
X188850535Y-35971855D01*
X188845859Y-35833947D01*
X188814368Y-35699602D01*
X188789598Y-35645106D01*
X188782734Y-35584308D01*
X188812917Y-35531085D01*
X188868619Y-35505768D01*
X188928564Y-35518027D01*
X188947750Y-35532214D01*
X190095209Y-36617473D01*
X190096782Y-36618994D01*
X190615970Y-37132431D01*
X190850806Y-37364665D01*
X190878886Y-37419026D01*
X190869652Y-37479510D01*
X190826629Y-37523015D01*
X190792284Y-37533433D01*
X190774581Y-37535429D01*
X190764031Y-37536619D01*
X190686605Y-37585276D01*
X190686595Y-37585283D01*
X188486064Y-39786121D01*
X188431550Y-39813902D01*
X188371117Y-39804335D01*
X188327849Y-39761073D01*
X188321069Y-39732838D01*
X188318958Y-39733259D01*
X188301496Y-39645466D01*
X188301495Y-39645463D01*
X188268368Y-39595886D01*
X187462621Y-38790139D01*
X187413044Y-38757012D01*
X187413041Y-38757011D01*
X187334812Y-38741452D01*
X187334810Y-38741452D01*
X187256581Y-38757011D01*
X187256579Y-38757012D01*
X187207000Y-38790139D01*
X186956848Y-39040290D01*
X186902332Y-39068067D01*
X186841900Y-39058495D01*
X186815557Y-39038981D01*
X186001543Y-38194248D01*
X186001540Y-38194246D01*
X185888248Y-38115474D01*
X185773303Y-38065350D01*
X185742872Y-38044607D01*
X185582765Y-37884501D01*
X185582762Y-37884498D01*
X185559225Y-37864997D01*
X185436870Y-37806073D01*
X185436864Y-37806071D01*
X185302585Y-37785833D01*
X185302580Y-37785833D01*
X185168299Y-37806071D01*
X185168294Y-37806073D01*
X185045940Y-37864997D01*
X185022405Y-37884496D01*
X184574426Y-38332475D01*
X184554927Y-38356010D01*
X184496003Y-38478364D01*
X184496001Y-38478369D01*
X184475763Y-38612649D01*
X184475763Y-38612655D01*
X184496001Y-38746934D01*
X184496003Y-38746940D01*
X184554927Y-38869295D01*
X184574428Y-38892832D01*
X185287568Y-39605972D01*
X185311105Y-39625473D01*
X185433460Y-39684397D01*
X185468584Y-39689690D01*
X185523306Y-39717058D01*
X185525118Y-39718890D01*
X185827275Y-40032449D01*
X185854038Y-40087470D01*
X185843349Y-40147715D01*
X185825991Y-40171147D01*
X185496157Y-40500982D01*
X185463030Y-40550561D01*
X185463029Y-40550563D01*
X185447470Y-40628792D01*
X185447470Y-40628793D01*
X185463029Y-40707023D01*
X185463030Y-40707026D01*
X185496157Y-40756603D01*
X186301904Y-41562350D01*
X186351481Y-41595477D01*
X186351482Y-41595477D01*
X186351483Y-41595478D01*
X186400091Y-41605145D01*
X186439277Y-41612940D01*
X186438609Y-41616297D01*
X186480612Y-41629945D01*
X186516576Y-41679445D01*
X186516576Y-41740631D01*
X186492429Y-41780037D01*
X179411878Y-48861581D01*
X179411876Y-48861583D01*
X179383506Y-48897060D01*
X179383505Y-48897061D01*
X179356637Y-48973161D01*
X179353058Y-48983299D01*
X179363044Y-49074209D01*
X179398179Y-49130474D01*
X179411486Y-49151784D01*
X179411487Y-49151785D01*
X179983633Y-49727141D01*
X179985181Y-49728733D01*
X180448939Y-50216504D01*
X181074802Y-50874775D01*
X181102915Y-50904343D01*
X181104632Y-50906195D01*
X181347574Y-51175199D01*
X182191607Y-52109775D01*
X182193284Y-52111680D01*
X183249061Y-53342728D01*
X183250687Y-53344675D01*
X184274543Y-54602344D01*
X184276116Y-54604328D01*
X185023469Y-55571982D01*
X185267406Y-55887825D01*
X185268919Y-55889837D01*
X185704868Y-56485233D01*
X186226996Y-57198329D01*
X186228469Y-57200395D01*
X187152719Y-58533043D01*
X187154138Y-58535147D01*
X187668125Y-59318378D01*
X187804979Y-59526922D01*
X188043905Y-59891005D01*
X188045263Y-59893134D01*
X188858840Y-61204996D01*
X188899984Y-61271338D01*
X188901283Y-61273494D01*
X189540941Y-62366502D01*
X189720427Y-62673196D01*
X189721680Y-62675402D01*
X190504659Y-64095594D01*
X190505856Y-64097832D01*
X191252218Y-65537694D01*
X191253356Y-65539961D01*
X191962503Y-66998338D01*
X191963584Y-67000634D01*
X192414735Y-67992286D01*
X192635396Y-68477308D01*
X192636292Y-68479339D01*
X192955622Y-69225177D01*
X192955627Y-69225187D01*
X192977617Y-69264164D01*
X192977619Y-69264166D01*
X193046158Y-69324718D01*
X193134182Y-69349536D01*
X193134183Y-69349535D01*
X193134933Y-69349747D01*
X193185809Y-69383735D01*
X193206991Y-69441137D01*
X193190388Y-69500027D01*
X193181703Y-69511205D01*
X193167447Y-69527067D01*
X193141883Y-69614879D01*
X193156951Y-69705081D01*
X193156952Y-69705085D01*
X193465345Y-70455542D01*
X193466166Y-70457606D01*
X194048959Y-71971541D01*
X194049840Y-71973920D01*
X194402901Y-72966207D01*
X194583616Y-73474114D01*
X194593477Y-73501827D01*
X194594297Y-73504229D01*
X195098607Y-75045598D01*
X195099365Y-75048019D01*
X195563979Y-76601716D01*
X195564675Y-76604156D01*
X195989347Y-78169352D01*
X195989980Y-78171810D01*
X196374403Y-79747393D01*
X196374972Y-79749865D01*
X196718857Y-81334637D01*
X196719364Y-81337124D01*
X197022549Y-82930330D01*
X197022991Y-82932828D01*
X197285233Y-84533209D01*
X197285611Y-84535718D01*
X197506746Y-86142268D01*
X197507060Y-86144786D01*
X197686962Y-87756570D01*
X197687211Y-87759095D01*
X197825742Y-89374898D01*
X197825926Y-89377429D01*
X197923002Y-90996277D01*
X197923122Y-90998812D01*
X197978693Y-92620050D01*
X197978744Y-92622269D01*
X197988347Y-93433599D01*
X197988349Y-93433625D01*
X197993749Y-93478038D01*
X197993749Y-93478039D01*
X197993750Y-93478041D01*
X198033899Y-93560212D01*
X198033900Y-93560213D01*
X198106338Y-93617310D01*
X198140335Y-93668181D01*
X198137938Y-93729320D01*
X198100062Y-93777372D01*
X198087761Y-93784376D01*
X198068522Y-93793575D01*
X198068521Y-93793575D01*
X198011300Y-93864917D01*
X198011299Y-93864918D01*
X197990699Y-93954024D01*
X197988429Y-94765395D01*
X197988397Y-94767616D01*
X197947470Y-96389323D01*
X197947374Y-96391858D01*
X197864924Y-98011512D01*
X197864762Y-98014045D01*
X197740830Y-99631030D01*
X197740604Y-99633557D01*
X197575273Y-101246848D01*
X197574982Y-101249369D01*
X197368359Y-102857878D01*
X197368004Y-102860390D01*
X197120222Y-104463114D01*
X197119802Y-104465616D01*
X196831029Y-106061436D01*
X196830545Y-106063927D01*
X196500965Y-107651844D01*
X196500418Y-107654322D01*
X196130256Y-109233249D01*
X196129645Y-109235712D01*
X195719138Y-110804633D01*
X195718464Y-110807079D01*
X195267883Y-112364970D01*
X195267147Y-112367398D01*
X194776789Y-113913226D01*
X194775991Y-113915635D01*
X194246169Y-115448411D01*
X194245309Y-115450798D01*
X193676224Y-116969904D01*
X193675422Y-116971974D01*
X193373819Y-117725206D01*
X193373816Y-117725214D01*
X193361802Y-117768334D01*
X193367449Y-117859616D01*
X193405231Y-117927068D01*
X193412524Y-117940087D01*
X193424466Y-118000096D01*
X193398855Y-118055663D01*
X193345473Y-118085564D01*
X193331427Y-118087327D01*
X193310132Y-118088463D01*
X193310129Y-118088464D01*
X193229966Y-118132477D01*
X193229964Y-118132478D01*
X193229963Y-118132479D01*
X193229962Y-118132480D01*
X193229960Y-118132482D01*
X193176833Y-118206915D01*
X193176829Y-118206922D01*
X192864231Y-118955670D01*
X192863352Y-118957710D01*
X192204962Y-120440262D01*
X192203903Y-120442568D01*
X191507881Y-121907449D01*
X191506762Y-121909727D01*
X190773497Y-123356147D01*
X190772321Y-123358395D01*
X190002178Y-124785643D01*
X190000945Y-124787860D01*
X189194506Y-126194849D01*
X189193216Y-126197034D01*
X188350950Y-127582950D01*
X188349604Y-127585102D01*
X187472141Y-128948905D01*
X187470741Y-128951021D01*
X186558571Y-130291952D01*
X186557117Y-130294031D01*
X185610885Y-131611139D01*
X185609378Y-131613181D01*
X184629754Y-132905535D01*
X184628196Y-132907537D01*
X183615700Y-134174455D01*
X183614090Y-134176417D01*
X182569509Y-135416906D01*
X182567850Y-135418826D01*
X181491793Y-136632170D01*
X181490086Y-136634046D01*
X180382958Y-137819765D01*
X180381424Y-137821371D01*
X179814555Y-138401821D01*
X179814541Y-138401837D01*
X179786948Y-138437065D01*
X179786946Y-138437068D01*
X179757233Y-138523562D01*
X179757232Y-138523564D01*
X179768081Y-138615162D01*
X179756149Y-138675172D01*
X179711222Y-138716708D01*
X179650461Y-138723904D01*
X179636808Y-138720157D01*
X179616701Y-138713058D01*
X179525791Y-138723044D01*
X179448215Y-138771486D01*
X179448214Y-138771487D01*
X178872880Y-139343611D01*
X178871288Y-139345159D01*
X177695655Y-140462915D01*
X177693794Y-140464640D01*
X176490223Y-141551607D01*
X176488318Y-141553284D01*
X175257270Y-142609061D01*
X175255323Y-142610687D01*
X173997654Y-143634543D01*
X173995666Y-143636120D01*
X172712173Y-144627406D01*
X172710145Y-144628931D01*
X171401669Y-145586996D01*
X171399603Y-145588469D01*
X170066955Y-146512719D01*
X170064851Y-146514138D01*
X168708993Y-147403905D01*
X168706854Y-147405270D01*
X167328660Y-148259984D01*
X167326487Y-148261294D01*
X165926802Y-149080427D01*
X165924596Y-149081680D01*
X164504404Y-149864659D01*
X164502166Y-149865856D01*
X163062304Y-150612218D01*
X163060037Y-150613356D01*
X161601660Y-151322503D01*
X161599364Y-151323584D01*
X160122690Y-151995396D01*
X160120659Y-151996292D01*
X159374822Y-152315622D01*
X159374812Y-152315627D01*
X159335835Y-152337617D01*
X159335833Y-152337619D01*
X159275282Y-152406157D01*
X159275281Y-152406158D01*
X159250464Y-152494181D01*
X159250563Y-152494743D01*
X159250364Y-152496147D01*
X159249902Y-152505322D01*
X159249075Y-152505280D01*
X159242013Y-152555328D01*
X159199486Y-152599317D01*
X159139224Y-152609908D01*
X159101094Y-152596146D01*
X159091067Y-152589963D01*
X159050589Y-152565002D01*
X159017626Y-152548555D01*
X158927179Y-152535008D01*
X158927177Y-152535008D01*
X158927176Y-152535008D01*
X158927174Y-152535008D01*
X158866177Y-152539636D01*
X158866173Y-152539636D01*
X158866172Y-152539637D01*
X158828563Y-152548555D01*
X158803610Y-152554472D01*
X158144456Y-152825345D01*
X158142392Y-152826166D01*
X156628457Y-153408959D01*
X156626078Y-153409840D01*
X155098171Y-153953477D01*
X155095769Y-153954297D01*
X154717369Y-154078103D01*
X154692592Y-154088032D01*
X154692575Y-154088040D01*
X154669454Y-154099100D01*
X154669447Y-154099104D01*
X154663365Y-154103905D01*
X154605973Y-154125114D01*
X154547076Y-154108538D01*
X154541765Y-154104734D01*
X154513739Y-154083229D01*
X154508815Y-154079193D01*
X154487691Y-154060710D01*
X154466253Y-154041952D01*
X154457478Y-154037637D01*
X154440908Y-154027345D01*
X154433162Y-154021401D01*
X154414571Y-154013700D01*
X154380912Y-153999757D01*
X154375123Y-153997139D01*
X154371974Y-153995590D01*
X154328099Y-153952946D01*
X154317668Y-153892657D01*
X154344667Y-153837750D01*
X154385131Y-153812575D01*
X154619302Y-153736662D01*
X154796169Y-153679326D01*
X156273273Y-153159583D01*
X157737008Y-152603300D01*
X159186469Y-152010819D01*
X160620761Y-151382507D01*
X162038998Y-150718751D01*
X163440306Y-150019962D01*
X164823819Y-149286570D01*
X166188682Y-148519029D01*
X167534052Y-147717813D01*
X168859100Y-146883416D01*
X170163007Y-146016353D01*
X171444967Y-145117160D01*
X172704190Y-144186392D01*
X173939897Y-143224625D01*
X175151326Y-142232450D01*
X176337729Y-141210482D01*
X177498372Y-140159352D01*
X178632541Y-139079707D01*
X179739533Y-137972216D01*
X180818667Y-136837561D01*
X181869274Y-135676444D01*
X182847647Y-134539615D01*
X182890690Y-134489601D01*
X182890691Y-134489599D01*
X182890708Y-134489580D01*
X183882336Y-133277705D01*
X184843547Y-132041564D01*
X185773747Y-130781922D01*
X185773747Y-130781921D01*
X185773761Y-130781903D01*
X186334052Y-129982341D01*
X186672362Y-129499557D01*
X187538837Y-128195260D01*
X188372637Y-126869836D01*
X189173247Y-125524104D01*
X189940173Y-124158896D01*
X190672942Y-122775053D01*
X191371100Y-121373431D01*
X192034216Y-119954894D01*
X192661882Y-118520319D01*
X193253710Y-117070591D01*
X193382171Y-116732114D01*
X193809335Y-115606604D01*
X194091025Y-114804888D01*
X194328411Y-114129268D01*
X194810621Y-112639488D01*
X194810627Y-112639469D01*
X195255664Y-111138195D01*
X195345592Y-110804633D01*
X195663271Y-109626291D01*
X196033184Y-108104735D01*
X196041053Y-108068467D01*
X196365176Y-106574465D01*
X196373172Y-106532620D01*
X196659047Y-105036403D01*
X196914609Y-103491522D01*
X197131707Y-101940767D01*
X197310207Y-100385098D01*
X197449999Y-98825474D01*
X197550995Y-97262857D01*
X197613135Y-95698214D01*
X197636379Y-94132510D01*
X197620714Y-92566711D01*
X197566148Y-91001786D01*
X197472716Y-89438699D01*
X197340475Y-87878416D01*
X197169507Y-86321901D01*
X197166428Y-86299107D01*
X196959921Y-84770137D01*
X196959918Y-84770114D01*
X196711836Y-83224014D01*
X196425415Y-81684555D01*
X196148034Y-80375453D01*
X196100831Y-80152678D01*
X195860408Y-79142479D01*
X195738288Y-78629359D01*
X195338006Y-77115508D01*
X195251176Y-76817308D01*
X194900236Y-75612080D01*
X194759999Y-75171554D01*
X194425240Y-74119974D01*
X193979945Y-72832736D01*
X193913322Y-72640146D01*
X193716366Y-72113528D01*
X193364788Y-71173483D01*
X192779985Y-69720908D01*
X192159270Y-68283312D01*
X191503027Y-66861582D01*
X190811661Y-65456597D01*
X190792808Y-65420573D01*
X190085608Y-64069238D01*
X189942052Y-63810772D01*
X189325291Y-62700319D01*
X188531204Y-61350728D01*
X187823915Y-60214241D01*
X187703831Y-60021287D01*
X187411960Y-59577288D01*
X186843678Y-58712808D01*
X186402655Y-58076912D01*
X186401413Y-58075075D01*
X186368349Y-58025020D01*
X186365348Y-58021323D01*
X186357807Y-58012247D01*
X186352503Y-58004599D01*
X186309195Y-57965053D01*
X186305581Y-57961581D01*
X186271293Y-57926930D01*
X186267199Y-57924163D01*
X186262453Y-57920955D01*
X186251139Y-57912043D01*
X186248018Y-57909193D01*
X186235933Y-57898158D01*
X186235931Y-57898156D01*
X186235929Y-57898155D01*
X186194662Y-57874767D01*
X186188039Y-57870661D01*
X186156969Y-57849662D01*
X186136750Y-57841161D01*
X186126308Y-57836028D01*
X186098604Y-57820327D01*
X186063924Y-57809932D01*
X186053980Y-57806362D01*
X186029770Y-57796183D01*
X185997261Y-57789537D01*
X185988670Y-57787375D01*
X185947391Y-57775003D01*
X185947394Y-57775003D01*
X185922506Y-57773338D01*
X185909296Y-57771554D01*
X185894577Y-57768546D01*
X185850161Y-57768310D01*
X185844079Y-57768090D01*
X185789890Y-57764465D01*
X185776379Y-57766611D01*
X185760343Y-57767835D01*
X185756593Y-57767815D01*
X185756592Y-57767815D01*
X185701992Y-57778375D01*
X185698733Y-57778949D01*
X185633992Y-57789237D01*
X185629121Y-57791194D01*
X185621658Y-57793797D01*
X185559281Y-57819247D01*
X185558788Y-57819447D01*
X185487515Y-57848080D01*
X185430102Y-57887898D01*
X185428248Y-57889153D01*
X184754429Y-58334242D01*
X184695454Y-58350538D01*
X184638163Y-58329057D01*
X184617549Y-58306638D01*
X184516658Y-58155644D01*
X184400554Y-57981882D01*
X184400549Y-57981877D01*
X184400546Y-57981873D01*
X184358389Y-57939717D01*
X184284698Y-57909193D01*
X184204933Y-57909193D01*
X184149847Y-57932010D01*
X183292079Y-58505151D01*
X183233191Y-58521759D01*
X183175788Y-58500581D01*
X183167074Y-58492839D01*
X182848635Y-58174400D01*
X182823013Y-58130021D01*
X182804577Y-58061216D01*
X182725520Y-57924284D01*
X182067034Y-57265799D01*
X182058497Y-57256063D01*
X182038285Y-57229722D01*
X182038282Y-57229718D01*
X182038277Y-57229714D01*
X182038276Y-57229713D01*
X182011935Y-57209501D01*
X182002200Y-57200964D01*
X181978717Y-57177482D01*
X181978713Y-57177479D01*
X181949955Y-57160875D01*
X181939190Y-57153682D01*
X181933850Y-57149584D01*
X181912841Y-57133464D01*
X181912840Y-57133463D01*
X181912838Y-57133462D01*
X181882155Y-57120752D01*
X181870544Y-57115026D01*
X181841787Y-57098423D01*
X181841783Y-57098422D01*
X181809705Y-57089826D01*
X181797448Y-57085665D01*
X181766767Y-57072958D01*
X181766759Y-57072955D01*
X181733834Y-57068620D01*
X181721140Y-57066094D01*
X181689061Y-57057499D01*
X181689057Y-57057499D01*
X181655842Y-57057499D01*
X181642920Y-57056652D01*
X181610001Y-57052318D01*
X181609999Y-57052318D01*
X181577080Y-57056652D01*
X181564158Y-57057499D01*
X181530943Y-57057499D01*
X181498858Y-57066095D01*
X181486165Y-57068620D01*
X181453235Y-57072956D01*
X181453232Y-57072957D01*
X181422553Y-57085664D01*
X181410298Y-57089825D01*
X181378215Y-57098422D01*
X181349450Y-57115029D01*
X181337845Y-57120752D01*
X181307158Y-57133464D01*
X181307153Y-57133467D01*
X181280803Y-57153686D01*
X181270042Y-57160876D01*
X181241282Y-57177482D01*
X181217803Y-57200960D01*
X181208073Y-57209493D01*
X181181723Y-57229713D01*
X181181713Y-57229723D01*
X181161493Y-57256073D01*
X181152960Y-57265803D01*
X181129482Y-57289282D01*
X181112876Y-57318042D01*
X181105686Y-57328803D01*
X181085467Y-57355153D01*
X181085464Y-57355158D01*
X181072752Y-57385845D01*
X181067029Y-57397450D01*
X181050422Y-57426215D01*
X181041825Y-57458298D01*
X181037664Y-57470553D01*
X181024957Y-57501232D01*
X181024956Y-57501235D01*
X181020620Y-57534165D01*
X181018095Y-57546858D01*
X181009499Y-57578943D01*
X181009499Y-57612157D01*
X181008652Y-57625079D01*
X181004318Y-57657999D01*
X181008652Y-57690918D01*
X181009499Y-57703841D01*
X181009499Y-57737061D01*
X181018094Y-57769140D01*
X181020620Y-57781834D01*
X181024955Y-57814759D01*
X181024958Y-57814767D01*
X181037665Y-57845448D01*
X181041826Y-57857705D01*
X181050422Y-57889783D01*
X181050423Y-57889787D01*
X181067026Y-57918544D01*
X181072752Y-57930155D01*
X181085462Y-57960838D01*
X181105682Y-57987190D01*
X181112875Y-57997955D01*
X181129479Y-58026713D01*
X181129482Y-58026717D01*
X181152964Y-58050200D01*
X181161501Y-58059935D01*
X181173118Y-58075075D01*
X181181718Y-58086282D01*
X181208076Y-58106507D01*
X181217804Y-58115039D01*
X181634035Y-58531271D01*
X181656964Y-58570980D01*
X181657474Y-58570770D01*
X181659074Y-58574634D01*
X181659654Y-58575638D01*
X181659954Y-58576759D01*
X181672665Y-58607448D01*
X181676826Y-58619705D01*
X181685422Y-58651783D01*
X181685423Y-58651787D01*
X181702026Y-58680544D01*
X181707752Y-58692155D01*
X181720462Y-58722838D01*
X181740681Y-58749189D01*
X181747874Y-58759955D01*
X181764476Y-58788711D01*
X181764481Y-58788717D01*
X181787967Y-58812204D01*
X181796500Y-58821933D01*
X181816718Y-58848282D01*
X181816722Y-58848285D01*
X181843059Y-58868494D01*
X181852794Y-58877031D01*
X181876284Y-58900520D01*
X181876286Y-58900521D01*
X182125038Y-59149273D01*
X182152815Y-59203790D01*
X182143244Y-59264222D01*
X182125040Y-59289277D01*
X182095942Y-59318376D01*
X182095940Y-59318378D01*
X182065418Y-59392067D01*
X182065418Y-59392069D01*
X182065418Y-59471833D01*
X182072702Y-59489418D01*
X182088237Y-59526922D01*
X182088238Y-59526925D01*
X183404654Y-61497081D01*
X183404665Y-61497094D01*
X183446822Y-61539250D01*
X183520513Y-61569774D01*
X183520515Y-61569774D01*
X183530651Y-61569774D01*
X183588842Y-61588681D01*
X183624806Y-61638181D01*
X183624806Y-61699367D01*
X183622115Y-61706659D01*
X183618236Y-61716023D01*
X183618236Y-61795791D01*
X183641051Y-61850874D01*
X183641056Y-61850883D01*
X183985581Y-62366502D01*
X184001884Y-62412830D01*
X184003963Y-62436474D01*
X184003963Y-62436475D01*
X184059285Y-62657973D01*
X184059288Y-62657981D01*
X184059289Y-62657985D01*
X184077283Y-62700328D01*
X184148584Y-62868111D01*
X184208740Y-62964292D01*
X184209392Y-62965349D01*
X184970848Y-64217483D01*
X184972112Y-64219621D01*
X185701586Y-65489881D01*
X185702795Y-65492050D01*
X186400150Y-66780159D01*
X186401305Y-66782358D01*
X187066129Y-68087553D01*
X187067229Y-68089780D01*
X187348128Y-68677233D01*
X187685952Y-69383735D01*
X187699128Y-69411289D01*
X187700165Y-69413531D01*
X187862883Y-69776983D01*
X188298708Y-70750457D01*
X188299694Y-70752736D01*
X188864501Y-72104229D01*
X188865430Y-72106532D01*
X189396168Y-73471788D01*
X189397039Y-73474114D01*
X189499982Y-73759954D01*
X189785178Y-74551858D01*
X189893366Y-74852261D01*
X189894173Y-74854594D01*
X189958400Y-75048019D01*
X190355775Y-76244759D01*
X190356528Y-76247126D01*
X190783109Y-77648422D01*
X190783802Y-77650806D01*
X191175093Y-79062334D01*
X191175727Y-79064736D01*
X191531495Y-80485669D01*
X191532068Y-80488085D01*
X191852085Y-81917504D01*
X191852597Y-81919935D01*
X191875461Y-82035598D01*
X192110382Y-83224014D01*
X192136651Y-83356900D01*
X192137099Y-83359330D01*
X192180498Y-83612037D01*
X192385028Y-84803020D01*
X192385417Y-84805473D01*
X192597042Y-86254858D01*
X192597370Y-86257319D01*
X192772579Y-87711600D01*
X192772845Y-87714070D01*
X192911517Y-89172270D01*
X192911721Y-89174745D01*
X193013773Y-90635964D01*
X193013915Y-90638443D01*
X193079281Y-92101760D01*
X193079361Y-92104242D01*
X193108001Y-93568775D01*
X193108018Y-93571259D01*
X193099913Y-95035969D01*
X193099869Y-95038452D01*
X193055021Y-96502619D01*
X193054913Y-96505100D01*
X192973360Y-97967563D01*
X192973191Y-97970041D01*
X192854974Y-99430043D01*
X192854743Y-99432516D01*
X192699937Y-100889140D01*
X192699643Y-100891606D01*
X192508357Y-102343815D01*
X192508002Y-102346273D01*
X192280224Y-103794016D01*
X192280023Y-103795240D01*
X192260995Y-103907032D01*
X192260995Y-103907033D01*
X192258366Y-104135320D01*
X192258367Y-104135335D01*
X192291482Y-104361225D01*
X192291482Y-104361227D01*
X192296970Y-104378804D01*
X192299566Y-104427621D01*
X192084851Y-105507070D01*
X192084851Y-105507073D01*
X192084851Y-105566702D01*
X192115376Y-105640394D01*
X192122545Y-105647563D01*
X192150321Y-105702078D01*
X192140750Y-105762510D01*
X192097485Y-105805775D01*
X192090429Y-105809028D01*
X192081061Y-105812908D01*
X192081059Y-105812910D01*
X192024657Y-105869312D01*
X192015006Y-105892611D01*
X192001838Y-105924401D01*
X192001837Y-105924403D01*
X191880855Y-106532620D01*
X191859624Y-106576908D01*
X191844374Y-106595097D01*
X191726864Y-106790851D01*
X191641428Y-107002563D01*
X191641426Y-107002569D01*
X191615943Y-107113152D01*
X191615656Y-107114360D01*
X191268702Y-108538155D01*
X191268084Y-108540560D01*
X190885702Y-109954545D01*
X190885024Y-109956934D01*
X190467291Y-111360892D01*
X190466553Y-111363264D01*
X190013723Y-112756335D01*
X190012925Y-112758687D01*
X189525315Y-114139903D01*
X189524459Y-114142234D01*
X189002350Y-115510798D01*
X189001436Y-115513107D01*
X188445152Y-116868170D01*
X188444180Y-116870455D01*
X187854095Y-118211103D01*
X187853066Y-118213364D01*
X187229533Y-119538800D01*
X187228448Y-119541034D01*
X186571846Y-120850447D01*
X186570705Y-120852652D01*
X185881492Y-122145133D01*
X185880296Y-122147310D01*
X185158867Y-123422115D01*
X185157617Y-123424261D01*
X184404428Y-124680587D01*
X184403124Y-124682701D01*
X183618672Y-125919717D01*
X183617316Y-125921797D01*
X182802081Y-127138746D01*
X182800673Y-127140792D01*
X181955161Y-128336917D01*
X181953702Y-128338927D01*
X181078459Y-129513461D01*
X181076950Y-129515434D01*
X180172509Y-130667657D01*
X180170951Y-130669591D01*
X179237915Y-131798737D01*
X179236310Y-131800631D01*
X178275225Y-132906040D01*
X178273572Y-132907894D01*
X177285067Y-133988841D01*
X177283368Y-133990653D01*
X176268040Y-135046483D01*
X176266296Y-135048251D01*
X175224844Y-136078241D01*
X175223057Y-136079965D01*
X174156055Y-137083545D01*
X174154224Y-137085224D01*
X173062420Y-138061691D01*
X173060549Y-138063323D01*
X171944556Y-139012131D01*
X171942643Y-139013716D01*
X170803233Y-139934205D01*
X170801282Y-139935741D01*
X169639139Y-140827361D01*
X169637150Y-140828848D01*
X168452441Y-141691447D01*
X168451434Y-141692171D01*
X168358864Y-141757813D01*
X168195578Y-141917379D01*
X168195572Y-141917386D01*
X168059257Y-142100535D01*
X168050709Y-142116845D01*
X168018027Y-142153198D01*
X167102914Y-142764658D01*
X167102905Y-142764665D01*
X167060749Y-142806822D01*
X167030225Y-142880513D01*
X167030225Y-142890656D01*
X167011315Y-142948846D01*
X166961813Y-142984807D01*
X166900628Y-142984804D01*
X166893345Y-142982117D01*
X166883974Y-142978236D01*
X166804210Y-142978236D01*
X166804209Y-142978236D01*
X166749125Y-143001051D01*
X166749116Y-143001056D01*
X166233496Y-143345581D01*
X166187168Y-143361884D01*
X166163525Y-143363963D01*
X166163524Y-143363963D01*
X165942026Y-143419285D01*
X165942015Y-143419289D01*
X165731885Y-143508585D01*
X165635706Y-143568740D01*
X165634650Y-143569392D01*
X164382516Y-144330848D01*
X164380378Y-144332112D01*
X163110118Y-145061586D01*
X163107949Y-145062795D01*
X161819840Y-145760150D01*
X161817641Y-145761305D01*
X160512446Y-146426129D01*
X160510219Y-146427229D01*
X159188710Y-147059128D01*
X159186456Y-147060171D01*
X157849542Y-147658708D01*
X157847263Y-147659694D01*
X156495770Y-148224501D01*
X156493467Y-148225430D01*
X155128211Y-148756168D01*
X155125885Y-148757039D01*
X153747738Y-149253366D01*
X153745391Y-149254178D01*
X152355240Y-149715775D01*
X152352873Y-149716528D01*
X151839025Y-149872953D01*
X151777850Y-149871812D01*
X151729030Y-149834931D01*
X151711211Y-149776397D01*
X151714774Y-149751863D01*
X151732859Y-149686447D01*
X151732861Y-149686441D01*
X151740265Y-149628421D01*
X151718411Y-148251571D01*
X151713388Y-148209557D01*
X151702198Y-148160014D01*
X151700063Y-148151427D01*
X151657053Y-148070715D01*
X151611298Y-148017911D01*
X151593707Y-147999957D01*
X151593706Y-147999956D01*
X151593705Y-147999955D01*
X151593703Y-147999953D01*
X151513894Y-147955311D01*
X151513890Y-147955309D01*
X151446857Y-147935626D01*
X151446848Y-147935624D01*
X151400637Y-147928980D01*
X151388953Y-147927300D01*
X148069900Y-147927300D01*
X148069893Y-147927300D01*
X148025817Y-147932084D01*
X148025802Y-147932087D01*
X147973848Y-147943498D01*
X147963280Y-147946114D01*
X147963276Y-147946116D01*
X147882738Y-147989448D01*
X147850171Y-148017898D01*
X147830119Y-148035415D01*
X147821738Y-148043693D01*
X147812234Y-148053081D01*
X147767909Y-148133077D01*
X147767908Y-148133080D01*
X147748493Y-148200196D01*
X147740403Y-148258123D01*
X147745374Y-149494728D01*
X147726701Y-149552994D01*
X147677346Y-149589157D01*
X147670111Y-149591238D01*
X147238520Y-149697824D01*
X147235982Y-149698416D01*
X145768971Y-150019997D01*
X145766419Y-150020521D01*
X144291497Y-150303375D01*
X144288932Y-150303832D01*
X142807085Y-150547770D01*
X142804508Y-150548160D01*
X141316697Y-150753022D01*
X141314112Y-150753343D01*
X139821469Y-150918974D01*
X139818875Y-150919227D01*
X138322396Y-151045518D01*
X138319797Y-151045703D01*
X136820517Y-151132565D01*
X136817914Y-151132682D01*
X135316832Y-151180058D01*
X135314227Y-151180106D01*
X133812420Y-151187962D01*
X133809814Y-151187941D01*
X132308358Y-151156269D01*
X132305754Y-151156180D01*
X130805611Y-151085004D01*
X130803010Y-151084846D01*
X129305294Y-150974216D01*
X129302698Y-150973990D01*
X127808406Y-150823982D01*
X127805817Y-150823688D01*
X126315943Y-150634400D01*
X126313363Y-150634037D01*
X124829057Y-150405614D01*
X124826487Y-150405184D01*
X123348657Y-150137769D01*
X123346099Y-150137271D01*
X121875833Y-149831058D01*
X121873290Y-149830493D01*
X120411628Y-149485701D01*
X120409100Y-149485070D01*
X118956967Y-149101916D01*
X118954456Y-149101218D01*
X117512915Y-148679982D01*
X117510424Y-148679218D01*
X116080491Y-148220198D01*
X116078021Y-148219369D01*
X114660686Y-147722882D01*
X114658238Y-147721989D01*
X113254391Y-147188348D01*
X113251968Y-147187390D01*
X111862704Y-146617009D01*
X111860307Y-146615988D01*
X111729010Y-146557999D01*
X131982318Y-146557999D01*
X131982318Y-146558000D01*
X132002955Y-146714758D01*
X132002957Y-146714766D01*
X132063462Y-146860838D01*
X132063462Y-146860839D01*
X132114161Y-146926911D01*
X132159718Y-146986282D01*
X132159721Y-146986284D01*
X132161252Y-146987459D01*
X132162034Y-146988597D01*
X132164307Y-146990870D01*
X132163885Y-146991291D01*
X132195907Y-147037885D01*
X132194304Y-147099049D01*
X132163972Y-147140795D01*
X132164307Y-147141130D01*
X132162197Y-147143239D01*
X132161252Y-147144541D01*
X132159721Y-147145715D01*
X132159713Y-147145723D01*
X132063462Y-147271160D01*
X132063462Y-147271161D01*
X132002957Y-147417233D01*
X132002955Y-147417241D01*
X131982318Y-147573999D01*
X131982318Y-147574000D01*
X132002955Y-147730758D01*
X132002957Y-147730766D01*
X132063462Y-147876838D01*
X132063462Y-147876839D01*
X132116620Y-147946116D01*
X132159718Y-148002282D01*
X132159721Y-148002284D01*
X132161252Y-148003459D01*
X132162034Y-148004597D01*
X132164307Y-148006870D01*
X132163885Y-148007291D01*
X132195907Y-148053885D01*
X132194304Y-148115049D01*
X132163972Y-148156795D01*
X132164307Y-148157130D01*
X132162197Y-148159239D01*
X132161252Y-148160541D01*
X132159721Y-148161715D01*
X132159713Y-148161723D01*
X132063462Y-148287160D01*
X132063462Y-148287161D01*
X132002957Y-148433233D01*
X132002955Y-148433241D01*
X131982318Y-148589999D01*
X131982318Y-148590000D01*
X132002955Y-148746758D01*
X132002957Y-148746766D01*
X132063462Y-148892838D01*
X132063462Y-148892839D01*
X132159713Y-149018276D01*
X132159718Y-149018282D01*
X132285159Y-149114536D01*
X132431238Y-149175044D01*
X132548809Y-149190522D01*
X132587999Y-149195682D01*
X132588000Y-149195682D01*
X132699284Y-149181031D01*
X132759443Y-149192181D01*
X132782209Y-149209180D01*
X133338140Y-149765111D01*
X133338139Y-149765111D01*
X133394089Y-149821060D01*
X133462607Y-149860619D01*
X133462611Y-149860621D01*
X133539035Y-149881099D01*
X133539037Y-149881100D01*
X133539038Y-149881100D01*
X144844963Y-149881100D01*
X144844963Y-149881099D01*
X144921389Y-149860621D01*
X144989911Y-149821060D01*
X145017885Y-149793085D01*
X145045861Y-149765111D01*
X145221814Y-149589157D01*
X145410517Y-149400452D01*
X145465032Y-149372676D01*
X145518404Y-149378992D01*
X145639238Y-149429044D01*
X145756809Y-149444522D01*
X145795999Y-149449682D01*
X145796000Y-149449682D01*
X145796001Y-149449682D01*
X145827352Y-149445554D01*
X145952762Y-149429044D01*
X146098841Y-149368536D01*
X146224282Y-149272282D01*
X146320536Y-149146841D01*
X146381044Y-149000762D01*
X146401682Y-148844000D01*
X146381044Y-148687238D01*
X146381042Y-148687233D01*
X146320537Y-148541161D01*
X146320537Y-148541160D01*
X146224286Y-148415723D01*
X146224285Y-148415722D01*
X146224282Y-148415718D01*
X146224277Y-148415714D01*
X146224276Y-148415713D01*
X146120296Y-148335927D01*
X146098841Y-148319464D01*
X145974566Y-148267987D01*
X145928042Y-148228251D01*
X145913758Y-148168757D01*
X145937173Y-148112229D01*
X145942450Y-148106520D01*
X146399476Y-147649496D01*
X146453992Y-147621719D01*
X146469479Y-147620500D01*
X151828122Y-147620500D01*
X151886313Y-147639407D01*
X151898126Y-147649496D01*
X152929231Y-148680601D01*
X152938513Y-148691320D01*
X152949839Y-148706467D01*
X152949840Y-148706468D01*
X152960780Y-148714189D01*
X152973695Y-148725066D01*
X152977485Y-148728856D01*
X152977490Y-148728860D01*
X152987251Y-148734495D01*
X152995992Y-148739541D01*
X153003572Y-148744391D01*
X153027606Y-148761353D01*
X153027605Y-148761353D01*
X153027608Y-148761354D01*
X153027610Y-148761355D01*
X153030313Y-148762192D01*
X153039842Y-148766356D01*
X153040016Y-148765937D01*
X153046010Y-148768420D01*
X153046012Y-148768421D01*
X153076795Y-148776669D01*
X153080410Y-148777712D01*
X153118536Y-148789524D01*
X153163396Y-148788908D01*
X153164755Y-148788899D01*
X153202699Y-148788899D01*
X153211731Y-148788244D01*
X153213716Y-148788217D01*
X153246283Y-148777138D01*
X153252506Y-148775247D01*
X153277988Y-148768421D01*
X153278288Y-148768247D01*
X153295908Y-148760255D01*
X153940228Y-148541066D01*
X155291193Y-148043693D01*
X156629370Y-147512875D01*
X157953932Y-146948941D01*
X159264059Y-146352239D01*
X160558941Y-145723139D01*
X161837776Y-145062030D01*
X163099774Y-144369320D01*
X164344154Y-143645438D01*
X165570146Y-142890833D01*
X166144174Y-142517533D01*
X166144178Y-142517532D01*
X166173576Y-142498413D01*
X166173577Y-142498414D01*
X166213476Y-142472466D01*
X166273332Y-142398451D01*
X166307386Y-142309562D01*
X166310229Y-142254598D01*
X166313473Y-142234087D01*
X166314900Y-142228763D01*
X166314900Y-134463380D01*
X166333807Y-134405189D01*
X166370675Y-134376125D01*
X166370172Y-134375253D01*
X166375790Y-134372009D01*
X166375793Y-134372008D01*
X166501234Y-134275754D01*
X166597488Y-134150313D01*
X166657996Y-134004234D01*
X166678634Y-133847472D01*
X166657996Y-133690710D01*
X166597489Y-133544633D01*
X166597489Y-133544632D01*
X166501238Y-133419195D01*
X166501237Y-133419194D01*
X166501234Y-133419190D01*
X166501229Y-133419186D01*
X166496645Y-133414602D01*
X166498628Y-133412618D01*
X166470617Y-133371892D01*
X166472197Y-133310727D01*
X166490516Y-133281685D01*
X166489532Y-133280930D01*
X166515648Y-133246893D01*
X166589736Y-133150341D01*
X166650244Y-133004262D01*
X166670882Y-132847500D01*
X166650244Y-132690738D01*
X166589737Y-132544661D01*
X166589737Y-132544660D01*
X166493486Y-132419223D01*
X166493485Y-132419222D01*
X166493482Y-132419218D01*
X166493477Y-132419214D01*
X166493476Y-132419213D01*
X166393488Y-132342490D01*
X166368041Y-132322964D01*
X166368040Y-132322963D01*
X166368038Y-132322962D01*
X166221966Y-132262457D01*
X166221958Y-132262455D01*
X166065201Y-132241818D01*
X166065198Y-132241818D01*
X165953915Y-132256468D01*
X165893755Y-132245318D01*
X165870991Y-132228319D01*
X165482210Y-131839539D01*
X165413692Y-131799980D01*
X165413688Y-131799978D01*
X165337264Y-131779500D01*
X165337262Y-131779500D01*
X163092112Y-131779500D01*
X163012988Y-131779500D01*
X162966211Y-131792033D01*
X162936557Y-131799979D01*
X162868043Y-131839536D01*
X162365089Y-132342490D01*
X162365088Y-132342489D01*
X162309139Y-132398439D01*
X162269580Y-132466957D01*
X162269578Y-132466961D01*
X162249100Y-132543385D01*
X162249100Y-134219064D01*
X162269578Y-134295488D01*
X162285375Y-134322848D01*
X162285375Y-134322849D01*
X162309140Y-134364012D01*
X162401819Y-134456691D01*
X162429596Y-134511207D01*
X162429968Y-134539615D01*
X162415318Y-134650898D01*
X162415318Y-134650900D01*
X162435955Y-134807658D01*
X162435957Y-134807666D01*
X162496462Y-134953738D01*
X162496462Y-134953739D01*
X162592713Y-135079176D01*
X162592718Y-135079182D01*
X162718159Y-135175436D01*
X162864238Y-135235944D01*
X162981809Y-135251422D01*
X163020999Y-135256582D01*
X163021000Y-135256582D01*
X163021001Y-135256582D01*
X163052352Y-135252454D01*
X163177762Y-135235944D01*
X163323841Y-135175436D01*
X163449282Y-135079182D01*
X163545536Y-134953741D01*
X163606044Y-134807662D01*
X163626682Y-134650900D01*
X163606044Y-134494138D01*
X163564576Y-134394025D01*
X163545537Y-134348061D01*
X163545537Y-134348060D01*
X163449286Y-134222623D01*
X163449285Y-134222622D01*
X163449282Y-134222618D01*
X163449277Y-134222614D01*
X163449276Y-134222613D01*
X163323838Y-134126362D01*
X163177766Y-134065857D01*
X163177758Y-134065855D01*
X163021001Y-134045218D01*
X163020998Y-134045218D01*
X162962021Y-134052982D01*
X162901861Y-134041832D01*
X162859744Y-133997449D01*
X162850100Y-133954829D01*
X162850100Y-132748429D01*
X162869007Y-132690238D01*
X162879096Y-132678425D01*
X163148025Y-132409496D01*
X163202542Y-132381719D01*
X163218029Y-132380500D01*
X165132221Y-132380500D01*
X165190412Y-132399407D01*
X165202225Y-132409496D01*
X165446019Y-132653290D01*
X165473796Y-132707807D01*
X165474168Y-132736215D01*
X165459518Y-132847498D01*
X165459518Y-132847500D01*
X165480155Y-133004258D01*
X165480157Y-133004266D01*
X165540662Y-133150338D01*
X165540662Y-133150339D01*
X165540664Y-133150341D01*
X165636918Y-133275782D01*
X165636922Y-133275785D01*
X165641507Y-133280370D01*
X165639526Y-133282350D01*
X165667542Y-133323108D01*
X165665943Y-133384272D01*
X165647642Y-133413291D01*
X165648620Y-133414042D01*
X165548414Y-133544632D01*
X165548414Y-133544633D01*
X165487909Y-133690705D01*
X165487907Y-133690713D01*
X165467270Y-133847471D01*
X165467270Y-133847472D01*
X165487907Y-134004230D01*
X165487909Y-134004238D01*
X165548414Y-134150310D01*
X165548414Y-134150311D01*
X165603897Y-134222618D01*
X165644670Y-134275754D01*
X165644674Y-134275757D01*
X165675167Y-134299155D01*
X165709823Y-134349579D01*
X165713900Y-134377697D01*
X165713900Y-142023614D01*
X165694993Y-142081805D01*
X165667838Y-142107272D01*
X164643149Y-142755683D01*
X164641052Y-142756973D01*
X163420842Y-143487254D01*
X163418713Y-143488493D01*
X162180649Y-144188240D01*
X162178491Y-144189424D01*
X160923452Y-144858139D01*
X160921264Y-144859270D01*
X159649984Y-145496565D01*
X159647770Y-145497641D01*
X158361019Y-146103130D01*
X158358778Y-146104151D01*
X157057330Y-146677466D01*
X157055064Y-146678430D01*
X155739824Y-147219175D01*
X155737535Y-147220083D01*
X154409232Y-147727958D01*
X154406922Y-147728809D01*
X153628085Y-148004597D01*
X153299317Y-148121014D01*
X153238153Y-148122615D01*
X153196268Y-148097696D01*
X152719072Y-147620500D01*
X152183772Y-147085200D01*
X152155997Y-147030686D01*
X152165568Y-146970254D01*
X152183768Y-146945202D01*
X154697860Y-144431111D01*
X154737421Y-144362589D01*
X154757900Y-144286162D01*
X154757900Y-141092704D01*
X154776807Y-141034513D01*
X154796633Y-141014162D01*
X154861482Y-140964401D01*
X154885682Y-140945832D01*
X154981936Y-140820391D01*
X155042444Y-140674312D01*
X155063082Y-140517550D01*
X155061507Y-140505590D01*
X155055889Y-140462915D01*
X155042444Y-140360788D01*
X154981937Y-140214711D01*
X154981937Y-140214710D01*
X154885686Y-140089273D01*
X154885685Y-140089272D01*
X154885682Y-140089268D01*
X154885677Y-140089264D01*
X154885675Y-140089262D01*
X154847825Y-140060218D01*
X154813169Y-140009793D01*
X154814772Y-139948629D01*
X154832206Y-139921008D01*
X154830932Y-139920030D01*
X154857048Y-139885993D01*
X154931136Y-139789441D01*
X154991644Y-139643362D01*
X155012282Y-139486600D01*
X154991644Y-139329838D01*
X154931137Y-139183761D01*
X154931137Y-139183760D01*
X154834886Y-139058323D01*
X154834885Y-139058322D01*
X154834882Y-139058318D01*
X154834877Y-139058314D01*
X154834876Y-139058313D01*
X154747435Y-138991218D01*
X154709441Y-138962064D01*
X154709440Y-138962063D01*
X154709438Y-138962062D01*
X154563366Y-138901557D01*
X154563358Y-138901555D01*
X154406601Y-138880918D01*
X154406598Y-138880918D01*
X154295315Y-138895568D01*
X154235155Y-138884418D01*
X154212391Y-138867419D01*
X153823610Y-138478639D01*
X153755092Y-138439080D01*
X153755088Y-138439078D01*
X153678664Y-138418600D01*
X153678662Y-138418600D01*
X151433512Y-138418600D01*
X151354388Y-138418600D01*
X151307611Y-138431133D01*
X151277957Y-138439079D01*
X151209443Y-138478636D01*
X150706489Y-138981590D01*
X150706488Y-138981589D01*
X150650539Y-139037539D01*
X150610980Y-139106057D01*
X150610978Y-139106061D01*
X150590500Y-139182485D01*
X150590500Y-140858164D01*
X150610977Y-140934585D01*
X150610978Y-140934587D01*
X150610979Y-140934589D01*
X150641330Y-140987159D01*
X150650540Y-141003111D01*
X150743219Y-141095791D01*
X150770996Y-141150307D01*
X150771368Y-141178715D01*
X150756718Y-141289998D01*
X150756718Y-141290000D01*
X150777355Y-141446758D01*
X150777357Y-141446766D01*
X150837862Y-141592838D01*
X150837862Y-141592839D01*
X150934113Y-141718276D01*
X150934118Y-141718282D01*
X151059559Y-141814536D01*
X151059560Y-141814536D01*
X151059561Y-141814537D01*
X151068496Y-141818238D01*
X151205638Y-141875044D01*
X151323209Y-141890522D01*
X151362399Y-141895682D01*
X151362400Y-141895682D01*
X151362401Y-141895682D01*
X151393752Y-141891554D01*
X151519162Y-141875044D01*
X151665241Y-141814536D01*
X151790682Y-141718282D01*
X151886936Y-141592841D01*
X151947444Y-141446762D01*
X151968082Y-141290000D01*
X151947444Y-141133238D01*
X151886936Y-140987159D01*
X151790682Y-140861718D01*
X151790677Y-140861714D01*
X151790676Y-140861713D01*
X151705068Y-140796024D01*
X151665241Y-140765464D01*
X151665240Y-140765463D01*
X151665238Y-140765462D01*
X151519166Y-140704957D01*
X151519158Y-140704955D01*
X151362401Y-140684318D01*
X151362398Y-140684318D01*
X151303421Y-140692082D01*
X151243261Y-140680932D01*
X151201144Y-140636549D01*
X151191500Y-140593929D01*
X151191500Y-139387529D01*
X151210407Y-139329338D01*
X151220496Y-139317525D01*
X151489425Y-139048596D01*
X151543942Y-139020819D01*
X151559429Y-139019600D01*
X153473621Y-139019600D01*
X153531812Y-139038507D01*
X153543625Y-139048596D01*
X153787419Y-139292390D01*
X153815196Y-139346907D01*
X153815568Y-139375315D01*
X153800918Y-139486598D01*
X153800918Y-139486600D01*
X153821555Y-139643358D01*
X153821557Y-139643366D01*
X153882062Y-139789438D01*
X153882062Y-139789439D01*
X153960235Y-139891316D01*
X153978318Y-139914882D01*
X154016174Y-139943930D01*
X154050830Y-139994352D01*
X154049229Y-140055516D01*
X154031801Y-140083148D01*
X154033068Y-140084120D01*
X153932862Y-140214710D01*
X153932862Y-140214711D01*
X153872357Y-140360783D01*
X153872355Y-140360791D01*
X153851718Y-140517549D01*
X153851718Y-140517550D01*
X153872355Y-140674308D01*
X153872357Y-140674316D01*
X153932862Y-140820388D01*
X153932862Y-140820389D01*
X154026049Y-140941833D01*
X154029118Y-140945832D01*
X154029122Y-140945835D01*
X154029123Y-140945836D01*
X154118167Y-141014162D01*
X154152823Y-141064587D01*
X154156900Y-141092704D01*
X154156900Y-144081121D01*
X154137993Y-144139312D01*
X154127904Y-144151125D01*
X151796525Y-146482504D01*
X151742008Y-146510281D01*
X151726521Y-146511500D01*
X146089562Y-146511500D01*
X146010438Y-146511500D01*
X145963661Y-146524033D01*
X145934007Y-146531979D01*
X145865493Y-146571536D01*
X144176525Y-148260504D01*
X144122008Y-148288281D01*
X144106521Y-148289500D01*
X138886479Y-148289500D01*
X138828288Y-148270593D01*
X138792324Y-148221093D01*
X138792324Y-148159907D01*
X138816475Y-148120496D01*
X139060133Y-147876838D01*
X139865113Y-147071858D01*
X139876783Y-147051645D01*
X139883520Y-147039977D01*
X139904673Y-147003337D01*
X139904674Y-147003336D01*
X139925153Y-146926909D01*
X139925153Y-142584508D01*
X139944060Y-142526317D01*
X139963886Y-142505966D01*
X140003632Y-142475466D01*
X140052935Y-142437636D01*
X140149189Y-142312195D01*
X140209697Y-142166116D01*
X140230335Y-142009354D01*
X140209697Y-141852592D01*
X140154064Y-141718282D01*
X140149190Y-141706515D01*
X140149190Y-141706514D01*
X140063039Y-141594240D01*
X140042615Y-141536564D01*
X140059993Y-141477899D01*
X140081312Y-141455432D01*
X140102882Y-141438882D01*
X140199136Y-141313441D01*
X140259644Y-141167362D01*
X140280282Y-141010600D01*
X140259644Y-140853838D01*
X140225977Y-140772558D01*
X140199137Y-140707761D01*
X140199137Y-140707760D01*
X140102886Y-140582323D01*
X140102885Y-140582322D01*
X140102882Y-140582318D01*
X140102877Y-140582314D01*
X140102876Y-140582313D01*
X140002888Y-140505590D01*
X139977441Y-140486064D01*
X139977440Y-140486063D01*
X139977438Y-140486062D01*
X139831366Y-140425557D01*
X139831358Y-140425555D01*
X139674601Y-140404918D01*
X139674598Y-140404918D01*
X139563315Y-140419568D01*
X139503155Y-140408418D01*
X139480391Y-140391419D01*
X139091610Y-140002639D01*
X139070445Y-139990419D01*
X139070445Y-139990420D01*
X139023089Y-139963079D01*
X139023088Y-139963078D01*
X139023087Y-139963078D01*
X138946664Y-139942600D01*
X138946662Y-139942600D01*
X136701512Y-139942600D01*
X136622388Y-139942600D01*
X136575611Y-139955133D01*
X136545957Y-139963079D01*
X136477443Y-140002636D01*
X135974489Y-140505590D01*
X135974488Y-140505589D01*
X135918539Y-140561539D01*
X135878980Y-140630057D01*
X135878978Y-140630061D01*
X135858500Y-140706485D01*
X135858500Y-142382164D01*
X135878978Y-142458588D01*
X135901971Y-142498412D01*
X135901971Y-142498413D01*
X135918540Y-142527111D01*
X136011219Y-142619791D01*
X136038996Y-142674307D01*
X136039368Y-142702715D01*
X136024718Y-142813998D01*
X136024718Y-142814000D01*
X136045355Y-142970758D01*
X136045357Y-142970766D01*
X136105862Y-143116838D01*
X136105862Y-143116839D01*
X136187050Y-143222645D01*
X136202118Y-143242282D01*
X136327559Y-143338536D01*
X136327560Y-143338536D01*
X136327561Y-143338537D01*
X136473633Y-143399042D01*
X136473638Y-143399044D01*
X136591209Y-143414522D01*
X136630399Y-143419682D01*
X136630400Y-143419682D01*
X136630401Y-143419682D01*
X136661752Y-143415554D01*
X136787162Y-143399044D01*
X136933241Y-143338536D01*
X137058682Y-143242282D01*
X137154936Y-143116841D01*
X137215444Y-142970762D01*
X137236082Y-142814000D01*
X137215444Y-142657238D01*
X137195831Y-142609888D01*
X137154937Y-142511161D01*
X137154937Y-142511160D01*
X137058686Y-142385723D01*
X137058685Y-142385722D01*
X137058682Y-142385718D01*
X137058677Y-142385714D01*
X137058676Y-142385713D01*
X136933238Y-142289462D01*
X136787166Y-142228957D01*
X136787158Y-142228955D01*
X136630401Y-142208318D01*
X136630398Y-142208318D01*
X136571421Y-142216082D01*
X136511261Y-142204932D01*
X136469144Y-142160549D01*
X136459500Y-142117929D01*
X136459500Y-140911529D01*
X136478407Y-140853338D01*
X136488496Y-140841525D01*
X136757425Y-140572596D01*
X136811942Y-140544819D01*
X136827429Y-140543600D01*
X138741621Y-140543600D01*
X138799812Y-140562507D01*
X138811625Y-140572596D01*
X139055419Y-140816390D01*
X139083196Y-140870907D01*
X139083568Y-140899315D01*
X139068918Y-141010598D01*
X139068918Y-141010600D01*
X139089555Y-141167358D01*
X139089557Y-141167366D01*
X139150062Y-141313438D01*
X139150062Y-141313439D01*
X139236213Y-141425713D01*
X139256637Y-141483389D01*
X139239259Y-141542054D01*
X139217940Y-141564521D01*
X139196374Y-141581069D01*
X139196366Y-141581077D01*
X139100115Y-141706514D01*
X139100115Y-141706515D01*
X139039610Y-141852587D01*
X139039608Y-141852595D01*
X139018971Y-142009353D01*
X139018971Y-142009354D01*
X139039608Y-142166112D01*
X139039610Y-142166120D01*
X139100115Y-142312192D01*
X139100115Y-142312193D01*
X139166303Y-142398451D01*
X139196371Y-142437636D01*
X139196375Y-142437639D01*
X139196376Y-142437640D01*
X139285420Y-142505966D01*
X139320076Y-142556391D01*
X139324153Y-142584508D01*
X139324153Y-146721868D01*
X139305246Y-146780059D01*
X139295157Y-146791872D01*
X138334525Y-147752504D01*
X138280008Y-147780281D01*
X138264521Y-147781500D01*
X135293479Y-147781500D01*
X135235288Y-147762593D01*
X135223475Y-147752504D01*
X134223180Y-146752209D01*
X134195403Y-146697692D01*
X134195031Y-146669283D01*
X134197847Y-146647898D01*
X134209682Y-146558000D01*
X134189044Y-146401238D01*
X134189042Y-146401233D01*
X134128537Y-146255161D01*
X134128537Y-146255160D01*
X134032286Y-146129723D01*
X134032284Y-146129721D01*
X134032282Y-146129718D01*
X134032277Y-146129714D01*
X134032276Y-146129713D01*
X133961104Y-146075101D01*
X133906841Y-146033464D01*
X133906840Y-146033463D01*
X133906838Y-146033462D01*
X133760766Y-145972957D01*
X133760758Y-145972955D01*
X133604001Y-145952318D01*
X133603999Y-145952318D01*
X133447241Y-145972955D01*
X133447233Y-145972957D01*
X133301161Y-146033462D01*
X133301160Y-146033462D01*
X133175723Y-146129713D01*
X133175715Y-146129721D01*
X133174541Y-146131252D01*
X133173402Y-146132034D01*
X133171130Y-146134307D01*
X133170708Y-146133885D01*
X133124115Y-146165907D01*
X133062951Y-146164304D01*
X133021204Y-146133972D01*
X133020870Y-146134307D01*
X133018760Y-146132197D01*
X133017459Y-146131252D01*
X133016284Y-146129721D01*
X133016282Y-146129718D01*
X133016277Y-146129714D01*
X133016276Y-146129713D01*
X132945104Y-146075101D01*
X132890841Y-146033464D01*
X132890840Y-146033463D01*
X132890838Y-146033462D01*
X132744766Y-145972957D01*
X132744758Y-145972955D01*
X132588001Y-145952318D01*
X132587999Y-145952318D01*
X132431241Y-145972955D01*
X132431233Y-145972957D01*
X132285161Y-146033462D01*
X132285160Y-146033462D01*
X132159723Y-146129713D01*
X132159713Y-146129723D01*
X132063462Y-146255160D01*
X132063462Y-146255161D01*
X132002957Y-146401233D01*
X132002955Y-146401241D01*
X131982318Y-146557999D01*
X111729010Y-146557999D01*
X110486522Y-146009237D01*
X110484152Y-146008153D01*
X109126800Y-145365452D01*
X109124460Y-145364306D01*
X107784476Y-144686097D01*
X107782167Y-144684889D01*
X106460570Y-143971689D01*
X106458293Y-143970422D01*
X105155847Y-143222645D01*
X105153605Y-143221318D01*
X103871317Y-142439538D01*
X103869110Y-142438152D01*
X102607845Y-141622899D01*
X102605676Y-141621456D01*
X101713064Y-141010598D01*
X101366282Y-140773278D01*
X101364191Y-140771806D01*
X100147531Y-139891292D01*
X100145503Y-139889784D01*
X99173979Y-139146947D01*
X98952423Y-138977543D01*
X98950374Y-138975933D01*
X97781773Y-138032656D01*
X97779767Y-138030993D01*
X96636380Y-137057275D01*
X96634419Y-137055560D01*
X96476804Y-136914011D01*
X96181008Y-136648365D01*
X95517036Y-136052071D01*
X95515121Y-136050304D01*
X94489416Y-135079186D01*
X94424589Y-135017809D01*
X94422726Y-135015999D01*
X94327166Y-134920632D01*
X93531293Y-134126362D01*
X93359696Y-133955111D01*
X93357876Y-133953246D01*
X92323150Y-132864766D01*
X92321380Y-132862854D01*
X91315674Y-131747538D01*
X91313955Y-131745581D01*
X90337935Y-130604165D01*
X90336267Y-130602162D01*
X89390615Y-129435445D01*
X89389001Y-129433399D01*
X89017822Y-128949975D01*
X88474379Y-128242195D01*
X88472832Y-128240123D01*
X88440229Y-128195265D01*
X87974719Y-127554767D01*
X87756123Y-127253999D01*
X163986318Y-127253999D01*
X163986318Y-127254000D01*
X164006955Y-127410758D01*
X164006957Y-127410766D01*
X164067462Y-127556838D01*
X164067462Y-127556839D01*
X164142139Y-127654160D01*
X164163718Y-127682282D01*
X164289159Y-127778536D01*
X164289160Y-127778536D01*
X164289161Y-127778537D01*
X164435233Y-127839042D01*
X164435238Y-127839044D01*
X164552809Y-127854522D01*
X164591999Y-127859682D01*
X164592000Y-127859682D01*
X164592001Y-127859682D01*
X164623352Y-127855554D01*
X164748762Y-127839044D01*
X164894841Y-127778536D01*
X164964665Y-127724957D01*
X165022341Y-127704534D01*
X165024932Y-127704500D01*
X176641390Y-127704500D01*
X176699581Y-127723407D01*
X176711394Y-127733497D01*
X177141618Y-128163722D01*
X177169395Y-128218238D01*
X177169767Y-128220802D01*
X177181256Y-128308062D01*
X177241762Y-128454138D01*
X177241762Y-128454139D01*
X177322620Y-128559515D01*
X177338018Y-128579582D01*
X177338022Y-128579585D01*
X177338023Y-128579586D01*
X177367382Y-128602113D01*
X177463459Y-128675836D01*
X177609538Y-128736344D01*
X177727109Y-128751822D01*
X177766299Y-128756982D01*
X177766300Y-128756982D01*
X177766301Y-128756982D01*
X177797652Y-128752854D01*
X177923062Y-128736344D01*
X178069141Y-128675836D01*
X178194582Y-128579582D01*
X178290836Y-128454141D01*
X178351344Y-128308062D01*
X178371982Y-128151300D01*
X178351344Y-127994538D01*
X178341609Y-127971036D01*
X178290837Y-127848461D01*
X178290837Y-127848460D01*
X178194586Y-127723023D01*
X178194585Y-127723022D01*
X178194582Y-127723018D01*
X178194577Y-127723014D01*
X178194576Y-127723013D01*
X178104856Y-127654169D01*
X178069141Y-127626764D01*
X178069140Y-127626763D01*
X178069138Y-127626762D01*
X177923062Y-127566256D01*
X177835803Y-127554767D01*
X177780578Y-127528425D01*
X177778723Y-127526618D01*
X177145614Y-126893511D01*
X177145609Y-126893507D01*
X177042892Y-126834203D01*
X177042889Y-126834202D01*
X177042887Y-126834201D01*
X177011227Y-126825718D01*
X176928309Y-126803500D01*
X176928308Y-126803500D01*
X165024932Y-126803500D01*
X164966741Y-126784593D01*
X164964684Y-126783056D01*
X164894841Y-126729464D01*
X164894840Y-126729463D01*
X164894838Y-126729462D01*
X164748766Y-126668957D01*
X164748758Y-126668955D01*
X164592001Y-126648318D01*
X164591999Y-126648318D01*
X164435241Y-126668955D01*
X164435233Y-126668957D01*
X164289161Y-126729462D01*
X164289160Y-126729462D01*
X164163723Y-126825713D01*
X164163713Y-126825723D01*
X164067462Y-126951160D01*
X164067462Y-126951161D01*
X164006957Y-127097233D01*
X164006955Y-127097241D01*
X163986318Y-127253999D01*
X87756123Y-127253999D01*
X87589889Y-127025277D01*
X87588385Y-127023149D01*
X86977967Y-126135031D01*
X86737728Y-125785499D01*
X86736291Y-125783349D01*
X86613032Y-125593498D01*
X85918466Y-124523686D01*
X85917087Y-124521500D01*
X85867552Y-124440620D01*
X85376286Y-123638482D01*
X85132712Y-123240776D01*
X85131381Y-123238536D01*
X84381002Y-121937646D01*
X84379730Y-121935372D01*
X83906870Y-121063352D01*
X83663826Y-120615146D01*
X83662628Y-120612865D01*
X83584957Y-120460170D01*
X82981713Y-119274246D01*
X82980600Y-119271985D01*
X82735883Y-118757839D01*
X104975500Y-118757839D01*
X104975500Y-118986160D01*
X105011214Y-119211655D01*
X105081769Y-119428799D01*
X105185420Y-119632227D01*
X105185424Y-119632233D01*
X105319616Y-119816931D01*
X105319618Y-119816933D01*
X105319621Y-119816937D01*
X105481063Y-119978379D01*
X105481066Y-119978381D01*
X105481068Y-119978383D01*
X105665766Y-120112575D01*
X105665772Y-120112579D01*
X105869201Y-120216231D01*
X106086340Y-120286784D01*
X106086341Y-120286784D01*
X106086344Y-120286785D01*
X106311840Y-120322500D01*
X106311843Y-120322500D01*
X112382160Y-120322500D01*
X112607655Y-120286785D01*
X112607656Y-120286784D01*
X112607660Y-120286784D01*
X112824799Y-120216231D01*
X113028228Y-120112579D01*
X113212937Y-119978379D01*
X113374379Y-119816937D01*
X113508579Y-119632228D01*
X113612231Y-119428799D01*
X113682784Y-119211660D01*
X113718500Y-118986157D01*
X113718500Y-118757843D01*
X113718500Y-118757839D01*
X113682785Y-118532344D01*
X113631434Y-118374302D01*
X113612231Y-118315201D01*
X113508579Y-118111772D01*
X113434742Y-118010145D01*
X113374383Y-117927068D01*
X113374381Y-117927066D01*
X113374379Y-117927063D01*
X113212937Y-117765621D01*
X113212933Y-117765618D01*
X113212931Y-117765616D01*
X113028233Y-117631424D01*
X113028227Y-117631420D01*
X112824799Y-117527769D01*
X112607655Y-117457214D01*
X112382160Y-117421500D01*
X112382157Y-117421500D01*
X106311843Y-117421500D01*
X106311840Y-117421500D01*
X106086344Y-117457214D01*
X105869200Y-117527769D01*
X105665772Y-117631420D01*
X105665766Y-117631424D01*
X105481068Y-117765616D01*
X105319616Y-117927068D01*
X105185424Y-118111766D01*
X105185420Y-118111772D01*
X105081769Y-118315200D01*
X105011214Y-118532344D01*
X104975500Y-118757839D01*
X82735883Y-118757839D01*
X82335150Y-117915908D01*
X82334061Y-117913541D01*
X81724532Y-116540969D01*
X81723506Y-116538574D01*
X81150309Y-115150430D01*
X81149347Y-115148009D01*
X81073620Y-114950000D01*
X80612876Y-113745249D01*
X80612020Y-113742920D01*
X80343132Y-112980253D01*
X130579500Y-112980253D01*
X130579500Y-115619746D01*
X130579501Y-115619758D01*
X130591132Y-115678227D01*
X130591133Y-115678231D01*
X130635448Y-115744552D01*
X130701769Y-115788867D01*
X130746231Y-115797711D01*
X130760241Y-115800498D01*
X130760246Y-115800498D01*
X130760252Y-115800500D01*
X130760253Y-115800500D01*
X133399747Y-115800500D01*
X133399748Y-115800500D01*
X133458231Y-115788867D01*
X133524552Y-115744552D01*
X133568867Y-115678231D01*
X133580500Y-115619748D01*
X133580500Y-114300000D01*
X135574859Y-114300000D01*
X135595386Y-114547736D01*
X135656412Y-114788716D01*
X135756268Y-115016367D01*
X135892231Y-115224475D01*
X135950645Y-115287930D01*
X136554729Y-114683846D01*
X136575112Y-114714351D01*
X136665649Y-114804888D01*
X136696151Y-114825268D01*
X136090656Y-115430764D01*
X136256761Y-115560050D01*
X136256765Y-115560053D01*
X136475388Y-115678366D01*
X136710513Y-115759084D01*
X136955706Y-115800000D01*
X137204294Y-115800000D01*
X137449486Y-115759084D01*
X137684611Y-115678366D01*
X137903234Y-115560053D01*
X137903238Y-115560050D01*
X138069342Y-115430764D01*
X137463847Y-114825269D01*
X137494351Y-114804888D01*
X137584888Y-114714351D01*
X137605269Y-114683847D01*
X138209354Y-115287932D01*
X138209354Y-115287931D01*
X138267763Y-115224483D01*
X138403731Y-115016367D01*
X138503587Y-114788716D01*
X138564613Y-114547736D01*
X138585140Y-114300000D01*
X138564613Y-114052263D01*
X138503587Y-113811283D01*
X138403731Y-113583632D01*
X138267768Y-113375524D01*
X138209353Y-113312068D01*
X137605268Y-113916151D01*
X137584888Y-113885649D01*
X137494351Y-113795112D01*
X137463846Y-113774729D01*
X138069341Y-113169235D01*
X137903232Y-113039945D01*
X137684611Y-112921633D01*
X137449486Y-112840915D01*
X137204294Y-112800000D01*
X136955706Y-112800000D01*
X136710513Y-112840915D01*
X136475388Y-112921633D01*
X136256765Y-113039946D01*
X136256762Y-113039948D01*
X136090656Y-113169234D01*
X136090656Y-113169235D01*
X136696151Y-113774730D01*
X136665649Y-113795112D01*
X136575112Y-113885649D01*
X136554730Y-113916152D01*
X135950645Y-113312067D01*
X135892234Y-113375520D01*
X135892231Y-113375523D01*
X135756270Y-113583627D01*
X135656412Y-113811283D01*
X135595386Y-114052263D01*
X135574859Y-114300000D01*
X133580500Y-114300000D01*
X133580500Y-112980252D01*
X133568867Y-112921769D01*
X133524552Y-112855448D01*
X133524548Y-112855445D01*
X133458233Y-112811134D01*
X133458231Y-112811133D01*
X133458228Y-112811132D01*
X133458227Y-112811132D01*
X133399758Y-112799501D01*
X133399748Y-112799500D01*
X130760252Y-112799500D01*
X130760251Y-112799500D01*
X130760241Y-112799501D01*
X130701772Y-112811132D01*
X130701766Y-112811134D01*
X130635451Y-112855445D01*
X130635445Y-112855451D01*
X130591134Y-112921766D01*
X130591132Y-112921772D01*
X130579501Y-112980241D01*
X130579500Y-112980253D01*
X80343132Y-112980253D01*
X80112617Y-112326427D01*
X80111824Y-112324080D01*
X79929493Y-111759999D01*
X117504318Y-111759999D01*
X117504318Y-111760000D01*
X117524955Y-111916758D01*
X117524957Y-111916766D01*
X117585462Y-112062838D01*
X117585462Y-112062839D01*
X117681713Y-112188276D01*
X117681718Y-112188282D01*
X117807159Y-112284536D01*
X117807160Y-112284536D01*
X117807161Y-112284537D01*
X117908440Y-112326488D01*
X117953238Y-112345044D01*
X118070809Y-112360522D01*
X118109999Y-112365682D01*
X118110000Y-112365682D01*
X118110001Y-112365682D01*
X118141352Y-112361554D01*
X118266762Y-112345044D01*
X118323274Y-112321635D01*
X118361159Y-112314100D01*
X125237651Y-112314100D01*
X125237653Y-112314100D01*
X125320439Y-112291918D01*
X125320441Y-112291916D01*
X125320443Y-112291916D01*
X125394657Y-112249068D01*
X125394660Y-112249066D01*
X125394659Y-112249066D01*
X125394662Y-112249065D01*
X125412832Y-112230894D01*
X125467345Y-112203116D01*
X125495753Y-112202743D01*
X125575800Y-112213282D01*
X125732562Y-112192644D01*
X125878641Y-112132136D01*
X126004082Y-112035882D01*
X126100336Y-111910441D01*
X126160844Y-111764362D01*
X126181482Y-111607600D01*
X126160844Y-111450838D01*
X126160842Y-111450833D01*
X126100337Y-111304761D01*
X126100337Y-111304760D01*
X126004086Y-111179323D01*
X126004085Y-111179322D01*
X126004082Y-111179318D01*
X126004077Y-111179314D01*
X126004076Y-111179313D01*
X125878638Y-111083062D01*
X125732566Y-111022557D01*
X125732558Y-111022555D01*
X125575801Y-111001918D01*
X125575799Y-111001918D01*
X125419041Y-111022555D01*
X125419033Y-111022557D01*
X125272961Y-111083062D01*
X125272960Y-111083062D01*
X125147523Y-111179313D01*
X125147513Y-111179323D01*
X125051262Y-111304760D01*
X125051262Y-111304761D01*
X124990757Y-111450833D01*
X124990755Y-111450840D01*
X124974144Y-111577022D01*
X124947803Y-111632247D01*
X124894033Y-111661442D01*
X124875991Y-111663100D01*
X118785989Y-111663100D01*
X118727798Y-111644193D01*
X118694525Y-111601985D01*
X118634537Y-111457161D01*
X118634537Y-111457160D01*
X118538286Y-111331723D01*
X118538285Y-111331722D01*
X118538282Y-111331718D01*
X118538277Y-111331714D01*
X118538276Y-111331713D01*
X118412838Y-111235462D01*
X118266766Y-111174957D01*
X118266758Y-111174955D01*
X118110001Y-111154318D01*
X118109999Y-111154318D01*
X117953241Y-111174955D01*
X117953233Y-111174957D01*
X117807161Y-111235462D01*
X117807160Y-111235462D01*
X117681723Y-111331713D01*
X117681713Y-111331723D01*
X117585462Y-111457160D01*
X117585462Y-111457161D01*
X117524957Y-111603233D01*
X117524955Y-111603241D01*
X117504318Y-111759999D01*
X79929493Y-111759999D01*
X79649882Y-110894963D01*
X79649146Y-110892578D01*
X79224977Y-109451805D01*
X79224298Y-109449381D01*
X78838200Y-107997971D01*
X78837567Y-107995454D01*
X78763371Y-107683736D01*
X78489815Y-106534449D01*
X78489251Y-106531931D01*
X78479036Y-106483376D01*
X78180073Y-105062289D01*
X78179572Y-105059739D01*
X78160124Y-104953485D01*
X77909167Y-103582410D01*
X77908755Y-103579982D01*
X77677309Y-102095958D01*
X77676955Y-102093469D01*
X77484659Y-100603968D01*
X77484364Y-100601416D01*
X77483809Y-100596001D01*
X77331334Y-99107364D01*
X77331106Y-99104800D01*
X77309907Y-98825474D01*
X77217450Y-97607258D01*
X77217294Y-97604756D01*
X77143088Y-96104728D01*
X77142994Y-96102145D01*
X77135245Y-95766894D01*
X77108290Y-94600659D01*
X77108266Y-94598074D01*
X77110251Y-93980000D01*
X118919841Y-93980000D01*
X118937934Y-94694005D01*
X118939992Y-94775192D01*
X118939992Y-94775209D01*
X119000391Y-95568341D01*
X119000391Y-95568343D01*
X119000392Y-95568358D01*
X119000393Y-95568359D01*
X119024526Y-95757850D01*
X119100891Y-96357447D01*
X119241220Y-97140401D01*
X119421037Y-97915294D01*
X119421038Y-97915296D01*
X119531557Y-98301541D01*
X119639862Y-98680049D01*
X119689570Y-98825474D01*
X119897140Y-99432743D01*
X119897142Y-99432749D01*
X119977355Y-99633557D01*
X120192216Y-100171450D01*
X120524326Y-100894258D01*
X120892619Y-101599318D01*
X120892628Y-101599334D01*
X120892630Y-101599337D01*
X121296140Y-102284803D01*
X121296152Y-102284823D01*
X121733868Y-102948980D01*
X121733875Y-102948989D01*
X121733883Y-102949002D01*
X122204695Y-103590161D01*
X122649213Y-104135320D01*
X122707388Y-104206665D01*
X123240616Y-104796867D01*
X123240628Y-104796879D01*
X123240638Y-104796890D01*
X123803110Y-105359362D01*
X123803120Y-105359371D01*
X123803132Y-105359383D01*
X124393334Y-105892611D01*
X124393341Y-105892617D01*
X124393348Y-105892623D01*
X125009839Y-106395305D01*
X125650998Y-106866117D01*
X125651015Y-106866128D01*
X125651019Y-106866131D01*
X126315176Y-107303847D01*
X126315196Y-107303859D01*
X126488011Y-107405589D01*
X127000682Y-107707381D01*
X127705742Y-108075674D01*
X128428550Y-108407784D01*
X129167252Y-108702858D01*
X129919951Y-108960138D01*
X130684715Y-109178965D01*
X131459581Y-109358776D01*
X132242560Y-109499110D01*
X133031641Y-109599607D01*
X133824800Y-109660008D01*
X134469202Y-109676337D01*
X134619991Y-109680159D01*
X134620000Y-109680159D01*
X134620009Y-109680159D01*
X134746760Y-109676946D01*
X135415200Y-109660008D01*
X136208359Y-109599607D01*
X136997440Y-109499110D01*
X137780419Y-109358776D01*
X138555285Y-109178965D01*
X139320049Y-108960138D01*
X140072748Y-108702858D01*
X140811450Y-108407784D01*
X141534258Y-108075674D01*
X142239318Y-107707381D01*
X142924819Y-107303850D01*
X143589002Y-106866117D01*
X144230161Y-106395305D01*
X144846652Y-105892623D01*
X145163302Y-105606539D01*
X145436867Y-105359383D01*
X145436869Y-105359380D01*
X145436890Y-105359362D01*
X145999362Y-104796890D01*
X146532623Y-104206652D01*
X147035305Y-103590161D01*
X147506117Y-102949002D01*
X147943850Y-102284819D01*
X148347381Y-101599318D01*
X148715674Y-100894258D01*
X149047784Y-100171450D01*
X149342858Y-99432748D01*
X149600138Y-98680049D01*
X149818965Y-97915285D01*
X149998776Y-97140419D01*
X150139110Y-96357440D01*
X150239607Y-95568359D01*
X150300008Y-94775200D01*
X150320159Y-93980000D01*
X150319991Y-93973388D01*
X150314758Y-93766859D01*
X150300008Y-93184800D01*
X150239607Y-92391641D01*
X150139110Y-91602560D01*
X149998776Y-90819581D01*
X149818965Y-90044715D01*
X149600138Y-89279951D01*
X149342858Y-88527252D01*
X149047784Y-87788550D01*
X148715674Y-87065742D01*
X148660882Y-86960848D01*
X148631250Y-86904119D01*
X148620000Y-86858283D01*
X148620000Y-79147801D01*
X148620000Y-79147800D01*
X148619999Y-79147800D01*
X139769310Y-79147800D01*
X139737290Y-79142479D01*
X139689577Y-79126170D01*
X139320049Y-78999862D01*
X138941541Y-78891557D01*
X138555296Y-78781038D01*
X138555294Y-78781037D01*
X138296996Y-78721098D01*
X137780419Y-78601224D01*
X137780415Y-78601223D01*
X137780401Y-78601220D01*
X137090082Y-78477494D01*
X136997446Y-78460891D01*
X136997450Y-78460891D01*
X136505331Y-78398215D01*
X136208359Y-78360393D01*
X136208355Y-78360392D01*
X136208342Y-78360391D01*
X135415200Y-78299992D01*
X134620009Y-78279841D01*
X134619991Y-78279841D01*
X134172700Y-78291175D01*
X133824800Y-78299992D01*
X133824790Y-78299992D01*
X133031658Y-78360391D01*
X133031656Y-78360391D01*
X132242552Y-78460891D01*
X131459598Y-78601220D01*
X130684705Y-78781037D01*
X130684703Y-78781038D01*
X129919954Y-78999861D01*
X129502710Y-79142479D01*
X129470690Y-79147800D01*
X120620000Y-79147800D01*
X120620000Y-79147801D01*
X120620000Y-86858283D01*
X120608750Y-86904119D01*
X120524325Y-87065744D01*
X120192218Y-87788544D01*
X119897142Y-88527250D01*
X119897140Y-88527256D01*
X119639861Y-89279954D01*
X119421038Y-90044703D01*
X119421037Y-90044705D01*
X119241220Y-90819598D01*
X119100891Y-91602552D01*
X119000391Y-92391656D01*
X119000391Y-92391658D01*
X118939992Y-93184790D01*
X118939992Y-93184807D01*
X118920009Y-93973388D01*
X118919841Y-93980000D01*
X77110251Y-93980000D01*
X77113090Y-93096272D01*
X77113131Y-93093781D01*
X77157479Y-91592531D01*
X77157590Y-91589948D01*
X77189634Y-91016848D01*
X77241430Y-90090453D01*
X77241610Y-90087858D01*
X77295074Y-89438699D01*
X77364885Y-88591058D01*
X77365120Y-88588605D01*
X77527748Y-87095535D01*
X77528062Y-87092972D01*
X77531755Y-87065744D01*
X77729920Y-85604762D01*
X77730300Y-85602214D01*
X77971267Y-84119758D01*
X77971690Y-84117356D01*
X78251590Y-82641741D01*
X78252109Y-82639195D01*
X78323046Y-82312438D01*
X78570720Y-81171576D01*
X78571299Y-81169072D01*
X78650349Y-80846187D01*
X78928435Y-79710308D01*
X78929083Y-79707807D01*
X78935748Y-79683387D01*
X79324478Y-78258972D01*
X79325197Y-78256472D01*
X79372262Y-78100316D01*
X79758590Y-76818532D01*
X79759342Y-76816146D01*
X80230457Y-75390022D01*
X80231300Y-75387582D01*
X80297890Y-75202509D01*
X80739769Y-73974392D01*
X80740644Y-73972060D01*
X80977308Y-73364951D01*
X132834270Y-73364951D01*
X132900151Y-73407290D01*
X132900156Y-73407292D01*
X133038109Y-73447799D01*
X133038112Y-73447800D01*
X133181888Y-73447800D01*
X133181890Y-73447799D01*
X133319843Y-73407292D01*
X133319844Y-73407292D01*
X133385727Y-73364951D01*
X133934270Y-73364951D01*
X134000151Y-73407290D01*
X134000156Y-73407292D01*
X134138109Y-73447799D01*
X134138112Y-73447800D01*
X134281888Y-73447800D01*
X134281890Y-73447799D01*
X134419843Y-73407292D01*
X134419844Y-73407292D01*
X134485729Y-73364950D01*
X134210000Y-73089221D01*
X133934270Y-73364951D01*
X133385727Y-73364951D01*
X133385729Y-73364950D01*
X133110000Y-73089221D01*
X132834270Y-73364951D01*
X80977308Y-73364951D01*
X81191710Y-72814951D01*
X132284270Y-72814951D01*
X132350151Y-72857290D01*
X132350156Y-72857292D01*
X132488109Y-72897799D01*
X132488112Y-72897800D01*
X132511885Y-72897800D01*
X132570076Y-72916707D01*
X132606040Y-72966207D01*
X132609877Y-72982711D01*
X132625319Y-73090114D01*
X132685048Y-73220900D01*
X132689889Y-73226487D01*
X132968578Y-72947799D01*
X132948688Y-72927909D01*
X133010000Y-72927909D01*
X133010000Y-72967691D01*
X133025224Y-73004445D01*
X133053355Y-73032576D01*
X133090109Y-73047800D01*
X133129891Y-73047800D01*
X133166645Y-73032576D01*
X133194776Y-73004445D01*
X133210000Y-72967691D01*
X133210000Y-72947800D01*
X133251422Y-72947800D01*
X133530109Y-73226487D01*
X133534950Y-73220902D01*
X133534951Y-73220901D01*
X133569945Y-73144274D01*
X133611317Y-73099196D01*
X133671283Y-73087044D01*
X133726940Y-73112461D01*
X133750052Y-73144272D01*
X133785048Y-73220900D01*
X133785047Y-73220900D01*
X133789889Y-73226487D01*
X134068578Y-72947799D01*
X134048688Y-72927909D01*
X134110000Y-72927909D01*
X134110000Y-72967691D01*
X134125224Y-73004445D01*
X134153355Y-73032576D01*
X134190109Y-73047800D01*
X134229891Y-73047800D01*
X134266645Y-73032576D01*
X134294776Y-73004445D01*
X134310000Y-72967691D01*
X134310000Y-72947800D01*
X134351422Y-72947800D01*
X134630109Y-73226487D01*
X134634950Y-73220902D01*
X134634951Y-73220900D01*
X134694680Y-73090114D01*
X134710123Y-72982711D01*
X134737119Y-72927803D01*
X134791233Y-72899250D01*
X134808115Y-72897800D01*
X134831888Y-72897800D01*
X134831890Y-72897799D01*
X134969843Y-72857292D01*
X134969844Y-72857292D01*
X135035729Y-72814950D01*
X134760000Y-72539221D01*
X134635690Y-72663528D01*
X134635673Y-72663549D01*
X134351422Y-72947800D01*
X134310000Y-72947800D01*
X134310000Y-72927909D01*
X134294776Y-72891155D01*
X134266645Y-72863024D01*
X134229891Y-72847800D01*
X134190109Y-72847800D01*
X134153355Y-72863024D01*
X134125224Y-72891155D01*
X134110000Y-72927909D01*
X134048688Y-72927909D01*
X133755330Y-72634551D01*
X133755330Y-72634552D01*
X133659999Y-72539221D01*
X133535690Y-72663528D01*
X133535673Y-72663549D01*
X133251422Y-72947800D01*
X133210000Y-72947800D01*
X133210000Y-72927909D01*
X133194776Y-72891155D01*
X133166645Y-72863024D01*
X133129891Y-72847800D01*
X133090109Y-72847800D01*
X133053355Y-72863024D01*
X133025224Y-72891155D01*
X133010000Y-72927909D01*
X132948688Y-72927909D01*
X132655330Y-72634551D01*
X132655330Y-72634552D01*
X132560000Y-72539222D01*
X132284270Y-72814951D01*
X81191710Y-72814951D01*
X81286140Y-72572712D01*
X81287063Y-72570431D01*
X81359649Y-72397797D01*
X132054858Y-72397797D01*
X132054858Y-72397802D01*
X132075319Y-72540114D01*
X132135048Y-72670900D01*
X132139889Y-72676487D01*
X132418578Y-72397799D01*
X132398688Y-72377909D01*
X132460000Y-72377909D01*
X132460000Y-72417691D01*
X132475224Y-72454445D01*
X132503355Y-72482576D01*
X132540109Y-72497800D01*
X132579891Y-72497800D01*
X132616645Y-72482576D01*
X132644776Y-72454445D01*
X132660000Y-72417691D01*
X132660000Y-72397800D01*
X132701421Y-72397800D01*
X132796751Y-72493129D01*
X132796752Y-72493131D01*
X133110000Y-72806378D01*
X133423249Y-72493130D01*
X133518578Y-72397800D01*
X133518578Y-72397799D01*
X133498688Y-72377909D01*
X133560000Y-72377909D01*
X133560000Y-72417691D01*
X133575224Y-72454445D01*
X133603355Y-72482576D01*
X133640109Y-72497800D01*
X133679891Y-72497800D01*
X133716645Y-72482576D01*
X133744776Y-72454445D01*
X133760000Y-72417691D01*
X133760000Y-72397800D01*
X133801421Y-72397800D01*
X133896751Y-72493129D01*
X133896752Y-72493131D01*
X134210000Y-72806378D01*
X134523249Y-72493130D01*
X134618578Y-72397800D01*
X134618578Y-72397799D01*
X134598688Y-72377909D01*
X134660000Y-72377909D01*
X134660000Y-72417691D01*
X134675224Y-72454445D01*
X134703355Y-72482576D01*
X134740109Y-72497800D01*
X134779891Y-72497800D01*
X134816645Y-72482576D01*
X134844776Y-72454445D01*
X134860000Y-72417691D01*
X134860000Y-72397799D01*
X134901421Y-72397799D01*
X135180109Y-72676487D01*
X135184950Y-72670902D01*
X135184951Y-72670900D01*
X135244680Y-72540114D01*
X135265142Y-72397802D01*
X135265142Y-72397797D01*
X135244680Y-72255485D01*
X135184951Y-72124699D01*
X135180109Y-72119111D01*
X134901421Y-72397799D01*
X134860000Y-72397799D01*
X134860000Y-72377909D01*
X134844776Y-72341155D01*
X134816645Y-72313024D01*
X134779891Y-72297800D01*
X134740109Y-72297800D01*
X134703355Y-72313024D01*
X134675224Y-72341155D01*
X134660000Y-72377909D01*
X134598688Y-72377909D01*
X134305330Y-72084551D01*
X134305330Y-72084552D01*
X134209999Y-71989221D01*
X134085690Y-72113528D01*
X134085673Y-72113549D01*
X133801421Y-72397800D01*
X133760000Y-72397800D01*
X133760000Y-72377909D01*
X133744776Y-72341155D01*
X133716645Y-72313024D01*
X133679891Y-72297800D01*
X133640109Y-72297800D01*
X133603355Y-72313024D01*
X133575224Y-72341155D01*
X133560000Y-72377909D01*
X133498688Y-72377909D01*
X133205330Y-72084551D01*
X133205330Y-72084552D01*
X133109999Y-71989221D01*
X132985690Y-72113528D01*
X132985673Y-72113549D01*
X132701421Y-72397800D01*
X132660000Y-72397800D01*
X132660000Y-72377909D01*
X132644776Y-72341155D01*
X132616645Y-72313024D01*
X132579891Y-72297800D01*
X132540109Y-72297800D01*
X132503355Y-72313024D01*
X132475224Y-72341155D01*
X132460000Y-72377909D01*
X132398688Y-72377909D01*
X132139889Y-72119111D01*
X132135048Y-72124699D01*
X132135046Y-72124702D01*
X132075319Y-72255485D01*
X132054858Y-72397797D01*
X81359649Y-72397797D01*
X81646762Y-71714951D01*
X132284270Y-71714951D01*
X132350150Y-71757289D01*
X132351143Y-71757743D01*
X132351814Y-71758359D01*
X132356112Y-71761121D01*
X132355634Y-71761864D01*
X132396223Y-71799112D01*
X132408377Y-71859078D01*
X132382963Y-71914736D01*
X132356010Y-71934321D01*
X132356112Y-71934479D01*
X132353355Y-71936250D01*
X132351157Y-71937848D01*
X132350163Y-71938302D01*
X132284270Y-71980647D01*
X132560000Y-72256377D01*
X132873249Y-71943130D01*
X132968578Y-71847800D01*
X132968578Y-71847799D01*
X132948688Y-71827909D01*
X133010000Y-71827909D01*
X133010000Y-71867691D01*
X133025224Y-71904445D01*
X133053355Y-71932576D01*
X133090109Y-71947800D01*
X133129891Y-71947800D01*
X133166645Y-71932576D01*
X133194776Y-71904445D01*
X133210000Y-71867691D01*
X133210000Y-71847800D01*
X133251421Y-71847800D01*
X133346751Y-71943129D01*
X133346752Y-71943131D01*
X133660000Y-72256378D01*
X133973249Y-71943130D01*
X134068578Y-71847800D01*
X134068578Y-71847799D01*
X134048688Y-71827909D01*
X134110000Y-71827909D01*
X134110000Y-71867691D01*
X134125224Y-71904445D01*
X134153355Y-71932576D01*
X134190109Y-71947800D01*
X134229891Y-71947800D01*
X134266645Y-71932576D01*
X134294776Y-71904445D01*
X134310000Y-71867691D01*
X134310000Y-71847800D01*
X134351421Y-71847800D01*
X134446751Y-71943129D01*
X134446752Y-71943131D01*
X134759999Y-72256377D01*
X135035728Y-71980648D01*
X134969842Y-71938307D01*
X134968850Y-71937854D01*
X134968179Y-71937238D01*
X134963887Y-71934480D01*
X134964364Y-71933737D01*
X134923772Y-71896482D01*
X134911621Y-71836515D01*
X134937039Y-71780859D01*
X134963988Y-71761278D01*
X134963887Y-71761121D01*
X134966649Y-71759345D01*
X134968854Y-71757744D01*
X134969847Y-71757290D01*
X135035729Y-71714950D01*
X134760000Y-71439221D01*
X134635690Y-71563528D01*
X134635673Y-71563549D01*
X134351421Y-71847800D01*
X134310000Y-71847800D01*
X134310000Y-71827909D01*
X134294776Y-71791155D01*
X134266645Y-71763024D01*
X134229891Y-71747800D01*
X134190109Y-71747800D01*
X134153355Y-71763024D01*
X134125224Y-71791155D01*
X134110000Y-71827909D01*
X134048688Y-71827909D01*
X133755330Y-71534551D01*
X133755330Y-71534552D01*
X133659999Y-71439221D01*
X133535690Y-71563528D01*
X133535673Y-71563549D01*
X133251421Y-71847800D01*
X133210000Y-71847800D01*
X133210000Y-71827909D01*
X133194776Y-71791155D01*
X133166645Y-71763024D01*
X133129891Y-71747800D01*
X133090109Y-71747800D01*
X133053355Y-71763024D01*
X133025224Y-71791155D01*
X133010000Y-71827909D01*
X132948688Y-71827909D01*
X132655330Y-71534551D01*
X132655330Y-71534552D01*
X132560000Y-71439222D01*
X132284270Y-71714951D01*
X81646762Y-71714951D01*
X81822160Y-71297797D01*
X132054858Y-71297797D01*
X132054858Y-71297802D01*
X132075319Y-71440114D01*
X132135048Y-71570900D01*
X132139889Y-71576487D01*
X132418578Y-71297799D01*
X132398688Y-71277909D01*
X132460000Y-71277909D01*
X132460000Y-71317691D01*
X132475224Y-71354445D01*
X132503355Y-71382576D01*
X132540109Y-71397800D01*
X132579891Y-71397800D01*
X132616645Y-71382576D01*
X132644776Y-71354445D01*
X132660000Y-71317691D01*
X132660000Y-71297800D01*
X132701421Y-71297800D01*
X132796751Y-71393129D01*
X132796752Y-71393131D01*
X133110000Y-71706378D01*
X133423249Y-71393130D01*
X133518578Y-71297800D01*
X133518578Y-71297799D01*
X133498688Y-71277909D01*
X133560000Y-71277909D01*
X133560000Y-71317691D01*
X133575224Y-71354445D01*
X133603355Y-71382576D01*
X133640109Y-71397800D01*
X133679891Y-71397800D01*
X133716645Y-71382576D01*
X133744776Y-71354445D01*
X133760000Y-71317691D01*
X133760000Y-71297800D01*
X133801421Y-71297800D01*
X133896751Y-71393129D01*
X133896752Y-71393131D01*
X134210000Y-71706378D01*
X134523249Y-71393130D01*
X134618578Y-71297800D01*
X134618578Y-71297799D01*
X134598688Y-71277909D01*
X134660000Y-71277909D01*
X134660000Y-71317691D01*
X134675224Y-71354445D01*
X134703355Y-71382576D01*
X134740109Y-71397800D01*
X134779891Y-71397800D01*
X134816645Y-71382576D01*
X134844776Y-71354445D01*
X134860000Y-71317691D01*
X134860000Y-71297799D01*
X134901421Y-71297799D01*
X135180109Y-71576487D01*
X135184950Y-71570902D01*
X135184951Y-71570900D01*
X135244680Y-71440114D01*
X135265142Y-71297802D01*
X135265142Y-71297797D01*
X135244680Y-71155485D01*
X135184951Y-71024699D01*
X135180109Y-71019111D01*
X134901421Y-71297799D01*
X134860000Y-71297799D01*
X134860000Y-71277909D01*
X134844776Y-71241155D01*
X134816645Y-71213024D01*
X134779891Y-71197800D01*
X134740109Y-71197800D01*
X134703355Y-71213024D01*
X134675224Y-71241155D01*
X134660000Y-71277909D01*
X134598688Y-71277909D01*
X134305330Y-70984551D01*
X134305330Y-70984552D01*
X134209999Y-70889221D01*
X134085690Y-71013528D01*
X134085673Y-71013549D01*
X133801421Y-71297800D01*
X133760000Y-71297800D01*
X133760000Y-71277909D01*
X133744776Y-71241155D01*
X133716645Y-71213024D01*
X133679891Y-71197800D01*
X133640109Y-71197800D01*
X133603355Y-71213024D01*
X133575224Y-71241155D01*
X133560000Y-71277909D01*
X133498688Y-71277909D01*
X133205330Y-70984551D01*
X133205330Y-70984552D01*
X133109999Y-70889221D01*
X132985690Y-71013528D01*
X132985673Y-71013549D01*
X132701421Y-71297800D01*
X132660000Y-71297800D01*
X132660000Y-71277909D01*
X132644776Y-71241155D01*
X132616645Y-71213024D01*
X132579891Y-71197800D01*
X132540109Y-71197800D01*
X132503355Y-71213024D01*
X132475224Y-71241155D01*
X132460000Y-71277909D01*
X132398688Y-71277909D01*
X132139889Y-71019111D01*
X132135048Y-71024699D01*
X132135046Y-71024702D01*
X132075319Y-71155485D01*
X132054858Y-71297797D01*
X81822160Y-71297797D01*
X81869205Y-71185908D01*
X81870209Y-71183604D01*
X82007082Y-70880647D01*
X132284270Y-70880647D01*
X132560000Y-71156377D01*
X132873249Y-70843130D01*
X132968578Y-70747800D01*
X132968578Y-70747799D01*
X132948688Y-70727909D01*
X133010000Y-70727909D01*
X133010000Y-70767691D01*
X133025224Y-70804445D01*
X133053355Y-70832576D01*
X133090109Y-70847800D01*
X133129891Y-70847800D01*
X133166645Y-70832576D01*
X133194776Y-70804445D01*
X133210000Y-70767691D01*
X133210000Y-70747799D01*
X133251421Y-70747799D01*
X133251421Y-70747800D01*
X133346751Y-70843129D01*
X133346752Y-70843131D01*
X133660000Y-71156378D01*
X133973249Y-70843130D01*
X134068578Y-70747800D01*
X134068578Y-70747799D01*
X134048688Y-70727909D01*
X134110000Y-70727909D01*
X134110000Y-70767691D01*
X134125224Y-70804445D01*
X134153355Y-70832576D01*
X134190109Y-70847800D01*
X134229891Y-70847800D01*
X134266645Y-70832576D01*
X134294776Y-70804445D01*
X134310000Y-70767691D01*
X134310000Y-70747799D01*
X134351421Y-70747799D01*
X134351421Y-70747800D01*
X134446751Y-70843129D01*
X134446752Y-70843131D01*
X134759999Y-71156377D01*
X135035728Y-70880648D01*
X134969841Y-70838306D01*
X134831890Y-70797800D01*
X134808115Y-70797800D01*
X134749924Y-70778893D01*
X134713960Y-70729393D01*
X134710123Y-70712889D01*
X134694680Y-70605485D01*
X134634951Y-70474699D01*
X134630109Y-70469111D01*
X134351421Y-70747799D01*
X134310000Y-70747799D01*
X134310000Y-70727909D01*
X134294776Y-70691155D01*
X134266645Y-70663024D01*
X134229891Y-70647800D01*
X134190109Y-70647800D01*
X134153355Y-70663024D01*
X134125224Y-70691155D01*
X134110000Y-70727909D01*
X134048688Y-70727909D01*
X133789889Y-70469111D01*
X133785048Y-70474699D01*
X133785046Y-70474702D01*
X133750052Y-70551327D01*
X133708679Y-70596405D01*
X133648712Y-70608555D01*
X133593057Y-70583136D01*
X133569945Y-70551326D01*
X133534950Y-70474698D01*
X133530109Y-70469111D01*
X133251421Y-70747799D01*
X133210000Y-70747799D01*
X133210000Y-70727909D01*
X133194776Y-70691155D01*
X133166645Y-70663024D01*
X133129891Y-70647800D01*
X133090109Y-70647800D01*
X133053355Y-70663024D01*
X133025224Y-70691155D01*
X133010000Y-70727909D01*
X132948688Y-70727909D01*
X132689889Y-70469111D01*
X132685048Y-70474699D01*
X132685046Y-70474702D01*
X132625319Y-70605485D01*
X132609877Y-70712889D01*
X132582881Y-70767797D01*
X132528767Y-70796350D01*
X132511885Y-70797800D01*
X132488109Y-70797800D01*
X132350153Y-70838308D01*
X132284270Y-70880647D01*
X82007082Y-70880647D01*
X82255567Y-70330647D01*
X132834270Y-70330647D01*
X133110000Y-70606377D01*
X133385728Y-70330648D01*
X133385726Y-70330647D01*
X133934270Y-70330647D01*
X134210000Y-70606377D01*
X134485728Y-70330648D01*
X134419841Y-70288306D01*
X134281890Y-70247800D01*
X134138109Y-70247800D01*
X134000153Y-70288308D01*
X133934270Y-70330647D01*
X133385726Y-70330647D01*
X133319841Y-70288306D01*
X133181890Y-70247800D01*
X133038109Y-70247800D01*
X132900153Y-70288308D01*
X132834270Y-70330647D01*
X82255567Y-70330647D01*
X82488590Y-69814872D01*
X82489623Y-69812663D01*
X82963173Y-68833999D01*
X146206318Y-68833999D01*
X146206318Y-68834000D01*
X146226955Y-68990758D01*
X146226957Y-68990766D01*
X146287462Y-69136838D01*
X146287463Y-69136840D01*
X146287464Y-69136841D01*
X146341042Y-69206665D01*
X146361466Y-69264340D01*
X146361500Y-69266932D01*
X146361500Y-73989067D01*
X146342593Y-74047258D01*
X146341042Y-74049334D01*
X146287462Y-74119160D01*
X146287462Y-74119161D01*
X146226957Y-74265233D01*
X146226955Y-74265241D01*
X146206318Y-74421999D01*
X146206318Y-74422000D01*
X146226955Y-74578758D01*
X146226957Y-74578766D01*
X146287462Y-74724838D01*
X146287462Y-74724839D01*
X146287464Y-74724841D01*
X146383718Y-74850282D01*
X146509159Y-74946536D01*
X146655238Y-75007044D01*
X146772809Y-75022522D01*
X146811999Y-75027682D01*
X146812000Y-75027682D01*
X146812001Y-75027682D01*
X146843352Y-75023554D01*
X146968762Y-75007044D01*
X147114841Y-74946536D01*
X147240282Y-74850282D01*
X147336536Y-74724841D01*
X147397044Y-74578762D01*
X147417682Y-74422000D01*
X147397044Y-74265238D01*
X147349988Y-74151634D01*
X147336537Y-74119161D01*
X147336537Y-74119160D01*
X147282958Y-74049334D01*
X147262534Y-73991658D01*
X147262500Y-73989067D01*
X147262500Y-69266932D01*
X147281407Y-69208741D01*
X147282936Y-69206693D01*
X147336536Y-69136841D01*
X147397044Y-68990762D01*
X147417682Y-68834000D01*
X147397044Y-68677238D01*
X147336537Y-68531161D01*
X147336537Y-68531160D01*
X147240286Y-68405723D01*
X147240285Y-68405722D01*
X147240282Y-68405718D01*
X147240277Y-68405714D01*
X147240276Y-68405713D01*
X147114838Y-68309462D01*
X146968766Y-68248957D01*
X146968758Y-68248955D01*
X146812001Y-68228318D01*
X146811999Y-68228318D01*
X146655241Y-68248955D01*
X146655233Y-68248957D01*
X146509161Y-68309462D01*
X146509160Y-68309462D01*
X146383723Y-68405713D01*
X146383713Y-68405723D01*
X146287462Y-68531160D01*
X146287462Y-68531161D01*
X146226957Y-68677233D01*
X146226955Y-68677241D01*
X146206318Y-68833999D01*
X82963173Y-68833999D01*
X83143839Y-68460625D01*
X83144933Y-68458437D01*
X83834475Y-67124142D01*
X83835655Y-67121930D01*
X84560066Y-65806259D01*
X84561269Y-65804138D01*
X85320070Y-64507960D01*
X85321381Y-64505787D01*
X85472850Y-64261999D01*
X129188318Y-64261999D01*
X129188318Y-64262000D01*
X129208955Y-64418758D01*
X129208957Y-64418766D01*
X129269462Y-64564838D01*
X129269462Y-64564839D01*
X129365713Y-64690276D01*
X129365718Y-64690282D01*
X129491159Y-64786536D01*
X129637238Y-64847044D01*
X129754809Y-64862522D01*
X129793999Y-64867682D01*
X129794000Y-64867682D01*
X129794001Y-64867682D01*
X129825352Y-64863554D01*
X129950762Y-64847044D01*
X130096841Y-64786536D01*
X130222282Y-64690282D01*
X130290612Y-64601233D01*
X130341037Y-64566577D01*
X130369154Y-64562500D01*
X132341385Y-64562500D01*
X132399576Y-64581407D01*
X132429595Y-64616555D01*
X132440428Y-64637817D01*
X132442672Y-64642220D01*
X132537980Y-64737528D01*
X132537982Y-64737529D01*
X132634163Y-64786536D01*
X132658074Y-64798719D01*
X132791200Y-64819804D01*
X132798993Y-64819804D01*
X132798993Y-64821110D01*
X132851404Y-64829410D01*
X132876465Y-64847617D01*
X134211219Y-66182372D01*
X134238996Y-66236889D01*
X134261081Y-66376327D01*
X134261082Y-66376329D01*
X134322270Y-66496417D01*
X134322272Y-66496420D01*
X134417580Y-66591728D01*
X134537674Y-66652919D01*
X134670800Y-66674004D01*
X134803926Y-66652919D01*
X134924020Y-66591728D01*
X135019328Y-66496420D01*
X135080519Y-66376326D01*
X135101604Y-66243200D01*
X135100604Y-66236889D01*
X135083801Y-66130798D01*
X135080519Y-66110074D01*
X135019328Y-65989980D01*
X134924020Y-65894672D01*
X134924017Y-65894670D01*
X134803929Y-65833482D01*
X134803927Y-65833481D01*
X134670801Y-65812396D01*
X134670800Y-65812396D01*
X134649094Y-65815833D01*
X134588662Y-65806259D01*
X134563607Y-65788055D01*
X133249817Y-64474265D01*
X133222040Y-64419748D01*
X133222040Y-64396793D01*
X133222004Y-64396793D01*
X133222004Y-64388999D01*
X133211316Y-64321518D01*
X133200919Y-64255874D01*
X133139728Y-64135780D01*
X133044420Y-64040472D01*
X133044417Y-64040470D01*
X132924329Y-63979282D01*
X132924327Y-63979281D01*
X132791201Y-63958196D01*
X132791198Y-63958196D01*
X132749278Y-63964835D01*
X132708172Y-63962681D01*
X132703766Y-63961500D01*
X132703762Y-63961500D01*
X131803144Y-63961500D01*
X131744953Y-63942593D01*
X131708989Y-63893093D01*
X131708989Y-63831907D01*
X131744953Y-63782407D01*
X131765259Y-63771036D01*
X131850780Y-63735612D01*
X131850779Y-63735612D01*
X131850785Y-63735610D01*
X131964747Y-63659463D01*
X132061663Y-63562547D01*
X132137810Y-63448585D01*
X132190261Y-63321957D01*
X132217000Y-63187530D01*
X132217000Y-63050470D01*
X132190261Y-62916043D01*
X132163674Y-62851857D01*
X132137812Y-62789419D01*
X132137806Y-62789408D01*
X132091169Y-62719612D01*
X132061663Y-62675453D01*
X131964747Y-62578537D01*
X131916869Y-62546546D01*
X131850791Y-62502393D01*
X131850780Y-62502387D01*
X131724157Y-62449939D01*
X131589732Y-62423200D01*
X131589730Y-62423200D01*
X131452670Y-62423200D01*
X131452667Y-62423200D01*
X131318243Y-62449939D01*
X131318241Y-62449939D01*
X131191619Y-62502387D01*
X131191608Y-62502393D01*
X131077653Y-62578537D01*
X131077649Y-62578540D01*
X130980740Y-62675449D01*
X130980737Y-62675453D01*
X130904593Y-62789408D01*
X130904587Y-62789419D01*
X130852139Y-62916041D01*
X130852139Y-62916043D01*
X130825400Y-63050467D01*
X130825400Y-63050470D01*
X130825400Y-63187530D01*
X130851452Y-63318505D01*
X130852139Y-63321956D01*
X130852139Y-63321958D01*
X130904587Y-63448580D01*
X130904593Y-63448591D01*
X130941919Y-63504452D01*
X130980737Y-63562547D01*
X131077653Y-63659463D01*
X131145594Y-63704860D01*
X131191608Y-63735606D01*
X131191619Y-63735612D01*
X131277141Y-63771036D01*
X131323667Y-63810772D01*
X131337951Y-63870267D01*
X131314536Y-63926795D01*
X131262368Y-63958765D01*
X131239256Y-63961500D01*
X130369154Y-63961500D01*
X130310963Y-63942593D01*
X130290612Y-63922767D01*
X130222286Y-63833723D01*
X130222285Y-63833722D01*
X130222282Y-63833718D01*
X130222277Y-63833714D01*
X130222276Y-63833713D01*
X130096838Y-63737462D01*
X129950766Y-63676957D01*
X129950758Y-63676955D01*
X129794001Y-63656318D01*
X129793999Y-63656318D01*
X129637241Y-63676955D01*
X129637233Y-63676957D01*
X129491161Y-63737462D01*
X129491160Y-63737462D01*
X129365723Y-63833713D01*
X129365713Y-63833723D01*
X129269462Y-63959160D01*
X129269462Y-63959161D01*
X129208957Y-64105233D01*
X129208955Y-64105241D01*
X129188318Y-64261999D01*
X85472850Y-64261999D01*
X86113993Y-63230087D01*
X86115347Y-63227970D01*
X86901164Y-62034467D01*
X135905400Y-62034467D01*
X135905400Y-62171532D01*
X135932139Y-62305956D01*
X135932139Y-62305958D01*
X135984587Y-62432580D01*
X135984593Y-62432591D01*
X136030402Y-62501148D01*
X136060737Y-62546547D01*
X136157653Y-62643463D01*
X136225594Y-62688860D01*
X136271608Y-62719606D01*
X136271619Y-62719612D01*
X136318393Y-62738986D01*
X136398243Y-62772061D01*
X136532670Y-62798800D01*
X136532671Y-62798800D01*
X136669729Y-62798800D01*
X136669730Y-62798800D01*
X136804157Y-62772061D01*
X136930785Y-62719610D01*
X137044747Y-62643463D01*
X137141663Y-62546547D01*
X137217810Y-62432585D01*
X137270261Y-62305957D01*
X137297000Y-62171530D01*
X137297000Y-62034470D01*
X137270261Y-61900043D01*
X137249895Y-61850874D01*
X137217812Y-61773419D01*
X137217806Y-61773408D01*
X137171169Y-61703612D01*
X137141663Y-61659453D01*
X137044747Y-61562537D01*
X136996869Y-61530546D01*
X136930791Y-61486393D01*
X136930780Y-61486387D01*
X136804157Y-61433939D01*
X136669732Y-61407200D01*
X136669730Y-61407200D01*
X136532670Y-61407200D01*
X136532667Y-61407200D01*
X136398243Y-61433939D01*
X136398241Y-61433939D01*
X136271619Y-61486387D01*
X136271608Y-61486393D01*
X136157653Y-61562537D01*
X136157649Y-61562540D01*
X136060740Y-61659449D01*
X136060737Y-61659453D01*
X135984593Y-61773408D01*
X135984587Y-61773419D01*
X135932139Y-61900041D01*
X135932139Y-61900043D01*
X135905400Y-62034467D01*
X86901164Y-62034467D01*
X86941290Y-61973524D01*
X86942694Y-61971453D01*
X87606752Y-61018467D01*
X130825400Y-61018467D01*
X130825400Y-61155532D01*
X130840320Y-61230537D01*
X130848435Y-61271338D01*
X130852139Y-61289956D01*
X130852139Y-61289958D01*
X130904587Y-61416580D01*
X130904593Y-61416591D01*
X130944405Y-61476173D01*
X130980737Y-61530547D01*
X131077653Y-61627463D01*
X131145594Y-61672860D01*
X131191608Y-61703606D01*
X131191619Y-61703612D01*
X131221590Y-61716026D01*
X131318243Y-61756061D01*
X131452670Y-61782800D01*
X131452671Y-61782800D01*
X131589729Y-61782800D01*
X131589730Y-61782800D01*
X131724157Y-61756061D01*
X131850785Y-61703610D01*
X131964747Y-61627463D01*
X132061663Y-61530547D01*
X132137810Y-61416585D01*
X132190261Y-61289957D01*
X132217000Y-61155530D01*
X132217000Y-61018470D01*
X132190261Y-60884043D01*
X132137810Y-60757415D01*
X132137809Y-60757413D01*
X132137806Y-60757408D01*
X132103454Y-60705998D01*
X132061663Y-60643453D01*
X131964747Y-60546537D01*
X131919348Y-60516202D01*
X131850791Y-60470393D01*
X131850780Y-60470387D01*
X131724157Y-60417939D01*
X131589732Y-60391200D01*
X131589730Y-60391200D01*
X131452670Y-60391200D01*
X131452667Y-60391200D01*
X131318243Y-60417939D01*
X131318241Y-60417939D01*
X131191619Y-60470387D01*
X131191608Y-60470393D01*
X131077653Y-60546537D01*
X131077649Y-60546540D01*
X130980740Y-60643449D01*
X130980737Y-60643453D01*
X130904593Y-60757408D01*
X130904587Y-60757419D01*
X130852139Y-60884041D01*
X130852139Y-60884043D01*
X130825400Y-61018467D01*
X87606752Y-61018467D01*
X87801332Y-60739227D01*
X87802816Y-60737157D01*
X88693551Y-59528002D01*
X88695100Y-59525953D01*
X89617385Y-58340611D01*
X89619003Y-58338588D01*
X89809600Y-58106499D01*
X90572147Y-57177950D01*
X90573756Y-57176041D01*
X91557183Y-56040811D01*
X91558835Y-56038955D01*
X92571768Y-54930033D01*
X92573467Y-54928221D01*
X93615232Y-53846341D01*
X93617009Y-53844543D01*
X94686856Y-52790485D01*
X94688723Y-52788694D01*
X94954214Y-52540547D01*
X95785939Y-51763157D01*
X95787783Y-51761478D01*
X96911630Y-50765153D01*
X96913526Y-50763516D01*
X98063206Y-49797113D01*
X98065183Y-49795494D01*
X99239886Y-48859693D01*
X99241891Y-48858138D01*
X100440827Y-47953566D01*
X100442808Y-47952111D01*
X101665197Y-47079361D01*
X101667240Y-47077943D01*
X102912087Y-46237725D01*
X102914229Y-46236320D01*
X103786471Y-45680435D01*
X140415500Y-45680435D01*
X140415500Y-57951564D01*
X140435977Y-58027985D01*
X140435979Y-58027989D01*
X140469633Y-58086281D01*
X140475537Y-58096507D01*
X140475538Y-58096508D01*
X140475540Y-58096511D01*
X141697405Y-59318376D01*
X142890819Y-60511790D01*
X142918596Y-60566307D01*
X142918968Y-60594715D01*
X142904318Y-60705998D01*
X142904318Y-60706000D01*
X142924955Y-60862758D01*
X142924957Y-60862766D01*
X142985462Y-61008838D01*
X142985462Y-61008839D01*
X143080971Y-61133309D01*
X143081718Y-61134282D01*
X143207159Y-61230536D01*
X143207160Y-61230536D01*
X143207161Y-61230537D01*
X143345742Y-61287939D01*
X143353238Y-61291044D01*
X143470809Y-61306522D01*
X143509999Y-61311682D01*
X143510000Y-61311682D01*
X143510001Y-61311682D01*
X143541352Y-61307554D01*
X143666762Y-61291044D01*
X143812841Y-61230536D01*
X143938282Y-61134282D01*
X144034536Y-61008841D01*
X144095044Y-60862762D01*
X144115682Y-60706000D01*
X144095044Y-60549238D01*
X144094074Y-60546896D01*
X144034537Y-60403161D01*
X144034537Y-60403160D01*
X143938286Y-60277723D01*
X143938285Y-60277722D01*
X143938282Y-60277718D01*
X143938277Y-60277714D01*
X143938276Y-60277713D01*
X143812838Y-60181462D01*
X143666766Y-60120957D01*
X143666758Y-60120955D01*
X143510001Y-60100318D01*
X143509998Y-60100318D01*
X143398715Y-60114968D01*
X143338555Y-60103818D01*
X143315790Y-60086819D01*
X141045496Y-57816525D01*
X141017719Y-57762008D01*
X141016500Y-57746521D01*
X141016500Y-56641991D01*
X144174318Y-56641991D01*
X144174318Y-56641992D01*
X144194955Y-56798750D01*
X144194957Y-56798758D01*
X144255462Y-56944830D01*
X144255462Y-56944831D01*
X144351713Y-57070268D01*
X144351718Y-57070274D01*
X144351722Y-57070277D01*
X144351723Y-57070278D01*
X144440767Y-57138604D01*
X144475423Y-57189029D01*
X144479500Y-57217146D01*
X144479500Y-66988846D01*
X144460593Y-67047037D01*
X144440767Y-67067388D01*
X144351723Y-67135713D01*
X144351713Y-67135723D01*
X144255462Y-67261160D01*
X144255462Y-67261161D01*
X144194957Y-67407233D01*
X144194955Y-67407241D01*
X144174318Y-67563999D01*
X144174318Y-67564000D01*
X144194955Y-67720758D01*
X144194957Y-67720766D01*
X144255462Y-67866838D01*
X144255462Y-67866839D01*
X144255464Y-67866841D01*
X144351718Y-67992282D01*
X144477159Y-68088536D01*
X144623238Y-68149044D01*
X144740809Y-68164522D01*
X144779999Y-68169682D01*
X144780000Y-68169682D01*
X144780001Y-68169682D01*
X144811352Y-68165554D01*
X144936762Y-68149044D01*
X145082841Y-68088536D01*
X145208282Y-67992282D01*
X145304536Y-67866841D01*
X145365044Y-67720762D01*
X145385682Y-67564000D01*
X145365044Y-67407238D01*
X145365042Y-67407233D01*
X145304537Y-67261161D01*
X145304537Y-67261160D01*
X145208286Y-67135723D01*
X145208285Y-67135722D01*
X145208282Y-67135718D01*
X145208277Y-67135714D01*
X145208276Y-67135713D01*
X145119233Y-67067388D01*
X145084577Y-67016963D01*
X145080500Y-66988846D01*
X145080500Y-57217146D01*
X145099407Y-57158955D01*
X145119233Y-57138604D01*
X145182801Y-57089826D01*
X145208282Y-57070274D01*
X145304536Y-56944833D01*
X145365044Y-56798754D01*
X145385682Y-56641992D01*
X145365044Y-56485230D01*
X145304537Y-56339153D01*
X145304537Y-56339152D01*
X145208286Y-56213715D01*
X145208285Y-56213714D01*
X145208282Y-56213710D01*
X145208277Y-56213706D01*
X145208276Y-56213705D01*
X145082838Y-56117454D01*
X144936766Y-56056949D01*
X144936758Y-56056947D01*
X144780001Y-56036310D01*
X144779999Y-56036310D01*
X144623241Y-56056947D01*
X144623233Y-56056949D01*
X144477161Y-56117454D01*
X144477160Y-56117454D01*
X144351723Y-56213705D01*
X144351713Y-56213715D01*
X144255462Y-56339152D01*
X144255462Y-56339153D01*
X144194957Y-56485225D01*
X144194955Y-56485233D01*
X144174318Y-56641991D01*
X141016500Y-56641991D01*
X141016500Y-45885479D01*
X141035407Y-45827288D01*
X141045496Y-45815475D01*
X141573475Y-45287496D01*
X141627992Y-45259719D01*
X141643479Y-45258500D01*
X146068050Y-45258500D01*
X146126241Y-45277407D01*
X146162205Y-45326907D01*
X146162205Y-45388093D01*
X146132044Y-45430767D01*
X146132807Y-45431530D01*
X146128369Y-45435967D01*
X146128316Y-45436043D01*
X146128221Y-45436115D01*
X146128213Y-45436123D01*
X146031962Y-45561560D01*
X146031962Y-45561561D01*
X145971457Y-45707633D01*
X145971455Y-45707641D01*
X145950818Y-45864399D01*
X145950818Y-45864400D01*
X145965468Y-45975683D01*
X145954318Y-46035844D01*
X145937319Y-46058608D01*
X145604489Y-46391439D01*
X145548539Y-46447389D01*
X145508980Y-46515907D01*
X145508978Y-46515911D01*
X145488500Y-46592335D01*
X145488500Y-48916614D01*
X145506369Y-48983298D01*
X145508979Y-48993039D01*
X145534739Y-49037657D01*
X145534740Y-49037659D01*
X145534741Y-49037659D01*
X145548540Y-49061561D01*
X146107439Y-49620460D01*
X146107441Y-49620461D01*
X146107443Y-49620463D01*
X146175958Y-49660020D01*
X146175956Y-49660020D01*
X146175960Y-49660021D01*
X146175962Y-49660022D01*
X146252388Y-49680500D01*
X146252390Y-49680500D01*
X147928063Y-49680500D01*
X147928063Y-49680499D01*
X148004489Y-49660021D01*
X148073011Y-49620460D01*
X148128960Y-49564511D01*
X148165691Y-49527779D01*
X148220205Y-49500003D01*
X148248614Y-49499631D01*
X148303704Y-49506883D01*
X148359899Y-49514282D01*
X148359900Y-49514282D01*
X148359901Y-49514282D01*
X148391252Y-49510154D01*
X148516662Y-49493644D01*
X148662741Y-49433136D01*
X148788182Y-49336882D01*
X148884436Y-49211441D01*
X148944944Y-49065362D01*
X148965582Y-48908600D01*
X148964615Y-48901258D01*
X148957444Y-48846789D01*
X148944944Y-48751838D01*
X148886707Y-48611241D01*
X148884437Y-48605761D01*
X148884437Y-48605760D01*
X148788186Y-48480323D01*
X148788185Y-48480322D01*
X148788182Y-48480318D01*
X148788177Y-48480314D01*
X148788176Y-48480313D01*
X148662738Y-48384062D01*
X148516666Y-48323557D01*
X148516658Y-48323555D01*
X148359901Y-48302918D01*
X148359899Y-48302918D01*
X148203141Y-48323555D01*
X148203133Y-48323557D01*
X148057061Y-48384062D01*
X148057060Y-48384062D01*
X147931623Y-48480313D01*
X147931613Y-48480323D01*
X147835362Y-48605760D01*
X147835362Y-48605761D01*
X147774857Y-48751833D01*
X147774855Y-48751841D01*
X147754218Y-48908599D01*
X147754218Y-48908601D01*
X147761982Y-48967579D01*
X147750832Y-49027739D01*
X147706449Y-49069856D01*
X147663829Y-49079500D01*
X146457429Y-49079500D01*
X146399238Y-49060593D01*
X146387425Y-49050504D01*
X146118496Y-48781575D01*
X146090719Y-48727058D01*
X146089500Y-48711571D01*
X146089500Y-46797377D01*
X146108407Y-46739186D01*
X146118484Y-46727386D01*
X146362291Y-46483578D01*
X146416806Y-46455803D01*
X146445214Y-46455431D01*
X146500002Y-46462644D01*
X146556499Y-46470082D01*
X146556500Y-46470082D01*
X146556501Y-46470082D01*
X146587852Y-46465954D01*
X146713262Y-46449444D01*
X146859341Y-46388936D01*
X146984782Y-46292682D01*
X147081036Y-46167241D01*
X147081038Y-46167234D01*
X147083737Y-46162562D01*
X147129206Y-46121620D01*
X147190056Y-46115224D01*
X147243045Y-46145816D01*
X147260938Y-46174175D01*
X147303463Y-46276838D01*
X147303464Y-46276841D01*
X147358754Y-46348897D01*
X147391398Y-46391440D01*
X147399718Y-46402282D01*
X147525159Y-46498536D01*
X147525160Y-46498536D01*
X147525161Y-46498537D01*
X147605842Y-46531956D01*
X147671238Y-46559044D01*
X147788809Y-46574522D01*
X147827999Y-46579682D01*
X147828000Y-46579682D01*
X147828001Y-46579682D01*
X147859352Y-46575554D01*
X147984762Y-46559044D01*
X148130841Y-46498536D01*
X148256282Y-46402282D01*
X148352536Y-46276841D01*
X148413044Y-46130762D01*
X148433682Y-45974000D01*
X148413044Y-45817238D01*
X148399047Y-45783446D01*
X148352537Y-45671161D01*
X148352537Y-45671160D01*
X148256286Y-45545723D01*
X148256285Y-45545722D01*
X148256282Y-45545718D01*
X148256277Y-45545714D01*
X148256276Y-45545713D01*
X148130838Y-45449462D01*
X147984766Y-45388957D01*
X147984758Y-45388955D01*
X147828001Y-45368318D01*
X147827998Y-45368318D01*
X147716715Y-45382968D01*
X147656555Y-45371818D01*
X147633790Y-45354819D01*
X147348319Y-45069348D01*
X146996511Y-44717540D01*
X146996508Y-44717538D01*
X146927992Y-44677980D01*
X146927988Y-44677978D01*
X146851564Y-44657500D01*
X146851562Y-44657500D01*
X146343562Y-44657500D01*
X141517562Y-44657500D01*
X141438438Y-44657500D01*
X141391661Y-44670033D01*
X141362007Y-44677979D01*
X141293493Y-44717536D01*
X140531489Y-45479540D01*
X140531488Y-45479539D01*
X140475539Y-45535489D01*
X140435980Y-45604007D01*
X140435978Y-45604011D01*
X140415500Y-45680435D01*
X103786471Y-45680435D01*
X104180816Y-45429117D01*
X104182901Y-45427827D01*
X105470270Y-44654251D01*
X105472429Y-44652991D01*
X106779730Y-43913552D01*
X106781916Y-43912354D01*
X108108205Y-43207586D01*
X108110433Y-43206440D01*
X109454792Y-42536830D01*
X109457106Y-42535716D01*
X110818576Y-41901740D01*
X110820895Y-41900697D01*
X112198662Y-41302735D01*
X112200988Y-41301763D01*
X113593950Y-40740293D01*
X113596246Y-40739402D01*
X115003594Y-40214753D01*
X115005973Y-40213902D01*
X116426577Y-39726494D01*
X116428953Y-39725714D01*
X117861912Y-39275855D01*
X117864365Y-39275121D01*
X119308630Y-38863141D01*
X119311005Y-38862497D01*
X120765658Y-38488658D01*
X120768083Y-38488068D01*
X122232110Y-38152633D01*
X122234545Y-38152109D01*
X123706854Y-37855327D01*
X123709299Y-37854867D01*
X125188880Y-37596941D01*
X125191368Y-37596540D01*
X126247824Y-37440901D01*
X126308147Y-37451125D01*
X126311754Y-37453109D01*
X126315853Y-37455475D01*
X126315855Y-37455477D01*
X126315856Y-37455477D01*
X126315859Y-37455479D01*
X126439378Y-37506642D01*
X126461934Y-37515985D01*
X126579505Y-37531463D01*
X126618695Y-37536623D01*
X126618696Y-37536623D01*
X126618697Y-37536623D01*
X126650048Y-37532495D01*
X126775458Y-37515985D01*
X126921537Y-37455477D01*
X127046978Y-37359223D01*
X127143232Y-37233782D01*
X127203740Y-37087703D01*
X127224378Y-36930941D01*
X127223763Y-36926273D01*
X127216289Y-36869497D01*
X127203740Y-36774179D01*
X127160132Y-36668901D01*
X127143233Y-36628102D01*
X127143233Y-36628101D01*
X127046982Y-36502664D01*
X127046981Y-36502663D01*
X127046978Y-36502659D01*
X127046973Y-36502655D01*
X127046972Y-36502654D01*
X126921534Y-36406403D01*
X126775462Y-36345898D01*
X126775454Y-36345896D01*
X126618697Y-36325259D01*
X126618695Y-36325259D01*
X126461937Y-36345896D01*
X126461929Y-36345898D01*
X126315857Y-36406403D01*
X126315856Y-36406403D01*
X126190419Y-36502654D01*
X126190408Y-36502665D01*
X126188682Y-36504915D01*
X126187010Y-36506063D01*
X126185827Y-36507247D01*
X126185607Y-36507027D01*
X126138255Y-36539566D01*
X126123287Y-36542764D01*
X125807603Y-36585041D01*
X124310742Y-36825404D01*
X122820639Y-37104769D01*
X121338402Y-37422928D01*
X119864924Y-37779687D01*
X118401279Y-38174789D01*
X116948449Y-38607968D01*
X115507415Y-39078930D01*
X114079154Y-39587358D01*
X112664721Y-40132874D01*
X112467856Y-40214767D01*
X111264939Y-40715162D01*
X109880860Y-41333784D01*
X109880850Y-41333788D01*
X109880845Y-41333791D01*
X108513418Y-41988323D01*
X108513408Y-41988327D01*
X108513404Y-41988330D01*
X108384993Y-42053969D01*
X107163515Y-42678345D01*
X105832071Y-43403384D01*
X104974661Y-43899738D01*
X104520031Y-44162924D01*
X104520018Y-44162932D01*
X103228258Y-44956463D01*
X101957660Y-45783446D01*
X100709049Y-46643343D01*
X99483363Y-47535508D01*
X98281352Y-48459397D01*
X97103879Y-49414343D01*
X95951720Y-50399720D01*
X94825724Y-51414801D01*
X93726574Y-52458968D01*
X92655079Y-53531454D01*
X91818659Y-54413551D01*
X91764900Y-54442767D01*
X91704234Y-54434805D01*
X91659836Y-54392705D01*
X91648662Y-54332548D01*
X91673760Y-54278624D01*
X91954966Y-53971121D01*
X91956597Y-53969381D01*
X92971992Y-52913482D01*
X92973668Y-52911782D01*
X94015203Y-51881711D01*
X94016894Y-51880079D01*
X95083972Y-50876427D01*
X95085745Y-50874802D01*
X96177589Y-49898299D01*
X96179450Y-49896676D01*
X96221363Y-49861042D01*
X97295485Y-48947832D01*
X97297312Y-48946319D01*
X98436803Y-48025764D01*
X98438679Y-48024287D01*
X99600915Y-47132596D01*
X99602793Y-47131192D01*
X100787615Y-46268511D01*
X100788516Y-46267863D01*
X100881132Y-46202190D01*
X101044423Y-46042618D01*
X101060393Y-46021162D01*
X101180736Y-45859473D01*
X101180738Y-45859470D01*
X101180737Y-45859470D01*
X101180741Y-45859466D01*
X101189288Y-45843157D01*
X101221970Y-45806801D01*
X102137086Y-45195342D01*
X102179250Y-45153178D01*
X102209774Y-45079485D01*
X102209774Y-45069347D01*
X102228681Y-45011157D01*
X102278181Y-44975193D01*
X102339367Y-44975193D01*
X102346646Y-44977878D01*
X102356026Y-44981764D01*
X102356027Y-44981764D01*
X102435791Y-44981764D01*
X102435791Y-44981763D01*
X102490880Y-44958946D01*
X103006500Y-44614418D01*
X103052832Y-44598114D01*
X103076476Y-44596036D01*
X103297985Y-44540711D01*
X103508112Y-44451415D01*
X103604410Y-44391186D01*
X103605264Y-44390659D01*
X104857524Y-43629126D01*
X104859580Y-43627910D01*
X106129940Y-42898379D01*
X106131988Y-42897238D01*
X107420198Y-42199828D01*
X107422318Y-42198714D01*
X108727588Y-41533852D01*
X108729745Y-41532786D01*
X110051366Y-40900835D01*
X110053464Y-40899864D01*
X111390523Y-40301262D01*
X111392669Y-40300333D01*
X112744265Y-39735483D01*
X112746498Y-39734582D01*
X114111850Y-39203807D01*
X114114052Y-39202982D01*
X115492345Y-38706603D01*
X115494522Y-38705850D01*
X116884842Y-38244197D01*
X116887043Y-38243497D01*
X118288459Y-37816879D01*
X118290767Y-37816208D01*
X119702395Y-37424889D01*
X119704676Y-37424287D01*
X121125703Y-37068495D01*
X121128051Y-37067939D01*
X122557570Y-36747900D01*
X122559868Y-36747415D01*
X123996989Y-36463331D01*
X123999253Y-36462913D01*
X125443088Y-36214960D01*
X125445401Y-36214593D01*
X126894871Y-36002955D01*
X126897305Y-36002630D01*
X128351655Y-35827414D01*
X128354014Y-35827159D01*
X129812297Y-35688479D01*
X129814718Y-35688280D01*
X131276028Y-35586222D01*
X131278380Y-35586087D01*
X132741838Y-35520715D01*
X132744165Y-35520640D01*
X134208851Y-35491997D01*
X134211181Y-35491981D01*
X135676045Y-35500087D01*
X135678381Y-35500128D01*
X137141402Y-35544940D01*
X137142619Y-35544978D01*
X137145100Y-35545086D01*
X138607640Y-35626644D01*
X138609966Y-35626802D01*
X140070054Y-35745026D01*
X140072506Y-35745255D01*
X141529154Y-35900063D01*
X141531591Y-35900354D01*
X142983877Y-36091651D01*
X142986211Y-36091988D01*
X144311073Y-36300432D01*
X144434016Y-36319775D01*
X144435189Y-36319967D01*
X144547031Y-36339004D01*
X144585080Y-36339442D01*
X144775320Y-36341633D01*
X144775321Y-36341632D01*
X144775330Y-36341633D01*
X144948929Y-36316184D01*
X145001223Y-36308518D01*
X145001224Y-36308517D01*
X145001229Y-36308517D01*
X145018798Y-36303030D01*
X145067620Y-36300432D01*
X146147073Y-36515149D01*
X146147074Y-36515149D01*
X146206700Y-36515149D01*
X146206702Y-36515149D01*
X146280394Y-36484624D01*
X146287561Y-36477456D01*
X146342075Y-36449678D01*
X146402507Y-36459248D01*
X146445773Y-36502511D01*
X146449028Y-36509572D01*
X146452907Y-36518937D01*
X146452909Y-36518939D01*
X146452910Y-36518941D01*
X146509312Y-36575343D01*
X146564401Y-36598162D01*
X147682002Y-36820466D01*
X147682003Y-36820466D01*
X147741629Y-36820466D01*
X147741631Y-36820466D01*
X147815323Y-36789941D01*
X147871725Y-36733540D01*
X147894544Y-36678450D01*
X148024380Y-36025716D01*
X148054277Y-35972334D01*
X148109842Y-35946718D01*
X148121478Y-35946032D01*
X148295790Y-35946032D01*
X148353981Y-35964939D01*
X148365793Y-35975028D01*
X148798264Y-36407500D01*
X148935196Y-36486557D01*
X148935198Y-36486557D01*
X148935199Y-36486558D01*
X148996143Y-36502888D01*
X149087920Y-36527480D01*
X149087922Y-36527481D01*
X149087923Y-36527481D01*
X149144495Y-36527481D01*
X149202686Y-36546388D01*
X149220638Y-36565061D01*
X149220982Y-36564748D01*
X149237456Y-36582839D01*
X149317414Y-36670644D01*
X149434383Y-36739643D01*
X149463675Y-36748379D01*
X150085034Y-36871975D01*
X150115439Y-36875113D01*
X150249909Y-36856129D01*
X150372810Y-36798353D01*
X150473221Y-36706917D01*
X150542219Y-36589948D01*
X150550955Y-36560656D01*
X150747710Y-35571503D01*
X150750848Y-35541098D01*
X150731864Y-35406627D01*
X150674088Y-35283726D01*
X150582652Y-35183316D01*
X150504882Y-35137440D01*
X150465684Y-35114317D01*
X150449726Y-35109558D01*
X150436391Y-35105581D01*
X149815032Y-34981985D01*
X149784627Y-34978847D01*
X149784624Y-34978847D01*
X149650158Y-34997830D01*
X149527254Y-35055607D01*
X149426843Y-35147044D01*
X149421059Y-35156850D01*
X149375206Y-35197362D01*
X149314299Y-35203186D01*
X149265787Y-35176551D01*
X149066052Y-34976816D01*
X149066052Y-34976815D01*
X148954247Y-34865011D01*
X148836922Y-34797273D01*
X148836918Y-34797272D01*
X148817317Y-34785955D01*
X148664589Y-34745031D01*
X148506475Y-34745031D01*
X148500412Y-34745031D01*
X148500396Y-34745032D01*
X148399757Y-34745032D01*
X148341566Y-34726125D01*
X148305602Y-34676625D01*
X148302659Y-34626718D01*
X148325326Y-34512764D01*
X148366564Y-34305444D01*
X148366564Y-34245816D01*
X148366564Y-34245814D01*
X148336041Y-34172125D01*
X148336040Y-34172124D01*
X148336040Y-34172123D01*
X148279638Y-34115721D01*
X148224549Y-34092902D01*
X148224547Y-34092901D01*
X148224546Y-34092901D01*
X147106950Y-33870598D01*
X147106948Y-33870598D01*
X147047319Y-33870598D01*
X146973627Y-33901123D01*
X146973625Y-33901124D01*
X146973624Y-33901125D01*
X146966456Y-33908293D01*
X146911939Y-33936069D01*
X146851507Y-33926495D01*
X146808244Y-33883229D01*
X146804991Y-33876172D01*
X146801112Y-33866808D01*
X146801111Y-33866807D01*
X146801111Y-33866806D01*
X146744709Y-33810404D01*
X146744707Y-33810403D01*
X146744706Y-33810402D01*
X146689619Y-33787585D01*
X144365655Y-33325319D01*
X144365653Y-33325319D01*
X144306024Y-33325319D01*
X144306022Y-33325319D01*
X144281165Y-33335615D01*
X144226669Y-33341747D01*
X144187428Y-33335068D01*
X142714106Y-33120910D01*
X141236001Y-32942537D01*
X139753975Y-32800055D01*
X138269010Y-32693557D01*
X136781866Y-32623095D01*
X135924876Y-32603300D01*
X135293424Y-32588715D01*
X135293410Y-32588715D01*
X133804600Y-32590436D01*
X132316269Y-32628258D01*
X130829289Y-32702158D01*
X129344496Y-32812096D01*
X127862879Y-32957997D01*
X127305292Y-33026593D01*
X127245228Y-33014933D01*
X127203489Y-32970194D01*
X127196018Y-32909467D01*
X127201740Y-32890448D01*
X127255044Y-32761762D01*
X127275682Y-32605000D01*
X127255044Y-32448238D01*
X127243917Y-32421376D01*
X127194537Y-32302161D01*
X127194537Y-32302160D01*
X127140958Y-32232334D01*
X127120534Y-32174658D01*
X127120500Y-32172067D01*
X127120500Y-31134558D01*
X127139407Y-31076367D01*
X127188907Y-31040403D01*
X127222372Y-31035600D01*
X127228327Y-31035772D01*
X127258388Y-31036645D01*
X127331443Y-31027237D01*
X127333800Y-31026964D01*
X128947210Y-30861122D01*
X128949658Y-30860902D01*
X130566699Y-30736470D01*
X130569144Y-30736313D01*
X132188773Y-30653370D01*
X132191252Y-30653275D01*
X133050855Y-30631319D01*
X133813066Y-30611849D01*
X133815182Y-30611818D01*
X134528218Y-30609602D01*
X134541089Y-30608568D01*
X134559731Y-30607072D01*
X134559734Y-30607071D01*
X134559737Y-30607071D01*
X134589736Y-30602318D01*
X134593656Y-30601658D01*
X134593659Y-30601656D01*
X134593662Y-30601656D01*
X134649793Y-30577866D01*
X134677862Y-30565970D01*
X134727471Y-30530157D01*
X134755289Y-30506001D01*
X134783112Y-30459753D01*
X134829310Y-30419636D01*
X134890266Y-30414336D01*
X134942695Y-30445877D01*
X134957628Y-30468861D01*
X134987268Y-30532268D01*
X135058109Y-30590110D01*
X135147032Y-30611487D01*
X135958366Y-30620835D01*
X135960420Y-30620882D01*
X137581924Y-30675966D01*
X137584402Y-30676082D01*
X139203231Y-30772661D01*
X139205757Y-30772843D01*
X140821660Y-30910887D01*
X140824162Y-30911133D01*
X142436015Y-31090546D01*
X142438435Y-31090846D01*
X144045113Y-31311500D01*
X144047598Y-31311874D01*
X145648169Y-31573645D01*
X145650639Y-31574082D01*
X147243872Y-31876768D01*
X147246294Y-31877260D01*
X148831358Y-32220704D01*
X148833797Y-32221265D01*
X150409439Y-32605192D01*
X150411827Y-32605806D01*
X151977186Y-33030010D01*
X151979626Y-33030705D01*
X152368945Y-33146997D01*
X153533571Y-33494878D01*
X153535946Y-33495622D01*
X155077426Y-33999446D01*
X155079796Y-34000254D01*
X156607937Y-34543450D01*
X156610254Y-34544306D01*
X158124454Y-35126672D01*
X158126421Y-35127455D01*
X158508343Y-35284263D01*
X158877015Y-35435631D01*
X158877021Y-35435633D01*
X158877026Y-35435635D01*
X158920040Y-35448025D01*
X158987190Y-35444458D01*
X159046298Y-35460251D01*
X159084837Y-35507774D01*
X159088083Y-35568873D01*
X159062442Y-35613321D01*
X159022241Y-35653523D01*
X158967725Y-35681301D01*
X158952237Y-35682520D01*
X156729186Y-35682520D01*
X156674184Y-35665835D01*
X156670858Y-35663613D01*
X156668811Y-35662245D01*
X156647754Y-35653523D01*
X156541328Y-35609440D01*
X156405995Y-35582520D01*
X156405993Y-35582520D01*
X156268007Y-35582520D01*
X156268004Y-35582520D01*
X156132672Y-35609440D01*
X156132670Y-35609440D01*
X156005190Y-35662244D01*
X155999816Y-35665835D01*
X155944814Y-35682520D01*
X152545506Y-35682520D01*
X152487315Y-35663613D01*
X152469359Y-35644938D01*
X152469017Y-35645251D01*
X152415267Y-35586226D01*
X152372586Y-35539356D01*
X152306028Y-35500094D01*
X152255618Y-35470357D01*
X152240971Y-35465989D01*
X152226325Y-35461621D01*
X151604966Y-35338025D01*
X151574561Y-35334887D01*
X151574558Y-35334887D01*
X151440092Y-35353870D01*
X151317188Y-35411647D01*
X151216777Y-35503084D01*
X151147782Y-35620049D01*
X151147781Y-35620051D01*
X151140359Y-35644938D01*
X151139045Y-35649344D01*
X150947949Y-36610050D01*
X150942290Y-36638499D01*
X150939152Y-36668901D01*
X150939152Y-36668904D01*
X150958135Y-36803371D01*
X151015911Y-36926273D01*
X151015912Y-36926274D01*
X151107348Y-37026684D01*
X151224317Y-37095683D01*
X151253609Y-37104419D01*
X151874968Y-37228015D01*
X151905373Y-37231153D01*
X152039843Y-37212169D01*
X152162744Y-37154393D01*
X152263155Y-37062957D01*
X152332153Y-36945988D01*
X152332154Y-36945981D01*
X152333489Y-36942927D01*
X152334891Y-36941346D01*
X152335214Y-36940799D01*
X152335320Y-36940861D01*
X152374091Y-36897154D01*
X152424227Y-36883520D01*
X155537500Y-36883520D01*
X155595691Y-36902427D01*
X155631655Y-36951927D01*
X155636500Y-36982520D01*
X155636500Y-47547834D01*
X155617593Y-47606025D01*
X155607504Y-47617838D01*
X153899737Y-49325604D01*
X153845220Y-49353381D01*
X153814247Y-49353381D01*
X153764485Y-49345500D01*
X153764481Y-49345500D01*
X152552519Y-49345500D01*
X152552516Y-49345500D01*
X152365886Y-49375058D01*
X152186167Y-49433453D01*
X152017803Y-49519238D01*
X151864923Y-49630312D01*
X151507856Y-49987378D01*
X151475744Y-50008836D01*
X151462157Y-50014464D01*
X151336723Y-50110713D01*
X151336713Y-50110723D01*
X151240464Y-50236157D01*
X151234836Y-50249744D01*
X151213378Y-50281856D01*
X150849312Y-50645923D01*
X150738238Y-50798803D01*
X150652453Y-50967167D01*
X150594058Y-51146886D01*
X150564500Y-51333515D01*
X150564500Y-51522484D01*
X150594058Y-51709113D01*
X150652453Y-51888832D01*
X150691617Y-51965697D01*
X150738240Y-52057199D01*
X150849310Y-52210074D01*
X150982926Y-52343690D01*
X151135801Y-52454760D01*
X151304168Y-52540547D01*
X151483882Y-52598940D01*
X151483883Y-52598940D01*
X151483886Y-52598941D01*
X151670516Y-52628500D01*
X151670519Y-52628500D01*
X151859484Y-52628500D01*
X152046113Y-52598941D01*
X152046114Y-52598940D01*
X152046118Y-52598940D01*
X152225832Y-52540547D01*
X152394199Y-52454760D01*
X152547074Y-52343690D01*
X152911142Y-51979620D01*
X152943260Y-51958160D01*
X152956841Y-51952536D01*
X153082282Y-51856282D01*
X153136799Y-51785232D01*
X153187223Y-51750577D01*
X153215341Y-51746500D01*
X153764484Y-51746500D01*
X153951113Y-51716941D01*
X153951114Y-51716940D01*
X153951118Y-51716940D01*
X154130832Y-51658547D01*
X154299199Y-51572760D01*
X154452073Y-51461690D01*
X154585690Y-51328073D01*
X154696760Y-51175199D01*
X154782547Y-51006832D01*
X154840940Y-50827118D01*
X154850749Y-50765187D01*
X154870500Y-50640484D01*
X154870500Y-50451517D01*
X154867975Y-50435582D01*
X154862617Y-50401751D01*
X154872187Y-50341322D01*
X154890391Y-50316264D01*
X156881114Y-48325543D01*
X156957775Y-48210811D01*
X157010580Y-48083328D01*
X157037500Y-47947994D01*
X157037500Y-47810006D01*
X157037500Y-46354999D01*
X160303318Y-46354999D01*
X160303318Y-46355000D01*
X160323955Y-46511758D01*
X160323957Y-46511766D01*
X160384462Y-46657838D01*
X160384462Y-46657839D01*
X160480713Y-46783276D01*
X160480718Y-46783282D01*
X160606159Y-46879536D01*
X160752238Y-46940044D01*
X160909000Y-46960682D01*
X160961103Y-46953822D01*
X161021262Y-46964972D01*
X161063379Y-47009353D01*
X161072177Y-47064896D01*
X161065318Y-47116998D01*
X161065318Y-47117000D01*
X161085955Y-47273758D01*
X161085957Y-47273766D01*
X161146462Y-47419838D01*
X161146462Y-47419839D01*
X161242713Y-47545276D01*
X161242718Y-47545282D01*
X161368159Y-47641536D01*
X161514238Y-47702044D01*
X161671000Y-47722682D01*
X161723103Y-47715822D01*
X161783262Y-47726972D01*
X161825379Y-47771353D01*
X161834177Y-47826896D01*
X161827318Y-47878998D01*
X161827318Y-47879000D01*
X161847955Y-48035758D01*
X161847957Y-48035766D01*
X161908462Y-48181838D01*
X161908462Y-48181839D01*
X162001369Y-48302918D01*
X162004718Y-48307282D01*
X162130159Y-48403536D01*
X162130160Y-48403536D01*
X162130161Y-48403537D01*
X162265019Y-48459397D01*
X162276238Y-48464044D01*
X162386757Y-48478594D01*
X162432999Y-48484682D01*
X162433000Y-48484682D01*
X162433001Y-48484682D01*
X162479243Y-48478594D01*
X162589762Y-48464044D01*
X162620225Y-48451425D01*
X162681219Y-48446625D01*
X162733389Y-48478594D01*
X162756804Y-48535122D01*
X162749574Y-48580774D01*
X162746605Y-48587943D01*
X162739226Y-48605759D01*
X162736957Y-48611236D01*
X162736955Y-48611241D01*
X162716318Y-48767999D01*
X162716318Y-48768000D01*
X162736955Y-48924758D01*
X162736957Y-48924766D01*
X162797462Y-49070838D01*
X162797462Y-49070839D01*
X162893713Y-49196276D01*
X162893718Y-49196282D01*
X163019159Y-49292536D01*
X163019160Y-49292536D01*
X163019161Y-49292537D01*
X163126229Y-49336886D01*
X163165238Y-49353044D01*
X163282809Y-49368522D01*
X163321999Y-49373682D01*
X163322000Y-49373682D01*
X163322001Y-49373682D01*
X163353352Y-49369554D01*
X163478762Y-49353044D01*
X163624841Y-49292536D01*
X163750282Y-49196282D01*
X163800778Y-49130474D01*
X163818612Y-49107233D01*
X163869037Y-49072577D01*
X163897154Y-49068500D01*
X169252521Y-49068500D01*
X169310712Y-49087407D01*
X169322525Y-49097496D01*
X171011489Y-50786460D01*
X171011491Y-50786461D01*
X171011492Y-50786462D01*
X171011493Y-50786463D01*
X171080008Y-50826020D01*
X171080006Y-50826020D01*
X171080010Y-50826021D01*
X171080012Y-50826022D01*
X171156438Y-50846500D01*
X171156440Y-50846500D01*
X173267563Y-50846500D01*
X173267563Y-50846499D01*
X173343989Y-50826021D01*
X173412511Y-50786460D01*
X173468460Y-50730511D01*
X180834460Y-43364511D01*
X180874021Y-43295989D01*
X180894500Y-43219562D01*
X180894500Y-39005354D01*
X180913407Y-38947163D01*
X180933233Y-38926812D01*
X181016184Y-38863161D01*
X181022282Y-38858482D01*
X181118536Y-38733041D01*
X181179044Y-38586962D01*
X181199682Y-38430200D01*
X181179044Y-38273438D01*
X181150273Y-38203979D01*
X181118537Y-38127361D01*
X181118537Y-38127360D01*
X181022286Y-38001923D01*
X181022285Y-38001922D01*
X181022282Y-38001918D01*
X181022277Y-38001914D01*
X181022276Y-38001913D01*
X180896838Y-37905662D01*
X180750766Y-37845157D01*
X180750758Y-37845155D01*
X180594001Y-37824518D01*
X180593999Y-37824518D01*
X180437241Y-37845155D01*
X180437233Y-37845157D01*
X180291161Y-37905662D01*
X180291160Y-37905662D01*
X180165723Y-38001913D01*
X180165713Y-38001923D01*
X180069462Y-38127360D01*
X180069462Y-38127361D01*
X180008957Y-38273433D01*
X180008955Y-38273441D01*
X179988318Y-38430199D01*
X179988318Y-38430200D01*
X180008955Y-38586958D01*
X180008957Y-38586966D01*
X180069462Y-38733038D01*
X180069462Y-38733039D01*
X180113277Y-38790140D01*
X180165718Y-38858482D01*
X180165722Y-38858485D01*
X180165723Y-38858486D01*
X180254767Y-38926812D01*
X180289423Y-38977237D01*
X180293500Y-39005354D01*
X180293500Y-43014521D01*
X180274593Y-43072712D01*
X180264504Y-43084525D01*
X173132525Y-50216504D01*
X173078008Y-50244281D01*
X173062521Y-50245500D01*
X171361479Y-50245500D01*
X171303288Y-50226593D01*
X171291476Y-50216504D01*
X171035353Y-49960382D01*
X171007575Y-49905865D01*
X171017146Y-49845433D01*
X171060411Y-49802168D01*
X171120843Y-49792597D01*
X171143241Y-49798914D01*
X171293233Y-49861042D01*
X171293238Y-49861044D01*
X171410809Y-49876522D01*
X171449999Y-49881682D01*
X171450000Y-49881682D01*
X171450001Y-49881682D01*
X171481352Y-49877554D01*
X171606762Y-49861044D01*
X171752841Y-49800536D01*
X171878282Y-49704282D01*
X171974536Y-49578841D01*
X172035044Y-49432762D01*
X172055682Y-49276000D01*
X172035044Y-49119238D01*
X172014997Y-49070841D01*
X171974537Y-48973161D01*
X171974537Y-48973160D01*
X171920958Y-48903334D01*
X171900534Y-48845658D01*
X171900500Y-48843067D01*
X171900500Y-41102610D01*
X171919407Y-41044419D01*
X171929490Y-41032612D01*
X176057423Y-36904678D01*
X176111938Y-36876903D01*
X176114470Y-36876535D01*
X176201762Y-36865044D01*
X176347841Y-36804536D01*
X176473282Y-36708282D01*
X176569536Y-36582841D01*
X176630044Y-36436762D01*
X176641531Y-36349501D01*
X176667871Y-36294278D01*
X176669640Y-36292461D01*
X177005489Y-35956614D01*
X177040561Y-35895868D01*
X177064797Y-35853891D01*
X177064797Y-35853889D01*
X177064799Y-35853887D01*
X177080957Y-35793583D01*
X177095500Y-35739309D01*
X177095500Y-34820136D01*
X177114407Y-34761945D01*
X177163907Y-34725981D01*
X177225093Y-34725981D01*
X177274593Y-34761945D01*
X177281145Y-34773646D01*
X177281418Y-34773489D01*
X177300441Y-34806437D01*
X177306169Y-34818051D01*
X177318246Y-34847207D01*
X177337460Y-34872247D01*
X177344650Y-34883009D01*
X177360425Y-34910334D01*
X177360430Y-34910340D01*
X177382747Y-34932658D01*
X177391284Y-34942392D01*
X177410492Y-34967424D01*
X177435520Y-34986629D01*
X177445255Y-34995166D01*
X177467578Y-35017489D01*
X177494907Y-35033267D01*
X177505674Y-35040461D01*
X177525154Y-35055408D01*
X177530711Y-35059672D01*
X177539828Y-35063448D01*
X177559860Y-35071746D01*
X177571476Y-35077474D01*
X177587587Y-35086776D01*
X177598809Y-35093255D01*
X177629301Y-35101424D01*
X177641542Y-35105579D01*
X177670708Y-35117661D01*
X177702009Y-35121781D01*
X177714683Y-35124302D01*
X177745178Y-35132474D01*
X177776735Y-35132474D01*
X177789657Y-35133321D01*
X177820943Y-35137440D01*
X177820944Y-35137440D01*
X177820945Y-35137440D01*
X177852231Y-35133321D01*
X177865153Y-35132474D01*
X177896711Y-35132474D01*
X177907971Y-35129456D01*
X177927195Y-35124304D01*
X177939877Y-35121781D01*
X177971180Y-35117661D01*
X177990741Y-35109557D01*
X178051734Y-35104754D01*
X178103905Y-35136720D01*
X178127323Y-35193246D01*
X178113044Y-35252742D01*
X178110945Y-35256021D01*
X177800538Y-35720577D01*
X177800533Y-35720586D01*
X177740193Y-35866262D01*
X177740193Y-35866264D01*
X177709430Y-36020916D01*
X177709430Y-36178606D01*
X177716623Y-36214766D01*
X177738829Y-36326404D01*
X177740193Y-36333258D01*
X177740193Y-36333260D01*
X177800534Y-36478937D01*
X177888140Y-36610048D01*
X177888142Y-36610050D01*
X177999642Y-36721550D01*
X178130751Y-36809155D01*
X178276433Y-36869498D01*
X178431088Y-36900261D01*
X178431089Y-36900261D01*
X178588772Y-36900261D01*
X178588773Y-36900261D01*
X178743428Y-36869498D01*
X178889109Y-36809155D01*
X179020219Y-36721549D01*
X179131719Y-36610049D01*
X179537365Y-36002957D01*
X179663776Y-35813771D01*
X179663782Y-35813759D01*
X179687929Y-35755462D01*
X179724123Y-35668082D01*
X179754886Y-35513427D01*
X179754886Y-35355742D01*
X179724123Y-35201088D01*
X179684563Y-35105581D01*
X179663781Y-35055408D01*
X179661454Y-35051926D01*
X179576174Y-34924296D01*
X179464674Y-34812796D01*
X179455157Y-34806437D01*
X179333562Y-34725189D01*
X179187883Y-34664848D01*
X179033230Y-34634085D01*
X179033228Y-34634085D01*
X178875543Y-34634085D01*
X178875540Y-34634085D01*
X178720888Y-34664848D01*
X178720886Y-34664848D01*
X178575209Y-34725189D01*
X178575205Y-34725191D01*
X178545989Y-34744713D01*
X178487101Y-34761321D01*
X178429698Y-34740143D01*
X178395706Y-34689268D01*
X178395365Y-34636766D01*
X178396444Y-34632740D01*
X178396444Y-34601182D01*
X178397291Y-34588259D01*
X178401410Y-34556973D01*
X178397291Y-34525686D01*
X178396444Y-34512764D01*
X178396444Y-34481209D01*
X178396444Y-34481208D01*
X178388272Y-34450713D01*
X178385751Y-34438039D01*
X178381631Y-34406738D01*
X178369549Y-34377572D01*
X178365394Y-34365331D01*
X178357225Y-34334839D01*
X178341444Y-34307506D01*
X178335716Y-34295890D01*
X178323643Y-34266744D01*
X178323642Y-34266741D01*
X178320441Y-34262570D01*
X178304431Y-34241704D01*
X178297237Y-34230937D01*
X178281459Y-34203608D01*
X178259136Y-34181285D01*
X178250599Y-34171550D01*
X178231394Y-34146522D01*
X178206362Y-34127314D01*
X178196628Y-34118777D01*
X178174310Y-34096460D01*
X178174304Y-34096455D01*
X178146979Y-34080680D01*
X178136217Y-34073490D01*
X178111177Y-34054276D01*
X178082021Y-34042199D01*
X178070407Y-34036471D01*
X178043078Y-34020692D01*
X178012591Y-34012523D01*
X178000330Y-34008361D01*
X177971180Y-33996287D01*
X177971181Y-33996287D01*
X177939894Y-33992168D01*
X177927196Y-33989642D01*
X177896712Y-33981474D01*
X177896710Y-33981474D01*
X177865153Y-33981474D01*
X177852231Y-33980627D01*
X177820945Y-33976508D01*
X177820943Y-33976508D01*
X177789657Y-33980627D01*
X177776735Y-33981474D01*
X177745178Y-33981474D01*
X177727077Y-33986323D01*
X177714692Y-33989642D01*
X177701997Y-33992167D01*
X177670711Y-33996286D01*
X177670708Y-33996287D01*
X177641549Y-34008364D01*
X177629294Y-34012524D01*
X177598812Y-34020691D01*
X177598809Y-34020692D01*
X177571476Y-34036473D01*
X177559866Y-34042198D01*
X177530711Y-34054275D01*
X177505675Y-34073485D01*
X177494913Y-34080676D01*
X177467581Y-34096457D01*
X177467577Y-34096460D01*
X177445261Y-34118776D01*
X177435529Y-34127311D01*
X177410496Y-34146520D01*
X177410490Y-34146526D01*
X177391281Y-34171559D01*
X177382746Y-34181291D01*
X177360430Y-34203607D01*
X177360427Y-34203611D01*
X177344646Y-34230943D01*
X177337455Y-34241705D01*
X177318245Y-34266741D01*
X177306168Y-34295896D01*
X177300443Y-34307506D01*
X177281420Y-34340457D01*
X177279453Y-34339321D01*
X177246221Y-34378227D01*
X177186725Y-34392506D01*
X177130199Y-34369087D01*
X177098234Y-34316916D01*
X177095500Y-34293812D01*
X177095500Y-32845692D01*
X177095500Y-32845691D01*
X177064799Y-32731114D01*
X177015947Y-32646500D01*
X177015946Y-32646499D01*
X177015946Y-32646497D01*
X177005490Y-32628388D01*
X177005489Y-32628386D01*
X176221614Y-31844511D01*
X176221611Y-31844509D01*
X176221609Y-31844507D01*
X176118890Y-31785202D01*
X176118888Y-31785201D01*
X176085697Y-31776307D01*
X176085697Y-31776308D01*
X176004309Y-31754500D01*
X176004308Y-31754500D01*
X173595597Y-31754500D01*
X173537406Y-31735593D01*
X173501442Y-31686093D01*
X173501442Y-31624907D01*
X173504132Y-31617617D01*
X173513190Y-31595747D01*
X173518920Y-31584129D01*
X173534699Y-31556801D01*
X173542867Y-31526311D01*
X173547027Y-31514058D01*
X173559105Y-31484902D01*
X173563225Y-31453599D01*
X173565750Y-31440911D01*
X173573918Y-31410433D01*
X173573918Y-31378874D01*
X173574765Y-31365951D01*
X173578884Y-31334665D01*
X173574765Y-31303378D01*
X173573918Y-31290456D01*
X173573918Y-31258901D01*
X173569306Y-31241690D01*
X173565746Y-31228405D01*
X173563225Y-31215731D01*
X173559105Y-31184430D01*
X173547023Y-31155264D01*
X173542868Y-31143023D01*
X173534699Y-31112531D01*
X173518918Y-31085198D01*
X173513190Y-31073582D01*
X173501117Y-31044436D01*
X173501116Y-31044433D01*
X173493709Y-31034780D01*
X173481905Y-31019396D01*
X173474711Y-31008629D01*
X173458933Y-30981300D01*
X173436610Y-30958977D01*
X173428073Y-30949242D01*
X173408868Y-30924214D01*
X173383836Y-30905006D01*
X173374102Y-30896469D01*
X173351784Y-30874152D01*
X173351778Y-30874147D01*
X173324453Y-30858372D01*
X173313691Y-30851182D01*
X173288651Y-30831968D01*
X173267161Y-30823066D01*
X173259495Y-30819891D01*
X173247881Y-30814163D01*
X173220552Y-30798384D01*
X173190065Y-30790215D01*
X173177804Y-30786053D01*
X173148654Y-30773979D01*
X173148655Y-30773979D01*
X173117368Y-30769860D01*
X173104670Y-30767334D01*
X173074186Y-30759166D01*
X173074184Y-30759166D01*
X173042627Y-30759166D01*
X173029705Y-30758319D01*
X172998419Y-30754200D01*
X172998417Y-30754200D01*
X172967131Y-30758319D01*
X172954209Y-30759166D01*
X172922652Y-30759166D01*
X172904551Y-30764015D01*
X172892166Y-30767334D01*
X172879471Y-30769859D01*
X172848185Y-30773978D01*
X172848182Y-30773979D01*
X172819023Y-30786056D01*
X172806768Y-30790216D01*
X172776286Y-30798383D01*
X172776283Y-30798384D01*
X172748950Y-30814165D01*
X172737340Y-30819890D01*
X172708184Y-30831967D01*
X172704866Y-30834514D01*
X172647189Y-30854936D01*
X172588524Y-30837557D01*
X172551278Y-30789014D01*
X172547503Y-30736655D01*
X172554359Y-30702190D01*
X172554359Y-30544505D01*
X172523596Y-30389851D01*
X172466622Y-30252303D01*
X172463254Y-30244171D01*
X172459630Y-30238748D01*
X172375647Y-30113059D01*
X172264147Y-30001559D01*
X172133038Y-29913954D01*
X172133037Y-29913953D01*
X172133035Y-29913952D01*
X171987356Y-29853611D01*
X171832703Y-29822848D01*
X171832701Y-29822848D01*
X171675016Y-29822848D01*
X171675013Y-29822848D01*
X171520361Y-29853611D01*
X171520359Y-29853611D01*
X171374682Y-29913952D01*
X171243570Y-30001559D01*
X171132073Y-30113056D01*
X171132070Y-30113060D01*
X170600012Y-30909337D01*
X170600006Y-30909349D01*
X170539666Y-31055025D01*
X170539666Y-31055027D01*
X170508903Y-31209679D01*
X170508903Y-31367369D01*
X170519452Y-31420401D01*
X170539273Y-31520048D01*
X170539666Y-31522021D01*
X170539666Y-31522023D01*
X170600007Y-31667700D01*
X170687613Y-31798811D01*
X170687615Y-31798813D01*
X170799115Y-31910313D01*
X170930224Y-31997918D01*
X171075906Y-32058261D01*
X171230561Y-32089024D01*
X171230562Y-32089024D01*
X171388245Y-32089024D01*
X171388246Y-32089024D01*
X171542901Y-32058261D01*
X171688582Y-31997918D01*
X171819692Y-31910312D01*
X171931192Y-31798812D01*
X172241603Y-31334248D01*
X172289652Y-31296370D01*
X172350791Y-31293968D01*
X172401664Y-31327961D01*
X172422842Y-31385364D01*
X172422918Y-31389251D01*
X172422918Y-31410434D01*
X172431086Y-31440918D01*
X172433612Y-31453616D01*
X172437731Y-31484902D01*
X172449805Y-31514052D01*
X172453967Y-31526313D01*
X172462136Y-31556800D01*
X172477915Y-31584129D01*
X172483643Y-31595743D01*
X172495720Y-31624899D01*
X172514934Y-31649939D01*
X172522124Y-31660701D01*
X172537899Y-31688026D01*
X172537904Y-31688032D01*
X172560221Y-31710350D01*
X172568758Y-31720084D01*
X172585756Y-31742236D01*
X172587967Y-31745117D01*
X172598922Y-31753523D01*
X172612994Y-31764321D01*
X172622729Y-31772858D01*
X172645052Y-31795181D01*
X172672381Y-31810959D01*
X172683148Y-31818153D01*
X172704014Y-31834163D01*
X172708185Y-31837364D01*
X172717302Y-31841140D01*
X172737334Y-31849438D01*
X172748950Y-31855166D01*
X172776283Y-31870947D01*
X172806775Y-31879116D01*
X172819016Y-31883271D01*
X172848182Y-31895353D01*
X172865078Y-31897577D01*
X172920303Y-31923917D01*
X172949499Y-31977687D01*
X172941514Y-32038349D01*
X172922161Y-32065734D01*
X172007577Y-32980318D01*
X171953060Y-33008095D01*
X171950496Y-33008467D01*
X171863237Y-33019956D01*
X171717161Y-33080462D01*
X171717160Y-33080462D01*
X171591723Y-33176713D01*
X171591713Y-33176723D01*
X171495462Y-33302160D01*
X171495462Y-33302161D01*
X171434957Y-33448233D01*
X171434955Y-33448241D01*
X171414318Y-33604999D01*
X171414318Y-33605000D01*
X171434955Y-33761758D01*
X171434957Y-33761766D01*
X171495462Y-33907838D01*
X171495462Y-33907839D01*
X171582057Y-34020692D01*
X171591718Y-34033282D01*
X171591722Y-34033285D01*
X171591723Y-34033286D01*
X171603339Y-34042199D01*
X171717159Y-34129536D01*
X171717160Y-34129536D01*
X171717161Y-34129537D01*
X171818611Y-34171559D01*
X171863238Y-34190044D01*
X171980809Y-34205522D01*
X172019999Y-34210682D01*
X172020000Y-34210682D01*
X172020001Y-34210682D01*
X172051352Y-34206554D01*
X172176762Y-34190044D01*
X172322841Y-34129536D01*
X172448282Y-34033282D01*
X172544536Y-33907841D01*
X172605044Y-33761762D01*
X172616531Y-33674502D01*
X172642871Y-33619278D01*
X172644681Y-33617421D01*
X173577608Y-32684496D01*
X173632124Y-32656719D01*
X173647611Y-32655500D01*
X175111651Y-32655500D01*
X175169842Y-32674407D01*
X175205806Y-32723907D01*
X175205806Y-32785093D01*
X175186470Y-32819331D01*
X175139423Y-32873626D01*
X175079634Y-33004543D01*
X175059153Y-33146997D01*
X175059153Y-33147002D01*
X175079634Y-33289456D01*
X175100465Y-33335068D01*
X175139423Y-33420373D01*
X175203975Y-33494871D01*
X175238309Y-33534494D01*
X175236271Y-33536259D01*
X175261725Y-33578458D01*
X175264300Y-33600893D01*
X175264300Y-34581720D01*
X175245393Y-34639911D01*
X175235304Y-34651724D01*
X162627208Y-47259819D01*
X162572691Y-47287596D01*
X162544282Y-47287968D01*
X162433001Y-47273318D01*
X162432998Y-47273318D01*
X162380896Y-47280177D01*
X162320736Y-47269027D01*
X162278619Y-47224644D01*
X162269822Y-47169103D01*
X162276682Y-47117000D01*
X162262031Y-47005714D01*
X162273181Y-46945554D01*
X162290177Y-46922792D01*
X173794208Y-35418763D01*
X173848725Y-35390986D01*
X173864212Y-35389767D01*
X173878175Y-35389767D01*
X173878177Y-35389767D01*
X174016269Y-35349220D01*
X174137344Y-35271410D01*
X174231593Y-35162640D01*
X174291381Y-35031724D01*
X174299275Y-34976817D01*
X174311863Y-34889269D01*
X174311863Y-34889264D01*
X174291381Y-34746810D01*
X174281507Y-34725189D01*
X174231593Y-34615894D01*
X174137344Y-34507124D01*
X174137343Y-34507123D01*
X174137342Y-34507122D01*
X174016273Y-34429316D01*
X174016270Y-34429314D01*
X174016269Y-34429314D01*
X174016266Y-34429313D01*
X173878180Y-34388767D01*
X173878177Y-34388767D01*
X173734255Y-34388767D01*
X173734251Y-34388767D01*
X173596165Y-34429313D01*
X173596158Y-34429316D01*
X173475089Y-34507122D01*
X173380838Y-34615895D01*
X173321050Y-34746810D01*
X173300569Y-34889264D01*
X173300569Y-34889271D01*
X173315286Y-34991637D01*
X173304852Y-35051926D01*
X173287298Y-35075729D01*
X161865208Y-46497819D01*
X161810691Y-46525596D01*
X161782282Y-46525968D01*
X161671001Y-46511318D01*
X161670998Y-46511318D01*
X161618896Y-46518177D01*
X161558736Y-46507027D01*
X161516619Y-46462644D01*
X161507822Y-46407103D01*
X161514682Y-46355000D01*
X161500031Y-46243714D01*
X161511181Y-46183554D01*
X161528177Y-46160792D01*
X169912460Y-37776511D01*
X169952021Y-37707989D01*
X169972500Y-37631562D01*
X169972500Y-32805018D01*
X169991407Y-32746827D01*
X170033615Y-32713554D01*
X170035512Y-32712767D01*
X170051041Y-32706336D01*
X170176482Y-32610082D01*
X170272736Y-32484641D01*
X170333244Y-32338562D01*
X170353882Y-32181800D01*
X170333244Y-32025038D01*
X170307691Y-31963347D01*
X170272737Y-31878961D01*
X170272737Y-31878960D01*
X170176486Y-31753523D01*
X170176485Y-31753522D01*
X170176482Y-31753518D01*
X170176477Y-31753514D01*
X170176476Y-31753513D01*
X170064641Y-31667700D01*
X170051041Y-31657264D01*
X170051040Y-31657263D01*
X170051038Y-31657262D01*
X169904966Y-31596757D01*
X169904958Y-31596755D01*
X169748201Y-31576118D01*
X169748199Y-31576118D01*
X169591441Y-31596755D01*
X169591433Y-31596757D01*
X169445361Y-31657262D01*
X169445360Y-31657262D01*
X169319923Y-31753513D01*
X169319913Y-31753523D01*
X169223662Y-31878960D01*
X169223662Y-31878961D01*
X169163157Y-32025033D01*
X169163155Y-32025041D01*
X169142518Y-32181799D01*
X169142518Y-32181800D01*
X169163155Y-32338558D01*
X169163157Y-32338566D01*
X169223662Y-32484638D01*
X169223662Y-32484639D01*
X169316018Y-32605000D01*
X169319918Y-32610082D01*
X169332766Y-32619941D01*
X169367423Y-32670364D01*
X169371500Y-32698483D01*
X169371500Y-37426520D01*
X169352593Y-37484711D01*
X169342504Y-37496524D01*
X161103208Y-45735819D01*
X161048691Y-45763596D01*
X161020282Y-45763968D01*
X160909001Y-45749318D01*
X160908999Y-45749318D01*
X160752241Y-45769955D01*
X160752233Y-45769957D01*
X160606161Y-45830462D01*
X160606160Y-45830462D01*
X160480723Y-45926713D01*
X160480713Y-45926723D01*
X160384462Y-46052160D01*
X160384462Y-46052161D01*
X160323957Y-46198233D01*
X160323955Y-46198241D01*
X160303318Y-46354999D01*
X157037500Y-46354999D01*
X157037500Y-36982520D01*
X157056407Y-36924329D01*
X157105907Y-36888365D01*
X157136500Y-36883520D01*
X159156844Y-36883520D01*
X159156860Y-36883521D01*
X159162923Y-36883521D01*
X159321035Y-36883521D01*
X159321037Y-36883521D01*
X159473765Y-36842597D01*
X159539688Y-36804536D01*
X159539690Y-36804534D01*
X159539692Y-36804534D01*
X159560784Y-36792356D01*
X159610696Y-36763540D01*
X159722500Y-36651736D01*
X159722501Y-36651733D01*
X171470233Y-24904000D01*
X171524748Y-24876225D01*
X171585180Y-24885796D01*
G37*
%TD.AperFunction*%
%TD*%
%TA.AperFunction,Conductor*%
%TO.N,Net-(LED14-C)*%
G36*
X158994807Y-152772034D02*
G01*
X159010808Y-152798227D01*
X165038327Y-167347065D01*
X165043132Y-167408061D01*
X165011167Y-167460233D01*
X164984524Y-167476515D01*
X164244481Y-167780898D01*
X164242659Y-167781627D01*
X162565769Y-168432776D01*
X162563670Y-168433563D01*
X160872675Y-169046496D01*
X160870558Y-169047236D01*
X159166118Y-169621720D01*
X159163986Y-169622412D01*
X157446962Y-170158157D01*
X157444814Y-170158801D01*
X155716095Y-170655527D01*
X155713934Y-170656122D01*
X153974357Y-171113589D01*
X153972182Y-171114134D01*
X152222807Y-171532065D01*
X152220621Y-171532562D01*
X150462103Y-171910798D01*
X150459906Y-171911244D01*
X148693369Y-172249545D01*
X148691162Y-172249942D01*
X146917348Y-172548165D01*
X146915133Y-172548511D01*
X145135111Y-172806478D01*
X145132889Y-172806775D01*
X143347397Y-173024378D01*
X143345168Y-173024624D01*
X141555221Y-173201738D01*
X141552988Y-173201933D01*
X139759531Y-173338466D01*
X139757294Y-173338611D01*
X137961165Y-173434500D01*
X137958925Y-173434594D01*
X136160979Y-173489787D01*
X136159016Y-173489828D01*
X135359085Y-173498517D01*
X135300693Y-173480243D01*
X135264193Y-173431137D01*
X135259012Y-173400090D01*
X135169386Y-157652222D01*
X135187961Y-157593928D01*
X135237256Y-157557683D01*
X135267208Y-157552669D01*
X135983549Y-157544191D01*
X137612139Y-157488368D01*
X138949100Y-157408196D01*
X139238752Y-157390827D01*
X139238758Y-157390826D01*
X139238766Y-157390826D01*
X140862358Y-157251627D01*
X142481849Y-157070865D01*
X144096175Y-156848659D01*
X145704277Y-156585152D01*
X147305097Y-156280518D01*
X148897584Y-155934959D01*
X150356758Y-155578938D01*
X150417768Y-155583514D01*
X150464440Y-155623078D01*
X150471682Y-155637226D01*
X150484217Y-155667489D01*
X150487830Y-155677785D01*
X151785149Y-160151358D01*
X151805880Y-160222842D01*
X151805881Y-160222843D01*
X151844126Y-160286064D01*
X151848594Y-160294895D01*
X151850064Y-160297442D01*
X151851203Y-160298926D01*
X151857358Y-160307937D01*
X151887720Y-160358126D01*
X151916124Y-160385391D01*
X151926108Y-160396544D01*
X151946318Y-160422882D01*
X151946322Y-160422885D01*
X151946323Y-160422886D01*
X151986147Y-160453444D01*
X151994435Y-160460564D01*
X152001784Y-160467618D01*
X152001786Y-160467619D01*
X152001787Y-160467620D01*
X152005229Y-160469514D01*
X152017767Y-160477706D01*
X152071759Y-160519136D01*
X152217838Y-160579644D01*
X152335409Y-160595122D01*
X152374599Y-160600282D01*
X152374600Y-160600282D01*
X152374601Y-160600282D01*
X152405952Y-160596154D01*
X152531362Y-160579644D01*
X152677441Y-160519136D01*
X152802882Y-160422882D01*
X152899136Y-160297441D01*
X152959644Y-160151362D01*
X152980282Y-159994600D01*
X152959644Y-159837838D01*
X152911937Y-159722665D01*
X152908329Y-159712383D01*
X151645307Y-155357079D01*
X151642239Y-155342431D01*
X151639695Y-155323104D01*
X151650846Y-155262943D01*
X151695229Y-155220827D01*
X151711909Y-155214643D01*
X152053381Y-155121995D01*
X153449333Y-154704552D01*
X153510498Y-154705995D01*
X153559136Y-154743116D01*
X153571403Y-154767474D01*
X154495101Y-157478570D01*
X154499543Y-157497569D01*
X154500818Y-157507255D01*
X154500820Y-157507260D01*
X154522458Y-157559500D01*
X154524704Y-157565455D01*
X154542947Y-157618997D01*
X154548380Y-157627107D01*
X154557588Y-157644310D01*
X154561328Y-157653338D01*
X154579998Y-157677669D01*
X154595760Y-157698210D01*
X154599471Y-157703383D01*
X154630938Y-157750362D01*
X154638286Y-157756791D01*
X154651631Y-157771024D01*
X154657582Y-157778779D01*
X154702463Y-157813217D01*
X154707363Y-157817234D01*
X154734066Y-157840599D01*
X154749930Y-157854480D01*
X154749932Y-157854482D01*
X154758696Y-157858792D01*
X154775274Y-157869088D01*
X154783019Y-157875031D01*
X154783022Y-157875032D01*
X154783023Y-157875033D01*
X154835293Y-157896683D01*
X154841068Y-157899297D01*
X154891817Y-157924253D01*
X154891818Y-157924253D01*
X154891820Y-157924254D01*
X154901397Y-157926147D01*
X154920074Y-157931801D01*
X154929102Y-157935541D01*
X154985199Y-157942926D01*
X154991436Y-157943952D01*
X155046931Y-157954926D01*
X155056677Y-157954276D01*
X155076179Y-157954903D01*
X155085864Y-157956179D01*
X155141948Y-157948794D01*
X155148265Y-157948168D01*
X155204696Y-157944407D01*
X155213930Y-157941259D01*
X155232946Y-157936814D01*
X155242626Y-157935541D01*
X155294913Y-157913881D01*
X155300816Y-157911656D01*
X155354361Y-157893414D01*
X155362469Y-157887982D01*
X155379673Y-157878773D01*
X155388705Y-157875033D01*
X155433596Y-157840585D01*
X155438725Y-157836905D01*
X155485730Y-157805422D01*
X155492149Y-157798084D01*
X155506393Y-157784727D01*
X155514146Y-157778779D01*
X155548580Y-157733901D01*
X155552603Y-157728993D01*
X155589849Y-157686428D01*
X155594156Y-157677669D01*
X155604458Y-157661081D01*
X155610400Y-157653338D01*
X155632053Y-157601059D01*
X155634657Y-157595305D01*
X155659621Y-157544541D01*
X155661514Y-157534963D01*
X155667168Y-157516285D01*
X155670908Y-157507259D01*
X155678292Y-157451167D01*
X155679319Y-157444921D01*
X155690293Y-157389429D01*
X155689643Y-157379682D01*
X155690270Y-157360182D01*
X155691546Y-157350497D01*
X155684162Y-157294417D01*
X155683535Y-157288085D01*
X155679774Y-157231665D01*
X155676626Y-157222428D01*
X155672182Y-157203416D01*
X155670908Y-157193735D01*
X155649259Y-157141471D01*
X155647013Y-157135513D01*
X155591423Y-156972355D01*
X154721081Y-154417861D01*
X154716638Y-154398849D01*
X154714518Y-154382736D01*
X154716989Y-154382410D01*
X154719624Y-154332039D01*
X154758125Y-154284486D01*
X154781262Y-154273419D01*
X155163376Y-154148398D01*
X156698639Y-153602144D01*
X158219399Y-153016724D01*
X158881720Y-152744548D01*
X158942727Y-152739919D01*
X158994807Y-152772034D01*
G37*
%TD.AperFunction*%
%TD*%
%TA.AperFunction,Conductor*%
%TO.N,Net-(LED18-C)*%
G36*
X134633093Y-14476844D02*
G01*
X134669162Y-14526267D01*
X134674073Y-14557362D01*
X134626271Y-30305404D01*
X134607187Y-30363537D01*
X134557578Y-30399350D01*
X134527579Y-30404103D01*
X133811190Y-30406331D01*
X133045608Y-30425886D01*
X132182182Y-30447940D01*
X132182171Y-30447940D01*
X132182153Y-30447941D01*
X130554777Y-30531281D01*
X128930024Y-30656307D01*
X127309003Y-30822931D01*
X127232143Y-30832828D01*
X127172014Y-30821507D01*
X127130023Y-30777005D01*
X127120500Y-30734639D01*
X127120500Y-29562932D01*
X127139407Y-29504741D01*
X127140936Y-29502693D01*
X127194536Y-29432841D01*
X127255044Y-29286762D01*
X127275682Y-29130000D01*
X127255044Y-28973238D01*
X127194537Y-28827161D01*
X127194537Y-28827160D01*
X127098286Y-28701723D01*
X127098285Y-28701722D01*
X127098282Y-28701718D01*
X127098277Y-28701714D01*
X127098276Y-28701713D01*
X126972838Y-28605462D01*
X126826766Y-28544957D01*
X126826758Y-28544955D01*
X126670001Y-28524318D01*
X126669999Y-28524318D01*
X126513241Y-28544955D01*
X126513233Y-28544957D01*
X126367161Y-28605462D01*
X126367160Y-28605462D01*
X126241723Y-28701713D01*
X126241713Y-28701723D01*
X126145462Y-28827160D01*
X126145462Y-28827161D01*
X126084957Y-28973233D01*
X126084955Y-28973241D01*
X126064318Y-29129999D01*
X126064318Y-29130000D01*
X126084955Y-29286758D01*
X126084957Y-29286766D01*
X126145462Y-29432838D01*
X126145463Y-29432840D01*
X126145464Y-29432841D01*
X126199042Y-29502665D01*
X126219466Y-29560340D01*
X126219500Y-29562932D01*
X126219500Y-29955951D01*
X126200593Y-30014142D01*
X126151093Y-30050106D01*
X126089907Y-30050106D01*
X126041958Y-30016218D01*
X125973286Y-29926723D01*
X125973285Y-29926722D01*
X125973282Y-29926718D01*
X125973277Y-29926714D01*
X125973276Y-29926713D01*
X125847838Y-29830462D01*
X125701766Y-29769957D01*
X125701758Y-29769955D01*
X125545001Y-29749318D01*
X125544999Y-29749318D01*
X125388241Y-29769955D01*
X125388233Y-29769957D01*
X125242161Y-29830462D01*
X125242160Y-29830462D01*
X125116723Y-29926713D01*
X125116713Y-29926723D01*
X125020462Y-30052160D01*
X125020462Y-30052161D01*
X124959957Y-30198233D01*
X124959955Y-30198241D01*
X124939318Y-30354999D01*
X124939318Y-30355000D01*
X124959955Y-30511758D01*
X124959957Y-30511766D01*
X125020461Y-30657836D01*
X125020463Y-30657838D01*
X125020464Y-30657841D01*
X125049043Y-30695085D01*
X125069466Y-30752759D01*
X125069500Y-30755351D01*
X125069500Y-31042755D01*
X125050593Y-31100946D01*
X125001093Y-31136910D01*
X124985656Y-31140588D01*
X124082490Y-31280501D01*
X122921527Y-31490949D01*
X122479054Y-31571156D01*
X122479043Y-31571158D01*
X122479039Y-31571159D01*
X120883616Y-31902805D01*
X119297180Y-32275239D01*
X117720854Y-32688196D01*
X116155584Y-33141429D01*
X114602460Y-33634622D01*
X113062506Y-34167452D01*
X111536692Y-34739579D01*
X110872017Y-35005967D01*
X110810969Y-35010064D01*
X110759172Y-34977496D01*
X110743399Y-34951164D01*
X110211373Y-33634620D01*
X104843070Y-20350282D01*
X104838798Y-20289246D01*
X104871218Y-20237356D01*
X104897996Y-20221309D01*
X105640745Y-19923364D01*
X105642461Y-19922695D01*
X107325065Y-19286167D01*
X107327034Y-19285448D01*
X109023473Y-18687238D01*
X109025390Y-18686586D01*
X110734948Y-18126942D01*
X110737031Y-18126286D01*
X112458719Y-17605531D01*
X112460795Y-17604928D01*
X114193878Y-17123280D01*
X114195957Y-17122727D01*
X115939556Y-16680434D01*
X115941586Y-16679944D01*
X117694751Y-16277246D01*
X117696775Y-16276806D01*
X119458542Y-15913926D01*
X119460692Y-15913508D01*
X121230283Y-15590605D01*
X121232357Y-15590251D01*
X123008776Y-15307508D01*
X123010827Y-15307204D01*
X124793252Y-15064752D01*
X124795361Y-15064490D01*
X126582822Y-14862459D01*
X126584884Y-14862250D01*
X128376420Y-14700752D01*
X128378519Y-14700587D01*
X130173200Y-14579705D01*
X130175369Y-14579582D01*
X131972412Y-14499364D01*
X131974514Y-14499295D01*
X133773014Y-14459791D01*
X133774787Y-14459770D01*
X134574863Y-14458061D01*
X134633093Y-14476844D01*
G37*
%TD.AperFunction*%
%TD*%
M02*
