%TF.GenerationSoftware,KiCad,Pcbnew,8.0.5*%
%TF.CreationDate,2024-10-11T00:39:08+02:00*%
%TF.ProjectId,LEDTischLampe,4c454454-6973-4636-984c-616d70652e6b,rev?*%
%TF.SameCoordinates,Original*%
%TF.FileFunction,Paste,Top*%
%TF.FilePolarity,Positive*%
%FSLAX46Y46*%
G04 Gerber Fmt 4.6, Leading zero omitted, Abs format (unit mm)*
G04 Created by KiCad (PCBNEW 8.0.5) date 2024-10-11 00:39:08*
%MOMM*%
%LPD*%
G01*
G04 APERTURE LIST*
G04 Aperture macros list*
%AMRoundRect*
0 Rectangle with rounded corners*
0 $1 Rounding radius*
0 $2 $3 $4 $5 $6 $7 $8 $9 X,Y pos of 4 corners*
0 Add a 4 corners polygon primitive as box body*
4,1,4,$2,$3,$4,$5,$6,$7,$8,$9,$2,$3,0*
0 Add four circle primitives for the rounded corners*
1,1,$1+$1,$2,$3*
1,1,$1+$1,$4,$5*
1,1,$1+$1,$6,$7*
1,1,$1+$1,$8,$9*
0 Add four rect primitives between the rounded corners*
20,1,$1+$1,$2,$3,$4,$5,0*
20,1,$1+$1,$4,$5,$6,$7,0*
20,1,$1+$1,$6,$7,$8,$9,0*
20,1,$1+$1,$8,$9,$2,$3,0*%
%AMRotRect*
0 Rectangle, with rotation*
0 The origin of the aperture is its center*
0 $1 length*
0 $2 width*
0 $3 Rotation angle, in degrees counterclockwise*
0 Add horizontal line*
21,1,$1,$2,0,0,$3*%
G04 Aperture macros list end*
%ADD10RoundRect,0.250000X0.450000X-0.262500X0.450000X0.262500X-0.450000X0.262500X-0.450000X-0.262500X0*%
%ADD11RoundRect,0.140000X-0.170000X0.140000X-0.170000X-0.140000X0.170000X-0.140000X0.170000X0.140000X0*%
%ADD12RoundRect,0.250000X-1.100000X0.325000X-1.100000X-0.325000X1.100000X-0.325000X1.100000X0.325000X0*%
%ADD13RoundRect,0.140000X0.170000X-0.140000X0.170000X0.140000X-0.170000X0.140000X-0.170000X-0.140000X0*%
%ADD14R,1.200000X2.200000*%
%ADD15R,1.100000X0.600000*%
%ADD16R,1.500000X0.900000*%
%ADD17R,0.700000X0.700000*%
%ADD18RoundRect,0.250000X-0.262500X-0.450000X0.262500X-0.450000X0.262500X0.450000X-0.262500X0.450000X0*%
%ADD19RoundRect,0.140000X-0.140000X-0.170000X0.140000X-0.170000X0.140000X0.170000X-0.140000X0.170000X0*%
%ADD20RoundRect,0.250000X-0.325000X-1.100000X0.325000X-1.100000X0.325000X1.100000X-0.325000X1.100000X0*%
%ADD21RoundRect,0.135000X0.185000X-0.135000X0.185000X0.135000X-0.185000X0.135000X-0.185000X-0.135000X0*%
%ADD22RoundRect,0.250000X0.070311X0.516200X-0.414726X0.315291X-0.070311X-0.516200X0.414726X-0.315291X0*%
%ADD23RoundRect,0.250000X0.650000X-1.000000X0.650000X1.000000X-0.650000X1.000000X-0.650000X-1.000000X0*%
%ADD24RoundRect,0.243750X0.243750X0.456250X-0.243750X0.456250X-0.243750X-0.456250X0.243750X-0.456250X0*%
%ADD25RoundRect,0.135000X-0.135000X-0.185000X0.135000X-0.185000X0.135000X0.185000X-0.135000X0.185000X0*%
%ADD26RotRect,1.700000X1.000000X230.000000*%
%ADD27RoundRect,0.250000X0.325000X1.100000X-0.325000X1.100000X-0.325000X-1.100000X0.325000X-1.100000X0*%
%ADD28RoundRect,0.147500X-0.172500X0.147500X-0.172500X-0.147500X0.172500X-0.147500X0.172500X0.147500X0*%
%ADD29R,2.200000X1.200000*%
%ADD30RoundRect,0.250000X1.000000X0.650000X-1.000000X0.650000X-1.000000X-0.650000X1.000000X-0.650000X0*%
%ADD31R,0.600000X1.100000*%
%ADD32RoundRect,0.135000X-0.078820X0.215029X-0.228824X-0.009468X0.078820X-0.215029X0.228824X0.009468X0*%
%ADD33RoundRect,0.250000X-0.325000X-0.650000X0.325000X-0.650000X0.325000X0.650000X-0.325000X0.650000X0*%
%ADD34RoundRect,0.150000X-0.512500X-0.150000X0.512500X-0.150000X0.512500X0.150000X-0.512500X0.150000X0*%
%ADD35RoundRect,0.135000X-0.185000X0.135000X-0.185000X-0.135000X0.185000X-0.135000X0.185000X0.135000X0*%
%ADD36RotRect,0.300000X1.300000X146.250000*%
%ADD37RotRect,1.700000X1.000000X244.250000*%
%ADD38RoundRect,0.250000X0.650000X-0.325000X0.650000X0.325000X-0.650000X0.325000X-0.650000X-0.325000X0*%
%ADD39RoundRect,0.125000X-0.190000X-0.125000X0.190000X-0.125000X0.190000X0.125000X-0.190000X0.125000X0*%
%ADD40R,0.570000X0.738000*%
%ADD41RoundRect,0.250000X1.100000X-0.325000X1.100000X0.325000X-1.100000X0.325000X-1.100000X-0.325000X0*%
%ADD42R,1.500000X1.000000*%
%ADD43R,2.200000X4.200000*%
%ADD44RotRect,1.500000X1.000000X202.500000*%
%ADD45RotRect,4.200000X2.200000X292.500000*%
%ADD46RotRect,1.500000X1.000000X225.000000*%
%ADD47RotRect,4.200000X2.200000X315.000000*%
%ADD48RotRect,1.500000X1.000000X247.500000*%
%ADD49RotRect,4.200000X2.200000X337.500000*%
%ADD50R,1.000000X1.500000*%
%ADD51R,4.200000X2.200000*%
%ADD52RotRect,1.500000X1.000000X292.500000*%
%ADD53RotRect,4.200000X2.200000X22.500000*%
%ADD54RotRect,1.500000X1.000000X315.000000*%
%ADD55RotRect,4.200000X2.200000X45.000000*%
%ADD56RotRect,1.500000X1.000000X337.500000*%
%ADD57RotRect,4.200000X2.200000X67.500000*%
%ADD58RoundRect,0.135000X-0.215029X-0.078820X0.009468X-0.228824X0.215029X0.078820X-0.009468X0.228824X0*%
%ADD59RoundRect,0.135000X0.135000X0.185000X-0.135000X0.185000X-0.135000X-0.185000X0.135000X-0.185000X0*%
G04 APERTURE END LIST*
D10*
%TO.C,R16*%
X151333200Y-47572300D03*
X151333200Y-45747300D03*
%TD*%
D11*
%TO.C,C19*%
X168456600Y-131935700D03*
X168456600Y-132895700D03*
%TD*%
D12*
%TO.C,C6*%
X123289800Y-110005600D03*
X123289800Y-112955600D03*
%TD*%
D13*
%TO.C,C8*%
X145669000Y-67564000D03*
X145669000Y-66604000D03*
%TD*%
D14*
%TO.C,L1*%
X120227800Y-107670600D03*
X122287800Y-107670600D03*
%TD*%
D13*
%TO.C,C7*%
X145795000Y-76110000D03*
X145795000Y-75150000D03*
%TD*%
D15*
%TO.C,U5*%
X152679400Y-138562000D03*
X152679400Y-139512000D03*
X152679400Y-140462000D03*
X155379400Y-140462000D03*
X155379400Y-139512000D03*
X155379400Y-138562000D03*
%TD*%
D13*
%TO.C,C5*%
X123670800Y-108658600D03*
X123670800Y-107698600D03*
%TD*%
D16*
%TO.C,U1*%
X125870000Y-78047800D03*
X125870000Y-76547800D03*
X125870000Y-75047800D03*
X125870000Y-73547800D03*
X125870000Y-72047800D03*
X125870000Y-70547800D03*
X125870000Y-69047800D03*
X125870000Y-67547800D03*
X125870000Y-66047800D03*
X143370000Y-66047800D03*
X143370000Y-67547800D03*
X143370000Y-69047800D03*
X143370000Y-70547800D03*
X143370000Y-72047800D03*
X143370000Y-73547800D03*
X143370000Y-75047800D03*
X143370000Y-76547800D03*
X143370000Y-78047800D03*
D17*
X132560000Y-70747800D03*
X132560000Y-71847800D03*
X132560000Y-72947800D03*
X133660000Y-70747800D03*
X133660000Y-71847800D03*
X133660000Y-72947800D03*
X134760000Y-70747800D03*
X134760000Y-71847800D03*
X134760000Y-72947800D03*
%TD*%
D11*
%TO.C,C23*%
X142066000Y-140098800D03*
X142066000Y-141058800D03*
%TD*%
D12*
%TO.C,C9*%
X170742600Y-131956700D03*
X170742600Y-134906700D03*
%TD*%
D18*
%TO.C,R26*%
X152685101Y-142306000D03*
X154510101Y-142306000D03*
%TD*%
D19*
%TO.C,C4*%
X117882200Y-108331000D03*
X118842200Y-108331000D03*
%TD*%
D20*
%TO.C,C10*%
X145665699Y-41187000D03*
X148615699Y-41187000D03*
%TD*%
D21*
%TO.C,R10*%
X125575800Y-110718600D03*
X125575800Y-109698600D03*
%TD*%
D11*
%TO.C,C1*%
X121003800Y-111889600D03*
X121003800Y-112849600D03*
%TD*%
D22*
%TO.C,R31*%
X113926960Y-32179198D03*
X115613040Y-31480802D03*
%TD*%
D23*
%TO.C,D6*%
X161624000Y-134644300D03*
X161624000Y-130644300D03*
%TD*%
D21*
%TO.C,R12*%
X145795000Y-78015000D03*
X145795000Y-76995000D03*
%TD*%
D24*
%TO.C,D1*%
X152986500Y-96012000D03*
X154861500Y-96012000D03*
%TD*%
D25*
%TO.C,R1*%
X150686800Y-96012000D03*
X151706800Y-96012000D03*
%TD*%
D15*
%TO.C,U6*%
X137947400Y-140086000D03*
X137947400Y-141036000D03*
X137947400Y-141986000D03*
X140647400Y-141986000D03*
X140647400Y-141036000D03*
X140647400Y-140086000D03*
%TD*%
D26*
%TO.C,SW1*%
X188265266Y-36679656D03*
X184215704Y-41505737D03*
X185354296Y-34237063D03*
X181304734Y-39063144D03*
%TD*%
D27*
%TO.C,C2*%
X119557800Y-114147600D03*
X116607800Y-114147600D03*
%TD*%
D14*
%TO.C,L7*%
X166612600Y-129717800D03*
X164552600Y-129717800D03*
%TD*%
D12*
%TO.C,C11*%
X159084000Y-138595799D03*
X159084000Y-141545799D03*
%TD*%
D23*
%TO.C,D8*%
X135233400Y-142807401D03*
X135233400Y-138807401D03*
%TD*%
D28*
%TO.C,D34*%
X123563200Y-116258700D03*
X123563200Y-117228700D03*
%TD*%
D25*
%TO.C,R2*%
X150688800Y-93980000D03*
X151708800Y-93980000D03*
%TD*%
D29*
%TO.C,L8*%
X143426800Y-45317000D03*
X143426800Y-47377000D03*
%TD*%
D21*
%TO.C,R11*%
X125557800Y-113387600D03*
X125557800Y-112367600D03*
%TD*%
D18*
%TO.C,R4*%
X129832500Y-26930000D03*
X128007500Y-26930000D03*
%TD*%
D30*
%TO.C,D5*%
X148353301Y-50305600D03*
X144353301Y-50305600D03*
%TD*%
D31*
%TO.C,U3*%
X145631900Y-47591600D03*
X146581900Y-47591600D03*
X147531900Y-47591600D03*
X147531900Y-44891600D03*
X146581900Y-44891600D03*
X145631900Y-44891600D03*
%TD*%
D14*
%TO.C,L9*%
X154954000Y-136356900D03*
X152894000Y-136356900D03*
%TD*%
D32*
%TO.C,R15*%
X170526727Y-29770327D03*
X169960045Y-30618427D03*
%TD*%
D33*
%TO.C,C24*%
X136349201Y-146547800D03*
X139299201Y-146547800D03*
%TD*%
D19*
%TO.C,C3*%
X145644700Y-43473000D03*
X146604700Y-43473000D03*
%TD*%
D15*
%TO.C,U4*%
X164338000Y-131922900D03*
X164338000Y-132872900D03*
X164338000Y-133822900D03*
X167038000Y-133822900D03*
X167038000Y-132872900D03*
X167038000Y-131922900D03*
%TD*%
D10*
%TO.C,R9*%
X149375900Y-45760899D03*
X149375900Y-47585899D03*
%TD*%
D33*
%TO.C,C22*%
X151081201Y-145023800D03*
X154031201Y-145023800D03*
%TD*%
D22*
%TO.C,R32*%
X113176960Y-30379198D03*
X114863040Y-29680802D03*
%TD*%
D34*
%TO.C,U7*%
X117215100Y-109742800D03*
X117215100Y-110692800D03*
X117215100Y-111642800D03*
X119490100Y-111642800D03*
X119490100Y-110692800D03*
X119490100Y-109742800D03*
%TD*%
D24*
%TO.C,D2*%
X152986500Y-93980000D03*
X154861500Y-93980000D03*
%TD*%
D12*
%TO.C,C12*%
X144352000Y-140119799D03*
X144352000Y-143069799D03*
%TD*%
D24*
%TO.C,D3*%
X152986500Y-91948000D03*
X154861500Y-91948000D03*
%TD*%
D22*
%TO.C,R30*%
X114699960Y-34000198D03*
X116386040Y-33301802D03*
%TD*%
D14*
%TO.C,L10*%
X140222000Y-137880900D03*
X138162000Y-137880900D03*
%TD*%
D35*
%TO.C,R13*%
X146837400Y-66574000D03*
X146837400Y-67594000D03*
%TD*%
D23*
%TO.C,D24*%
X171450000Y-53118000D03*
X171450000Y-57118000D03*
%TD*%
D36*
%TO.C,J2*%
X177245643Y-35687960D03*
X176580469Y-35243503D03*
X176164733Y-34965717D03*
X175333264Y-34410149D03*
X174086060Y-33576792D03*
X173254591Y-33021225D03*
X172838855Y-32743439D03*
X172173679Y-32298982D03*
X171924238Y-32132311D03*
X172589414Y-32576767D03*
X173670324Y-33299009D03*
X174501794Y-33854579D03*
X174917529Y-34132362D03*
X175748999Y-34687934D03*
X176829909Y-35410174D03*
X177495084Y-35854631D03*
%TD*%
D18*
%TO.C,R29*%
X129832500Y-31330000D03*
X128007500Y-31330000D03*
%TD*%
D37*
%TO.C,SW2*%
X170389629Y-24277247D03*
X167652625Y-29951646D03*
X166966975Y-22626354D03*
X164229971Y-28300753D03*
%TD*%
D35*
%TO.C,R17*%
X123563200Y-118291100D03*
X123563200Y-119311100D03*
%TD*%
D32*
%TO.C,R14*%
X180191541Y-36228150D03*
X179624859Y-37076250D03*
%TD*%
D33*
%TO.C,C20*%
X162739800Y-138384700D03*
X165689800Y-138384700D03*
%TD*%
D18*
%TO.C,R27*%
X137953101Y-143830000D03*
X139778101Y-143830000D03*
%TD*%
%TO.C,R8*%
X164343700Y-135666900D03*
X166168700Y-135666900D03*
%TD*%
D11*
%TO.C,C21*%
X156798000Y-138574800D03*
X156798000Y-139534800D03*
%TD*%
D38*
%TO.C,C17*%
X153365200Y-49100000D03*
X153365200Y-46150000D03*
%TD*%
D39*
%TO.C,Q1*%
X124874200Y-118775200D03*
X124874200Y-118135200D03*
X124874200Y-117475200D03*
X124874200Y-116835200D03*
X127754200Y-118777700D03*
X127754200Y-118135200D03*
X127754200Y-117475200D03*
X127754200Y-116832700D03*
D40*
X127174200Y-118415200D03*
X127174200Y-117195200D03*
X126224200Y-118415200D03*
X126224200Y-117195200D03*
%TD*%
D18*
%TO.C,R28*%
X129832500Y-28980000D03*
X128007500Y-28980000D03*
%TD*%
D23*
%TO.C,D7*%
X149965400Y-141283401D03*
X149965400Y-137283401D03*
%TD*%
D25*
%TO.C,R3*%
X150693600Y-91948000D03*
X151713600Y-91948000D03*
%TD*%
D13*
%TO.C,C16*%
X122682000Y-78204000D03*
X122682000Y-77244000D03*
%TD*%
D41*
%TO.C,C18*%
X150368000Y-74979000D03*
X150368000Y-77929000D03*
%TD*%
D13*
%TO.C,C25*%
X147828000Y-76736000D03*
X147828000Y-77696000D03*
%TD*%
D42*
%TO.C,D4*%
X137070000Y-27380000D03*
X137070000Y-28980000D03*
X137070000Y-30580000D03*
X132170000Y-30580000D03*
X132170000Y-28980000D03*
X132170000Y-27380000D03*
D43*
X134620000Y-28980000D03*
%TD*%
D44*
%TO.C,D9*%
X108094366Y-36343612D03*
X107482072Y-34865404D03*
X106869779Y-33387197D03*
X111396788Y-31512048D03*
X112009082Y-32990256D03*
X112621375Y-34468463D03*
D45*
X109745577Y-33927830D03*
%TD*%
D46*
%TO.C,D10*%
X88057018Y-50881841D03*
X86925647Y-49750471D03*
X85794277Y-48619100D03*
X89259100Y-45154277D03*
X90390471Y-46285647D03*
X91521841Y-47417018D03*
D47*
X88658059Y-48018059D03*
%TD*%
D48*
%TO.C,D11*%
X75108463Y-71981375D03*
X73630256Y-71369082D03*
X72152048Y-70756788D03*
X74027197Y-66229779D03*
X75505404Y-66842072D03*
X76983612Y-67454366D03*
D49*
X74567830Y-69105577D03*
%TD*%
D50*
%TO.C,D12*%
X71220000Y-96430000D03*
X69620000Y-96430000D03*
X68020000Y-96430000D03*
X68020000Y-91530000D03*
X69620000Y-91530000D03*
X71220000Y-91530000D03*
D51*
X69620000Y-93980000D03*
%TD*%
D52*
%TO.C,D13*%
X76983612Y-120505634D03*
X75505404Y-121117928D03*
X74027197Y-121730221D03*
X72152048Y-117203212D03*
X73630256Y-116590918D03*
X75108463Y-115978625D03*
D53*
X74567830Y-118854423D03*
%TD*%
D54*
%TO.C,D14*%
X91521841Y-140542982D03*
X90390471Y-141674353D03*
X89259100Y-142805723D03*
X85794277Y-139340900D03*
X86925647Y-138209529D03*
X88057018Y-137078159D03*
D55*
X88658059Y-139941941D03*
%TD*%
D56*
%TO.C,D15*%
X112621375Y-153491537D03*
X112009082Y-154969744D03*
X111396788Y-156447952D03*
X106869779Y-154572803D03*
X107482072Y-153094596D03*
X108094366Y-151616388D03*
D57*
X109745577Y-154032170D03*
%TD*%
D56*
%TO.C,D17*%
X162370221Y-33387197D03*
X161757928Y-34865404D03*
X161145634Y-36343612D03*
X156618625Y-34468463D03*
X157230918Y-32990256D03*
X157843212Y-31512048D03*
D57*
X159494423Y-33927830D03*
%TD*%
D54*
%TO.C,D18*%
X183445723Y-48619100D03*
X182314353Y-49750471D03*
X181182982Y-50881841D03*
X177718159Y-47417018D03*
X178849529Y-46285647D03*
X179980900Y-45154277D03*
D55*
X180581941Y-48018059D03*
%TD*%
D52*
%TO.C,D19*%
X197087952Y-70756788D03*
X195609744Y-71369082D03*
X194131537Y-71981375D03*
X192256388Y-67454366D03*
X193734596Y-66842072D03*
X195212803Y-66229779D03*
D53*
X194672170Y-69105577D03*
%TD*%
D50*
%TO.C,D20*%
X201220000Y-96430000D03*
X199620000Y-96430000D03*
X198020000Y-96430000D03*
X198020000Y-91530000D03*
X199620000Y-91530000D03*
X201220000Y-91530000D03*
D51*
X199620000Y-93980000D03*
%TD*%
D48*
%TO.C,D21*%
X195212803Y-121730221D03*
X193734596Y-121117928D03*
X192256388Y-120505634D03*
X194131537Y-115978625D03*
X195609744Y-116590918D03*
X197087952Y-117203212D03*
D49*
X194672170Y-118854423D03*
%TD*%
D46*
%TO.C,D22*%
X179980900Y-142805723D03*
X178849529Y-141674353D03*
X177718159Y-140542982D03*
X181182982Y-137078159D03*
X182314353Y-138209529D03*
X183445723Y-139340900D03*
D47*
X180581941Y-139941941D03*
%TD*%
D44*
%TO.C,D23*%
X157843212Y-156447952D03*
X157230918Y-154969744D03*
X156618625Y-153491537D03*
X161145634Y-151616388D03*
X161757928Y-153094596D03*
X162370221Y-154572803D03*
D45*
X159494423Y-154032170D03*
%TD*%
D35*
%TO.C,R20*%
X123698000Y-77214000D03*
X123698000Y-78234000D03*
%TD*%
D58*
%TO.C,R21*%
X176446050Y-37621341D03*
X175597950Y-37054659D03*
%TD*%
D59*
%TO.C,TH1*%
X144778000Y-153924000D03*
X145798000Y-153924000D03*
%TD*%
D42*
%TO.C,D16*%
X137070000Y-157380000D03*
X137070000Y-158980000D03*
X137070000Y-160580000D03*
X132170000Y-160580000D03*
X132170000Y-158980000D03*
X132170000Y-157380000D03*
D43*
X134620000Y-158980000D03*
%TD*%
M02*
