%TF.GenerationSoftware,KiCad,Pcbnew,8.0.5*%
%TF.CreationDate,2024-10-09T23:57:25+02:00*%
%TF.ProjectId,LEDTischLampe,4c454454-6973-4636-984c-616d70652e6b,rev?*%
%TF.SameCoordinates,Original*%
%TF.FileFunction,Paste,Bot*%
%TF.FilePolarity,Positive*%
%FSLAX46Y46*%
G04 Gerber Fmt 4.6, Leading zero omitted, Abs format (unit mm)*
G04 Created by KiCad (PCBNEW 8.0.5) date 2024-10-09 23:57:25*
%MOMM*%
%LPD*%
G01*
G04 APERTURE LIST*
G04 Aperture macros list*
%AMRoundRect*
0 Rectangle with rounded corners*
0 $1 Rounding radius*
0 $2 $3 $4 $5 $6 $7 $8 $9 X,Y pos of 4 corners*
0 Add a 4 corners polygon primitive as box body*
4,1,4,$2,$3,$4,$5,$6,$7,$8,$9,$2,$3,0*
0 Add four circle primitives for the rounded corners*
1,1,$1+$1,$2,$3*
1,1,$1+$1,$4,$5*
1,1,$1+$1,$6,$7*
1,1,$1+$1,$8,$9*
0 Add four rect primitives between the rounded corners*
20,1,$1+$1,$2,$3,$4,$5,0*
20,1,$1+$1,$4,$5,$6,$7,0*
20,1,$1+$1,$6,$7,$8,$9,0*
20,1,$1+$1,$8,$9,$2,$3,0*%
%AMRotRect*
0 Rectangle, with rotation*
0 The origin of the aperture is its center*
0 $1 length*
0 $2 width*
0 $3 Rotation angle, in degrees counterclockwise*
0 Add horizontal line*
21,1,$1,$2,0,0,$3*%
G04 Aperture macros list end*
%ADD10R,2.330000X2.380000*%
%ADD11R,1.100000X2.380000*%
%ADD12RotRect,2.330000X2.380000X213.750000*%
%ADD13RotRect,1.100000X2.380000X213.750000*%
%ADD14R,2.380000X2.330000*%
%ADD15R,2.380000X1.100000*%
%ADD16RotRect,2.330000X2.380000X123.750000*%
%ADD17RotRect,1.100000X2.380000X123.750000*%
%ADD18RotRect,2.330000X2.380000X157.500000*%
%ADD19RotRect,1.100000X2.380000X157.500000*%
%ADD20RotRect,2.330000X2.380000X202.500000*%
%ADD21RotRect,1.100000X2.380000X202.500000*%
%ADD22RotRect,2.330000X2.380000X225.000000*%
%ADD23RotRect,1.100000X2.380000X225.000000*%
%ADD24RotRect,2.330000X2.380000X247.500000*%
%ADD25RotRect,1.100000X2.380000X247.500000*%
%ADD26RotRect,2.330000X2.380000X315.000000*%
%ADD27RotRect,1.100000X2.380000X315.000000*%
%ADD28RotRect,2.330000X2.380000X303.750000*%
%ADD29RotRect,1.100000X2.380000X303.750000*%
%ADD30RoundRect,0.250000X-0.132583X0.503814X-0.503814X0.132583X0.132583X-0.503814X0.503814X-0.132583X0*%
%ADD31RotRect,2.330000X2.380000X292.500000*%
%ADD32RotRect,1.100000X2.380000X292.500000*%
%ADD33RotRect,2.330000X2.380000X33.750000*%
%ADD34RotRect,1.100000X2.380000X33.750000*%
%ADD35RotRect,2.330000X2.380000X168.750000*%
%ADD36RotRect,1.100000X2.380000X168.750000*%
%ADD37RotRect,2.330000X2.380000X258.750000*%
%ADD38RotRect,1.100000X2.380000X258.750000*%
%ADD39RoundRect,0.250000X-0.315291X0.414726X-0.516200X-0.070311X0.315291X-0.414726X0.516200X0.070311X0*%
%ADD40RoundRect,0.250000X0.345247X0.390142X-0.169665X0.492565X-0.345247X-0.390142X0.169665X-0.492565X0*%
%ADD41RotRect,2.330000X2.380000X348.750000*%
%ADD42RotRect,1.100000X2.380000X348.750000*%
%ADD43RotRect,2.330000X2.380000X78.750000*%
%ADD44RotRect,1.100000X2.380000X78.750000*%
G04 APERTURE END LIST*
D10*
%TO.C,LED15*%
X133530001Y-168980001D03*
D11*
X135709999Y-168980001D03*
%TD*%
D12*
%TO.C,LED2*%
X100379484Y-44697394D03*
D13*
X102192088Y-43486252D03*
%TD*%
D14*
%TO.C,LED22*%
X59620000Y-95070000D03*
D15*
X59620000Y-92890000D03*
%TD*%
D16*
%TO.C,LED8*%
X183902606Y-59739484D03*
D17*
X185113748Y-61552088D03*
%TD*%
D18*
%TO.C,LED17*%
X162314228Y-24271910D03*
D19*
X164328286Y-25106160D03*
%TD*%
D20*
%TO.C,LED14*%
X162314230Y-163688090D03*
D21*
X164328286Y-162853840D03*
%TD*%
D22*
%TO.C,LED13*%
X186882263Y-147783755D03*
D23*
X188423755Y-146242263D03*
%TD*%
D24*
%TO.C,LED21*%
X64911910Y-66285772D03*
D25*
X65746160Y-64271714D03*
%TD*%
D26*
%TO.C,LED24*%
X82357739Y-147783756D03*
D27*
X80816245Y-146242262D03*
%TD*%
D20*
%TO.C,LED19*%
X104911713Y-25106160D03*
D21*
X106925771Y-24271910D03*
%TD*%
D28*
%TO.C,LED4*%
X85337394Y-128220516D03*
D29*
X84126252Y-126407912D03*
%TD*%
D22*
%TO.C,LED20*%
X80816244Y-41717739D03*
D23*
X82357738Y-40176245D03*
%TD*%
D24*
%TO.C,LED12*%
X203493840Y-123688286D03*
D25*
X204328090Y-121674230D03*
%TD*%
D30*
%TO.C,R6*%
X186725635Y-37454765D03*
X185435165Y-38745235D03*
%TD*%
D14*
%TO.C,LED11*%
X209620001Y-95069999D03*
D15*
X209620001Y-92890001D03*
%TD*%
D18*
%TO.C,LED16*%
X104911714Y-162853840D03*
D19*
X106925770Y-163688090D03*
%TD*%
D31*
%TO.C,LED23*%
X65746160Y-123688287D03*
D32*
X64911910Y-121674229D03*
%TD*%
D10*
%TO.C,LED18*%
X133530000Y-18980000D03*
D11*
X135710000Y-18980000D03*
%TD*%
D33*
%TO.C,LED6*%
X168860516Y-143262606D03*
D34*
X167047912Y-144473748D03*
%TD*%
D35*
%TO.C,LED1*%
X145256363Y-34920234D03*
D36*
X147394475Y-35345532D03*
%TD*%
D37*
%TO.C,LED3*%
X75560234Y-83343637D03*
D38*
X75985532Y-81205525D03*
%TD*%
D39*
%TO.C,R7*%
X167194198Y-24211960D03*
X166495802Y-25898040D03*
%TD*%
D31*
%TO.C,LED10*%
X204328090Y-66285770D03*
D32*
X203493840Y-64271714D03*
%TD*%
D26*
%TO.C,LED9*%
X188423755Y-41717737D03*
D27*
X186882263Y-40176245D03*
%TD*%
D40*
%TO.C,R5*%
X151739967Y-36283020D03*
X149950033Y-35926980D03*
%TD*%
D41*
%TO.C,LED5*%
X123983637Y-153039766D03*
D42*
X121845525Y-152614468D03*
%TD*%
D43*
%TO.C,LED7*%
X193679766Y-104616363D03*
D44*
X193254468Y-106754475D03*
%TD*%
M02*
