%TF.GenerationSoftware,KiCad,Pcbnew,8.0.5*%
%TF.CreationDate,2024-10-09T23:57:25+02:00*%
%TF.ProjectId,LEDTischLampe,4c454454-6973-4636-984c-616d70652e6b,rev?*%
%TF.SameCoordinates,Original*%
%TF.FileFunction,Legend,Bot*%
%TF.FilePolarity,Positive*%
%FSLAX46Y46*%
G04 Gerber Fmt 4.6, Leading zero omitted, Abs format (unit mm)*
G04 Created by KiCad (PCBNEW 8.0.5) date 2024-10-09 23:57:25*
%MOMM*%
%LPD*%
G01*
G04 APERTURE LIST*
G04 Aperture macros list*
%AMRoundRect*
0 Rectangle with rounded corners*
0 $1 Rounding radius*
0 $2 $3 $4 $5 $6 $7 $8 $9 X,Y pos of 4 corners*
0 Add a 4 corners polygon primitive as box body*
4,1,4,$2,$3,$4,$5,$6,$7,$8,$9,$2,$3,0*
0 Add four circle primitives for the rounded corners*
1,1,$1+$1,$2,$3*
1,1,$1+$1,$4,$5*
1,1,$1+$1,$6,$7*
1,1,$1+$1,$8,$9*
0 Add four rect primitives between the rounded corners*
20,1,$1+$1,$2,$3,$4,$5,0*
20,1,$1+$1,$4,$5,$6,$7,0*
20,1,$1+$1,$6,$7,$8,$9,0*
20,1,$1+$1,$8,$9,$2,$3,0*%
%AMHorizOval*
0 Thick line with rounded ends*
0 $1 width*
0 $2 $3 position (X,Y) of the first rounded end (center of the circle)*
0 $4 $5 position (X,Y) of the second rounded end (center of the circle)*
0 Add line between two ends*
20,1,$1,$2,$3,$4,$5,0*
0 Add two circle primitives to create the rounded ends*
1,1,$1,$2,$3*
1,1,$1,$4,$5*%
%AMRotRect*
0 Rectangle, with rotation*
0 The origin of the aperture is its center*
0 $1 length*
0 $2 width*
0 $3 Rotation angle, in degrees counterclockwise*
0 Add horizontal line*
21,1,$1,$2,0,0,$3*%
G04 Aperture macros list end*
%ADD10C,0.200000*%
%ADD11C,0.150000*%
%ADD12C,0.120000*%
%ADD13C,0.250000*%
%ADD14C,0.990600*%
%ADD15C,3.200000*%
%ADD16HorizOval,1.200000X0.166671X0.249441X-0.166671X-0.249441X0*%
%ADD17HorizOval,1.200000X0.222228X0.332588X-0.222228X-0.332588X0*%
%ADD18C,0.750000*%
%ADD19R,2.600000X2.600000*%
%ADD20C,2.600000*%
%ADD21R,2.330000X2.380000*%
%ADD22R,1.100000X2.380000*%
%ADD23RotRect,2.330000X2.380000X213.750000*%
%ADD24RotRect,1.100000X2.380000X213.750000*%
%ADD25R,2.380000X2.330000*%
%ADD26R,2.380000X1.100000*%
%ADD27RotRect,2.330000X2.380000X123.750000*%
%ADD28RotRect,1.100000X2.380000X123.750000*%
%ADD29RotRect,2.330000X2.380000X157.500000*%
%ADD30RotRect,1.100000X2.380000X157.500000*%
%ADD31RotRect,2.330000X2.380000X202.500000*%
%ADD32RotRect,1.100000X2.380000X202.500000*%
%ADD33RotRect,2.330000X2.380000X225.000000*%
%ADD34RotRect,1.100000X2.380000X225.000000*%
%ADD35RotRect,2.330000X2.380000X247.500000*%
%ADD36RotRect,1.100000X2.380000X247.500000*%
%ADD37RotRect,2.330000X2.380000X315.000000*%
%ADD38RotRect,1.100000X2.380000X315.000000*%
%ADD39RotRect,2.330000X2.380000X303.750000*%
%ADD40RotRect,1.100000X2.380000X303.750000*%
%ADD41RoundRect,0.250000X-0.132583X0.503814X-0.503814X0.132583X0.132583X-0.503814X0.503814X-0.132583X0*%
%ADD42RotRect,2.330000X2.380000X292.500000*%
%ADD43RotRect,1.100000X2.380000X292.500000*%
%ADD44RotRect,2.330000X2.380000X33.750000*%
%ADD45RotRect,1.100000X2.380000X33.750000*%
%ADD46RotRect,2.330000X2.380000X168.750000*%
%ADD47RotRect,1.100000X2.380000X168.750000*%
%ADD48RotRect,2.330000X2.380000X258.750000*%
%ADD49RotRect,1.100000X2.380000X258.750000*%
%ADD50RoundRect,0.250000X-0.315291X0.414726X-0.516200X-0.070311X0.315291X-0.414726X0.516200X0.070311X0*%
%ADD51RoundRect,0.250000X0.345247X0.390142X-0.169665X0.492565X-0.345247X-0.390142X0.169665X-0.492565X0*%
%ADD52RotRect,2.330000X2.380000X348.750000*%
%ADD53RotRect,1.100000X2.380000X348.750000*%
%ADD54RotRect,2.330000X2.380000X78.750000*%
%ADD55RotRect,1.100000X2.380000X78.750000*%
G04 APERTURE END LIST*
D10*
X150620000Y-93980000D02*
G75*
G02*
X118620000Y-93980000I-16000000J0D01*
G01*
X118620000Y-93980000D02*
G75*
G02*
X150620000Y-93980000I16000000J0D01*
G01*
D11*
X138143809Y-110931438D02*
X138239047Y-110883819D01*
X138239047Y-110883819D02*
X138381904Y-110883819D01*
X138381904Y-110883819D02*
X138524761Y-110931438D01*
X138524761Y-110931438D02*
X138619999Y-111026676D01*
X138619999Y-111026676D02*
X138667618Y-111121914D01*
X138667618Y-111121914D02*
X138715237Y-111312390D01*
X138715237Y-111312390D02*
X138715237Y-111455247D01*
X138715237Y-111455247D02*
X138667618Y-111645723D01*
X138667618Y-111645723D02*
X138619999Y-111740961D01*
X138619999Y-111740961D02*
X138524761Y-111836200D01*
X138524761Y-111836200D02*
X138381904Y-111883819D01*
X138381904Y-111883819D02*
X138286666Y-111883819D01*
X138286666Y-111883819D02*
X138143809Y-111836200D01*
X138143809Y-111836200D02*
X138096190Y-111788580D01*
X138096190Y-111788580D02*
X138096190Y-111455247D01*
X138096190Y-111455247D02*
X138286666Y-111455247D01*
X137667618Y-111883819D02*
X137667618Y-110883819D01*
X137667618Y-110883819D02*
X137096190Y-111883819D01*
X137096190Y-111883819D02*
X137096190Y-110883819D01*
X136619999Y-111883819D02*
X136619999Y-110883819D01*
X136619999Y-110883819D02*
X136381904Y-110883819D01*
X136381904Y-110883819D02*
X136239047Y-110931438D01*
X136239047Y-110931438D02*
X136143809Y-111026676D01*
X136143809Y-111026676D02*
X136096190Y-111121914D01*
X136096190Y-111121914D02*
X136048571Y-111312390D01*
X136048571Y-111312390D02*
X136048571Y-111455247D01*
X136048571Y-111455247D02*
X136096190Y-111645723D01*
X136096190Y-111645723D02*
X136143809Y-111740961D01*
X136143809Y-111740961D02*
X136239047Y-111836200D01*
X136239047Y-111836200D02*
X136381904Y-111883819D01*
X136381904Y-111883819D02*
X136619999Y-111883819D01*
X134096189Y-111502866D02*
X133334285Y-111502866D01*
X133715237Y-111883819D02*
X133715237Y-111121914D01*
X132334285Y-111883819D02*
X132905713Y-111883819D01*
X132619999Y-111883819D02*
X132619999Y-110883819D01*
X132619999Y-110883819D02*
X132715237Y-111026676D01*
X132715237Y-111026676D02*
X132810475Y-111121914D01*
X132810475Y-111121914D02*
X132905713Y-111169533D01*
X131953332Y-110979057D02*
X131905713Y-110931438D01*
X131905713Y-110931438D02*
X131810475Y-110883819D01*
X131810475Y-110883819D02*
X131572380Y-110883819D01*
X131572380Y-110883819D02*
X131477142Y-110931438D01*
X131477142Y-110931438D02*
X131429523Y-110979057D01*
X131429523Y-110979057D02*
X131381904Y-111074295D01*
X131381904Y-111074295D02*
X131381904Y-111169533D01*
X131381904Y-111169533D02*
X131429523Y-111312390D01*
X131429523Y-111312390D02*
X132000951Y-111883819D01*
X132000951Y-111883819D02*
X131381904Y-111883819D01*
X131096189Y-110883819D02*
X130762856Y-111883819D01*
X130762856Y-111883819D02*
X130429523Y-110883819D01*
D12*
X135482667Y-172021593D02*
X135816000Y-172021593D01*
X135816000Y-172021593D02*
X135816000Y-171321593D01*
X135249333Y-171654926D02*
X135016000Y-171654926D01*
X134916000Y-172021593D02*
X135249333Y-172021593D01*
X135249333Y-172021593D02*
X135249333Y-171321593D01*
X135249333Y-171321593D02*
X134916000Y-171321593D01*
X134616000Y-172021593D02*
X134616000Y-171321593D01*
X134616000Y-171321593D02*
X134449333Y-171321593D01*
X134449333Y-171321593D02*
X134349333Y-171354926D01*
X134349333Y-171354926D02*
X134282667Y-171421593D01*
X134282667Y-171421593D02*
X134249333Y-171488260D01*
X134249333Y-171488260D02*
X134216000Y-171621593D01*
X134216000Y-171621593D02*
X134216000Y-171721593D01*
X134216000Y-171721593D02*
X134249333Y-171854926D01*
X134249333Y-171854926D02*
X134282667Y-171921593D01*
X134282667Y-171921593D02*
X134349333Y-171988260D01*
X134349333Y-171988260D02*
X134449333Y-172021593D01*
X134449333Y-172021593D02*
X134616000Y-172021593D01*
X133549333Y-172021593D02*
X133949333Y-172021593D01*
X133749333Y-172021593D02*
X133749333Y-171321593D01*
X133749333Y-171321593D02*
X133816000Y-171421593D01*
X133816000Y-171421593D02*
X133882667Y-171488260D01*
X133882667Y-171488260D02*
X133949333Y-171521593D01*
X132916000Y-171321593D02*
X133249333Y-171321593D01*
X133249333Y-171321593D02*
X133282666Y-171654926D01*
X133282666Y-171654926D02*
X133249333Y-171621593D01*
X133249333Y-171621593D02*
X133182666Y-171588260D01*
X133182666Y-171588260D02*
X133016000Y-171588260D01*
X133016000Y-171588260D02*
X132949333Y-171621593D01*
X132949333Y-171621593D02*
X132916000Y-171654926D01*
X132916000Y-171654926D02*
X132882666Y-171721593D01*
X132882666Y-171721593D02*
X132882666Y-171888260D01*
X132882666Y-171888260D02*
X132916000Y-171954926D01*
X132916000Y-171954926D02*
X132949333Y-171988260D01*
X132949333Y-171988260D02*
X133016000Y-172021593D01*
X133016000Y-172021593D02*
X133182666Y-172021593D01*
X133182666Y-172021593D02*
X133249333Y-171988260D01*
X133249333Y-171988260D02*
X133282666Y-171954926D01*
X103443762Y-46310872D02*
X103720919Y-46125682D01*
X103720919Y-46125682D02*
X103332020Y-45543653D01*
X103046044Y-46135633D02*
X102852034Y-46265266D01*
X102972596Y-46625696D02*
X103249753Y-46440505D01*
X103249753Y-46440505D02*
X102860853Y-45858477D01*
X102860853Y-45858477D02*
X102583697Y-46043667D01*
X102723155Y-46792366D02*
X102334256Y-46210338D01*
X102334256Y-46210338D02*
X102195678Y-46302933D01*
X102195678Y-46302933D02*
X102131050Y-46386205D01*
X102131050Y-46386205D02*
X102112657Y-46478675D01*
X102112657Y-46478675D02*
X102121979Y-46552625D01*
X102121979Y-46552625D02*
X102168340Y-46682007D01*
X102168340Y-46682007D02*
X102223897Y-46765154D01*
X102223897Y-46765154D02*
X102325688Y-46857497D01*
X102325688Y-46857497D02*
X102390442Y-46894410D01*
X102390442Y-46894410D02*
X102482911Y-46912803D01*
X102482911Y-46912803D02*
X102584577Y-46884961D01*
X102584577Y-46884961D02*
X102723155Y-46792366D01*
X101816981Y-46636149D02*
X101770747Y-46626952D01*
X101770747Y-46626952D02*
X101696796Y-46636275D01*
X101696796Y-46636275D02*
X101558218Y-46728870D01*
X101558218Y-46728870D02*
X101521306Y-46793624D01*
X101521306Y-46793624D02*
X101512109Y-46839858D01*
X101512109Y-46839858D02*
X101521431Y-46913809D01*
X101521431Y-46913809D02*
X101558469Y-46969240D01*
X101558469Y-46969240D02*
X101641742Y-47033868D01*
X101641742Y-47033868D02*
X102196558Y-47144228D01*
X102196558Y-47144228D02*
X101836255Y-47384975D01*
X62547593Y-93142733D02*
X62547593Y-92809399D01*
X62547593Y-92809399D02*
X61847593Y-92809399D01*
X62180926Y-93376066D02*
X62180926Y-93609400D01*
X62547593Y-93709400D02*
X62547593Y-93376066D01*
X62547593Y-93376066D02*
X61847593Y-93376066D01*
X61847593Y-93376066D02*
X61847593Y-93709400D01*
X62547593Y-94009399D02*
X61847593Y-94009399D01*
X61847593Y-94009399D02*
X61847593Y-94176066D01*
X61847593Y-94176066D02*
X61880926Y-94276066D01*
X61880926Y-94276066D02*
X61947593Y-94342733D01*
X61947593Y-94342733D02*
X62014260Y-94376066D01*
X62014260Y-94376066D02*
X62147593Y-94409399D01*
X62147593Y-94409399D02*
X62247593Y-94409399D01*
X62247593Y-94409399D02*
X62380926Y-94376066D01*
X62380926Y-94376066D02*
X62447593Y-94342733D01*
X62447593Y-94342733D02*
X62514260Y-94276066D01*
X62514260Y-94276066D02*
X62547593Y-94176066D01*
X62547593Y-94176066D02*
X62547593Y-94009399D01*
X61914260Y-94676066D02*
X61880926Y-94709399D01*
X61880926Y-94709399D02*
X61847593Y-94776066D01*
X61847593Y-94776066D02*
X61847593Y-94942733D01*
X61847593Y-94942733D02*
X61880926Y-95009399D01*
X61880926Y-95009399D02*
X61914260Y-95042733D01*
X61914260Y-95042733D02*
X61980926Y-95076066D01*
X61980926Y-95076066D02*
X62047593Y-95076066D01*
X62047593Y-95076066D02*
X62147593Y-95042733D01*
X62147593Y-95042733D02*
X62547593Y-94642733D01*
X62547593Y-94642733D02*
X62547593Y-95076066D01*
X61914260Y-95342733D02*
X61880926Y-95376066D01*
X61880926Y-95376066D02*
X61847593Y-95442733D01*
X61847593Y-95442733D02*
X61847593Y-95609400D01*
X61847593Y-95609400D02*
X61880926Y-95676066D01*
X61880926Y-95676066D02*
X61914260Y-95709400D01*
X61914260Y-95709400D02*
X61980926Y-95742733D01*
X61980926Y-95742733D02*
X62047593Y-95742733D01*
X62047593Y-95742733D02*
X62147593Y-95709400D01*
X62147593Y-95709400D02*
X62547593Y-95309400D01*
X62547593Y-95309400D02*
X62547593Y-95742733D01*
X182543127Y-62803762D02*
X182728317Y-63080919D01*
X182728317Y-63080919D02*
X183310346Y-62692020D01*
X182718366Y-62406044D02*
X182588733Y-62212034D01*
X182228303Y-62332596D02*
X182413494Y-62609753D01*
X182413494Y-62609753D02*
X182995522Y-62220853D01*
X182995522Y-62220853D02*
X182810332Y-61943697D01*
X182061633Y-62083155D02*
X182643661Y-61694256D01*
X182643661Y-61694256D02*
X182551066Y-61555678D01*
X182551066Y-61555678D02*
X182467794Y-61491050D01*
X182467794Y-61491050D02*
X182375324Y-61472657D01*
X182375324Y-61472657D02*
X182301374Y-61481979D01*
X182301374Y-61481979D02*
X182171992Y-61528340D01*
X182171992Y-61528340D02*
X182088845Y-61583897D01*
X182088845Y-61583897D02*
X181996502Y-61685688D01*
X181996502Y-61685688D02*
X181959589Y-61750442D01*
X181959589Y-61750442D02*
X181941196Y-61842911D01*
X181941196Y-61842911D02*
X181969038Y-61944577D01*
X181969038Y-61944577D02*
X182061633Y-62083155D01*
X181949764Y-61195752D02*
X182014518Y-61232664D01*
X182014518Y-61232664D02*
X182060753Y-61241861D01*
X182060753Y-61241861D02*
X182134703Y-61232538D01*
X182134703Y-61232538D02*
X182162419Y-61214019D01*
X182162419Y-61214019D02*
X182199331Y-61149266D01*
X182199331Y-61149266D02*
X182208527Y-61103031D01*
X182208527Y-61103031D02*
X182199205Y-61029081D01*
X182199205Y-61029081D02*
X182125129Y-60918218D01*
X182125129Y-60918218D02*
X182060375Y-60881306D01*
X182060375Y-60881306D02*
X182014141Y-60872109D01*
X182014141Y-60872109D02*
X181940190Y-60881431D01*
X181940190Y-60881431D02*
X181912475Y-60899950D01*
X181912475Y-60899950D02*
X181875563Y-60964704D01*
X181875563Y-60964704D02*
X181866366Y-61010939D01*
X181866366Y-61010939D02*
X181875688Y-61084889D01*
X181875688Y-61084889D02*
X181949764Y-61195752D01*
X181949764Y-61195752D02*
X181959087Y-61269702D01*
X181959087Y-61269702D02*
X181949890Y-61315937D01*
X181949890Y-61315937D02*
X181912978Y-61380690D01*
X181912978Y-61380690D02*
X181802115Y-61454766D01*
X181802115Y-61454766D02*
X181728165Y-61464089D01*
X181728165Y-61464089D02*
X181681930Y-61454892D01*
X181681930Y-61454892D02*
X181617176Y-61417980D01*
X181617176Y-61417980D02*
X181543100Y-61307117D01*
X181543100Y-61307117D02*
X181533778Y-61233167D01*
X181533778Y-61233167D02*
X181542975Y-61186932D01*
X181542975Y-61186932D02*
X181579887Y-61122179D01*
X181579887Y-61122179D02*
X181690750Y-61048103D01*
X181690750Y-61048103D02*
X181764700Y-61038780D01*
X181764700Y-61038780D02*
X181810935Y-61047977D01*
X181810935Y-61047977D02*
X181875688Y-61084889D01*
X162962128Y-27644747D02*
X163270087Y-27772309D01*
X163270087Y-27772309D02*
X163537966Y-27125593D01*
X162886873Y-27216699D02*
X162671301Y-27127406D01*
X162438596Y-27427893D02*
X162746555Y-27555455D01*
X162746555Y-27555455D02*
X163014434Y-26908739D01*
X163014434Y-26908739D02*
X162706474Y-26781178D01*
X162161432Y-27313088D02*
X162429310Y-26666373D01*
X162429310Y-26666373D02*
X162275330Y-26602592D01*
X162275330Y-26602592D02*
X162170186Y-26595120D01*
X162170186Y-26595120D02*
X162083082Y-26631200D01*
X162083082Y-26631200D02*
X162026774Y-26680035D01*
X162026774Y-26680035D02*
X161944954Y-26790463D01*
X161944954Y-26790463D02*
X161906685Y-26882851D01*
X161906685Y-26882851D02*
X161886457Y-27018791D01*
X161886457Y-27018791D02*
X161891740Y-27093139D01*
X161891740Y-27093139D02*
X161927820Y-27180244D01*
X161927820Y-27180244D02*
X162007452Y-27249308D01*
X162007452Y-27249308D02*
X162161432Y-27313088D01*
X161175960Y-26904893D02*
X161545512Y-27057966D01*
X161360736Y-26981429D02*
X161628615Y-26334714D01*
X161628615Y-26334714D02*
X161651938Y-26452614D01*
X161651938Y-26452614D02*
X161688018Y-26539718D01*
X161688018Y-26539718D02*
X161736854Y-26596026D01*
X161228267Y-26168884D02*
X160797123Y-25990299D01*
X160797123Y-25990299D02*
X160806408Y-26751819D01*
X165491203Y-165474088D02*
X165799163Y-165346526D01*
X165799163Y-165346526D02*
X165531284Y-164699811D01*
X165135314Y-165224625D02*
X164919742Y-165313917D01*
X164967671Y-165690942D02*
X165275631Y-165563380D01*
X165275631Y-165563380D02*
X165007752Y-164916665D01*
X165007752Y-164916665D02*
X164699793Y-165044226D01*
X164690507Y-165805746D02*
X164422629Y-165159031D01*
X164422629Y-165159031D02*
X164268649Y-165222811D01*
X164268649Y-165222811D02*
X164189017Y-165291876D01*
X164189017Y-165291876D02*
X164152937Y-165378980D01*
X164152937Y-165378980D02*
X164147654Y-165453328D01*
X164147654Y-165453328D02*
X164167882Y-165589268D01*
X164167882Y-165589268D02*
X164206151Y-165681656D01*
X164206151Y-165681656D02*
X164287971Y-165792084D01*
X164287971Y-165792084D02*
X164344279Y-165840920D01*
X164344279Y-165840920D02*
X164431383Y-165876999D01*
X164431383Y-165876999D02*
X164536527Y-165869527D01*
X164536527Y-165869527D02*
X164690507Y-165805746D01*
X163705036Y-166213942D02*
X164074588Y-166060869D01*
X163889812Y-166137405D02*
X163621933Y-165490690D01*
X163621933Y-165490690D02*
X163721794Y-165557566D01*
X163721794Y-165557566D02*
X163808898Y-165593645D01*
X163808898Y-165593645D02*
X163883246Y-165598929D01*
X162972122Y-166012409D02*
X163150708Y-166443552D01*
X163024053Y-165702260D02*
X163369375Y-166100419D01*
X163369375Y-166100419D02*
X162969027Y-166266249D01*
X190244175Y-148278969D02*
X190479877Y-148043267D01*
X190479877Y-148043267D02*
X189984902Y-147548292D01*
X189819910Y-148184688D02*
X189654919Y-148349680D01*
X189843481Y-148679663D02*
X190079183Y-148443961D01*
X190079183Y-148443961D02*
X189584208Y-147948986D01*
X189584208Y-147948986D02*
X189348506Y-148184688D01*
X189631349Y-148891795D02*
X189136374Y-148396820D01*
X189136374Y-148396820D02*
X189018523Y-148514671D01*
X189018523Y-148514671D02*
X188971383Y-148608952D01*
X188971383Y-148608952D02*
X188971383Y-148703233D01*
X188971383Y-148703233D02*
X188994953Y-148773944D01*
X188994953Y-148773944D02*
X189065663Y-148891795D01*
X189065663Y-148891795D02*
X189136374Y-148962506D01*
X189136374Y-148962506D02*
X189254225Y-149033216D01*
X189254225Y-149033216D02*
X189324936Y-149056787D01*
X189324936Y-149056787D02*
X189419217Y-149056787D01*
X189419217Y-149056787D02*
X189513498Y-149009646D01*
X189513498Y-149009646D02*
X189631349Y-148891795D01*
X188877102Y-149646042D02*
X189159944Y-149363199D01*
X189018523Y-149504621D02*
X188523548Y-149009646D01*
X188523548Y-149009646D02*
X188641399Y-149033216D01*
X188641399Y-149033216D02*
X188735680Y-149033216D01*
X188735680Y-149033216D02*
X188806391Y-149009646D01*
X188217135Y-149316059D02*
X187910722Y-149622472D01*
X187910722Y-149622472D02*
X188264275Y-149646042D01*
X188264275Y-149646042D02*
X188193565Y-149716753D01*
X188193565Y-149716753D02*
X188169995Y-149787464D01*
X188169995Y-149787464D02*
X188169995Y-149834604D01*
X188169995Y-149834604D02*
X188193565Y-149905315D01*
X188193565Y-149905315D02*
X188311416Y-150023166D01*
X188311416Y-150023166D02*
X188382127Y-150046736D01*
X188382127Y-150046736D02*
X188429267Y-150046736D01*
X188429267Y-150046736D02*
X188499978Y-150023166D01*
X188499978Y-150023166D02*
X188641399Y-149881745D01*
X188641399Y-149881745D02*
X188664969Y-149811034D01*
X188664969Y-149811034D02*
X188664969Y-149763894D01*
X68284747Y-65637871D02*
X68412309Y-65329912D01*
X68412309Y-65329912D02*
X67765593Y-65062033D01*
X67856699Y-65713126D02*
X67767406Y-65928698D01*
X68067893Y-66161403D02*
X68195455Y-65853444D01*
X68195455Y-65853444D02*
X67548739Y-65585565D01*
X67548739Y-65585565D02*
X67421178Y-65893525D01*
X67953088Y-66438567D02*
X67306373Y-66170689D01*
X67306373Y-66170689D02*
X67242592Y-66324669D01*
X67242592Y-66324669D02*
X67235120Y-66429813D01*
X67235120Y-66429813D02*
X67271200Y-66516917D01*
X67271200Y-66516917D02*
X67320035Y-66573225D01*
X67320035Y-66573225D02*
X67430463Y-66655045D01*
X67430463Y-66655045D02*
X67522851Y-66693314D01*
X67522851Y-66693314D02*
X67658791Y-66713542D01*
X67658791Y-66713542D02*
X67733139Y-66708259D01*
X67733139Y-66708259D02*
X67820244Y-66672179D01*
X67820244Y-66672179D02*
X67889308Y-66592547D01*
X67889308Y-66592547D02*
X67953088Y-66438567D01*
X67112842Y-66812121D02*
X67069290Y-66830160D01*
X67069290Y-66830160D02*
X67012982Y-66878996D01*
X67012982Y-66878996D02*
X66949202Y-67032976D01*
X66949202Y-67032976D02*
X66954485Y-67107324D01*
X66954485Y-67107324D02*
X66972525Y-67150876D01*
X66972525Y-67150876D02*
X67021361Y-67207185D01*
X67021361Y-67207185D02*
X67082953Y-67232697D01*
X67082953Y-67232697D02*
X67188097Y-67240169D01*
X67188097Y-67240169D02*
X67710722Y-67023691D01*
X67710722Y-67023691D02*
X67544893Y-67424039D01*
X67289770Y-68039959D02*
X67442844Y-67670407D01*
X67366307Y-67855183D02*
X66719591Y-67587304D01*
X66719591Y-67587304D02*
X66837492Y-67563981D01*
X66837492Y-67563981D02*
X66924596Y-67527901D01*
X66924596Y-67527901D02*
X66980904Y-67479065D01*
X84385031Y-146302175D02*
X84620733Y-146537877D01*
X84620733Y-146537877D02*
X85115708Y-146042902D01*
X84479312Y-145877910D02*
X84314320Y-145712919D01*
X83984337Y-145901481D02*
X84220039Y-146137183D01*
X84220039Y-146137183D02*
X84715014Y-145642208D01*
X84715014Y-145642208D02*
X84479312Y-145406506D01*
X83772205Y-145689349D02*
X84267180Y-145194374D01*
X84267180Y-145194374D02*
X84149329Y-145076523D01*
X84149329Y-145076523D02*
X84055048Y-145029383D01*
X84055048Y-145029383D02*
X83960767Y-145029383D01*
X83960767Y-145029383D02*
X83890056Y-145052953D01*
X83890056Y-145052953D02*
X83772205Y-145123663D01*
X83772205Y-145123663D02*
X83701494Y-145194374D01*
X83701494Y-145194374D02*
X83630784Y-145312225D01*
X83630784Y-145312225D02*
X83607213Y-145382936D01*
X83607213Y-145382936D02*
X83607213Y-145477217D01*
X83607213Y-145477217D02*
X83654354Y-145571498D01*
X83654354Y-145571498D02*
X83772205Y-145689349D01*
X83748635Y-144770110D02*
X83748635Y-144722970D01*
X83748635Y-144722970D02*
X83725065Y-144652259D01*
X83725065Y-144652259D02*
X83607213Y-144534408D01*
X83607213Y-144534408D02*
X83536503Y-144510838D01*
X83536503Y-144510838D02*
X83489362Y-144510838D01*
X83489362Y-144510838D02*
X83418652Y-144534408D01*
X83418652Y-144534408D02*
X83371511Y-144581548D01*
X83371511Y-144581548D02*
X83324371Y-144675829D01*
X83324371Y-144675829D02*
X83324371Y-145241515D01*
X83324371Y-145241515D02*
X83017958Y-144935102D01*
X82923677Y-144180854D02*
X82593693Y-144510837D01*
X83230090Y-144110143D02*
X82994387Y-144581548D01*
X82994387Y-144581548D02*
X82687974Y-144275135D01*
X107833203Y-26790088D02*
X108141163Y-26662526D01*
X108141163Y-26662526D02*
X107873284Y-26015811D01*
X107477314Y-26540625D02*
X107261742Y-26629917D01*
X107309671Y-27006942D02*
X107617631Y-26879380D01*
X107617631Y-26879380D02*
X107349752Y-26232665D01*
X107349752Y-26232665D02*
X107041793Y-26360226D01*
X107032507Y-27121746D02*
X106764629Y-26475031D01*
X106764629Y-26475031D02*
X106610649Y-26538811D01*
X106610649Y-26538811D02*
X106531017Y-26607876D01*
X106531017Y-26607876D02*
X106494937Y-26694980D01*
X106494937Y-26694980D02*
X106489654Y-26769328D01*
X106489654Y-26769328D02*
X106509882Y-26905268D01*
X106509882Y-26905268D02*
X106548151Y-26997656D01*
X106548151Y-26997656D02*
X106629971Y-27108084D01*
X106629971Y-27108084D02*
X106686279Y-27156920D01*
X106686279Y-27156920D02*
X106773383Y-27192999D01*
X106773383Y-27192999D02*
X106878527Y-27185527D01*
X106878527Y-27185527D02*
X107032507Y-27121746D01*
X106047036Y-27529942D02*
X106416588Y-27376869D01*
X106231812Y-27453405D02*
X105963933Y-26806690D01*
X105963933Y-26806690D02*
X106063794Y-26873566D01*
X106063794Y-26873566D02*
X106150898Y-26909645D01*
X106150898Y-26909645D02*
X106225246Y-26914929D01*
X105739076Y-27657503D02*
X105615892Y-27708528D01*
X105615892Y-27708528D02*
X105541544Y-27703244D01*
X105541544Y-27703244D02*
X105497992Y-27685204D01*
X105497992Y-27685204D02*
X105398131Y-27618329D01*
X105398131Y-27618329D02*
X105316311Y-27507901D01*
X105316311Y-27507901D02*
X105214262Y-27261533D01*
X105214262Y-27261533D02*
X105219546Y-27187185D01*
X105219546Y-27187185D02*
X105237586Y-27143633D01*
X105237586Y-27143633D02*
X105286421Y-27087324D01*
X105286421Y-27087324D02*
X105409605Y-27036300D01*
X105409605Y-27036300D02*
X105483953Y-27041584D01*
X105483953Y-27041584D02*
X105527506Y-27059624D01*
X105527506Y-27059624D02*
X105583814Y-27108459D01*
X105583814Y-27108459D02*
X105647594Y-27262439D01*
X105647594Y-27262439D02*
X105642311Y-27336787D01*
X105642311Y-27336787D02*
X105624271Y-27380340D01*
X105624271Y-27380340D02*
X105575435Y-27436648D01*
X105575435Y-27436648D02*
X105452251Y-27487672D01*
X105452251Y-27487672D02*
X105377903Y-27482388D01*
X105377903Y-27482388D02*
X105334351Y-27464349D01*
X105334351Y-27464349D02*
X105278043Y-27415513D01*
X87293127Y-126811762D02*
X87478317Y-127088919D01*
X87478317Y-127088919D02*
X88060346Y-126700020D01*
X87468366Y-126414044D02*
X87338733Y-126220034D01*
X86978303Y-126340596D02*
X87163494Y-126617753D01*
X87163494Y-126617753D02*
X87745522Y-126228853D01*
X87745522Y-126228853D02*
X87560332Y-125951697D01*
X86811633Y-126091155D02*
X87393661Y-125702256D01*
X87393661Y-125702256D02*
X87301066Y-125563678D01*
X87301066Y-125563678D02*
X87217794Y-125499050D01*
X87217794Y-125499050D02*
X87125324Y-125480657D01*
X87125324Y-125480657D02*
X87051374Y-125489979D01*
X87051374Y-125489979D02*
X86921992Y-125536340D01*
X86921992Y-125536340D02*
X86838845Y-125591897D01*
X86838845Y-125591897D02*
X86746502Y-125693688D01*
X86746502Y-125693688D02*
X86709589Y-125758442D01*
X86709589Y-125758442D02*
X86691196Y-125850911D01*
X86691196Y-125850911D02*
X86719038Y-125952577D01*
X86719038Y-125952577D02*
X86811633Y-126091155D01*
X86644082Y-125000420D02*
X86256062Y-125259686D01*
X86958402Y-124990846D02*
X86635262Y-125407209D01*
X86635262Y-125407209D02*
X86394515Y-125046906D01*
X84326176Y-42360969D02*
X84561878Y-42125267D01*
X84561878Y-42125267D02*
X84066903Y-41630292D01*
X83901911Y-42266688D02*
X83736920Y-42431680D01*
X83925482Y-42761663D02*
X84161184Y-42525961D01*
X84161184Y-42525961D02*
X83666209Y-42030986D01*
X83666209Y-42030986D02*
X83430507Y-42266688D01*
X83713350Y-42973795D02*
X83218375Y-42478820D01*
X83218375Y-42478820D02*
X83100524Y-42596671D01*
X83100524Y-42596671D02*
X83053384Y-42690952D01*
X83053384Y-42690952D02*
X83053384Y-42785233D01*
X83053384Y-42785233D02*
X83076954Y-42855944D01*
X83076954Y-42855944D02*
X83147664Y-42973795D01*
X83147664Y-42973795D02*
X83218375Y-43044506D01*
X83218375Y-43044506D02*
X83336226Y-43115216D01*
X83336226Y-43115216D02*
X83406937Y-43138787D01*
X83406937Y-43138787D02*
X83501218Y-43138787D01*
X83501218Y-43138787D02*
X83595499Y-43091646D01*
X83595499Y-43091646D02*
X83713350Y-42973795D01*
X82794111Y-42997365D02*
X82746971Y-42997365D01*
X82746971Y-42997365D02*
X82676260Y-43020935D01*
X82676260Y-43020935D02*
X82558409Y-43138787D01*
X82558409Y-43138787D02*
X82534839Y-43209497D01*
X82534839Y-43209497D02*
X82534839Y-43256638D01*
X82534839Y-43256638D02*
X82558409Y-43327348D01*
X82558409Y-43327348D02*
X82605549Y-43374489D01*
X82605549Y-43374489D02*
X82699830Y-43421629D01*
X82699830Y-43421629D02*
X83265516Y-43421629D01*
X83265516Y-43421629D02*
X82959103Y-43728042D01*
X82157715Y-43539481D02*
X82110574Y-43586621D01*
X82110574Y-43586621D02*
X82087004Y-43657332D01*
X82087004Y-43657332D02*
X82087004Y-43704472D01*
X82087004Y-43704472D02*
X82110574Y-43775183D01*
X82110574Y-43775183D02*
X82181285Y-43893034D01*
X82181285Y-43893034D02*
X82299136Y-44010885D01*
X82299136Y-44010885D02*
X82416987Y-44081596D01*
X82416987Y-44081596D02*
X82487698Y-44105166D01*
X82487698Y-44105166D02*
X82534838Y-44105166D01*
X82534838Y-44105166D02*
X82605549Y-44081596D01*
X82605549Y-44081596D02*
X82652689Y-44034455D01*
X82652689Y-44034455D02*
X82676260Y-43963745D01*
X82676260Y-43963745D02*
X82676260Y-43916604D01*
X82676260Y-43916604D02*
X82652689Y-43845894D01*
X82652689Y-43845894D02*
X82581979Y-43728042D01*
X82581979Y-43728042D02*
X82464128Y-43610191D01*
X82464128Y-43610191D02*
X82346276Y-43539481D01*
X82346276Y-43539481D02*
X82275566Y-43515910D01*
X82275566Y-43515910D02*
X82228425Y-43515910D01*
X82228425Y-43515910D02*
X82157715Y-43539481D01*
X206714747Y-123041871D02*
X206842309Y-122733912D01*
X206842309Y-122733912D02*
X206195593Y-122466033D01*
X206286699Y-123117126D02*
X206197406Y-123332698D01*
X206497893Y-123565403D02*
X206625455Y-123257444D01*
X206625455Y-123257444D02*
X205978739Y-122989565D01*
X205978739Y-122989565D02*
X205851178Y-123297525D01*
X206383088Y-123842567D02*
X205736373Y-123574689D01*
X205736373Y-123574689D02*
X205672592Y-123728669D01*
X205672592Y-123728669D02*
X205665120Y-123833813D01*
X205665120Y-123833813D02*
X205701200Y-123920917D01*
X205701200Y-123920917D02*
X205750035Y-123977225D01*
X205750035Y-123977225D02*
X205860463Y-124059045D01*
X205860463Y-124059045D02*
X205952851Y-124097314D01*
X205952851Y-124097314D02*
X206088791Y-124117542D01*
X206088791Y-124117542D02*
X206163139Y-124112259D01*
X206163139Y-124112259D02*
X206250244Y-124076179D01*
X206250244Y-124076179D02*
X206319308Y-123996547D01*
X206319308Y-123996547D02*
X206383088Y-123842567D01*
X205974893Y-124828039D02*
X206127966Y-124458487D01*
X206051429Y-124643263D02*
X205404714Y-124375384D01*
X205404714Y-124375384D02*
X205522614Y-124352061D01*
X205522614Y-124352061D02*
X205609718Y-124315981D01*
X205609718Y-124315981D02*
X205666026Y-124267145D01*
X205287720Y-124832041D02*
X205244168Y-124850080D01*
X205244168Y-124850080D02*
X205187860Y-124898916D01*
X205187860Y-124898916D02*
X205124079Y-125052896D01*
X205124079Y-125052896D02*
X205129363Y-125127244D01*
X205129363Y-125127244D02*
X205147403Y-125170796D01*
X205147403Y-125170796D02*
X205196239Y-125227105D01*
X205196239Y-125227105D02*
X205257831Y-125252617D01*
X205257831Y-125252617D02*
X205362975Y-125260089D01*
X205362975Y-125260089D02*
X205885600Y-125043611D01*
X205885600Y-125043611D02*
X205719770Y-125443959D01*
X185220741Y-37075350D02*
X185150031Y-36674657D01*
X185503584Y-36792508D02*
X185008609Y-36297533D01*
X185008609Y-36297533D02*
X184820048Y-36486095D01*
X184820048Y-36486095D02*
X184796477Y-36556805D01*
X184796477Y-36556805D02*
X184796477Y-36603946D01*
X184796477Y-36603946D02*
X184820048Y-36674657D01*
X184820048Y-36674657D02*
X184890758Y-36745367D01*
X184890758Y-36745367D02*
X184961469Y-36768937D01*
X184961469Y-36768937D02*
X185008609Y-36768937D01*
X185008609Y-36768937D02*
X185079320Y-36745367D01*
X185079320Y-36745367D02*
X185267882Y-36556805D01*
X184301503Y-37004640D02*
X184395784Y-36910359D01*
X184395784Y-36910359D02*
X184466494Y-36886789D01*
X184466494Y-36886789D02*
X184513635Y-36886789D01*
X184513635Y-36886789D02*
X184631486Y-36910359D01*
X184631486Y-36910359D02*
X184749337Y-36981069D01*
X184749337Y-36981069D02*
X184937899Y-37169631D01*
X184937899Y-37169631D02*
X184961469Y-37240342D01*
X184961469Y-37240342D02*
X184961469Y-37287482D01*
X184961469Y-37287482D02*
X184937899Y-37358193D01*
X184937899Y-37358193D02*
X184843618Y-37452474D01*
X184843618Y-37452474D02*
X184772907Y-37476044D01*
X184772907Y-37476044D02*
X184725767Y-37476044D01*
X184725767Y-37476044D02*
X184655056Y-37452474D01*
X184655056Y-37452474D02*
X184537205Y-37334623D01*
X184537205Y-37334623D02*
X184513635Y-37263912D01*
X184513635Y-37263912D02*
X184513635Y-37216772D01*
X184513635Y-37216772D02*
X184537205Y-37146061D01*
X184537205Y-37146061D02*
X184631486Y-37051780D01*
X184631486Y-37051780D02*
X184702196Y-37028210D01*
X184702196Y-37028210D02*
X184749337Y-37028210D01*
X184749337Y-37028210D02*
X184820048Y-37051780D01*
X212407593Y-93117333D02*
X212407593Y-92783999D01*
X212407593Y-92783999D02*
X211707593Y-92783999D01*
X212040926Y-93350666D02*
X212040926Y-93584000D01*
X212407593Y-93684000D02*
X212407593Y-93350666D01*
X212407593Y-93350666D02*
X211707593Y-93350666D01*
X211707593Y-93350666D02*
X211707593Y-93684000D01*
X212407593Y-93983999D02*
X211707593Y-93983999D01*
X211707593Y-93983999D02*
X211707593Y-94150666D01*
X211707593Y-94150666D02*
X211740926Y-94250666D01*
X211740926Y-94250666D02*
X211807593Y-94317333D01*
X211807593Y-94317333D02*
X211874260Y-94350666D01*
X211874260Y-94350666D02*
X212007593Y-94383999D01*
X212007593Y-94383999D02*
X212107593Y-94383999D01*
X212107593Y-94383999D02*
X212240926Y-94350666D01*
X212240926Y-94350666D02*
X212307593Y-94317333D01*
X212307593Y-94317333D02*
X212374260Y-94250666D01*
X212374260Y-94250666D02*
X212407593Y-94150666D01*
X212407593Y-94150666D02*
X212407593Y-93983999D01*
X212407593Y-95050666D02*
X212407593Y-94650666D01*
X212407593Y-94850666D02*
X211707593Y-94850666D01*
X211707593Y-94850666D02*
X211807593Y-94783999D01*
X211807593Y-94783999D02*
X211874260Y-94717333D01*
X211874260Y-94717333D02*
X211907593Y-94650666D01*
X212407593Y-95717333D02*
X212407593Y-95317333D01*
X212407593Y-95517333D02*
X211707593Y-95517333D01*
X211707593Y-95517333D02*
X211807593Y-95450666D01*
X211807593Y-95450666D02*
X211874260Y-95384000D01*
X211874260Y-95384000D02*
X211907593Y-95317333D01*
X105558128Y-166328747D02*
X105866087Y-166456309D01*
X105866087Y-166456309D02*
X106133966Y-165809593D01*
X105482873Y-165900699D02*
X105267301Y-165811406D01*
X105034596Y-166111893D02*
X105342555Y-166239455D01*
X105342555Y-166239455D02*
X105610434Y-165592739D01*
X105610434Y-165592739D02*
X105302474Y-165465178D01*
X104757432Y-165997088D02*
X105025310Y-165350373D01*
X105025310Y-165350373D02*
X104871330Y-165286592D01*
X104871330Y-165286592D02*
X104766186Y-165279120D01*
X104766186Y-165279120D02*
X104679082Y-165315200D01*
X104679082Y-165315200D02*
X104622774Y-165364035D01*
X104622774Y-165364035D02*
X104540954Y-165474463D01*
X104540954Y-165474463D02*
X104502685Y-165566851D01*
X104502685Y-165566851D02*
X104482457Y-165702791D01*
X104482457Y-165702791D02*
X104487740Y-165777139D01*
X104487740Y-165777139D02*
X104523820Y-165864244D01*
X104523820Y-165864244D02*
X104603452Y-165933308D01*
X104603452Y-165933308D02*
X104757432Y-165997088D01*
X103771960Y-165588893D02*
X104141512Y-165741966D01*
X103956736Y-165665429D02*
X104224615Y-165018714D01*
X104224615Y-165018714D02*
X104247938Y-165136614D01*
X104247938Y-165136614D02*
X104284018Y-165223718D01*
X104284018Y-165223718D02*
X104332854Y-165280026D01*
X103485511Y-164712567D02*
X103608695Y-164763591D01*
X103608695Y-164763591D02*
X103657531Y-164819900D01*
X103657531Y-164819900D02*
X103675571Y-164863452D01*
X103675571Y-164863452D02*
X103698894Y-164981352D01*
X103698894Y-164981352D02*
X103678666Y-165117292D01*
X103678666Y-165117292D02*
X103576617Y-165363660D01*
X103576617Y-165363660D02*
X103520309Y-165412496D01*
X103520309Y-165412496D02*
X103476756Y-165430536D01*
X103476756Y-165430536D02*
X103402408Y-165435819D01*
X103402408Y-165435819D02*
X103279224Y-165384795D01*
X103279224Y-165384795D02*
X103230389Y-165328487D01*
X103230389Y-165328487D02*
X103212349Y-165284935D01*
X103212349Y-165284935D02*
X103207065Y-165210586D01*
X103207065Y-165210586D02*
X103270846Y-165056607D01*
X103270846Y-165056607D02*
X103327154Y-165007771D01*
X103327154Y-165007771D02*
X103370706Y-164989731D01*
X103370706Y-164989731D02*
X103445054Y-164984447D01*
X103445054Y-164984447D02*
X103568238Y-165035472D01*
X103568238Y-165035472D02*
X103617074Y-165091780D01*
X103617074Y-165091780D02*
X103635114Y-165135332D01*
X103635114Y-165135332D02*
X103640397Y-165209680D01*
X67697911Y-123073203D02*
X67825473Y-123381163D01*
X67825473Y-123381163D02*
X68472188Y-123113284D01*
X67947374Y-122717314D02*
X67858082Y-122501742D01*
X67481057Y-122549671D02*
X67608619Y-122857631D01*
X67608619Y-122857631D02*
X68255334Y-122589752D01*
X68255334Y-122589752D02*
X68127773Y-122281793D01*
X67366253Y-122272507D02*
X68012968Y-122004629D01*
X68012968Y-122004629D02*
X67949188Y-121850649D01*
X67949188Y-121850649D02*
X67880123Y-121771017D01*
X67880123Y-121771017D02*
X67793019Y-121734937D01*
X67793019Y-121734937D02*
X67718671Y-121729654D01*
X67718671Y-121729654D02*
X67582731Y-121749882D01*
X67582731Y-121749882D02*
X67490343Y-121788151D01*
X67490343Y-121788151D02*
X67379915Y-121869971D01*
X67379915Y-121869971D02*
X67331079Y-121926279D01*
X67331079Y-121926279D02*
X67295000Y-122013383D01*
X67295000Y-122013383D02*
X67302472Y-122118527D01*
X67302472Y-122118527D02*
X67366253Y-122272507D01*
X67696254Y-121414222D02*
X67714294Y-121370669D01*
X67714294Y-121370669D02*
X67719578Y-121296321D01*
X67719578Y-121296321D02*
X67655797Y-121142341D01*
X67655797Y-121142341D02*
X67599489Y-121093506D01*
X67599489Y-121093506D02*
X67555937Y-121075466D01*
X67555937Y-121075466D02*
X67481589Y-121070182D01*
X67481589Y-121070182D02*
X67419997Y-121095694D01*
X67419997Y-121095694D02*
X67340365Y-121164759D01*
X67340365Y-121164759D02*
X67123886Y-121687384D01*
X67123886Y-121687384D02*
X66958057Y-121287036D01*
X67515480Y-120803585D02*
X67349650Y-120403237D01*
X67349650Y-120403237D02*
X67192575Y-120720858D01*
X67192575Y-120720858D02*
X67154307Y-120628470D01*
X67154307Y-120628470D02*
X67097998Y-120579634D01*
X67097998Y-120579634D02*
X67054446Y-120561595D01*
X67054446Y-120561595D02*
X66980098Y-120556311D01*
X66980098Y-120556311D02*
X66826118Y-120620091D01*
X66826118Y-120620091D02*
X66777283Y-120676400D01*
X66777283Y-120676400D02*
X66759243Y-120719952D01*
X66759243Y-120719952D02*
X66753959Y-120794300D01*
X66753959Y-120794300D02*
X66830496Y-120979076D01*
X66830496Y-120979076D02*
X66886804Y-121027912D01*
X66886804Y-121027912D02*
X66930356Y-121045951D01*
X135736667Y-21653593D02*
X136070000Y-21653593D01*
X136070000Y-21653593D02*
X136070000Y-20953593D01*
X135503333Y-21286926D02*
X135270000Y-21286926D01*
X135170000Y-21653593D02*
X135503333Y-21653593D01*
X135503333Y-21653593D02*
X135503333Y-20953593D01*
X135503333Y-20953593D02*
X135170000Y-20953593D01*
X134870000Y-21653593D02*
X134870000Y-20953593D01*
X134870000Y-20953593D02*
X134703333Y-20953593D01*
X134703333Y-20953593D02*
X134603333Y-20986926D01*
X134603333Y-20986926D02*
X134536667Y-21053593D01*
X134536667Y-21053593D02*
X134503333Y-21120260D01*
X134503333Y-21120260D02*
X134470000Y-21253593D01*
X134470000Y-21253593D02*
X134470000Y-21353593D01*
X134470000Y-21353593D02*
X134503333Y-21486926D01*
X134503333Y-21486926D02*
X134536667Y-21553593D01*
X134536667Y-21553593D02*
X134603333Y-21620260D01*
X134603333Y-21620260D02*
X134703333Y-21653593D01*
X134703333Y-21653593D02*
X134870000Y-21653593D01*
X133803333Y-21653593D02*
X134203333Y-21653593D01*
X134003333Y-21653593D02*
X134003333Y-20953593D01*
X134003333Y-20953593D02*
X134070000Y-21053593D01*
X134070000Y-21053593D02*
X134136667Y-21120260D01*
X134136667Y-21120260D02*
X134203333Y-21153593D01*
X133403333Y-21253593D02*
X133470000Y-21220260D01*
X133470000Y-21220260D02*
X133503333Y-21186926D01*
X133503333Y-21186926D02*
X133536666Y-21120260D01*
X133536666Y-21120260D02*
X133536666Y-21086926D01*
X133536666Y-21086926D02*
X133503333Y-21020260D01*
X133503333Y-21020260D02*
X133470000Y-20986926D01*
X133470000Y-20986926D02*
X133403333Y-20953593D01*
X133403333Y-20953593D02*
X133270000Y-20953593D01*
X133270000Y-20953593D02*
X133203333Y-20986926D01*
X133203333Y-20986926D02*
X133170000Y-21020260D01*
X133170000Y-21020260D02*
X133136666Y-21086926D01*
X133136666Y-21086926D02*
X133136666Y-21120260D01*
X133136666Y-21120260D02*
X133170000Y-21186926D01*
X133170000Y-21186926D02*
X133203333Y-21220260D01*
X133203333Y-21220260D02*
X133270000Y-21253593D01*
X133270000Y-21253593D02*
X133403333Y-21253593D01*
X133403333Y-21253593D02*
X133470000Y-21286926D01*
X133470000Y-21286926D02*
X133503333Y-21320260D01*
X133503333Y-21320260D02*
X133536666Y-21386926D01*
X133536666Y-21386926D02*
X133536666Y-21520260D01*
X133536666Y-21520260D02*
X133503333Y-21586926D01*
X133503333Y-21586926D02*
X133470000Y-21620260D01*
X133470000Y-21620260D02*
X133403333Y-21653593D01*
X133403333Y-21653593D02*
X133270000Y-21653593D01*
X133270000Y-21653593D02*
X133203333Y-21620260D01*
X133203333Y-21620260D02*
X133170000Y-21586926D01*
X133170000Y-21586926D02*
X133136666Y-21520260D01*
X133136666Y-21520260D02*
X133136666Y-21386926D01*
X133136666Y-21386926D02*
X133170000Y-21320260D01*
X133170000Y-21320260D02*
X133203333Y-21286926D01*
X133203333Y-21286926D02*
X133270000Y-21253593D01*
X167451762Y-141560872D02*
X167728919Y-141375682D01*
X167728919Y-141375682D02*
X167340020Y-140793653D01*
X167054044Y-141385633D02*
X166860034Y-141515266D01*
X166980596Y-141875696D02*
X167257753Y-141690505D01*
X167257753Y-141690505D02*
X166868853Y-141108477D01*
X166868853Y-141108477D02*
X166591697Y-141293667D01*
X166731155Y-142042366D02*
X166342256Y-141460338D01*
X166342256Y-141460338D02*
X166203678Y-141552933D01*
X166203678Y-141552933D02*
X166139050Y-141636205D01*
X166139050Y-141636205D02*
X166120657Y-141728675D01*
X166120657Y-141728675D02*
X166129979Y-141802625D01*
X166129979Y-141802625D02*
X166176340Y-141932007D01*
X166176340Y-141932007D02*
X166231897Y-142015154D01*
X166231897Y-142015154D02*
X166333688Y-142107497D01*
X166333688Y-142107497D02*
X166398442Y-142144410D01*
X166398442Y-142144410D02*
X166490911Y-142162803D01*
X166490911Y-142162803D02*
X166592577Y-142134961D01*
X166592577Y-142134961D02*
X166731155Y-142042366D01*
X165510787Y-142015908D02*
X165621649Y-141941832D01*
X165621649Y-141941832D02*
X165695600Y-141932510D01*
X165695600Y-141932510D02*
X165741834Y-141941706D01*
X165741834Y-141941706D02*
X165852823Y-141987815D01*
X165852823Y-141987815D02*
X165954614Y-142080159D01*
X165954614Y-142080159D02*
X166102766Y-142301884D01*
X166102766Y-142301884D02*
X166112089Y-142375834D01*
X166112089Y-142375834D02*
X166102892Y-142422069D01*
X166102892Y-142422069D02*
X166065980Y-142486823D01*
X166065980Y-142486823D02*
X165955117Y-142560899D01*
X165955117Y-142560899D02*
X165881167Y-142570221D01*
X165881167Y-142570221D02*
X165834932Y-142561024D01*
X165834932Y-142561024D02*
X165770179Y-142524112D01*
X165770179Y-142524112D02*
X165677584Y-142385534D01*
X165677584Y-142385534D02*
X165668261Y-142311583D01*
X165668261Y-142311583D02*
X165677458Y-142265349D01*
X165677458Y-142265349D02*
X165714370Y-142200595D01*
X165714370Y-142200595D02*
X165825233Y-142126519D01*
X165825233Y-142126519D02*
X165899183Y-142117197D01*
X165899183Y-142117197D02*
X165945418Y-142126393D01*
X165945418Y-142126393D02*
X166010171Y-142163306D01*
X146502322Y-37802311D02*
X146829250Y-37867341D01*
X146829250Y-37867341D02*
X146965813Y-37180791D01*
X146345004Y-37397169D02*
X146116155Y-37351648D01*
X145946543Y-37691760D02*
X146273471Y-37756790D01*
X146273471Y-37756790D02*
X146410035Y-37070240D01*
X146410035Y-37070240D02*
X146083106Y-37005210D01*
X145652308Y-37633233D02*
X145788871Y-36946683D01*
X145788871Y-36946683D02*
X145625407Y-36914168D01*
X145625407Y-36914168D02*
X145520825Y-36927352D01*
X145520825Y-36927352D02*
X145442433Y-36979731D01*
X145442433Y-36979731D02*
X145396735Y-37038614D01*
X145396735Y-37038614D02*
X145338030Y-37162883D01*
X145338030Y-37162883D02*
X145318521Y-37260961D01*
X145318521Y-37260961D02*
X145325201Y-37398235D01*
X145325201Y-37398235D02*
X145344888Y-37470124D01*
X145344888Y-37470124D02*
X145397268Y-37548516D01*
X145397268Y-37548516D02*
X145488843Y-37600718D01*
X145488843Y-37600718D02*
X145652308Y-37633233D01*
X144606137Y-37425136D02*
X144998451Y-37503173D01*
X144802294Y-37464154D02*
X144938857Y-36777605D01*
X144938857Y-36777605D02*
X144984734Y-36888689D01*
X144984734Y-36888689D02*
X145037113Y-36967081D01*
X145037113Y-36967081D02*
X145095996Y-37012780D01*
X78950311Y-82097677D02*
X79015341Y-81770749D01*
X79015341Y-81770749D02*
X78328791Y-81634186D01*
X78545169Y-82254995D02*
X78499648Y-82483844D01*
X78839760Y-82653456D02*
X78904790Y-82326528D01*
X78904790Y-82326528D02*
X78218240Y-82189964D01*
X78218240Y-82189964D02*
X78153210Y-82516893D01*
X78781233Y-82947691D02*
X78094683Y-82811128D01*
X78094683Y-82811128D02*
X78062168Y-82974592D01*
X78062168Y-82974592D02*
X78075352Y-83079174D01*
X78075352Y-83079174D02*
X78127731Y-83157566D01*
X78127731Y-83157566D02*
X78186614Y-83203264D01*
X78186614Y-83203264D02*
X78310883Y-83261969D01*
X78310883Y-83261969D02*
X78408961Y-83281478D01*
X78408961Y-83281478D02*
X78546235Y-83274798D01*
X78546235Y-83274798D02*
X78618124Y-83255111D01*
X78618124Y-83255111D02*
X78696516Y-83202731D01*
X78696516Y-83202731D02*
X78748718Y-83111156D01*
X78748718Y-83111156D02*
X78781233Y-82947691D01*
X77971126Y-83432292D02*
X77886587Y-83857299D01*
X77886587Y-83857299D02*
X78193651Y-83680473D01*
X78193651Y-83680473D02*
X78174142Y-83778552D01*
X78174142Y-83778552D02*
X78193828Y-83850440D01*
X78193828Y-83850440D02*
X78220018Y-83889636D01*
X78220018Y-83889636D02*
X78278901Y-83935335D01*
X78278901Y-83935335D02*
X78442365Y-83967850D01*
X78442365Y-83967850D02*
X78514254Y-83948163D01*
X78514254Y-83948163D02*
X78553450Y-83921974D01*
X78553450Y-83921974D02*
X78599148Y-83863091D01*
X78599148Y-83863091D02*
X78638167Y-83666934D01*
X78638167Y-83666934D02*
X78618480Y-83595045D01*
X78618480Y-83595045D02*
X78592290Y-83555849D01*
X168740064Y-25667752D02*
X168521397Y-25324619D01*
X168893137Y-25298200D02*
X168246421Y-25030321D01*
X168246421Y-25030321D02*
X168144373Y-25276689D01*
X168144373Y-25276689D02*
X168149656Y-25351037D01*
X168149656Y-25351037D02*
X168167696Y-25394589D01*
X168167696Y-25394589D02*
X168216532Y-25450898D01*
X168216532Y-25450898D02*
X168308920Y-25489166D01*
X168308920Y-25489166D02*
X168383268Y-25483882D01*
X168383268Y-25483882D02*
X168426820Y-25465842D01*
X168426820Y-25465842D02*
X168483128Y-25417006D01*
X168483128Y-25417006D02*
X168585177Y-25170639D01*
X168004055Y-25615445D02*
X167825470Y-26046589D01*
X167825470Y-26046589D02*
X168586990Y-26037303D01*
X206635911Y-65669203D02*
X206763473Y-65977163D01*
X206763473Y-65977163D02*
X207410188Y-65709284D01*
X206885374Y-65313314D02*
X206796082Y-65097742D01*
X206419057Y-65145671D02*
X206546619Y-65453631D01*
X206546619Y-65453631D02*
X207193334Y-65185752D01*
X207193334Y-65185752D02*
X207065773Y-64877793D01*
X206304253Y-64868507D02*
X206950968Y-64600629D01*
X206950968Y-64600629D02*
X206887188Y-64446649D01*
X206887188Y-64446649D02*
X206818123Y-64367017D01*
X206818123Y-64367017D02*
X206731019Y-64330937D01*
X206731019Y-64330937D02*
X206656671Y-64325654D01*
X206656671Y-64325654D02*
X206520731Y-64345882D01*
X206520731Y-64345882D02*
X206428343Y-64384151D01*
X206428343Y-64384151D02*
X206317915Y-64465971D01*
X206317915Y-64465971D02*
X206269079Y-64522279D01*
X206269079Y-64522279D02*
X206233000Y-64609383D01*
X206233000Y-64609383D02*
X206240472Y-64714527D01*
X206240472Y-64714527D02*
X206304253Y-64868507D01*
X205896057Y-63883036D02*
X206049130Y-64252588D01*
X205972594Y-64067812D02*
X206619309Y-63799933D01*
X206619309Y-63799933D02*
X206552433Y-63899794D01*
X206552433Y-63899794D02*
X206516354Y-63986898D01*
X206516354Y-63986898D02*
X206511070Y-64061246D01*
X206376943Y-63214809D02*
X206351431Y-63153217D01*
X206351431Y-63153217D02*
X206295122Y-63104382D01*
X206295122Y-63104382D02*
X206251570Y-63086342D01*
X206251570Y-63086342D02*
X206177222Y-63081058D01*
X206177222Y-63081058D02*
X206041282Y-63101286D01*
X206041282Y-63101286D02*
X205887302Y-63165067D01*
X205887302Y-63165067D02*
X205776874Y-63246887D01*
X205776874Y-63246887D02*
X205728039Y-63303196D01*
X205728039Y-63303196D02*
X205709999Y-63346748D01*
X205709999Y-63346748D02*
X205704715Y-63421096D01*
X205704715Y-63421096D02*
X205730227Y-63482688D01*
X205730227Y-63482688D02*
X205786535Y-63531524D01*
X205786535Y-63531524D02*
X205830088Y-63549564D01*
X205830088Y-63549564D02*
X205904436Y-63554847D01*
X205904436Y-63554847D02*
X206040376Y-63534619D01*
X206040376Y-63534619D02*
X206194356Y-63470838D01*
X206194356Y-63470838D02*
X206304783Y-63389018D01*
X206304783Y-63389018D02*
X206353619Y-63332710D01*
X206353619Y-63332710D02*
X206371659Y-63289157D01*
X206371659Y-63289157D02*
X206376943Y-63214809D01*
X189813327Y-40148472D02*
X190049029Y-40384174D01*
X190049029Y-40384174D02*
X190544004Y-39889199D01*
X189907608Y-39724208D02*
X189742616Y-39559216D01*
X189412633Y-39747778D02*
X189648335Y-39983480D01*
X189648335Y-39983480D02*
X190143310Y-39488505D01*
X190143310Y-39488505D02*
X189907608Y-39252803D01*
X189200501Y-39535646D02*
X189695476Y-39040671D01*
X189695476Y-39040671D02*
X189577625Y-38922820D01*
X189577625Y-38922820D02*
X189483344Y-38875680D01*
X189483344Y-38875680D02*
X189389063Y-38875680D01*
X189389063Y-38875680D02*
X189318352Y-38899250D01*
X189318352Y-38899250D02*
X189200501Y-38969961D01*
X189200501Y-38969961D02*
X189129791Y-39040671D01*
X189129791Y-39040671D02*
X189059080Y-39158522D01*
X189059080Y-39158522D02*
X189035510Y-39229233D01*
X189035510Y-39229233D02*
X189035510Y-39323514D01*
X189035510Y-39323514D02*
X189082650Y-39417795D01*
X189082650Y-39417795D02*
X189200501Y-39535646D01*
X188681956Y-39017101D02*
X188587675Y-38922820D01*
X188587675Y-38922820D02*
X188564105Y-38852110D01*
X188564105Y-38852110D02*
X188564105Y-38804969D01*
X188564105Y-38804969D02*
X188587675Y-38687118D01*
X188587675Y-38687118D02*
X188658386Y-38569267D01*
X188658386Y-38569267D02*
X188846948Y-38380705D01*
X188846948Y-38380705D02*
X188917659Y-38357135D01*
X188917659Y-38357135D02*
X188964799Y-38357135D01*
X188964799Y-38357135D02*
X189035510Y-38380705D01*
X189035510Y-38380705D02*
X189129791Y-38474986D01*
X189129791Y-38474986D02*
X189153361Y-38545697D01*
X189153361Y-38545697D02*
X189153361Y-38592837D01*
X189153361Y-38592837D02*
X189129791Y-38663548D01*
X189129791Y-38663548D02*
X189011939Y-38781399D01*
X189011939Y-38781399D02*
X188941229Y-38804969D01*
X188941229Y-38804969D02*
X188894088Y-38804969D01*
X188894088Y-38804969D02*
X188823378Y-38781399D01*
X188823378Y-38781399D02*
X188729097Y-38687118D01*
X188729097Y-38687118D02*
X188705527Y-38616407D01*
X188705527Y-38616407D02*
X188705527Y-38569267D01*
X188705527Y-38569267D02*
X188729097Y-38498556D01*
X151219364Y-34820955D02*
X151513244Y-34539547D01*
X151611678Y-34898991D02*
X151748241Y-34212441D01*
X151748241Y-34212441D02*
X151486698Y-34160417D01*
X151486698Y-34160417D02*
X151414810Y-34180104D01*
X151414810Y-34180104D02*
X151375614Y-34206294D01*
X151375614Y-34206294D02*
X151329915Y-34265177D01*
X151329915Y-34265177D02*
X151310406Y-34363255D01*
X151310406Y-34363255D02*
X151330093Y-34435144D01*
X151330093Y-34435144D02*
X151356283Y-34474340D01*
X151356283Y-34474340D02*
X151415165Y-34520038D01*
X151415165Y-34520038D02*
X151676708Y-34572063D01*
X150734763Y-34010848D02*
X151061691Y-34075878D01*
X151061691Y-34075878D02*
X151029354Y-34409309D01*
X151029354Y-34409309D02*
X151003164Y-34370114D01*
X151003164Y-34370114D02*
X150944282Y-34324415D01*
X150944282Y-34324415D02*
X150780817Y-34291900D01*
X150780817Y-34291900D02*
X150708929Y-34311587D01*
X150708929Y-34311587D02*
X150669733Y-34337776D01*
X150669733Y-34337776D02*
X150624034Y-34396659D01*
X150624034Y-34396659D02*
X150591519Y-34560123D01*
X150591519Y-34560123D02*
X150611206Y-34632012D01*
X150611206Y-34632012D02*
X150637396Y-34671208D01*
X150637396Y-34671208D02*
X150696278Y-34716907D01*
X150696278Y-34716907D02*
X150859742Y-34749422D01*
X150859742Y-34749422D02*
X150931631Y-34729735D01*
X150931631Y-34729735D02*
X150970827Y-34703545D01*
X124404322Y-150832311D02*
X124731250Y-150897341D01*
X124731250Y-150897341D02*
X124867813Y-150210791D01*
X124247004Y-150427169D02*
X124018155Y-150381648D01*
X123848543Y-150721760D02*
X124175471Y-150786790D01*
X124175471Y-150786790D02*
X124312035Y-150100240D01*
X124312035Y-150100240D02*
X123985106Y-150035210D01*
X123554308Y-150663233D02*
X123690871Y-149976683D01*
X123690871Y-149976683D02*
X123527407Y-149944168D01*
X123527407Y-149944168D02*
X123422825Y-149957352D01*
X123422825Y-149957352D02*
X123344433Y-150009731D01*
X123344433Y-150009731D02*
X123298735Y-150068614D01*
X123298735Y-150068614D02*
X123240030Y-150192883D01*
X123240030Y-150192883D02*
X123220521Y-150290961D01*
X123220521Y-150290961D02*
X123227201Y-150428235D01*
X123227201Y-150428235D02*
X123246888Y-150500124D01*
X123246888Y-150500124D02*
X123299268Y-150578516D01*
X123299268Y-150578516D02*
X123390843Y-150630718D01*
X123390843Y-150630718D02*
X123554308Y-150663233D01*
X122677393Y-149775090D02*
X123004321Y-149840120D01*
X123004321Y-149840120D02*
X122971984Y-150173551D01*
X122971984Y-150173551D02*
X122945794Y-150134355D01*
X122945794Y-150134355D02*
X122886911Y-150088657D01*
X122886911Y-150088657D02*
X122723447Y-150056142D01*
X122723447Y-150056142D02*
X122651559Y-150075828D01*
X122651559Y-150075828D02*
X122612363Y-150102018D01*
X122612363Y-150102018D02*
X122566664Y-150160901D01*
X122566664Y-150160901D02*
X122534149Y-150324365D01*
X122534149Y-150324365D02*
X122553836Y-150396254D01*
X122553836Y-150396254D02*
X122580025Y-150435450D01*
X122580025Y-150435450D02*
X122638908Y-150481148D01*
X122638908Y-150481148D02*
X122802372Y-150513664D01*
X122802372Y-150513664D02*
X122874261Y-150493977D01*
X122874261Y-150493977D02*
X122913457Y-150467787D01*
X191472311Y-104198734D02*
X191537341Y-103871806D01*
X191537341Y-103871806D02*
X190850791Y-103735243D01*
X191067169Y-104356052D02*
X191021648Y-104584901D01*
X191361760Y-104754513D02*
X191426790Y-104427585D01*
X191426790Y-104427585D02*
X190740240Y-104291021D01*
X190740240Y-104291021D02*
X190675210Y-104617950D01*
X191303233Y-105048748D02*
X190616683Y-104912185D01*
X190616683Y-104912185D02*
X190584168Y-105075649D01*
X190584168Y-105075649D02*
X190597352Y-105180231D01*
X190597352Y-105180231D02*
X190649731Y-105258623D01*
X190649731Y-105258623D02*
X190708614Y-105304321D01*
X190708614Y-105304321D02*
X190832883Y-105363026D01*
X190832883Y-105363026D02*
X190930961Y-105382535D01*
X190930961Y-105382535D02*
X191068235Y-105375855D01*
X191068235Y-105375855D02*
X191140124Y-105356168D01*
X191140124Y-105356168D02*
X191218516Y-105303788D01*
X191218516Y-105303788D02*
X191270718Y-105212213D01*
X191270718Y-105212213D02*
X191303233Y-105048748D01*
X190493126Y-105533349D02*
X190402084Y-105991049D01*
X190402084Y-105991049D02*
X191147161Y-105833377D01*
D13*
%TO.C,LED15*%
X132549999Y-167580001D02*
X132710001Y-167580001D01*
X132710001Y-167580001D02*
X136010000Y-167580001D01*
X132730000Y-170380001D02*
X132710001Y-170380001D01*
X136010000Y-170380001D02*
X132730000Y-170380001D01*
%TO.C,LED2*%
X98786846Y-44077796D02*
X98919882Y-43988904D01*
X98919882Y-43988904D02*
X101663730Y-42155523D01*
X100492105Y-46305908D02*
X100475478Y-46317019D01*
X103219327Y-44483638D02*
X100492105Y-46305908D01*
%TO.C,LED22*%
X58220000Y-95890000D02*
X58220000Y-92590000D01*
X58220000Y-96049999D02*
X58220000Y-95890000D01*
X61019999Y-95870000D02*
X61020000Y-95890000D01*
X61020000Y-92590000D02*
X61019999Y-95870000D01*
%TO.C,LED8*%
X182294092Y-59852105D02*
X182282981Y-59835478D01*
X184116362Y-62579327D02*
X182294092Y-59852105D01*
X184522204Y-58146846D02*
X184611096Y-58279882D01*
X184611096Y-58279882D02*
X186444477Y-61023730D01*
%TO.C,LED17*%
X161039368Y-25259194D02*
X161020890Y-25251541D01*
X161944584Y-22603449D02*
X162092404Y-22664678D01*
X162092404Y-22664678D02*
X165141206Y-23927534D01*
X164069693Y-26514396D02*
X161039368Y-25259194D01*
%TO.C,LED14*%
X160873070Y-162769689D02*
X161020892Y-162708459D01*
X161020892Y-162708459D02*
X164069694Y-161445604D01*
X162110882Y-165287668D02*
X162092405Y-165295321D01*
X165141207Y-164032466D02*
X162110882Y-165287668D01*
%TO.C,LED13*%
X185199348Y-147486771D02*
X185312486Y-147373633D01*
X185312486Y-147373633D02*
X187645938Y-145040181D01*
X187306527Y-149339390D02*
X187292385Y-149353532D01*
X189625837Y-147020080D02*
X187306527Y-149339390D01*
%TO.C,LED21*%
X63243449Y-66655416D02*
X63304678Y-66507596D01*
X63304678Y-66507596D02*
X64567534Y-63458794D01*
X65899194Y-67560632D02*
X65891541Y-67579110D01*
X67154396Y-64530307D02*
X65899194Y-67560632D01*
%TO.C,LED24*%
X81594063Y-145040181D02*
X83913373Y-147359492D01*
X81947616Y-149353533D02*
X79614165Y-147020080D01*
X82060753Y-149466669D02*
X81947616Y-149353533D01*
X83913373Y-147359492D02*
X83927516Y-147373634D01*
%TO.C,LED19*%
X103470555Y-24187758D02*
X103618375Y-24126529D01*
X103618375Y-24126529D02*
X106667178Y-22863674D01*
X104708366Y-26705737D02*
X104689889Y-26713392D01*
X107738691Y-25450536D02*
X104708366Y-26705737D01*
%TO.C,LED4*%
X84628904Y-129680118D02*
X82795523Y-126936270D01*
X84717796Y-129813154D02*
X84628904Y-129680118D01*
X85123638Y-125380673D02*
X86945908Y-128107895D01*
X86945908Y-128107895D02*
X86957019Y-128124522D01*
%TO.C,LED20*%
X79133331Y-41420753D02*
X79246467Y-41307616D01*
X79246467Y-41307616D02*
X81579920Y-38974165D01*
X81240508Y-43273373D02*
X81226366Y-43287516D01*
X83559819Y-40954063D02*
X81240508Y-43273373D01*
%TO.C,LED12*%
X201825379Y-124057932D02*
X201886609Y-123910111D01*
X201886609Y-123910111D02*
X203149464Y-120861309D01*
X204481125Y-124963147D02*
X204473471Y-124981624D01*
X205736326Y-121932822D02*
X204481125Y-124963147D01*
D12*
%TO.C,R6*%
X185400118Y-37740835D02*
X185721235Y-37419718D01*
X186439565Y-38780282D02*
X186760682Y-38459165D01*
D13*
%TO.C,LED11*%
X208220001Y-95889999D02*
X208220001Y-92590000D01*
X208220001Y-96050001D02*
X208220001Y-95889999D01*
X211020001Y-92590000D02*
X211020001Y-95870000D01*
X211020001Y-95870000D02*
X211020001Y-95889999D01*
%TO.C,LED16*%
X103636853Y-163841125D02*
X103618376Y-163833471D01*
X104542068Y-161185379D02*
X104689889Y-161246609D01*
X104689889Y-161246609D02*
X107738691Y-162509464D01*
X106667178Y-165096326D02*
X103636853Y-163841125D01*
%TO.C,LED23*%
X64766529Y-124981625D02*
X63503674Y-121932822D01*
X64827758Y-125129445D02*
X64766529Y-124981625D01*
X66090536Y-120861309D02*
X67345737Y-123891634D01*
X67345737Y-123891634D02*
X67353392Y-123910111D01*
%TO.C,LED18*%
X132550001Y-17580000D02*
X132710000Y-17580000D01*
X132710000Y-17580000D02*
X136010000Y-17580000D01*
X132730000Y-20379999D02*
X132710000Y-20380000D01*
X136010000Y-20380000D02*
X132730000Y-20379999D01*
%TO.C,LED6*%
X166020673Y-143476362D02*
X168747895Y-141654092D01*
X168747895Y-141654092D02*
X168764522Y-141642981D01*
X170320118Y-143971096D02*
X167576270Y-145804477D01*
X170453154Y-143882204D02*
X170320118Y-143971096D01*
%TO.C,LED1*%
X144198609Y-36137261D02*
X144178993Y-36133360D01*
X144568320Y-33355947D02*
X144725246Y-33387161D01*
X144725246Y-33387161D02*
X147961837Y-34030959D01*
X147415584Y-36777158D02*
X144198609Y-36137261D01*
%TO.C,LED3*%
X73995947Y-84031680D02*
X74027161Y-83874754D01*
X74027161Y-83874754D02*
X74670959Y-80638163D01*
X76777261Y-84401391D02*
X76773360Y-84421007D01*
X77417158Y-81184416D02*
X76777261Y-84401391D01*
D12*
%TO.C,R7*%
X166079055Y-24983507D02*
X166252842Y-24563948D01*
X167437158Y-25546052D02*
X167610945Y-25126493D01*
D13*
%TO.C,LED10*%
X203348459Y-67579108D02*
X202085604Y-64530306D01*
X203409689Y-67726930D02*
X203348459Y-67579108D01*
X204672466Y-63458793D02*
X205927668Y-66489118D01*
X205927668Y-66489118D02*
X205935321Y-66507595D01*
%TO.C,LED9*%
X187660080Y-38974163D02*
X189979390Y-41293473D01*
X188013633Y-43287514D02*
X185680181Y-40954062D01*
X188126771Y-43400652D02*
X188013633Y-43287514D01*
X189979390Y-41293473D02*
X189993532Y-41307615D01*
D12*
%TO.C,R5*%
X150478908Y-36781579D02*
X150924310Y-36870175D01*
X150765690Y-35339825D02*
X151211092Y-35428421D01*
D13*
%TO.C,LED5*%
X121824416Y-151182842D02*
X125041391Y-151822739D01*
X124514754Y-154572839D02*
X121278163Y-153929041D01*
X124671680Y-154604053D02*
X124514754Y-154572839D01*
X125041391Y-151822739D02*
X125061007Y-151826640D01*
%TO.C,LED7*%
X191822842Y-106775584D02*
X192462739Y-103558609D01*
X192462739Y-103558609D02*
X192466640Y-103538993D01*
X195212839Y-104085246D02*
X194569041Y-107321837D01*
X195244053Y-103928320D02*
X195212839Y-104085246D01*
%TD*%
%LPC*%
D14*
%TO.C,J3*%
X131521200Y-61087000D03*
X131521200Y-63119000D03*
X136601200Y-62103000D03*
%TD*%
D15*
%TO.C,H1*%
X124620000Y-93980000D03*
%TD*%
D16*
%TO.C,J2*%
X181054441Y-32291631D03*
X173853915Y-27480392D03*
D17*
X171531631Y-30955936D03*
X178732158Y-35767173D03*
D18*
X172998418Y-31334666D03*
X177820944Y-34556974D03*
%TD*%
D19*
%TO.C,J1*%
X132080000Y-114300000D03*
D20*
X137080000Y-114300000D03*
%TD*%
D15*
%TO.C,H2*%
X144620000Y-93980000D03*
%TD*%
D21*
%TO.C,LED15*%
X133530001Y-168980001D03*
D22*
X135709999Y-168980001D03*
%TD*%
D23*
%TO.C,LED2*%
X100379484Y-44697394D03*
D24*
X102192088Y-43486252D03*
%TD*%
D25*
%TO.C,LED22*%
X59620000Y-95070000D03*
D26*
X59620000Y-92890000D03*
%TD*%
D27*
%TO.C,LED8*%
X183902606Y-59739484D03*
D28*
X185113748Y-61552088D03*
%TD*%
D29*
%TO.C,LED17*%
X162314228Y-24271910D03*
D30*
X164328286Y-25106160D03*
%TD*%
D31*
%TO.C,LED14*%
X162314230Y-163688090D03*
D32*
X164328286Y-162853840D03*
%TD*%
D33*
%TO.C,LED13*%
X186882263Y-147783755D03*
D34*
X188423755Y-146242263D03*
%TD*%
D35*
%TO.C,LED21*%
X64911910Y-66285772D03*
D36*
X65746160Y-64271714D03*
%TD*%
D37*
%TO.C,LED24*%
X82357739Y-147783756D03*
D38*
X80816245Y-146242262D03*
%TD*%
D31*
%TO.C,LED19*%
X104911713Y-25106160D03*
D32*
X106925771Y-24271910D03*
%TD*%
D39*
%TO.C,LED4*%
X85337394Y-128220516D03*
D40*
X84126252Y-126407912D03*
%TD*%
D33*
%TO.C,LED20*%
X80816244Y-41717739D03*
D34*
X82357738Y-40176245D03*
%TD*%
D35*
%TO.C,LED12*%
X203493840Y-123688286D03*
D36*
X204328090Y-121674230D03*
%TD*%
D41*
%TO.C,R6*%
X186725635Y-37454765D03*
X185435165Y-38745235D03*
%TD*%
D25*
%TO.C,LED11*%
X209620001Y-95069999D03*
D26*
X209620001Y-92890001D03*
%TD*%
D29*
%TO.C,LED16*%
X104911714Y-162853840D03*
D30*
X106925770Y-163688090D03*
%TD*%
D42*
%TO.C,LED23*%
X65746160Y-123688287D03*
D43*
X64911910Y-121674229D03*
%TD*%
D21*
%TO.C,LED18*%
X133530000Y-18980000D03*
D22*
X135710000Y-18980000D03*
%TD*%
D44*
%TO.C,LED6*%
X168860516Y-143262606D03*
D45*
X167047912Y-144473748D03*
%TD*%
D46*
%TO.C,LED1*%
X145256363Y-34920234D03*
D47*
X147394475Y-35345532D03*
%TD*%
D48*
%TO.C,LED3*%
X75560234Y-83343637D03*
D49*
X75985532Y-81205525D03*
%TD*%
D50*
%TO.C,R7*%
X167194198Y-24211960D03*
X166495802Y-25898040D03*
%TD*%
D42*
%TO.C,LED10*%
X204328090Y-66285770D03*
D43*
X203493840Y-64271714D03*
%TD*%
D37*
%TO.C,LED9*%
X188423755Y-41717737D03*
D38*
X186882263Y-40176245D03*
%TD*%
D51*
%TO.C,R5*%
X151739967Y-36283020D03*
X149950033Y-35926980D03*
%TD*%
D52*
%TO.C,LED5*%
X123983637Y-153039766D03*
D53*
X121845525Y-152614468D03*
%TD*%
D54*
%TO.C,LED7*%
X193679766Y-104616363D03*
D55*
X193254468Y-106754475D03*
%TD*%
%LPD*%
M02*
