%TF.GenerationSoftware,KiCad,Pcbnew,8.0.1*%
%TF.CreationDate,2024-04-03T22:21:12+02:00*%
%TF.ProjectId,LEDTischLampe,4c454454-6973-4636-984c-616d70652e6b,rev?*%
%TF.SameCoordinates,Original*%
%TF.FileFunction,Paste,Top*%
%TF.FilePolarity,Positive*%
%FSLAX46Y46*%
G04 Gerber Fmt 4.6, Leading zero omitted, Abs format (unit mm)*
G04 Created by KiCad (PCBNEW 8.0.1) date 2024-04-03 22:21:12*
%MOMM*%
%LPD*%
G01*
G04 APERTURE LIST*
G04 Aperture macros list*
%AMRotRect*
0 Rectangle, with rotation*
0 The origin of the aperture is its center*
0 $1 length*
0 $2 width*
0 $3 Rotation angle, in degrees counterclockwise*
0 Add horizontal line*
21,1,$1,$2,0,0,$3*%
G04 Aperture macros list end*
%ADD10RotRect,1.500000X1.000000X210.000000*%
%ADD11RotRect,1.500000X1.000000X120.000000*%
%ADD12R,1.000000X1.500000*%
%ADD13RotRect,1.500000X1.000000X330.000000*%
%ADD14RotRect,1.500000X1.000000X150.000000*%
%ADD15RotRect,1.500000X1.000000X240.000000*%
%ADD16RotRect,1.500000X1.000000X30.000000*%
%ADD17R,1.500000X1.000000*%
%ADD18RotRect,1.500000X1.000000X60.000000*%
%ADD19R,1.500000X0.900000*%
%ADD20R,0.900000X1.500000*%
%ADD21R,1.050000X1.050000*%
%ADD22RotRect,1.500000X1.000000X300.000000*%
G04 APERTURE END LIST*
D10*
%TO.C,D6*%
X105579999Y-55153561D03*
X107179999Y-57924843D03*
X111423523Y-55474843D03*
X109823523Y-52703561D03*
%TD*%
D11*
%TO.C,D5*%
X169817621Y-75936476D03*
X167046339Y-77536476D03*
X169496339Y-81780000D03*
X172267621Y-80180000D03*
%TD*%
D12*
%TO.C,D8*%
X170180002Y-98880000D03*
X173380002Y-98880000D03*
X173380002Y-93980000D03*
X170180002Y-93980000D03*
%TD*%
D13*
%TO.C,D6*%
X117780000Y-142471282D03*
X119380000Y-139700000D03*
X115136476Y-137250000D03*
X113536476Y-140021282D03*
%TD*%
D12*
%TO.C,D5*%
X95860001Y-101600000D03*
X99060001Y-101600000D03*
X99060001Y-96700000D03*
X95860001Y-96700000D03*
%TD*%
D13*
%TO.C,D7*%
X112200000Y-152136124D03*
X113800000Y-149364842D03*
X109556476Y-146914842D03*
X107956476Y-149686124D03*
%TD*%
D14*
%TO.C,D8*%
X167640000Y-30480000D03*
X166040000Y-33251282D03*
X170283524Y-35701282D03*
X171883524Y-32930000D03*
%TD*%
D12*
%TO.C,D5*%
X203200001Y-98879999D03*
X206400001Y-98879999D03*
X206400001Y-93979999D03*
X203200001Y-93979999D03*
%TD*%
D15*
%TO.C,D7*%
X79003876Y-69020000D03*
X81775158Y-70620000D03*
X84225158Y-66376476D03*
X81453876Y-64776476D03*
%TD*%
D16*
%TO.C,D5*%
X153999999Y-126052463D03*
X152399999Y-123281181D03*
X148156475Y-125731181D03*
X149756475Y-128502463D03*
%TD*%
D17*
%TO.C,D6*%
X137070000Y-34620000D03*
X137070000Y-31420000D03*
X132170000Y-31420000D03*
X132170000Y-34620000D03*
%TD*%
%TO.C,D7*%
X137160000Y-154059999D03*
X137160000Y-150859999D03*
X132260000Y-150859999D03*
X132260000Y-154059999D03*
%TD*%
D10*
%TO.C,D8*%
X94150000Y-35356222D03*
X95750000Y-38127504D03*
X99993524Y-35677504D03*
X98393524Y-32906222D03*
%TD*%
D12*
%TO.C,D6*%
X85700000Y-101600000D03*
X88900000Y-101600000D03*
X88900000Y-96700000D03*
X85700000Y-96700000D03*
%TD*%
D11*
%TO.C,D7*%
X188281282Y-65276476D03*
X185510000Y-66876476D03*
X187960000Y-71120000D03*
X190731282Y-69520000D03*
%TD*%
D15*
%TO.C,D5*%
X97467537Y-79680000D03*
X100238819Y-81280000D03*
X102688819Y-77036476D03*
X99917537Y-75436476D03*
%TD*%
D10*
%TO.C,D5*%
X110660000Y-63952380D03*
X112260000Y-66723662D03*
X116503524Y-64273662D03*
X114903524Y-61502380D03*
%TD*%
D18*
%TO.C,D8*%
X195288621Y-129869999D03*
X192517339Y-128269999D03*
X190067339Y-132513523D03*
X192838621Y-134113523D03*
%TD*%
D15*
%TO.C,D6*%
X88668718Y-74600000D03*
X91440000Y-76200000D03*
X93890000Y-71956476D03*
X91118718Y-70356476D03*
%TD*%
%TO.C,D8*%
X68871379Y-63170001D03*
X71642661Y-64770001D03*
X74092661Y-60526477D03*
X71321379Y-58926477D03*
%TD*%
D19*
%TO.C,U1*%
X104452500Y-89180000D03*
X104452500Y-90450000D03*
X104452500Y-91720000D03*
X104452500Y-92990000D03*
X104452500Y-94260000D03*
X104452500Y-95530000D03*
X104452500Y-96800000D03*
X104452500Y-98070000D03*
X104452500Y-99340000D03*
X104452500Y-100610000D03*
X104452500Y-101880000D03*
X104452500Y-103150000D03*
X104452500Y-104420000D03*
X104452500Y-105690000D03*
D20*
X107492500Y-106940000D03*
X108762500Y-106940000D03*
X110032500Y-106940000D03*
X111302500Y-106940000D03*
X112572500Y-106940000D03*
X113842500Y-106940000D03*
X115112500Y-106940000D03*
X116382500Y-106940000D03*
X117652500Y-106940000D03*
X118922500Y-106940000D03*
D19*
X121952500Y-105690000D03*
X121952500Y-104420000D03*
X121952500Y-103150000D03*
X121952500Y-101880000D03*
X121952500Y-100610000D03*
X121952500Y-99340000D03*
X121952500Y-98070000D03*
X121952500Y-96800000D03*
X121952500Y-95530000D03*
X121952500Y-94260000D03*
X121952500Y-92990000D03*
X121952500Y-91720000D03*
X121952500Y-90450000D03*
X121952500Y-89180000D03*
D21*
X110997500Y-94995000D03*
X110997500Y-96520000D03*
X110997500Y-98045000D03*
X112522500Y-94995000D03*
X112522500Y-96520000D03*
X112522500Y-98045000D03*
X114047500Y-94995000D03*
X114047500Y-96520000D03*
X114047500Y-98045000D03*
%TD*%
D17*
%TO.C,D5*%
X137070000Y-24460000D03*
X137070000Y-21260000D03*
X132170000Y-21260000D03*
X132170000Y-24460000D03*
%TD*%
D18*
%TO.C,D7*%
X185156124Y-124020000D03*
X182384842Y-122420000D03*
X179934842Y-126663524D03*
X182706124Y-128263524D03*
%TD*%
D17*
%TO.C,D7*%
X137070000Y-45780000D03*
X137070000Y-42580000D03*
X132170000Y-42580000D03*
X132170000Y-45780000D03*
%TD*%
D14*
%TO.C,D5*%
X151130001Y-59076158D03*
X149530001Y-61847440D03*
X153773525Y-64297440D03*
X155373525Y-61526158D03*
%TD*%
D13*
%TO.C,D8*%
X106350001Y-162268621D03*
X107950001Y-159497339D03*
X103706477Y-157047339D03*
X102106477Y-159818621D03*
%TD*%
D11*
%TO.C,D6*%
X178616439Y-70856475D03*
X175845157Y-72456475D03*
X178295157Y-76699999D03*
X181066439Y-75099999D03*
%TD*%
D18*
%TO.C,D5*%
X166692463Y-113360000D03*
X163921181Y-111760000D03*
X161471181Y-116003524D03*
X164242463Y-117603524D03*
%TD*%
D11*
%TO.C,D8*%
X198413779Y-59426476D03*
X195642497Y-61026476D03*
X198092497Y-65270000D03*
X200863779Y-63670000D03*
%TD*%
D16*
%TO.C,D7*%
X164659999Y-144516124D03*
X163059999Y-141744842D03*
X158816475Y-144194842D03*
X160416475Y-146966124D03*
%TD*%
D12*
%TO.C,D8*%
X62840002Y-101600000D03*
X66040002Y-101600000D03*
X66040002Y-96700000D03*
X62840002Y-96700000D03*
%TD*%
D14*
%TO.C,D6*%
X156210000Y-50277340D03*
X154610000Y-53048622D03*
X158853524Y-55498622D03*
X160453524Y-52727340D03*
%TD*%
D17*
%TO.C,D5*%
X137160000Y-132739999D03*
X137160000Y-129539999D03*
X132260000Y-129539999D03*
X132260000Y-132739999D03*
%TD*%
D22*
%TO.C,D5*%
X105087537Y-120979999D03*
X107858819Y-119379999D03*
X105408819Y-115136475D03*
X102637537Y-116736475D03*
%TD*%
%TO.C,D8*%
X76491379Y-137489999D03*
X79262661Y-135889999D03*
X76812661Y-131646475D03*
X74041379Y-133246475D03*
%TD*%
D13*
%TO.C,D5*%
X122860000Y-133672463D03*
X124460000Y-130901181D03*
X120216476Y-128451181D03*
X118616476Y-131222463D03*
%TD*%
D17*
%TO.C,D6*%
X137160000Y-142900000D03*
X137160000Y-139700000D03*
X132260000Y-139700000D03*
X132260000Y-142900000D03*
%TD*%
D22*
%TO.C,D6*%
X96288718Y-126060000D03*
X99060000Y-124460000D03*
X96610000Y-120216476D03*
X93838718Y-121816476D03*
%TD*%
D12*
%TO.C,D6*%
X193040000Y-98880000D03*
X196240000Y-98880000D03*
X196240000Y-93980000D03*
X193040000Y-93980000D03*
%TD*%
D17*
%TO.C,D8*%
X137070000Y-57480000D03*
X137070000Y-54280000D03*
X132170000Y-54280000D03*
X132170000Y-57480000D03*
%TD*%
D16*
%TO.C,D6*%
X159080000Y-134851282D03*
X157480000Y-132080000D03*
X153236476Y-134530000D03*
X154836476Y-137301282D03*
%TD*%
D12*
%TO.C,D7*%
X74540001Y-101600000D03*
X77740001Y-101600000D03*
X77740001Y-96700000D03*
X74540001Y-96700000D03*
%TD*%
D16*
%TO.C,D8*%
X170509999Y-154648621D03*
X168909999Y-151877339D03*
X164666475Y-154327339D03*
X166266475Y-157098621D03*
%TD*%
D22*
%TO.C,D7*%
X86623876Y-131639999D03*
X89395158Y-130039999D03*
X86945158Y-125796475D03*
X84173876Y-127396475D03*
%TD*%
D12*
%TO.C,D7*%
X181880001Y-98879999D03*
X185080001Y-98879999D03*
X185080001Y-93979999D03*
X181880001Y-93979999D03*
%TD*%
D17*
%TO.C,D8*%
X137160000Y-165759998D03*
X137160000Y-162559998D03*
X132260000Y-162559998D03*
X132260000Y-165759998D03*
%TD*%
D18*
%TO.C,D6*%
X175491282Y-118440000D03*
X172720000Y-116840000D03*
X170270000Y-121083524D03*
X173041282Y-122683524D03*
%TD*%
D10*
%TO.C,D7*%
X100000000Y-45488718D03*
X101600000Y-48260000D03*
X105843524Y-45810000D03*
X104243524Y-43038718D03*
%TD*%
D14*
%TO.C,D7*%
X161790000Y-40612497D03*
X160190000Y-43383779D03*
X164433524Y-45833779D03*
X166033524Y-43062497D03*
%TD*%
M02*
