%TF.GenerationSoftware,KiCad,Pcbnew,8.0.5*%
%TF.CreationDate,2024-10-09T23:57:25+02:00*%
%TF.ProjectId,LEDTischLampe,4c454454-6973-4636-984c-616d70652e6b,rev?*%
%TF.SameCoordinates,Original*%
%TF.FileFunction,Other,Comment*%
%FSLAX46Y46*%
G04 Gerber Fmt 4.6, Leading zero omitted, Abs format (unit mm)*
G04 Created by KiCad (PCBNEW 8.0.5) date 2024-10-09 23:57:25*
%MOMM*%
%LPD*%
G01*
G04 APERTURE LIST*
%ADD10C,0.100000*%
%ADD11C,0.150000*%
%ADD12C,0.070000*%
%ADD13C,0.200000*%
%ADD14C,0.250000*%
G04 APERTURE END LIST*
D10*
X122081904Y-82973909D02*
X121843809Y-82973909D01*
X121843809Y-82973909D02*
X121820000Y-83212004D01*
X121820000Y-83212004D02*
X121843809Y-83188195D01*
X121843809Y-83188195D02*
X121891428Y-83164385D01*
X121891428Y-83164385D02*
X122010476Y-83164385D01*
X122010476Y-83164385D02*
X122058095Y-83188195D01*
X122058095Y-83188195D02*
X122081904Y-83212004D01*
X122081904Y-83212004D02*
X122105714Y-83259623D01*
X122105714Y-83259623D02*
X122105714Y-83378671D01*
X122105714Y-83378671D02*
X122081904Y-83426290D01*
X122081904Y-83426290D02*
X122058095Y-83450100D01*
X122058095Y-83450100D02*
X122010476Y-83473909D01*
X122010476Y-83473909D02*
X121891428Y-83473909D01*
X121891428Y-83473909D02*
X121843809Y-83450100D01*
X121843809Y-83450100D02*
X121820000Y-83426290D01*
X122700951Y-83473909D02*
X122700951Y-83140576D01*
X122700951Y-83188195D02*
X122724761Y-83164385D01*
X122724761Y-83164385D02*
X122772380Y-83140576D01*
X122772380Y-83140576D02*
X122843808Y-83140576D01*
X122843808Y-83140576D02*
X122891427Y-83164385D01*
X122891427Y-83164385D02*
X122915237Y-83212004D01*
X122915237Y-83212004D02*
X122915237Y-83473909D01*
X122915237Y-83212004D02*
X122939046Y-83164385D01*
X122939046Y-83164385D02*
X122986665Y-83140576D01*
X122986665Y-83140576D02*
X123058094Y-83140576D01*
X123058094Y-83140576D02*
X123105713Y-83164385D01*
X123105713Y-83164385D02*
X123129523Y-83212004D01*
X123129523Y-83212004D02*
X123129523Y-83473909D01*
X123367618Y-83473909D02*
X123367618Y-83140576D01*
X123367618Y-83188195D02*
X123391428Y-83164385D01*
X123391428Y-83164385D02*
X123439047Y-83140576D01*
X123439047Y-83140576D02*
X123510475Y-83140576D01*
X123510475Y-83140576D02*
X123558094Y-83164385D01*
X123558094Y-83164385D02*
X123581904Y-83212004D01*
X123581904Y-83212004D02*
X123581904Y-83473909D01*
X123581904Y-83212004D02*
X123605713Y-83164385D01*
X123605713Y-83164385D02*
X123653332Y-83140576D01*
X123653332Y-83140576D02*
X123724761Y-83140576D01*
X123724761Y-83140576D02*
X123772380Y-83164385D01*
X123772380Y-83164385D02*
X123796190Y-83212004D01*
X123796190Y-83212004D02*
X123796190Y-83473909D01*
D11*
X131858095Y-82216904D02*
X132334285Y-82216904D01*
X131762857Y-82502619D02*
X132096190Y-81502619D01*
X132096190Y-81502619D02*
X132429523Y-82502619D01*
X132762857Y-81835952D02*
X132762857Y-82502619D01*
X132762857Y-81931190D02*
X132810476Y-81883571D01*
X132810476Y-81883571D02*
X132905714Y-81835952D01*
X132905714Y-81835952D02*
X133048571Y-81835952D01*
X133048571Y-81835952D02*
X133143809Y-81883571D01*
X133143809Y-81883571D02*
X133191428Y-81978809D01*
X133191428Y-81978809D02*
X133191428Y-82502619D01*
X133524762Y-81835952D02*
X133905714Y-81835952D01*
X133667619Y-81502619D02*
X133667619Y-82359761D01*
X133667619Y-82359761D02*
X133715238Y-82455000D01*
X133715238Y-82455000D02*
X133810476Y-82502619D01*
X133810476Y-82502619D02*
X133905714Y-82502619D01*
X134620000Y-82455000D02*
X134524762Y-82502619D01*
X134524762Y-82502619D02*
X134334286Y-82502619D01*
X134334286Y-82502619D02*
X134239048Y-82455000D01*
X134239048Y-82455000D02*
X134191429Y-82359761D01*
X134191429Y-82359761D02*
X134191429Y-81978809D01*
X134191429Y-81978809D02*
X134239048Y-81883571D01*
X134239048Y-81883571D02*
X134334286Y-81835952D01*
X134334286Y-81835952D02*
X134524762Y-81835952D01*
X134524762Y-81835952D02*
X134620000Y-81883571D01*
X134620000Y-81883571D02*
X134667619Y-81978809D01*
X134667619Y-81978809D02*
X134667619Y-82074047D01*
X134667619Y-82074047D02*
X134191429Y-82169285D01*
X135096191Y-81835952D02*
X135096191Y-82502619D01*
X135096191Y-81931190D02*
X135143810Y-81883571D01*
X135143810Y-81883571D02*
X135239048Y-81835952D01*
X135239048Y-81835952D02*
X135381905Y-81835952D01*
X135381905Y-81835952D02*
X135477143Y-81883571D01*
X135477143Y-81883571D02*
X135524762Y-81978809D01*
X135524762Y-81978809D02*
X135524762Y-82502619D01*
X136000953Y-81835952D02*
X136000953Y-82502619D01*
X136000953Y-81931190D02*
X136048572Y-81883571D01*
X136048572Y-81883571D02*
X136143810Y-81835952D01*
X136143810Y-81835952D02*
X136286667Y-81835952D01*
X136286667Y-81835952D02*
X136381905Y-81883571D01*
X136381905Y-81883571D02*
X136429524Y-81978809D01*
X136429524Y-81978809D02*
X136429524Y-82502619D01*
X137334286Y-82502619D02*
X137334286Y-81978809D01*
X137334286Y-81978809D02*
X137286667Y-81883571D01*
X137286667Y-81883571D02*
X137191429Y-81835952D01*
X137191429Y-81835952D02*
X137000953Y-81835952D01*
X137000953Y-81835952D02*
X136905715Y-81883571D01*
X137334286Y-82455000D02*
X137239048Y-82502619D01*
X137239048Y-82502619D02*
X137000953Y-82502619D01*
X137000953Y-82502619D02*
X136905715Y-82455000D01*
X136905715Y-82455000D02*
X136858096Y-82359761D01*
X136858096Y-82359761D02*
X136858096Y-82264523D01*
X136858096Y-82264523D02*
X136905715Y-82169285D01*
X136905715Y-82169285D02*
X137000953Y-82121666D01*
X137000953Y-82121666D02*
X137239048Y-82121666D01*
X137239048Y-82121666D02*
X137334286Y-82074047D01*
X128548571Y-88502619D02*
X128548571Y-87502619D01*
X129119999Y-88502619D02*
X128691428Y-87931190D01*
X129119999Y-87502619D02*
X128548571Y-88074047D01*
X129548571Y-87978809D02*
X129881904Y-87978809D01*
X130024761Y-88502619D02*
X129548571Y-88502619D01*
X129548571Y-88502619D02*
X129548571Y-87502619D01*
X129548571Y-87502619D02*
X130024761Y-87502619D01*
X130453333Y-87978809D02*
X130786666Y-87978809D01*
X130929523Y-88502619D02*
X130453333Y-88502619D01*
X130453333Y-88502619D02*
X130453333Y-87502619D01*
X130453333Y-87502619D02*
X130929523Y-87502619D01*
X131358095Y-88502619D02*
X131358095Y-87502619D01*
X131358095Y-87502619D02*
X131739047Y-87502619D01*
X131739047Y-87502619D02*
X131834285Y-87550238D01*
X131834285Y-87550238D02*
X131881904Y-87597857D01*
X131881904Y-87597857D02*
X131929523Y-87693095D01*
X131929523Y-87693095D02*
X131929523Y-87835952D01*
X131929523Y-87835952D02*
X131881904Y-87931190D01*
X131881904Y-87931190D02*
X131834285Y-87978809D01*
X131834285Y-87978809D02*
X131739047Y-88026428D01*
X131739047Y-88026428D02*
X131358095Y-88026428D01*
X132358095Y-88121666D02*
X133120000Y-88121666D01*
X133786666Y-87502619D02*
X133977142Y-87502619D01*
X133977142Y-87502619D02*
X134072380Y-87550238D01*
X134072380Y-87550238D02*
X134167618Y-87645476D01*
X134167618Y-87645476D02*
X134215237Y-87835952D01*
X134215237Y-87835952D02*
X134215237Y-88169285D01*
X134215237Y-88169285D02*
X134167618Y-88359761D01*
X134167618Y-88359761D02*
X134072380Y-88455000D01*
X134072380Y-88455000D02*
X133977142Y-88502619D01*
X133977142Y-88502619D02*
X133786666Y-88502619D01*
X133786666Y-88502619D02*
X133691428Y-88455000D01*
X133691428Y-88455000D02*
X133596190Y-88359761D01*
X133596190Y-88359761D02*
X133548571Y-88169285D01*
X133548571Y-88169285D02*
X133548571Y-87835952D01*
X133548571Y-87835952D02*
X133596190Y-87645476D01*
X133596190Y-87645476D02*
X133691428Y-87550238D01*
X133691428Y-87550238D02*
X133786666Y-87502619D01*
X134643809Y-87502619D02*
X134643809Y-88312142D01*
X134643809Y-88312142D02*
X134691428Y-88407380D01*
X134691428Y-88407380D02*
X134739047Y-88455000D01*
X134739047Y-88455000D02*
X134834285Y-88502619D01*
X134834285Y-88502619D02*
X135024761Y-88502619D01*
X135024761Y-88502619D02*
X135119999Y-88455000D01*
X135119999Y-88455000D02*
X135167618Y-88407380D01*
X135167618Y-88407380D02*
X135215237Y-88312142D01*
X135215237Y-88312142D02*
X135215237Y-87502619D01*
X135548571Y-87502619D02*
X136119999Y-87502619D01*
X135834285Y-88502619D02*
X135834285Y-87502619D01*
X137120000Y-87502619D02*
X137786666Y-87502619D01*
X137786666Y-87502619D02*
X137120000Y-88502619D01*
X137120000Y-88502619D02*
X137786666Y-88502619D01*
X138358095Y-87502619D02*
X138548571Y-87502619D01*
X138548571Y-87502619D02*
X138643809Y-87550238D01*
X138643809Y-87550238D02*
X138739047Y-87645476D01*
X138739047Y-87645476D02*
X138786666Y-87835952D01*
X138786666Y-87835952D02*
X138786666Y-88169285D01*
X138786666Y-88169285D02*
X138739047Y-88359761D01*
X138739047Y-88359761D02*
X138643809Y-88455000D01*
X138643809Y-88455000D02*
X138548571Y-88502619D01*
X138548571Y-88502619D02*
X138358095Y-88502619D01*
X138358095Y-88502619D02*
X138262857Y-88455000D01*
X138262857Y-88455000D02*
X138167619Y-88359761D01*
X138167619Y-88359761D02*
X138120000Y-88169285D01*
X138120000Y-88169285D02*
X138120000Y-87835952D01*
X138120000Y-87835952D02*
X138167619Y-87645476D01*
X138167619Y-87645476D02*
X138262857Y-87550238D01*
X138262857Y-87550238D02*
X138358095Y-87502619D01*
X139215238Y-88502619D02*
X139215238Y-87502619D01*
X139215238Y-87502619D02*
X139786666Y-88502619D01*
X139786666Y-88502619D02*
X139786666Y-87502619D01*
X140262857Y-87978809D02*
X140596190Y-87978809D01*
X140739047Y-88502619D02*
X140262857Y-88502619D01*
X140262857Y-88502619D02*
X140262857Y-87502619D01*
X140262857Y-87502619D02*
X140739047Y-87502619D01*
D10*
X126546109Y-88685895D02*
X126546109Y-88923990D01*
X126546109Y-88923990D02*
X126784204Y-88947799D01*
X126784204Y-88947799D02*
X126760395Y-88923990D01*
X126760395Y-88923990D02*
X126736585Y-88876371D01*
X126736585Y-88876371D02*
X126736585Y-88757323D01*
X126736585Y-88757323D02*
X126760395Y-88709704D01*
X126760395Y-88709704D02*
X126784204Y-88685895D01*
X126784204Y-88685895D02*
X126831823Y-88662085D01*
X126831823Y-88662085D02*
X126950871Y-88662085D01*
X126950871Y-88662085D02*
X126998490Y-88685895D01*
X126998490Y-88685895D02*
X127022300Y-88709704D01*
X127022300Y-88709704D02*
X127046109Y-88757323D01*
X127046109Y-88757323D02*
X127046109Y-88876371D01*
X127046109Y-88876371D02*
X127022300Y-88923990D01*
X127022300Y-88923990D02*
X126998490Y-88947799D01*
X127046109Y-88066848D02*
X126712776Y-88066848D01*
X126760395Y-88066848D02*
X126736585Y-88043038D01*
X126736585Y-88043038D02*
X126712776Y-87995419D01*
X126712776Y-87995419D02*
X126712776Y-87923991D01*
X126712776Y-87923991D02*
X126736585Y-87876372D01*
X126736585Y-87876372D02*
X126784204Y-87852562D01*
X126784204Y-87852562D02*
X127046109Y-87852562D01*
X126784204Y-87852562D02*
X126736585Y-87828753D01*
X126736585Y-87828753D02*
X126712776Y-87781134D01*
X126712776Y-87781134D02*
X126712776Y-87709705D01*
X126712776Y-87709705D02*
X126736585Y-87662086D01*
X126736585Y-87662086D02*
X126784204Y-87638276D01*
X126784204Y-87638276D02*
X127046109Y-87638276D01*
X127046109Y-87400181D02*
X126712776Y-87400181D01*
X126760395Y-87400181D02*
X126736585Y-87376371D01*
X126736585Y-87376371D02*
X126712776Y-87328752D01*
X126712776Y-87328752D02*
X126712776Y-87257324D01*
X126712776Y-87257324D02*
X126736585Y-87209705D01*
X126736585Y-87209705D02*
X126784204Y-87185895D01*
X126784204Y-87185895D02*
X127046109Y-87185895D01*
X126784204Y-87185895D02*
X126736585Y-87162086D01*
X126736585Y-87162086D02*
X126712776Y-87114467D01*
X126712776Y-87114467D02*
X126712776Y-87043038D01*
X126712776Y-87043038D02*
X126736585Y-86995419D01*
X126736585Y-86995419D02*
X126784204Y-86971609D01*
X126784204Y-86971609D02*
X127046109Y-86971609D01*
D12*
X132823104Y-62284407D02*
X132823104Y-61884407D01*
X133051675Y-62284407D02*
X132880246Y-62055836D01*
X133051675Y-61884407D02*
X132823104Y-62112979D01*
X133223104Y-62074883D02*
X133356437Y-62074883D01*
X133413580Y-62284407D02*
X133223104Y-62284407D01*
X133223104Y-62284407D02*
X133223104Y-61884407D01*
X133223104Y-61884407D02*
X133413580Y-61884407D01*
X133585009Y-62074883D02*
X133718342Y-62074883D01*
X133775485Y-62284407D02*
X133585009Y-62284407D01*
X133585009Y-62284407D02*
X133585009Y-61884407D01*
X133585009Y-61884407D02*
X133775485Y-61884407D01*
X133946914Y-62284407D02*
X133946914Y-61884407D01*
X133946914Y-61884407D02*
X134099295Y-61884407D01*
X134099295Y-61884407D02*
X134137390Y-61903455D01*
X134137390Y-61903455D02*
X134156437Y-61922502D01*
X134156437Y-61922502D02*
X134175485Y-61960598D01*
X134175485Y-61960598D02*
X134175485Y-62017740D01*
X134175485Y-62017740D02*
X134156437Y-62055836D01*
X134156437Y-62055836D02*
X134137390Y-62074883D01*
X134137390Y-62074883D02*
X134099295Y-62093931D01*
X134099295Y-62093931D02*
X133946914Y-62093931D01*
X134423104Y-61884407D02*
X134499295Y-61884407D01*
X134499295Y-61884407D02*
X134537390Y-61903455D01*
X134537390Y-61903455D02*
X134575485Y-61941550D01*
X134575485Y-61941550D02*
X134594533Y-62017740D01*
X134594533Y-62017740D02*
X134594533Y-62151074D01*
X134594533Y-62151074D02*
X134575485Y-62227264D01*
X134575485Y-62227264D02*
X134537390Y-62265360D01*
X134537390Y-62265360D02*
X134499295Y-62284407D01*
X134499295Y-62284407D02*
X134423104Y-62284407D01*
X134423104Y-62284407D02*
X134385009Y-62265360D01*
X134385009Y-62265360D02*
X134346914Y-62227264D01*
X134346914Y-62227264D02*
X134327866Y-62151074D01*
X134327866Y-62151074D02*
X134327866Y-62017740D01*
X134327866Y-62017740D02*
X134346914Y-61941550D01*
X134346914Y-61941550D02*
X134385009Y-61903455D01*
X134385009Y-61903455D02*
X134423104Y-61884407D01*
X134765962Y-61884407D02*
X134765962Y-62208217D01*
X134765962Y-62208217D02*
X134785009Y-62246312D01*
X134785009Y-62246312D02*
X134804057Y-62265360D01*
X134804057Y-62265360D02*
X134842152Y-62284407D01*
X134842152Y-62284407D02*
X134918343Y-62284407D01*
X134918343Y-62284407D02*
X134956438Y-62265360D01*
X134956438Y-62265360D02*
X134975485Y-62246312D01*
X134975485Y-62246312D02*
X134994533Y-62208217D01*
X134994533Y-62208217D02*
X134994533Y-61884407D01*
X135127867Y-61884407D02*
X135356438Y-61884407D01*
X135242152Y-62284407D02*
X135242152Y-61884407D01*
D13*
%TO.C,U5*%
X152729400Y-138562000D02*
G75*
G02*
X152529400Y-138562000I-100000J0D01*
G01*
X152529400Y-138562000D02*
G75*
G02*
X152729400Y-138562000I100000J0D01*
G01*
D10*
%TO.C,U1*%
X148420000Y-82747800D02*
X148220000Y-82947800D01*
X148420000Y-82747800D02*
X148220000Y-82547800D01*
X148420000Y-82747800D02*
X143820000Y-82747800D01*
X143820000Y-82747800D02*
X144020000Y-82947800D01*
X143820000Y-82747800D02*
X144020000Y-82547800D01*
X126320000Y-89947800D02*
X126520000Y-89747800D01*
X126320000Y-89947800D02*
X126120000Y-89747800D01*
X126320000Y-85347800D02*
X126520000Y-85547800D01*
X126320000Y-85347800D02*
X126320000Y-89947800D01*
X126320000Y-85347800D02*
X126120000Y-85547800D01*
X125420000Y-82747800D02*
X125220000Y-82947800D01*
X125420000Y-82747800D02*
X125220000Y-82547800D01*
X125420000Y-82747800D02*
X120820000Y-82747800D01*
X120820000Y-82747800D02*
X121020000Y-82947800D01*
X120820000Y-82747800D02*
X121020000Y-82547800D01*
D11*
%TO.C,H1*%
X127820000Y-93980000D02*
G75*
G02*
X121420000Y-93980000I-3200000J0D01*
G01*
X121420000Y-93980000D02*
G75*
G02*
X127820000Y-93980000I3200000J0D01*
G01*
D13*
%TO.C,U4*%
X164388000Y-131922900D02*
G75*
G02*
X164188000Y-131922900I-100000J0D01*
G01*
X164188000Y-131922900D02*
G75*
G02*
X164388000Y-131922900I100000J0D01*
G01*
%TO.C,U2*%
X175867800Y-118480400D02*
G75*
G02*
X175667800Y-118480400I-100000J0D01*
G01*
X175667800Y-118480400D02*
G75*
G02*
X175867800Y-118480400I100000J0D01*
G01*
D14*
%TO.C,J2*%
X177940948Y-34556974D02*
G75*
G02*
X177700940Y-34556974I-120004J0D01*
G01*
X177700940Y-34556974D02*
G75*
G02*
X177940948Y-34556974I120004J0D01*
G01*
X173118420Y-31334666D02*
G75*
G02*
X172878416Y-31334666I-120002J0D01*
G01*
X172878416Y-31334666D02*
G75*
G02*
X173118420Y-31334666I120002J0D01*
G01*
D11*
%TO.C,H2*%
X147820000Y-93980000D02*
G75*
G02*
X141420000Y-93980000I-3200000J0D01*
G01*
X141420000Y-93980000D02*
G75*
G02*
X147820000Y-93980000I3200000J0D01*
G01*
D13*
%TO.C,U6*%
X137997400Y-140086000D02*
G75*
G02*
X137797400Y-140086000I-100000J0D01*
G01*
X137797400Y-140086000D02*
G75*
G02*
X137997400Y-140086000I100000J0D01*
G01*
%TO.C,U3*%
X145731900Y-47641600D02*
G75*
G02*
X145531900Y-47641600I-100000J0D01*
G01*
X145531900Y-47641600D02*
G75*
G02*
X145731900Y-47641600I100000J0D01*
G01*
%TD*%
M02*
